<svg width="19" height="17" viewBox="0 0 19 17" fill="none" xmlns="http://www.w3.org/2000/svg">
<rect x="0.5" y="0.5" width="18" height="16" rx="3.5" stroke="black" stroke-opacity="0.3"/>
<path d="M12.6849 7H6.3151C5.85534 7 5.63929 7.56826 5.98292 7.8737L9.16782 10.7047C9.35726 10.8731 9.64274 10.8731 9.83218 10.7047L13.0171 7.8737C13.3607 7.56826 13.1447 7 12.6849 7Z" fill="black" fill-opacity="0.2"/>
<path fill-rule="evenodd" clip-rule="evenodd" d="M1 4C1 2.34315 2.34315 1 4 1H15C16.6569 1 18 2.34315 18 4V13C18 14.6569 16.6569 16 15 16H4C2.34315 16 1 14.6569 1 13V4ZM6.3151 7H12.6849C13.1447 7 13.3607 7.56826 13.0171 7.8737L9.83218 10.7047C9.64274 10.8731 9.35726 10.8731 9.16782 10.7047L5.98292 7.8737C5.63929 7.56826 5.85534 7 6.3151 7Z" fill="url(#paint0_linear_473_390)"/>
<defs>
<linearGradient id="paint0_linear_473_390" x1="9.5" y1="1.5" x2="9.5" y2="15.5" gradientUnits="userSpaceOnUse">
<stop stop-color="white"/>
<stop offset="1" stop-color="white" stop-opacity="0.4"/>
</linearGradient>
</defs>
</svg>
