<svg width="16" height="16" viewBox="0 0 16 16" fill="none" xmlns="http://www.w3.org/2000/svg">
<rect x="0.5" y="0.5" width="15" height="15" rx="2.5" stroke="url(#paint0_linear_473_267)"/>
<mask id="mask0_473_267" style="mask-type:alpha" maskUnits="userSpaceOnUse" x="1" y="1" width="14" height="14">
<rect x="1" y="1" width="14" height="14" rx="2" fill="white"/>
</mask>
<g mask="url(#mask0_473_267)">
<rect width="14" height="14" fill="black" fill-opacity="0.4"/>
<path d="M15 1H14V14H1V15H15V1Z" fill="#383838" fill-opacity="0.46"/>
</g>
<mask id="mask1_473_267" style="mask-type:alpha" maskUnits="userSpaceOnUse" x="3" y="3" width="10" height="10">
<rect x="3" y="3" width="10" height="10" fill="#D9D9D9"/>
</mask>
<g mask="url(#mask1_473_267)">
<path d="M3 6L4 5.5L5.5 4L6 3H7V4.5L9.5 7H12V8L10.0746 9.15524L13.4596 12.5403L12.5404 13.4595L9.15533 10.0744L8 12H7V9.5L4.5 7H3V6Z" fill="white"/>
</g>
<defs>
<linearGradient id="paint0_linear_473_267" x1="0" y1="0" x2="16" y2="16" gradientUnits="userSpaceOnUse">
<stop stop-opacity="0.83"/>
<stop offset="0.5" stop-opacity="0.83"/>
<stop offset="0.5" stop-opacity="0.72"/>
<stop offset="1" stop-opacity="0.72"/>
</linearGradient>
</defs>
</svg>
