<svg width="19" height="17" viewBox="0 0 19 17" fill="none" xmlns="http://www.w3.org/2000/svg">
<rect x="0.5" y="0.5" width="18" height="16" rx="3.5" stroke="black" stroke-opacity="0.6"/>
<path fill-rule="evenodd" clip-rule="evenodd" d="M4 1C2.34315 1 1 2.34315 1 4V13C1 14.6569 2.34315 16 4 16H15C16.6569 16 18 14.6569 18 13V4C18 2.34315 16.6569 1 15 1H4Z" fill="url(#paint0_linear_473_406)"/>
<path d="M12.6849 7H6.3151C5.85534 7 5.63929 7.56826 5.98292 7.8737L9.16782 10.7047C9.35726 10.8731 9.64274 10.8731 9.83218 10.7047L13.0171 7.8737C13.3607 7.56826 13.1447 7 12.6849 7Z" fill="white"/>
<defs>
<linearGradient id="paint0_linear_473_406" x1="9.5" y1="1.5" x2="9.5" y2="15.5" gradientUnits="userSpaceOnUse">
<stop stop-opacity="0.72"/>
<stop offset="1" stop-opacity="0.54"/>
</linearGradient>
</defs>
</svg>
