<svg width="19" height="17" viewBox="0 0 19 17" fill="none" xmlns="http://www.w3.org/2000/svg">
<rect x="0.5" y="0.5" width="18" height="16" rx="3.5" stroke="black" stroke-opacity="0.79"/>
<path fill-rule="evenodd" clip-rule="evenodd" d="M4 1C2.34315 1 1 2.34315 1 4V13C1 14.6569 2.34315 16 4 16H15C16.6569 16 18 14.6569 18 13V4C18 2.34315 16.6569 1 15 1H4Z" fill="black" fill-opacity="0.54"/>
<path fill-rule="evenodd" clip-rule="evenodd" d="M7 5H4V8H7V5ZM7 9H4V12H7V9ZM8 5H11V8H8V5ZM11 9H8V12H11V9ZM12 5H15V8H12V5ZM15 9H12V12H15V9Z" fill="white"/>
</svg>
