<svg width="19" height="17" viewBox="0 0 19 17" fill="none" xmlns="http://www.w3.org/2000/svg">
<rect x="0.5" y="0.5" width="18" height="16" rx="3.5" stroke="black" stroke-opacity="0.6"/>
<path fill-rule="evenodd" clip-rule="evenodd" d="M1 4C1 2.34315 2.34315 1 4 1H15C16.6569 1 18 2.34315 18 4V13C18 14.6569 16.6569 16 15 16H4C2.34315 16 1 14.6569 1 13V4ZM4 5H7V8H4V5ZM4 9H7V12H4V9ZM11 5H8V8H11V5ZM8 9H11V12H8V9ZM15 5H12V8H15V5ZM12 9H15V12H12V9Z" fill="url(#paint0_linear_473_446)"/>
<path fill-rule="evenodd" clip-rule="evenodd" d="M7 5H4V8H7V5ZM7 9H4V12H7V9ZM8 5H11V8H8V5ZM11 9H8V12H11V9ZM12 5H15V8H12V5ZM15 9H12V12H15V9Z" fill="black" fill-opacity="0.2"/>
<defs>
<linearGradient id="paint0_linear_473_446" x1="9.5" y1="1.5" x2="9.5" y2="15.5" gradientUnits="userSpaceOnUse">
<stop stop-color="white"/>
<stop offset="1" stop-color="white" stop-opacity="0.4"/>
</linearGradient>
</defs>
</svg>
