<svg width="19" height="17" viewBox="0 0 19 17" fill="none" xmlns="http://www.w3.org/2000/svg">
<rect x="0.5" y="0.5" width="18" height="16" rx="3.5" stroke="black" stroke-opacity="0.6"/>
<path fill-rule="evenodd" clip-rule="evenodd" d="M4 1C2.34315 1 1 2.34315 1 4V13C1 14.6569 2.34315 16 4 16H15C16.6569 16 18 14.6569 18 13V4C18 2.34315 16.6569 1 15 1H4ZM15 5H4V6H15V5ZM4 8H15V9H4V8ZM15 11H4V12H15V11Z" fill="url(#paint0_linear_473_318)"/>
<rect x="4" y="5" width="11" height="1" fill="#5F5F5F" fill-opacity="0.63"/>
<rect x="4" y="8" width="11" height="1" fill="#5F5F5F" fill-opacity="0.63"/>
<rect x="4" y="11" width="11" height="1" fill="#5F5F5F" fill-opacity="0.63"/>
<defs>
<linearGradient id="paint0_linear_473_318" x1="9.5" y1="1.5" x2="9.5" y2="15.5" gradientUnits="userSpaceOnUse">
<stop stop-color="white"/>
<stop offset="1" stop-color="white" stop-opacity="0.4"/>
</linearGradient>
</defs>
</svg>
