<svg width="34" height="18" viewBox="0 0 34 18" fill="none" xmlns="http://www.w3.org/2000/svg">
<mask id="mask0_452_172" style="mask-type:alpha" maskUnits="userSpaceOnUse" x="0" y="0" width="34" height="18">
<rect width="34" height="18" fill="white"/>
</mask>
<g mask="url(#mask0_452_172)">
<path d="M29.693 5.5C29.693 5.5 27.877 2 25.0234 2H3.2316C3.2316 2 1.41562 2 2.1939 4C2.97217 6 5.82586 14 5.82586 14C5.82586 14 7.38232 16.5 9.97667 16.5H31.7684C31.7684 16.5 33.5843 16.5 32.8061 14.5C32.0279 12.5 29.693 5.5 29.693 5.5Z" stroke="url(#paint0_linear_452_172)"/>
<path d="M28.3854 3.68404C27.5653 2.86057 26.3195 1.9679 24.7499 1.9679C17.7483 1.9679 10.7461 1.92475 3.74456 1.96792C3.02401 1.98429 2.27686 2.3618 2.10272 3.11119C2.01246 3.49965 2.07664 3.94712 2.28863 4.45394C3.53132 7.42497 4.64941 10.4515 5.80314 13.4579C6.78334 14.9016 8.48248 15.9679 10.2499 15.9679C17.2514 15.9679 24.2538 16.0123 31.2552 15.9679C31.9758 15.9515 32.7229 15.574 32.897 14.8246C32.9873 14.4362 32.9231 13.9887 32.7112 13.4819C32.3416 12.5981 31.5959 10.593 30.9382 8.79605C30.2796 6.99646 29.776 5.08034 28.3854 3.68404Z" fill="white"/>
</g>
<defs>
<linearGradient id="paint0_linear_452_172" x1="17.5" y1="1.75833" x2="17.5" y2="16.7417" gradientUnits="userSpaceOnUse">
<stop stop-opacity="0.25"/>
<stop offset="1" stop-opacity="0.28"/>
</linearGradient>
</defs>
</svg>
