<svg width="34" height="18" viewBox="0 0 34 18" fill="none" xmlns="http://www.w3.org/2000/svg">
<mask id="mask0_452_195" style="mask-type:alpha" maskUnits="userSpaceOnUse" x="0" y="0" width="34" height="18">
<rect width="34" height="18" fill="white"/>
</mask>
<g mask="url(#mask0_452_195)">
<path d="M29.693 5.5C29.693 5.5 27.877 2 25.0234 2H3.2316C3.2316 2 1.41562 2 2.1939 4C2.97217 6 5.82586 14 5.82586 14C5.82586 14 7.38232 16.5 9.97667 16.5H31.7684C31.7684 16.5 33.5843 16.5 32.8061 14.5C32.0279 12.5 29.693 5.5 29.693 5.5Z" fill="black" fill-opacity="0.12" stroke="url(#paint0_linear_452_195)"/>
<path d="M29.2503 5.74197C29.2503 5.74197 27.5002 2.46777 24.7503 2.46777H3.75033C3.75033 2.46777 2.00033 2.46777 2.75033 4.33874C3.50033 6.20971 6.25033 13.6936 6.25033 13.6936C6.25033 13.6936 7.75024 16.0323 10.2503 16.0323H31.2503C31.2503 16.0323 33.0002 16.0323 32.2503 14.1613C31.5004 12.2904 29.2503 5.74197 29.2503 5.74197Z" fill="black" fill-opacity="0.12" stroke="url(#paint1_linear_452_195)"/>
</g>
<defs>
<linearGradient id="paint0_linear_452_195" x1="17.5" y1="1.75833" x2="17.5" y2="16.7417" gradientUnits="userSpaceOnUse">
<stop stop-color="white" stop-opacity="0"/>
<stop offset="1" stop-color="#F6F6F6" stop-opacity="0.23"/>
</linearGradient>
<linearGradient id="paint1_linear_452_195" x1="17.5003" y1="2.46777" x2="17.5003" y2="16.0323" gradientUnits="userSpaceOnUse">
<stop stop-opacity="0.3"/>
<stop offset="1" stop-opacity="0.23"/>
</linearGradient>
</defs>
</svg>
