<svg width="13" height="13" viewBox="0 0 13 13" fill="none" xmlns="http://www.w3.org/2000/svg">
	<path
		d="M0 1.5C0 2.32843 0.671573 3 1.5 3H11.5C12.3284 3 13 2.32843 13 1.5C13 0.671573 12.3284 0 11.5 0H1.5C0.671573 0 0 0.671573 0 1.5Z"
		fill="context-fill" />
	<path
		d="M0 1.5C0 2.32843 0.671573 3 1.5 3H11.5C12.3284 3 13 2.32843 13 1.5C13 0.671573 12.3284 0 11.5 0H1.5C0.671573 0 0 0.671573 0 1.5Z"
		fill="url(#paint0_linear_326_8)" />
	<path
		d="M0 6.5C0 7.32843 0.671573 8 1.5 8H11.5C12.3284 8 13 7.32843 13 6.5C13 5.67157 12.3284 5 11.5 5H1.5C0.671573 5 0 5.67157 0 6.5Z"
		fill="context-fill" />
	<path
		d="M0 6.5C0 7.32843 0.671573 8 1.5 8H11.5C12.3284 8 13 7.32843 13 6.5C13 5.67157 12.3284 5 11.5 5H1.5C0.671573 5 0 5.67157 0 6.5Z"
		fill="url(#paint1_linear_326_8)" />
	<path
		d="M1.5 13C0.671573 13 0 12.3284 0 11.5C0 10.6716 0.671573 10 1.5 10H11.5C12.3284 10 13 10.6716 13 11.5C13 12.3284 12.3284 13 11.5 13H1.5Z"
		fill="context-fill" />
	<path
		d="M1.5 13C0.671573 13 0 12.3284 0 11.5C0 10.6716 0.671573 10 1.5 10H11.5C12.3284 10 13 10.6716 13 11.5C13 12.3284 12.3284 13 11.5 13H1.5Z"
		fill="url(#paint2_linear_326_8)" />
	<g filter="url(#filter0_i_326_8)">
		<path
			d="M0 1.5C0 2.32843 0.671573 3 1.5 3H11.5C12.3284 3 13 2.32843 13 1.5C13 0.671573 12.3284 0 11.5 0H1.5C0.671573 0 0 0.671573 0 1.5Z"
			fill="white" fill-opacity="0.01" />
		<path
			d="M0 6.5C0 7.32843 0.671573 8 1.5 8H11.5C12.3284 8 13 7.32843 13 6.5C13 5.67157 12.3284 5 11.5 5H1.5C0.671573 5 0 5.67157 0 6.5Z"
			fill="white" fill-opacity="0.01" />
		<path
			d="M1.5 13C0.671573 13 0 12.3284 0 11.5C0 10.6716 0.671573 10 1.5 10H11.5C12.3284 10 13 10.6716 13 11.5C13 12.3284 12.3284 13 11.5 13H1.5Z"
			fill="white" fill-opacity="0.01" />
	</g>
	<defs>
		<filter id="filter0_i_326_8" x="0" y="0" width="13" height="14" filterUnits="userSpaceOnUse"
			color-interpolation-filters="sRGB">
			<feFlood flood-opacity="0" result="BackgroundImageFix" />
			<feBlend mode="normal" in="SourceGraphic" in2="BackgroundImageFix" result="shape" />
			<feColorMatrix in="SourceAlpha" type="matrix"
				values="0 0 0 0 0 0 0 0 0 0 0 0 0 0 0 0 0 0 127 0" result="hardAlpha" />
			<feOffset dy="1" />
			<feGaussianBlur stdDeviation="1" />
			<feComposite in2="hardAlpha" operator="arithmetic" k2="-1" k3="1" />
			<feColorMatrix type="matrix" values="0 0 0 0 0 0 0 0 0 0 0 0 0 0 0 0 0 0 0.65 0" />
			<feBlend mode="normal" in2="shape" result="effect1_innerShadow_326_8" />
		</filter>
		<linearGradient id="paint0_linear_326_8" x1="6.49535" y1="0.503876" x2="6.49536"
			y2="12.5969" gradientUnits="userSpaceOnUse">
			<stop stop-opacity="0" />
			<stop offset="0.5" stop-opacity="0" />
			<stop offset="1" stop-opacity="0.12" />
		</linearGradient>
		<linearGradient id="paint1_linear_326_8" x1="6.49535" y1="0.503876" x2="6.49536"
			y2="12.5969" gradientUnits="userSpaceOnUse">
			<stop stop-opacity="0" />
			<stop offset="0.5" stop-opacity="0" />
			<stop offset="1" stop-opacity="0.12" />
		</linearGradient>
		<linearGradient id="paint2_linear_326_8" x1="6.49535" y1="0.503876" x2="6.49536"
			y2="12.5969" gradientUnits="userSpaceOnUse">
			<stop stop-opacity="0" />
			<stop offset="0.5" stop-opacity="0" />
			<stop offset="1" stop-opacity="0.12" />
		</linearGradient>
	</defs>
</svg>