<svg fill="none" version="1.1" viewBox="0 0 18 16" xmlns="http://www.w3.org/2000/svg">
    <path d="m10.5 4.5023615c0 0.27614 0.22386 0.5 0.5 0.5 0.2761 0 0.5-0.22386 0.5-0.5v-2.50475h1v5.00475h-7v-5.00475h3v1.5c0 0.27615 0.22386 0.5 0.5 0.5s0.5-0.22385 0.5-0.5v-1.5h1zm0-3.504747h-6v8.499997c0 0.5522795 0.44772 0.9999805 1 0.9999805h1.49072v3.5048c0 0.552299 0.44772 1 1 1h2c0.55229 0 1-0.447701 1-1v-3.5048h1.50928c0.5523 0 1-0.447701 1-0.9999805v-8.499997h-2v-6e-6h-1zm2 7.004747v1.49525h-2.50928v4.5047805h-2v-4.5047805h-2.49072v-1.49525z" clip-rule="evenodd" fill="#fff" fill-rule="evenodd"/>
</svg>
