<svg width="512" height="512" viewBox="0 0 512 512" fill="none" xmlns="http://www.w3.org/2000/svg">
<mask id="mask0_289_157" style="mask-type:alpha" maskUnits="userSpaceOnUse" x="0" y="0" width="512" height="512">
<rect width="512" height="512" fill="#D9D9D9"/>
</mask>
<g mask="url(#mask0_289_157)">
<path d="M407.381 141.339C328.25 141.663 313.425 202.067 313.877 242.597C314.142 266.404 346.614 302.582 370.81 299.824C389.145 299.426 402.301 291.371 403.562 275.162C404.385 265.187 402.331 259.844 401.123 257.406C400.99 257.018 400.838 256.636 400.67 256.261C398.249 250.889 392.839 248.124 388.588 250.085C384.869 251.802 383.198 256.632 384.615 261.562L384.539 261.589C386.223 275.748 387.216 289.038 370.437 287.23C310.294 261.76 317.054 177.538 403.601 186.704C434.394 194.394 451.357 216.249 457.141 244.505C467.928 309.151 432.561 375.779 398.379 411.55C463.196 399.414 509.005 336.138 511.662 265.011C513.766 208.691 489.945 146.607 407.381 141.339Z" fill="context-fill"/>
<path d="M407.381 141.339C328.25 141.663 313.425 202.067 313.877 242.597C314.142 266.404 346.614 302.582 370.81 299.824C389.145 299.426 402.301 291.371 403.562 275.162C404.385 265.188 402.331 259.844 401.123 257.406C400.99 257.018 400.838 256.636 400.67 256.261C398.249 250.889 392.839 248.124 388.588 250.085C384.869 251.802 383.198 256.632 384.615 261.562L384.539 261.589C386.223 275.748 387.215 289.038 370.437 287.23C310.293 261.76 317.054 177.538 403.601 186.704C434.394 194.394 451.357 216.249 457.14 244.505C467.928 309.151 433.036 376.054 398.854 411.825C463.67 399.688 509.005 336.138 511.662 265.011C513.765 208.691 489.945 146.607 407.381 141.339Z" fill="url(#paint0_linear_289_157)"/>
<g filter="url(#filter0_f_289_157)">
<path d="M382.774 298.148C376.807 298.172 370.351 300.327 363.953 304.212C345.958 313.109 341.534 349.261 353.126 363.832C353.436 364.22 353.764 364.614 354.084 365.005H372.282C359.497 352.721 356.404 331.659 369.926 312.021C380.563 303.592 386.454 312.096 392.299 321.428L392.365 321.412C393.829 325.024 397.367 327.226 400.772 326.643C404.664 325.977 407.013 321.934 406.02 317.615C405.951 317.314 405.866 317.016 405.765 316.722C405.39 314.714 404.16 310.573 398.661 304.877C394.219 300.232 388.741 298.124 382.774 298.148Z" fill="url(#paint1_linear_289_157)"/>
</g>
<mask id="mask1_289_157" style="mask-type:luminance" maskUnits="userSpaceOnUse" x="313" y="141" width="199" height="271">
<path d="M407.381 141.339C328.25 141.664 313.425 202.067 313.877 242.597C314.142 266.404 346.614 302.582 370.81 299.824C389.145 299.426 402.301 291.371 403.562 275.162C404.385 265.188 402.331 259.844 401.123 257.406C400.99 257.018 400.838 256.636 400.67 256.261C398.249 250.889 392.839 248.124 388.588 250.085C384.869 251.802 383.198 256.632 384.615 261.562L384.539 261.589C386.223 275.748 387.216 289.039 370.437 287.23C310.294 261.761 317.054 177.538 403.601 186.705C434.394 194.394 451.357 216.249 457.141 244.505C467.928 309.151 433.036 376.054 398.854 411.825C463.67 399.689 509.005 336.139 511.662 265.011C513.766 208.691 489.945 146.607 407.381 141.339Z" fill="white"/>
</mask>
<g mask="url(#mask1_289_157)">
<g filter="url(#filter1_f_289_157)">
<path d="M436.887 342.117L398.854 411.825L421.433 409.73L436.887 342.117Z" fill="context-fill" fill-opacity="0.22"/>
</g>
</g>
<g filter="url(#filter2_f_289_157)">
<path d="M414.153 175.469C417 175.469 419.308 173.161 419.308 170.314C419.308 167.467 417 165.159 414.153 165.159C411.306 165.159 408.998 167.467 408.998 170.314C408.998 173.161 411.306 175.469 414.153 175.469Z" fill="#FFF766" fill-opacity="0.138922"/>
</g>
<mask id="mask2_289_157" style="mask-type:luminance" maskUnits="userSpaceOnUse" x="313" y="141" width="199" height="271">
<path d="M407.381 141.339C328.25 141.663 313.425 202.067 313.877 242.597C314.142 266.404 346.614 302.582 370.81 299.824C389.145 299.426 402.301 291.371 403.562 275.162C404.385 265.188 402.331 259.844 401.123 257.406C400.99 257.018 400.838 256.636 400.67 256.261C398.248 250.889 392.839 248.124 388.588 250.085C384.869 251.802 383.198 256.632 384.615 261.562L384.539 261.589C386.223 275.748 387.216 289.038 370.437 287.23C310.294 261.76 317.054 177.538 403.601 186.705C434.394 194.394 451.357 216.249 457.141 244.505C467.928 309.151 433.036 376.054 398.854 411.825C463.67 399.689 509.005 336.138 511.662 265.011C513.766 208.691 489.945 146.607 407.381 141.339Z" fill="white"/>
</mask>
<g mask="url(#mask2_289_157)">
<g filter="url(#filter3_f_289_157)">
<path d="M383.364 267.679C387.748 268.228 392.077 262.482 393.034 254.845C393.99 247.207 391.211 240.571 386.827 240.022C382.443 239.473 378.114 245.22 377.158 252.857C376.201 260.494 378.98 267.131 383.364 267.679Z" fill="#FFF366" fill-opacity="0.52"/>
</g>
</g>
<mask id="mask3_289_157" style="mask-type:luminance" maskUnits="userSpaceOnUse" x="313" y="141" width="199" height="271">
<path d="M407.381 141.339C328.25 141.664 313.425 202.067 313.877 242.597C314.142 266.404 346.614 302.582 370.81 299.824C389.145 299.426 402.301 291.371 403.562 275.162C404.385 265.188 402.331 259.844 401.123 257.406C400.99 257.018 400.838 256.636 400.67 256.261C398.249 250.889 392.839 248.124 388.588 250.085C384.869 251.802 383.198 256.632 384.615 261.562L384.539 261.589C386.223 275.748 387.216 289.039 370.437 287.23C310.294 261.761 317.054 177.538 403.601 186.705C434.394 194.394 451.357 216.249 457.141 244.505C467.928 309.151 433.036 376.054 398.854 411.825C463.67 399.689 509.005 336.139 511.662 265.011C513.766 208.691 489.945 146.607 407.381 141.339Z" fill="white"/>
</mask>
<g mask="url(#mask3_289_157)">
<g filter="url(#filter4_f_289_157)">
<path d="M306.847 246.76C304.541 169.42 467.303 86.1097 511.856 267.945L562.524 279.281L523.179 132.041L349.829 111.143L307.702 140.265L294.981 204.021L306.847 246.76Z" fill="#FFF866" fill-opacity="0.7"/>
</g>
</g>
<mask id="mask4_289_157" style="mask-type:luminance" maskUnits="userSpaceOnUse" x="313" y="141" width="199" height="271">
<path d="M407.381 141.339C328.25 141.664 313.425 202.067 313.877 242.597C314.142 266.404 346.614 302.582 370.81 299.824C389.145 299.426 402.301 291.371 403.562 275.162C404.385 265.188 402.331 259.844 401.123 257.406C400.99 257.018 400.838 256.636 400.67 256.261C398.249 250.889 392.839 248.124 388.588 250.085C384.869 251.802 383.198 256.632 384.615 261.562L384.539 261.589C386.223 275.748 387.216 289.039 370.437 287.23C310.294 261.761 317.054 177.538 403.601 186.705C434.394 194.394 451.357 216.249 457.141 244.505C467.928 309.151 433.036 376.054 398.854 411.825C463.67 399.689 509.005 336.139 511.662 265.011C513.766 208.691 489.945 146.607 407.381 141.339Z" fill="white"/>
</mask>
<g mask="url(#mask4_289_157)">
<g filter="url(#filter5_f_289_157)">
<path d="M392.527 183.261C390.538 183.227 388.506 183.265 386.429 183.382C355.5 185.12 329.536 200.475 333.279 226.966L352.326 240.322L402.697 201.828L444.91 266.64L433.758 297.423L451.226 309.671C463.343 304.066 467.258 253.558 454.562 226.744C442.369 200.989 422.359 183.774 392.527 183.261Z" fill="#295F7A" fill-opacity="0.4"/>
</g>
</g>
<mask id="mask5_289_157" style="mask-type:luminance" maskUnits="userSpaceOnUse" x="313" y="141" width="199" height="271">
<path d="M407.381 141.339C328.25 141.664 313.425 202.067 313.877 242.597C314.142 266.404 346.614 302.582 370.81 299.824C389.145 299.426 402.301 291.371 403.562 275.162C404.385 265.188 402.331 259.844 401.123 257.406C400.99 257.018 400.838 256.636 400.67 256.261C398.249 250.889 392.839 248.124 388.588 250.085C384.869 251.802 383.198 256.632 384.615 261.562L384.539 261.589C386.223 275.748 387.216 289.039 370.437 287.23C310.294 261.761 317.054 177.538 403.601 186.705C434.394 194.394 451.357 216.249 457.141 244.505C467.928 309.151 433.036 376.054 398.854 411.825C463.67 399.689 509.005 336.139 511.662 265.011C513.766 208.691 489.945 146.607 407.381 141.339Z" fill="white"/>
</mask>
<g mask="url(#mask5_289_157)">
<g filter="url(#filter6_f_289_157)">
<path d="M403.949 255.482L382.823 303.398L409.073 295.037L413.409 262.273L403.949 255.482Z" fill="#295F7A" fill-opacity="0.52"/>
</g>
</g>
<g filter="url(#filter7_f_289_157)">
<path d="M444.511 175.816C447.358 175.816 449.666 173.508 449.666 170.661C449.666 167.814 447.358 165.506 444.511 165.506C441.665 165.506 439.357 167.814 439.357 170.661C439.357 173.508 441.665 175.816 444.511 175.816Z" fill="#FFF766" fill-opacity="0.138922"/>
</g>
<g filter="url(#filter8_f_289_157)">
<path d="M433.177 194C436.024 194 438.332 191.692 438.332 188.845C438.332 185.998 436.024 183.69 433.177 183.69C430.33 183.69 428.023 185.998 428.023 188.845C428.023 191.692 430.33 194 433.177 194Z" fill="#FFF766" fill-opacity="0.138922"/>
</g>
<g filter="url(#filter9_f_289_157)">
<path d="M458.78 199.671C461.627 199.671 463.935 197.363 463.935 194.516C463.935 191.669 461.627 189.361 458.78 189.361C455.933 189.361 453.625 191.669 453.625 194.516C453.625 197.363 455.933 199.671 458.78 199.671Z" fill="#FFF766" fill-opacity="0.138922"/>
</g>
<g filter="url(#filter10_f_289_157)">
<path d="M448.654 210.572C451.501 210.572 453.809 208.265 453.809 205.418C453.809 202.571 451.501 200.263 448.654 200.263C445.807 200.263 443.499 202.571 443.499 205.418C443.499 208.265 445.807 210.572 448.654 210.572Z" fill="#FFF766" fill-opacity="0.138922"/>
</g>
<g filter="url(#filter11_f_289_157)">
<path d="M466.844 231.429C469.691 231.429 471.999 229.121 471.999 226.274C471.999 223.427 469.691 221.119 466.844 221.119C463.997 221.119 461.689 223.427 461.689 226.274C461.689 229.121 463.997 231.429 466.844 231.429Z" fill="#FFF766" fill-opacity="0.138922"/>
</g>
<g filter="url(#filter12_f_289_157)">
<path d="M477.49 342.612C480.337 342.612 482.645 340.304 482.645 337.457C482.645 334.611 480.337 332.303 477.49 332.303C474.643 332.303 472.335 334.611 472.335 337.457C472.335 340.304 474.643 342.612 477.49 342.612Z" fill="#FFF766" fill-opacity="0.138922"/>
</g>
<g filter="url(#filter13_f_289_157)">
<path d="M469.608 210.584C471.175 210.584 472.445 209.314 472.445 207.747C472.445 206.179 471.175 204.909 469.608 204.909C468.041 204.909 466.77 206.179 466.77 207.747C466.77 209.314 468.041 210.584 469.608 210.584Z" fill="#FFF766" fill-opacity="0.138922"/>
</g>
<g filter="url(#filter14_f_289_157)">
<path d="M485.52 237.115C487.087 237.115 488.357 235.844 488.357 234.277C488.357 232.71 487.087 231.44 485.52 231.44C483.953 231.44 482.682 232.71 482.682 234.277C482.682 235.844 483.953 237.115 485.52 237.115Z" fill="#FFF766" fill-opacity="0.138922"/>
</g>
<g filter="url(#filter15_f_289_157)">
<path d="M473.392 251.248C474.959 251.248 476.229 249.977 476.229 248.41C476.229 246.843 474.959 245.572 473.392 245.572C471.824 245.572 470.554 246.843 470.554 248.41C470.554 249.977 471.824 251.248 473.392 251.248Z" fill="#FFF766" fill-opacity="0.138922"/>
</g>
<g filter="url(#filter16_f_289_157)">
<path d="M476.231 287.41C477.798 287.41 479.068 286.14 479.068 284.572C479.068 283.005 477.798 281.735 476.231 281.735C474.663 281.735 473.393 283.005 473.393 284.572C473.393 286.14 474.663 287.41 476.231 287.41Z" fill="#FFF766" fill-opacity="0.138922"/>
</g>
<g filter="url(#filter17_f_289_157)">
<path d="M467.394 308.452C468.961 308.452 470.231 307.182 470.231 305.615C470.231 304.048 468.961 302.777 467.394 302.777C465.827 302.777 464.556 304.048 464.556 305.615C464.556 307.182 465.827 308.452 467.394 308.452Z" fill="#FFF766" fill-opacity="0.138922"/>
</g>
<g filter="url(#filter18_f_289_157)">
<path d="M453.53 344.514C455.097 344.514 456.367 343.244 456.367 341.677C456.367 340.11 455.097 338.839 453.53 338.839C451.962 338.839 450.692 340.11 450.692 341.677C450.692 343.244 451.962 344.514 453.53 344.514Z" fill="#FFF766" fill-opacity="0.138922"/>
</g>
<g filter="url(#filter19_f_289_157)">
<path d="M461.884 327.052C463.451 327.052 464.722 325.782 464.722 324.215C464.722 322.648 463.451 321.377 461.884 321.377C460.317 321.377 459.046 322.648 459.046 324.215C459.046 325.782 460.317 327.052 461.884 327.052Z" fill="#FFF766" fill-opacity="0.138922"/>
</g>
<g filter="url(#filter20_f_289_157)">
<path d="M479.927 314.967C481.494 314.967 482.764 313.697 482.764 312.129C482.764 310.562 481.494 309.292 479.927 309.292C478.359 309.292 477.089 310.562 477.089 312.129C477.089 313.697 478.359 314.967 479.927 314.967Z" fill="#FFF766" fill-opacity="0.138922"/>
</g>
<g filter="url(#filter21_f_289_157)">
<path d="M489.138 274.163C490.706 274.163 491.976 272.893 491.976 271.325C491.976 269.758 490.706 268.488 489.138 268.488C487.571 268.488 486.301 269.758 486.301 271.325C486.301 272.893 487.571 274.163 489.138 274.163Z" fill="#FFF766" fill-opacity="0.138922"/>
</g>
<g filter="url(#filter22_f_289_157)">
<path d="M194.224 271.917C186.193 271.643 177.574 275.432 173.429 282.31C173.572 282.726 173.718 283.14 173.867 283.554L173.289 282.556C171.784 285.146 170.903 288.159 170.92 291.554C168.544 326.187 178.58 347.045 159.033 375.23C113.429 399.742 93.9712 378.837 72.5641 361.318C81.2105 376.435 91.5671 390.466 103.379 403.14C121.451 408.034 139.96 406.029 158.517 399.376C197.023 396.526 213.493 412.882 232.754 413.545C263.714 410.493 249.55 382.852 235.423 384.052C229.482 382.86 223.939 385.114 218.437 387.708C200.352 386.432 192.152 384.491 222.347 375.689C230.632 374.973 237.687 374.232 241.812 374.939C248.847 376.145 249.992 378.164 259.156 378.761C272.695 377.803 276.616 366.916 277.621 359.533C279.576 345.173 265.133 330.457 252.277 334.802C240.88 340.341 232.294 350.324 223.154 359.431C192.679 370.418 195.068 353.643 207.834 345.615C217.487 338.976 241.213 340.177 246.355 331.027C261.398 300.393 221.861 291.101 214.568 310.808C210.503 317.321 217.423 326.836 205.187 338.24C184.692 353.701 183.798 335.409 185.056 328.595C191.085 314.729 207.945 308.424 210.761 298.974C215.335 280.458 205.343 272.296 194.224 271.917Z" fill="#010101" fill-opacity="0.219608"/>
</g>
<path d="M67.4711 353.27C91.0783 371.266 109.846 397.669 159.032 371.231C178.579 343.046 168.545 322.187 170.92 287.554C170.798 262.329 219.909 257.942 210.761 294.974C207.944 304.424 191.085 310.728 185.056 324.595C183.798 331.409 184.693 349.701 205.188 334.24C217.424 322.837 210.503 313.321 214.568 306.808C221.861 287.101 261.397 296.394 246.354 327.028C241.212 336.178 217.488 334.976 207.834 341.615C195.069 349.644 192.68 366.418 223.155 355.43C232.294 346.324 240.881 336.342 252.277 330.803C265.134 326.458 279.575 341.174 277.621 355.533C276.615 362.917 272.695 373.804 259.156 374.762C249.993 374.165 248.847 372.145 241.813 370.939C237.688 370.231 230.632 370.973 222.348 371.688C192.153 380.49 200.352 382.431 218.438 383.708C223.94 381.113 229.482 378.86 235.424 380.052C249.55 378.852 263.714 410.493 232.754 413.545C213.493 412.882 197.022 392.525 158.516 395.376C131.363 405.11 104.316 404.907 78.585 387.675C66.8531 378.298 65.8486 366.126 67.4711 353.27Z" fill="context-fill"/>
<mask id="mask6_289_157" style="mask-type:luminance" maskUnits="userSpaceOnUse" x="66" y="267" width="212" height="147">
<path d="M67.4711 353.27C91.0783 371.266 109.846 397.669 159.032 371.231C178.579 343.046 168.545 322.187 170.92 287.554C170.798 262.329 219.909 257.942 210.761 294.974C207.944 304.424 191.085 310.728 185.056 324.595C183.798 331.409 184.693 349.701 205.188 334.24C217.424 322.837 210.503 313.321 214.568 306.808C221.861 287.101 261.397 296.394 246.354 327.028C241.212 336.178 217.488 334.976 207.834 341.615C195.069 349.644 192.68 366.418 223.155 355.43C232.294 346.324 240.881 336.342 252.277 330.803C265.134 326.458 279.575 341.174 277.621 355.533C276.615 362.917 272.695 373.804 259.156 374.762C249.993 374.165 248.847 372.145 241.813 370.939C237.688 370.231 230.632 370.973 222.348 371.688C192.153 380.49 200.352 382.431 218.437 383.708C223.94 381.113 229.482 378.86 235.424 380.052C249.55 378.852 263.714 410.493 232.754 413.545C213.493 412.882 197.022 392.525 158.516 395.376C131.363 405.11 104.316 404.907 78.585 387.675C66.8531 378.298 65.8486 366.126 67.4711 353.27Z" fill="white"/>
</mask>
<g mask="url(#mask6_289_157)">
<g filter="url(#filter23_f_289_157)">
<path d="M163.572 478.918C209.289 478.918 246.35 459.407 246.35 435.338C246.35 411.27 209.289 391.758 163.572 391.758C117.855 391.758 80.7938 411.27 80.7938 435.338C80.7938 459.407 117.855 478.918 163.572 478.918Z" fill="#295F7A" fill-opacity="0.521569"/>
</g>
</g>
<mask id="mask7_289_157" style="mask-type:luminance" maskUnits="userSpaceOnUse" x="66" y="267" width="212" height="147">
<path d="M67.4711 353.27C91.0783 371.266 109.846 397.669 159.032 371.231C178.579 343.046 168.545 322.187 170.92 287.554C170.798 262.329 219.909 257.942 210.761 294.974C207.944 304.424 191.085 310.728 185.056 324.595C183.798 331.409 184.693 349.701 205.188 334.24C217.424 322.837 210.503 313.321 214.568 306.808C221.861 287.101 261.397 296.394 246.354 327.028C241.212 336.178 217.488 334.976 207.834 341.615C195.069 349.644 192.68 366.418 223.155 355.43C232.294 346.324 240.881 336.342 252.277 330.803C265.134 326.458 279.575 341.174 277.621 355.533C276.615 362.917 272.695 373.804 259.156 374.762C249.993 374.165 248.847 372.145 241.813 370.939C237.688 370.231 230.632 370.973 222.348 371.688C192.153 380.49 200.352 382.431 218.437 383.708C223.94 381.113 229.482 378.86 235.424 380.052C249.55 378.852 263.714 410.493 232.754 413.545C213.493 412.882 197.022 392.525 158.516 395.376C131.363 405.11 104.316 404.907 78.585 387.675C66.8531 378.298 65.8486 366.126 67.4711 353.27Z" fill="white"/>
</mask>
<g mask="url(#mask7_289_157)">
<g filter="url(#filter24_f_289_157)">
<path d="M99.3786 405.14L50.2162 350.887L21.7017 433.469L99.3786 405.14Z" fill="#FFF866" fill-opacity="0.698039"/>
</g>
</g>
<mask id="mask8_289_157" style="mask-type:luminance" maskUnits="userSpaceOnUse" x="66" y="267" width="212" height="147">
<path d="M67.4711 353.27C91.0783 371.266 109.846 397.669 159.032 371.231C178.579 343.046 168.545 322.187 170.92 287.554C170.798 262.329 219.909 257.942 210.761 294.974C207.944 304.424 191.085 310.728 185.056 324.595C183.798 331.409 184.693 349.701 205.188 334.24C217.424 322.837 210.503 313.321 214.568 306.808C221.861 287.101 261.397 296.394 246.354 327.028C241.212 336.178 217.488 334.976 207.834 341.615C195.069 349.644 192.68 366.418 223.155 355.43C232.294 346.324 240.881 336.342 252.277 330.803C265.134 326.458 279.575 341.174 277.621 355.533C276.615 362.917 272.695 373.804 259.156 374.762C249.993 374.165 248.847 372.145 241.813 370.939C237.688 370.231 230.632 370.973 222.348 371.688C192.153 380.49 200.352 382.431 218.438 383.708C223.94 381.113 229.482 378.86 235.424 380.052C249.55 378.852 263.714 410.493 232.754 413.545C213.493 412.882 197.022 392.525 158.516 395.376C131.363 405.11 104.316 404.907 78.585 387.675C66.8531 378.298 65.8486 366.126 67.4711 353.27Z" fill="white"/>
</mask>
<g mask="url(#mask8_289_157)">
<path d="M67.4711 353.27C91.0783 371.266 109.846 397.669 159.032 371.231C178.579 343.046 168.545 322.187 170.92 287.554C170.798 262.329 219.909 257.942 210.761 294.974C207.944 304.424 191.085 310.728 185.056 324.595C183.798 331.409 184.693 349.701 205.188 334.24C217.424 322.837 210.503 313.321 214.568 306.808C221.861 287.101 261.397 296.394 246.354 327.028C241.212 336.178 217.488 334.976 207.834 341.615C195.069 349.644 192.68 366.418 223.155 355.43C232.294 346.324 240.881 336.342 252.277 330.803C265.134 326.458 279.575 341.174 277.621 355.533C276.615 362.917 272.695 373.804 259.156 374.762C249.993 374.165 248.847 372.145 241.813 370.938C237.688 370.231 230.632 370.973 222.348 371.688C192.153 380.49 200.352 382.431 218.438 383.708C223.94 381.113 229.482 378.86 235.424 380.052C249.55 378.852 263.714 410.493 232.754 413.545C213.493 412.882 197.022 392.525 158.516 395.376C131.363 405.11 104.316 404.907 78.585 387.675C66.8531 378.298 65.8486 366.126 67.4711 353.27Z" fill="url(#paint2_linear_289_157)"/>
</g>
<mask id="mask9_289_157" style="mask-type:luminance" maskUnits="userSpaceOnUse" x="66" y="267" width="212" height="147">
<path d="M67.4711 353.27C91.0783 371.266 109.846 397.669 159.032 371.231C178.579 343.046 168.545 322.187 170.92 287.554C170.798 262.329 219.909 257.942 210.761 294.974C207.944 304.424 191.085 310.728 185.056 324.595C183.798 331.409 184.693 349.701 205.188 334.24C217.424 322.837 210.503 313.321 214.568 306.808C221.861 287.101 261.397 296.394 246.354 327.028C241.212 336.178 217.488 334.976 207.834 341.615C195.069 349.644 192.68 366.418 223.155 355.43C232.294 346.324 240.881 336.342 252.277 330.803C265.134 326.458 279.575 341.174 277.621 355.533C276.615 362.917 272.695 373.804 259.156 374.762C249.993 374.165 248.847 372.145 241.813 370.939C237.688 370.231 230.632 370.973 222.348 371.688C192.153 380.49 200.352 382.431 218.437 383.708C223.94 381.113 229.482 378.86 235.424 380.052C249.55 378.852 263.714 410.493 232.754 413.545C213.493 412.882 197.022 392.525 158.516 395.376C131.363 405.11 104.316 404.907 78.585 387.675C66.8531 378.298 65.8486 366.126 67.4711 353.27Z" fill="white"/>
</mask>
<g mask="url(#mask9_289_157)">
<g filter="url(#filter25_f_289_157)">
<path d="M123.33 383.376C143.867 383.376 160.516 375.393 160.516 365.547C160.516 355.7 143.867 347.717 123.33 347.717C102.792 347.717 86.1428 355.7 86.1428 365.547C86.1428 375.393 102.792 383.376 123.33 383.376Z" fill="#FFFBA3" fill-opacity="0.639408"/>
</g>
</g>
<mask id="mask10_289_157" style="mask-type:luminance" maskUnits="userSpaceOnUse" x="66" y="267" width="212" height="147">
<path d="M67.4711 353.27C91.0782 371.266 109.845 397.669 159.032 371.231C178.579 343.046 168.545 322.187 170.92 287.554C170.798 262.329 219.908 257.942 210.761 294.974C207.944 304.424 191.085 310.728 185.056 324.595C183.797 331.409 184.693 349.701 205.188 334.24C217.424 322.837 210.503 313.321 214.568 306.808C221.861 287.101 261.397 296.394 246.354 327.028C241.212 336.177 217.488 334.976 207.834 341.615C195.069 349.644 192.68 366.418 223.155 355.43C232.294 346.323 240.881 336.342 252.277 330.803C265.134 326.458 279.575 341.174 277.62 355.533C276.615 362.917 272.695 373.804 259.156 374.762C249.992 374.165 248.847 372.145 241.813 370.939C237.688 370.231 230.632 370.971 222.348 371.688C192.153 380.49 200.352 382.431 218.437 383.708C223.94 381.113 229.482 378.86 235.423 380.052C249.55 378.852 263.714 410.493 232.754 413.545C213.492 412.882 197.022 392.525 158.516 395.376C131.363 405.11 104.316 404.907 78.5849 387.675C66.853 378.298 65.8485 366.126 67.4711 353.27Z" fill="white"/>
</mask>
<g mask="url(#mask10_289_157)">
<g filter="url(#filter26_f_289_157)">
<path d="M239.779 402.286C245.889 402.286 250.841 397.375 250.841 391.318C250.841 385.26 245.889 380.35 239.779 380.35C233.67 380.35 228.717 385.26 228.717 391.318C228.717 397.375 233.67 402.286 239.779 402.286Z" fill="#FFFBB8" fill-opacity="0.22"/>
</g>
</g>
<mask id="mask11_289_157" style="mask-type:luminance" maskUnits="userSpaceOnUse" x="66" y="267" width="212" height="147">
<path d="M67.4711 353.27C91.0782 371.266 109.846 397.669 159.032 371.231C178.579 343.046 168.545 322.187 170.92 287.554C170.798 262.329 219.909 257.942 210.761 294.974C207.944 304.424 191.085 310.729 185.056 324.595C183.798 331.409 184.692 349.702 205.188 334.24C217.424 322.837 210.503 313.321 214.568 306.808C221.861 287.101 261.397 296.394 246.355 327.028C241.212 336.178 217.488 334.976 207.834 341.615C195.069 349.644 192.679 366.418 223.155 355.43C232.294 346.324 240.881 336.342 252.277 330.803C265.134 326.458 279.575 341.174 277.62 355.533C276.615 362.917 272.695 373.804 259.156 374.762C249.992 374.166 248.847 372.145 241.813 370.939C237.688 370.231 230.632 370.974 222.348 371.688C192.153 380.49 200.352 382.431 218.438 383.707C223.94 381.113 229.482 378.86 235.424 380.052C249.551 378.852 263.714 410.493 232.754 413.545C213.492 412.881 197.022 392.525 158.516 395.376C131.363 405.11 104.316 404.907 78.5849 387.675C66.8531 378.298 65.8485 366.126 67.4711 353.27Z" fill="white"/>
</mask>
<g mask="url(#mask11_289_157)">
<g filter="url(#filter27_f_289_157)">
<path d="M265.695 366.397C276.002 366.397 284.357 358.379 284.357 348.489C284.357 338.599 276.002 330.581 265.695 330.581C255.389 330.581 247.033 338.599 247.033 348.489C247.033 358.379 255.389 366.397 265.695 366.397Z" fill="#FFFBB8" fill-opacity="0.44"/>
</g>
</g>
<mask id="mask12_289_157" style="mask-type:luminance" maskUnits="userSpaceOnUse" x="66" y="267" width="212" height="147">
<path d="M67.4711 353.27C91.0782 371.266 109.845 397.669 159.032 371.231C178.579 343.046 168.545 322.187 170.92 287.554C170.798 262.329 219.909 257.942 210.761 294.974C207.944 304.424 191.085 310.729 185.056 324.595C183.798 331.409 184.692 349.701 205.188 334.24C217.424 322.837 210.503 313.321 214.568 306.808C221.861 287.101 261.397 296.394 246.354 327.028C241.212 336.178 217.488 334.976 207.834 341.615C195.069 349.644 192.68 366.418 223.155 355.43C232.294 346.324 240.881 336.342 252.277 330.803C265.134 326.458 279.575 341.174 277.62 355.533C276.615 362.917 272.695 373.804 259.156 374.762C249.993 374.165 248.847 372.145 241.813 370.939C237.688 370.231 230.632 370.973 222.348 371.688C192.153 380.49 200.352 382.431 218.437 383.708C223.94 381.113 229.482 378.86 235.423 380.052C249.55 378.852 263.714 410.493 232.754 413.545C213.493 412.881 197.022 392.525 158.516 395.376C131.363 405.11 104.316 404.907 78.5848 387.675C66.853 378.298 65.8485 366.126 67.4711 353.27Z" fill="white"/>
</mask>
<g mask="url(#mask12_289_157)">
<g filter="url(#filter28_f_289_157)">
<path d="M236.609 321.648C245.253 321.648 252.261 315.433 252.261 307.766C252.261 300.099 245.253 293.883 236.609 293.883C227.964 293.883 220.956 300.099 220.956 307.766C220.956 315.433 227.964 321.648 236.609 321.648Z" fill="#FFFBB8" fill-opacity="0.44"/>
</g>
</g>
<mask id="mask13_289_157" style="mask-type:luminance" maskUnits="userSpaceOnUse" x="66" y="267" width="212" height="147">
<path d="M67.4711 353.27C91.0782 371.266 109.846 397.669 159.032 371.231C178.579 343.046 168.545 322.187 170.92 287.554C170.798 262.329 219.909 257.942 210.761 294.974C207.944 304.424 191.084 310.728 185.056 324.595C183.797 331.409 184.693 349.701 205.188 334.24C217.424 322.837 210.502 313.321 214.568 306.808C221.861 287.101 261.397 296.394 246.354 327.028C241.212 336.177 217.488 334.976 207.834 341.615C195.069 349.644 192.679 366.418 223.155 355.43C232.294 346.323 240.881 336.342 252.277 330.803C265.134 326.458 279.575 341.174 277.62 355.533C276.615 362.917 272.695 373.804 259.156 374.762C249.993 374.165 248.847 372.145 241.813 370.939C237.688 370.231 230.632 370.971 222.348 371.688C192.153 380.49 200.352 382.431 218.437 383.708C223.94 381.113 229.482 378.86 235.424 380.052C249.55 378.852 263.714 410.493 232.754 413.545C213.493 412.882 197.022 392.525 158.516 395.376C131.363 405.11 104.316 404.907 78.5848 387.675C66.853 378.298 65.8485 366.126 67.4711 353.27Z" fill="white"/>
</mask>
<g mask="url(#mask13_289_157)">
<g filter="url(#filter29_f_289_157)">
<path d="M195.354 295.887C201.464 295.887 206.416 290.977 206.416 284.919C206.416 278.862 201.464 273.951 195.354 273.951C189.245 273.951 184.292 278.862 184.292 284.919C184.292 290.977 189.245 295.887 195.354 295.887Z" fill="#FFFBB8" fill-opacity="0.44"/>
</g>
</g>
<mask id="mask14_289_157" style="mask-type:luminance" maskUnits="userSpaceOnUse" x="66" y="267" width="212" height="147">
<path d="M67.4711 353.27C91.0783 371.266 109.846 397.669 159.032 371.231C178.579 343.046 168.545 322.187 170.92 287.554C170.798 262.329 219.909 257.942 210.761 294.974C207.944 304.424 191.085 310.728 185.056 324.595C183.797 331.409 184.693 349.701 205.188 334.24C217.424 322.837 210.503 313.321 214.568 306.808C221.861 287.101 261.397 296.394 246.354 327.028C241.212 336.178 217.488 334.976 207.834 341.615C195.069 349.644 192.68 366.418 223.155 355.43C232.294 346.324 240.881 336.342 252.277 330.803C265.134 326.458 279.575 341.174 277.621 355.533C276.615 362.917 272.695 373.804 259.156 374.762C249.993 374.165 248.847 372.145 241.813 370.938C237.688 370.231 230.632 370.973 222.348 371.688C192.153 380.49 200.352 382.431 218.437 383.708C223.94 381.113 229.482 378.86 235.424 380.052C249.55 378.852 263.714 410.493 232.754 413.545C213.492 412.882 197.022 392.525 158.516 395.376C131.363 405.11 104.316 404.907 78.5849 387.675C66.8531 378.298 65.8485 366.126 67.4711 353.27Z" fill="white"/>
</mask>
<g mask="url(#mask14_289_157)">
<g filter="url(#filter30_f_289_157)">
<path d="M230.861 343.576C232.518 346.104 232.763 349.054 231.542 351.786C230.321 354.517 227.734 356.808 224.342 358.162C220.95 359.516 217.029 359.822 213.429 359.015C209.829 358.207 206.843 356.351 205.119 353.85C203.395 351.349 203.073 348.404 204.223 345.657C205.373 342.91 207.901 340.582 211.259 339.179C214.617 337.776 218.532 337.412 222.155 338.165C225.777 338.918 228.813 340.729 230.603 343.202L217.927 348.619L230.861 343.576Z" fill="#FFFBB8" fill-opacity="0.59513"/>
</g>
</g>
<mask id="mask15_289_157" style="mask-type:luminance" maskUnits="userSpaceOnUse" x="66" y="267" width="212" height="147">
<path d="M67.4711 353.27C91.0783 371.266 109.846 397.669 159.032 371.231C178.579 343.046 168.545 322.187 170.92 287.554C170.798 262.329 219.909 257.942 210.761 294.974C207.944 304.423 191.085 310.728 185.056 324.595C183.798 331.409 184.693 349.701 205.188 334.24C217.424 322.837 210.503 313.321 214.568 306.808C221.861 287.101 261.397 296.394 246.354 327.028C241.212 336.178 217.488 334.976 207.834 341.615C195.069 349.644 192.68 366.418 223.155 355.43C232.294 346.323 240.881 336.342 252.277 330.803C265.134 326.458 279.575 341.174 277.621 355.533C276.615 362.917 272.695 373.804 259.156 374.762C249.993 374.165 248.847 372.145 241.813 370.939C237.688 370.231 230.632 370.973 222.348 371.688C192.153 380.49 200.352 382.431 218.437 383.708C223.94 381.113 229.482 378.86 235.424 380.052C249.55 378.852 263.714 410.493 232.754 413.545C213.493 412.882 197.022 392.525 158.516 395.376C131.363 405.11 104.316 404.907 78.585 387.675C66.8531 378.298 65.8485 366.126 67.4711 353.27Z" fill="white"/>
</mask>
<g mask="url(#mask15_289_157)">
<g filter="url(#filter31_f_289_157)">
<path d="M202.938 316.014C205.509 316.925 207.354 319.099 208.072 322.065C208.791 325.03 208.324 328.547 206.774 331.852C205.224 335.156 202.716 337.98 199.795 339.71C196.874 341.44 193.775 341.936 191.174 341.091C188.572 340.246 186.678 338.127 185.902 335.196C185.126 332.264 185.531 328.757 187.03 325.436C188.529 322.115 191 319.249 193.906 317.461C196.811 315.673 199.918 315.108 202.549 315.888L196.959 328.52L202.938 316.014Z" fill="#FFFBB8" fill-opacity="0.59513"/>
</g>
</g>
<g filter="url(#filter32_f_289_157)">
<path d="M171.232 384.496C173.302 384.496 174.979 382.845 174.979 380.808C174.979 378.771 173.302 377.12 171.232 377.12C169.162 377.12 167.484 378.771 167.484 380.808C167.484 382.845 169.162 384.496 171.232 384.496Z" fill="#FFF766" fill-opacity="0.137255"/>
</g>
<g filter="url(#filter33_f_289_157)">
<path d="M176.466 363.576C179.313 363.576 181.621 361.268 181.621 358.421C181.621 355.574 179.313 353.266 176.466 353.266C173.619 353.266 171.311 355.574 171.311 358.421C171.311 361.268 173.619 363.576 176.466 363.576Z" fill="#FFF766" fill-opacity="0.137255"/>
</g>
<g filter="url(#filter34_f_289_157)">
<path d="M192.26 376.886C195.729 376.886 198.542 373.938 198.542 370.302C198.542 366.666 195.729 363.718 192.26 363.718C188.791 363.718 185.979 366.666 185.979 370.302C185.979 373.938 188.791 376.886 192.26 376.886Z" fill="#FFF766" fill-opacity="0.137255"/>
</g>
<path d="M257.009 108.4C268.804 121.247 282.048 127.998 286.591 123.478C291.134 118.957 285.255 104.878 273.461 92.0301C261.666 79.1823 248.422 72.4317 243.879 76.952C239.336 81.4723 245.215 95.5519 257.009 108.4Z" fill="context-fill"/>
<path d="M257.009 108.4C268.804 121.247 282.048 127.998 286.591 123.478C291.134 118.957 285.255 104.878 273.461 92.0301C261.666 79.1823 248.422 72.4317 243.879 76.952C239.336 81.4723 245.215 95.5519 257.009 108.4Z" fill="url(#paint3_radial_289_157)"/>
<g filter="url(#filter35_f_289_157)">
<path d="M158.891 106.73C142.461 106.661 136.303 112.254 117.816 119.19C67.208 151.669 45.3561 138.853 35.9149 180.144C43.9486 212.537 23.9222 240.921 38.4548 238.069C57.5461 234.323 57.0789 228.626 70.8348 242.384C90.7597 262.312 126.538 278.359 150.636 283.388C237.208 282.993 287.091 240.983 308.313 197.667C301.636 188.646 301.389 209.382 301.389 201.382C243.902 127.294 230.089 107.032 158.891 106.73Z" fill="#010101" fill-opacity="0.278431"/>
</g>
<path d="M49.4822 306.422C41.3184 270.573 46.3191 237.309 68.5843 208.35C100.733 234.346 150.635 241.388 150.635 241.388C159.994 246.274 289.654 241.279 310.876 197.963C290.327 95.6255 218.727 26.065 120.128 63.0579C-1.35293 141.023 27.9824 281.543 49.4822 306.422Z" fill="context-fill"/>
<mask id="mask16_289_157" style="mask-type:luminance" maskUnits="userSpaceOnUse" x="30" y="53" width="281" height="254">
<path d="M172.584 53.0015C156.154 52.932 138.616 56.122 120.129 63.0581C-1.35226 141.023 27.9827 281.544 49.4825 306.423C41.3186 270.573 46.3189 237.308 68.5841 208.349C100.732 234.346 150.635 241.388 150.635 241.388C159.994 246.274 289.654 241.278 310.877 197.962C294.18 114.813 243.782 53.3029 172.584 53.0015ZM171.625 137.791C172.634 137.792 173.642 137.813 174.65 137.855C182.445 138.175 190.113 139.694 197.217 142.324C204.321 144.955 210.721 148.646 216.053 153.186C221.385 157.726 225.543 163.027 228.291 168.786C231.039 174.545 232.323 180.649 232.068 186.749C231.555 199.07 224.809 210.629 213.315 218.884C201.821 227.138 186.521 231.412 170.779 230.765C162.985 230.445 155.317 228.926 148.213 226.296C141.109 223.665 134.709 219.974 129.377 215.434C124.045 210.894 119.887 205.593 117.139 199.834C114.391 194.075 113.107 187.971 113.361 181.871C113.858 169.959 120.181 158.744 131.024 150.54C141.867 142.337 156.401 137.773 171.625 137.791Z" fill="white"/>
</mask>
<g mask="url(#mask16_289_157)">
<g filter="url(#filter36_f_289_157)">
<path d="M327.981 199.02L309.354 185.257C239.554 217.08 184.22 272.593 31.3733 168.425C32.9389 201.801 38.0393 244.837 62.649 302.769L339.847 241.76L327.981 199.02Z" fill="#295F7A" fill-opacity="0.521569"/>
</g>
</g>
<path d="M164.417 219.865C193.184 224.744 219.712 211.017 223.67 189.204C227.627 167.39 207.515 145.752 178.748 140.873C149.981 135.994 123.453 149.721 119.495 171.534C115.538 193.347 135.65 214.986 164.417 219.865Z" fill="url(#paint4_linear_289_157)"/>
<path d="M163.829 212.567C187.521 217.442 209.853 206.197 213.71 187.451C217.567 168.705 201.488 149.557 177.796 144.683C154.104 139.808 131.771 151.053 127.914 169.799C124.058 188.545 140.137 207.692 163.829 212.567Z" fill="url(#paint5_linear_289_157)"/>
<g filter="url(#filter37_f_289_157)">
<path d="M162.602 206.856C182.744 211.084 201.73 201.331 205.009 185.072C208.288 168.813 194.618 152.205 174.476 147.977C154.334 143.749 135.348 153.502 132.069 169.761C128.79 186.021 142.46 202.628 162.602 206.856Z" fill="#463231"/>
</g>
<g filter="url(#filter38_f_289_157)">
<path d="M166.234 196.215C178.533 198.774 190.127 192.87 192.129 183.029C194.132 173.187 185.784 163.135 173.485 160.575C161.185 158.016 149.592 163.92 147.59 173.761C145.587 183.603 153.935 193.656 166.234 196.215Z" fill="#181C0C"/>
</g>
<path d="M162.23 208.266C183.408 212.593 203.371 202.61 206.818 185.968C210.266 169.327 195.893 152.328 174.715 148C153.537 143.673 133.574 153.655 130.126 170.297C126.679 186.939 141.052 203.938 162.23 208.266Z" fill="url(#paint6_radial_289_157)"/>
<path d="M162.23 208.266C183.408 212.593 203.371 202.61 206.818 185.968C210.266 169.327 195.893 152.328 174.715 148C153.537 143.673 133.574 153.655 130.126 170.297C126.679 186.939 141.052 203.938 162.23 208.266Z" fill="url(#paint7_radial_289_157)"/>
<g filter="url(#filter39_f_289_157)">
<path d="M260.185 178.032C263.032 178.032 265.34 175.724 265.34 172.877C265.34 170.03 263.032 167.722 260.185 167.722C257.338 167.722 255.03 170.03 255.03 172.877C255.03 175.724 257.338 178.032 260.185 178.032Z" fill="white" fill-opacity="0.196314"/>
</g>
<g filter="url(#filter40_f_289_157)">
<path d="M278.409 189.768C280.583 189.768 282.346 188.005 282.346 185.831C282.346 183.657 280.583 181.895 278.409 181.895C276.235 181.895 274.473 183.657 274.473 185.831C274.473 188.005 276.235 189.768 278.409 189.768Z" fill="white" fill-opacity="0.196314"/>
</g>
<g filter="url(#filter41_f_289_157)">
<path d="M260.361 198.521C261.928 198.521 263.199 197.251 263.199 195.684C263.199 194.117 261.928 192.846 260.361 192.846C258.794 192.846 257.523 194.117 257.523 195.684C257.523 197.251 258.794 198.521 260.361 198.521Z" fill="white" fill-opacity="0.196314"/>
</g>
<g filter="url(#filter42_f_289_157)">
<path d="M260.315 143.282C263.162 143.282 265.47 140.974 265.47 138.128C265.47 135.281 263.162 132.973 260.315 132.973C257.468 132.973 255.16 135.281 255.16 138.128C255.16 140.974 257.468 143.282 260.315 143.282Z" fill="white" fill-opacity="0.196314"/>
</g>
<g filter="url(#filter43_f_289_157)">
<path d="M231.707 133.295C234.554 133.295 236.862 130.987 236.862 128.14C236.862 125.293 234.554 122.985 231.707 122.985C228.86 122.985 226.552 125.293 226.552 128.14C226.552 130.987 228.86 133.295 231.707 133.295Z" fill="white" fill-opacity="0.196314"/>
</g>
<g filter="url(#filter44_f_289_157)">
<path d="M100.076 184.132C102.923 184.132 105.231 181.824 105.231 178.977C105.231 176.13 102.923 173.822 100.076 173.822C97.2292 173.822 94.9213 176.13 94.9213 178.977C94.9213 181.824 97.2292 184.132 100.076 184.132Z" fill="white" fill-opacity="0.196314"/>
</g>
<g filter="url(#filter45_f_289_157)">
<path d="M243.818 153.61C246.665 153.61 248.973 151.302 248.973 148.455C248.973 145.608 246.665 143.3 243.818 143.3C240.971 143.3 238.663 145.608 238.663 148.455C238.663 151.302 240.971 153.61 243.818 153.61Z" fill="white" fill-opacity="0.196314"/>
</g>
<g filter="url(#filter46_f_289_157)">
<path d="M266.653 158.67C268.22 158.67 269.491 157.4 269.491 155.832C269.491 154.265 268.22 152.995 266.653 152.995C265.086 152.995 263.815 154.265 263.815 155.832C263.815 157.4 265.086 158.67 266.653 158.67Z" fill="white" fill-opacity="0.1"/>
</g>
<g filter="url(#filter47_f_289_157)">
<path d="M222.749 148.219C224.316 148.219 225.586 146.948 225.586 145.381C225.586 143.814 224.316 142.544 222.749 142.544C221.182 142.544 219.911 143.814 219.911 145.381C219.911 146.948 221.182 148.219 222.749 148.219Z" fill="white" fill-opacity="0.1"/>
</g>
<g filter="url(#filter48_f_289_157)">
<path d="M108.887 204.763C111.734 204.763 114.042 202.455 114.042 199.608C114.042 196.762 111.734 194.454 108.887 194.454C106.04 194.454 103.732 196.762 103.732 199.608C103.732 202.455 106.04 204.763 108.887 204.763Z" fill="white" fill-opacity="0.1"/>
</g>
<g filter="url(#filter49_f_289_157)">
<path d="M90.1659 198.387C93.0129 198.387 95.3208 196.079 95.3208 193.232C95.3208 190.385 93.0129 188.077 90.1659 188.077C87.319 188.077 85.011 190.385 85.011 193.232C85.011 196.079 87.319 198.387 90.1659 198.387Z" fill="white" fill-opacity="0.1"/>
</g>
<g filter="url(#filter50_f_289_157)">
<path d="M56.3777 158.378C59.2247 158.378 61.5326 156.07 61.5326 153.223C61.5326 150.376 59.2247 148.068 56.3777 148.068C53.5308 148.068 51.2228 150.376 51.2228 153.223C51.2228 156.07 53.5308 158.378 56.3777 158.378Z" fill="white" fill-opacity="0.1"/>
</g>
<g filter="url(#filter51_f_289_157)">
<path d="M100.919 154.177C102.487 154.177 103.757 152.907 103.757 151.34C103.757 149.773 102.487 148.502 100.919 148.502C99.3523 148.502 98.0818 149.773 98.0818 151.34C98.0818 152.907 99.3523 154.177 100.919 154.177Z" fill="white" fill-opacity="0.1"/>
</g>
<g filter="url(#filter52_f_289_157)">
<path d="M167.909 125.972C187.752 125.972 203.838 117.611 203.838 107.296C203.838 96.9821 187.752 88.6207 167.909 88.6207C148.066 88.6207 131.98 96.9821 131.98 107.296C131.98 117.611 148.066 125.972 167.909 125.972Z" fill="white" fill-opacity="0.28"/>
</g>
<g filter="url(#filter53_f_289_157)">
<path d="M219.007 112.476C221.854 112.476 224.162 110.168 224.162 107.321C224.162 104.474 221.854 102.166 219.007 102.166C216.16 102.166 213.852 104.474 213.852 107.321C213.852 110.168 216.16 112.476 219.007 112.476Z" fill="white" fill-opacity="0.196314"/>
</g>
<g filter="url(#filter54_f_289_157)">
<path d="M206.087 135.643C208.934 135.643 211.242 133.335 211.242 130.488C211.242 127.641 208.934 125.333 206.087 125.333C203.24 125.333 200.932 127.641 200.932 130.488C200.932 133.335 203.24 135.643 206.087 135.643Z" fill="white" fill-opacity="0.1"/>
</g>
<g filter="url(#filter55_f_289_157)">
<path d="M109.791 128.906C111.359 128.906 112.629 127.636 112.629 126.068C112.629 124.501 111.359 123.231 109.791 123.231C108.224 123.231 106.954 124.501 106.954 126.068C106.954 127.636 108.224 128.906 109.791 128.906Z" fill="white" fill-opacity="0.1"/>
</g>
<g filter="url(#filter56_f_289_157)">
<path d="M187.716 116.833C190.563 116.833 192.871 114.525 192.871 111.678C192.871 108.831 190.563 106.523 187.716 106.523C184.869 106.523 182.562 108.831 182.562 111.678C182.562 114.525 184.869 116.833 187.716 116.833Z" fill="white" fill-opacity="0.1"/>
</g>
<g filter="url(#filter57_f_289_157)">
<path d="M123.115 101.886C124.683 101.886 125.953 100.615 125.953 99.0481C125.953 97.4809 124.683 96.2104 123.115 96.2104C121.548 96.2104 120.278 97.4809 120.278 99.0481C120.278 100.615 121.548 101.886 123.115 101.886Z" fill="white" fill-opacity="0.1"/>
</g>
<g filter="url(#filter58_f_289_157)">
<path d="M144.378 115.884C145.945 115.884 147.215 114.613 147.215 113.046C147.215 111.479 145.945 110.208 144.378 110.208C142.81 110.208 141.54 111.479 141.54 113.046C141.54 114.613 142.81 115.884 144.378 115.884Z" fill="white" fill-opacity="0.1"/>
</g>
<path d="M171.625 137.79C156.402 137.773 141.867 142.337 131.025 150.541C120.182 158.744 113.86 169.96 113.363 181.871C112.85 194.191 118.611 206.264 129.378 215.434C140.146 224.603 155.038 230.118 170.779 230.765C186.521 231.412 201.821 227.138 213.315 218.884C224.809 210.629 231.555 199.07 232.068 186.749C232.582 174.429 226.821 162.356 216.054 153.186C205.286 144.017 190.394 138.502 174.652 137.855C173.644 137.813 172.634 137.792 171.625 137.79ZM167.189 139.898C171.042 139.897 174.918 140.223 178.748 140.872C185.588 142.033 192.177 144.203 198.136 147.26C204.096 150.317 209.31 154.2 213.481 158.688C217.653 163.176 220.7 168.181 222.448 173.417C224.196 178.653 224.611 184.018 223.67 189.205C221.769 199.679 214.459 208.794 203.347 214.544C192.235 220.294 178.232 222.208 164.418 219.865C150.604 217.522 138.11 211.113 129.686 202.05C121.261 192.986 117.596 182.01 119.496 171.535C121.125 162.56 126.735 154.537 135.404 148.786C144.074 143.036 155.284 139.901 167.189 139.898Z" fill="url(#paint8_linear_289_157)"/>
<mask id="mask17_289_157" style="mask-type:luminance" maskUnits="userSpaceOnUse" x="30" y="53" width="281" height="254">
<path d="M172.584 53.0015C156.154 52.932 138.616 56.122 120.129 63.0581C-1.35226 141.023 27.9827 281.544 49.4825 306.423C41.3186 270.573 46.3189 237.308 68.5841 208.349C100.732 234.346 150.635 241.388 150.635 241.388C159.994 246.274 289.654 241.278 310.877 197.962C294.18 114.813 243.782 53.3029 172.584 53.0015ZM171.625 137.791C172.634 137.792 173.642 137.813 174.65 137.855C182.445 138.175 190.113 139.694 197.217 142.324C204.321 144.955 210.721 148.646 216.053 153.186C221.385 157.726 225.543 163.027 228.291 168.786C231.039 174.545 232.323 180.649 232.068 186.749C231.555 199.07 224.809 210.629 213.315 218.884C201.821 227.138 186.521 231.412 170.779 230.765C162.985 230.445 155.317 228.926 148.213 226.296C141.109 223.665 134.709 219.974 129.377 215.434C124.045 210.894 119.887 205.593 117.139 199.834C114.391 194.075 113.107 187.971 113.361 181.871C113.858 169.959 120.181 158.744 131.024 150.54C141.867 142.337 156.401 137.773 171.625 137.791Z" fill="white"/>
</mask>
<g mask="url(#mask17_289_157)">
<g filter="url(#filter59_f_289_157)">
<path d="M304.584 215.134C284.889 91.3202 170.777 17.165 53.1943 128.365L83.1049 5.70007L380.829 106.143L304.584 215.134Z" fill="#FFF866" fill-opacity="0.698039"/>
</g>
</g>
<mask id="mask18_289_157" style="mask-type:luminance" maskUnits="userSpaceOnUse" x="30" y="53" width="281" height="254">
<path d="M172.584 53.0015C156.154 52.932 138.616 56.1219 120.129 63.0581C-1.35227 141.023 27.9827 281.544 49.4825 306.423C41.3186 270.573 46.3189 237.308 68.5841 208.349C100.732 234.346 150.635 241.388 150.635 241.388C159.994 246.274 289.654 241.278 310.877 197.962C294.18 114.813 243.782 53.3029 172.584 53.0015ZM171.625 137.791C172.634 137.792 173.642 137.813 174.65 137.855C182.445 138.175 190.113 139.694 197.217 142.324C204.321 144.955 210.721 148.646 216.053 153.186C221.385 157.726 225.543 163.027 228.291 168.786C231.039 174.545 232.323 180.649 232.068 186.749C231.555 199.07 224.809 210.629 213.315 218.884C201.821 227.138 186.521 231.412 170.779 230.765C162.985 230.445 155.317 228.926 148.213 226.296C141.109 223.665 134.709 219.974 129.377 215.434C124.045 210.894 119.887 205.593 117.139 199.834C114.391 194.075 113.107 187.971 113.361 181.871C113.858 169.959 120.181 158.744 131.024 150.54C141.867 142.337 156.401 137.773 171.625 137.791Z" fill="white"/>
</mask>
<g mask="url(#mask18_289_157)">
<g filter="url(#filter60_f_289_157)">
<path d="M162.955 164.594C227.736 164.594 280.252 135.722 280.252 100.107C280.252 64.4915 227.736 35.6195 162.955 35.6195C98.1733 35.6195 45.6577 64.4915 45.6577 100.107C45.6577 135.722 98.1733 164.594 162.955 164.594Z" fill="#FFF866" fill-opacity="0.577047"/>
</g>
</g>
</g>
<defs>
<filter id="filter0_f_289_157" x="341.754" y="293.189" width="69.4518" height="76.7744" filterUnits="userSpaceOnUse" color-interpolation-filters="sRGB">
<feFlood flood-opacity="0" result="BackgroundImageFix"/>
<feBlend mode="normal" in="SourceGraphic" in2="BackgroundImageFix" result="shape"/>
<feGaussianBlur stdDeviation="2.47927" result="effect1_foregroundBlur_289_157"/>
</filter>
<filter id="filter1_f_289_157" x="387.101" y="330.364" width="61.5391" height="93.2129" filterUnits="userSpaceOnUse" color-interpolation-filters="sRGB">
<feFlood flood-opacity="0" result="BackgroundImageFix"/>
<feBlend mode="normal" in="SourceGraphic" in2="BackgroundImageFix" result="shape"/>
<feGaussianBlur stdDeviation="5.87636" result="effect1_foregroundBlur_289_157"/>
</filter>
<filter id="filter2_f_289_157" x="403.043" y="159.204" width="22.2196" height="22.2196" filterUnits="userSpaceOnUse" color-interpolation-filters="sRGB">
<feFlood flood-opacity="0" result="BackgroundImageFix"/>
<feBlend mode="normal" in="SourceGraphic" in2="BackgroundImageFix" result="shape"/>
<feGaussianBlur stdDeviation="2.97746" result="effect1_foregroundBlur_289_157"/>
</filter>
<filter id="filter3_f_289_157" x="368.522" y="231.539" width="33.1472" height="44.6243" filterUnits="userSpaceOnUse" color-interpolation-filters="sRGB">
<feFlood flood-opacity="0" result="BackgroundImageFix"/>
<feBlend mode="normal" in="SourceGraphic" in2="BackgroundImageFix" result="shape"/>
<feGaussianBlur stdDeviation="4.22361" result="effect1_foregroundBlur_289_157"/>
</filter>
<filter id="filter4_f_289_157" x="260.127" y="76.2889" width="337.252" height="237.846" filterUnits="userSpaceOnUse" color-interpolation-filters="sRGB">
<feFlood flood-opacity="0" result="BackgroundImageFix"/>
<feBlend mode="normal" in="SourceGraphic" in2="BackgroundImageFix" result="shape"/>
<feGaussianBlur stdDeviation="17.4272" result="effect1_foregroundBlur_289_157"/>
</filter>
<filter id="filter5_f_289_157" x="327.801" y="178.131" width="139.711" height="136.658" filterUnits="userSpaceOnUse" color-interpolation-filters="sRGB">
<feFlood flood-opacity="0" result="BackgroundImageFix"/>
<feBlend mode="normal" in="SourceGraphic" in2="BackgroundImageFix" result="shape"/>
<feGaussianBlur stdDeviation="2.55898" result="effect1_foregroundBlur_289_157"/>
</filter>
<filter id="filter6_f_289_157" x="373.011" y="245.67" width="50.211" height="67.5404" filterUnits="userSpaceOnUse" color-interpolation-filters="sRGB">
<feFlood flood-opacity="0" result="BackgroundImageFix"/>
<feBlend mode="normal" in="SourceGraphic" in2="BackgroundImageFix" result="shape"/>
<feGaussianBlur stdDeviation="4.90631" result="effect1_foregroundBlur_289_157"/>
</filter>
<filter id="filter7_f_289_157" x="433.402" y="159.552" width="22.2196" height="22.2196" filterUnits="userSpaceOnUse" color-interpolation-filters="sRGB">
<feFlood flood-opacity="0" result="BackgroundImageFix"/>
<feBlend mode="normal" in="SourceGraphic" in2="BackgroundImageFix" result="shape"/>
<feGaussianBlur stdDeviation="2.97746" result="effect1_foregroundBlur_289_157"/>
</filter>
<filter id="filter8_f_289_157" x="422.068" y="177.735" width="22.2196" height="22.2196" filterUnits="userSpaceOnUse" color-interpolation-filters="sRGB">
<feFlood flood-opacity="0" result="BackgroundImageFix"/>
<feBlend mode="normal" in="SourceGraphic" in2="BackgroundImageFix" result="shape"/>
<feGaussianBlur stdDeviation="2.97746" result="effect1_foregroundBlur_289_157"/>
</filter>
<filter id="filter9_f_289_157" x="447.67" y="183.406" width="22.2196" height="22.2196" filterUnits="userSpaceOnUse" color-interpolation-filters="sRGB">
<feFlood flood-opacity="0" result="BackgroundImageFix"/>
<feBlend mode="normal" in="SourceGraphic" in2="BackgroundImageFix" result="shape"/>
<feGaussianBlur stdDeviation="2.97746" result="effect1_foregroundBlur_289_157"/>
</filter>
<filter id="filter10_f_289_157" x="437.544" y="194.308" width="22.2196" height="22.2196" filterUnits="userSpaceOnUse" color-interpolation-filters="sRGB">
<feFlood flood-opacity="0" result="BackgroundImageFix"/>
<feBlend mode="normal" in="SourceGraphic" in2="BackgroundImageFix" result="shape"/>
<feGaussianBlur stdDeviation="2.97746" result="effect1_foregroundBlur_289_157"/>
</filter>
<filter id="filter11_f_289_157" x="455.734" y="215.164" width="22.2196" height="22.2196" filterUnits="userSpaceOnUse" color-interpolation-filters="sRGB">
<feFlood flood-opacity="0" result="BackgroundImageFix"/>
<feBlend mode="normal" in="SourceGraphic" in2="BackgroundImageFix" result="shape"/>
<feGaussianBlur stdDeviation="2.97746" result="effect1_foregroundBlur_289_157"/>
</filter>
<filter id="filter12_f_289_157" x="466.38" y="326.348" width="22.2196" height="22.2196" filterUnits="userSpaceOnUse" color-interpolation-filters="sRGB">
<feFlood flood-opacity="0" result="BackgroundImageFix"/>
<feBlend mode="normal" in="SourceGraphic" in2="BackgroundImageFix" result="shape"/>
<feGaussianBlur stdDeviation="2.97746" result="effect1_foregroundBlur_289_157"/>
</filter>
<filter id="filter13_f_289_157" x="463.492" y="201.631" width="12.2313" height="12.2313" filterUnits="userSpaceOnUse" color-interpolation-filters="sRGB">
<feFlood flood-opacity="0" result="BackgroundImageFix"/>
<feBlend mode="normal" in="SourceGraphic" in2="BackgroundImageFix" result="shape"/>
<feGaussianBlur stdDeviation="1.63901" result="effect1_foregroundBlur_289_157"/>
</filter>
<filter id="filter14_f_289_157" x="479.404" y="228.162" width="12.2313" height="12.2313" filterUnits="userSpaceOnUse" color-interpolation-filters="sRGB">
<feFlood flood-opacity="0" result="BackgroundImageFix"/>
<feBlend mode="normal" in="SourceGraphic" in2="BackgroundImageFix" result="shape"/>
<feGaussianBlur stdDeviation="1.63901" result="effect1_foregroundBlur_289_157"/>
</filter>
<filter id="filter15_f_289_157" x="467.276" y="242.294" width="12.2313" height="12.2313" filterUnits="userSpaceOnUse" color-interpolation-filters="sRGB">
<feFlood flood-opacity="0" result="BackgroundImageFix"/>
<feBlend mode="normal" in="SourceGraphic" in2="BackgroundImageFix" result="shape"/>
<feGaussianBlur stdDeviation="1.63901" result="effect1_foregroundBlur_289_157"/>
</filter>
<filter id="filter16_f_289_157" x="470.115" y="278.457" width="12.2313" height="12.2313" filterUnits="userSpaceOnUse" color-interpolation-filters="sRGB">
<feFlood flood-opacity="0" result="BackgroundImageFix"/>
<feBlend mode="normal" in="SourceGraphic" in2="BackgroundImageFix" result="shape"/>
<feGaussianBlur stdDeviation="1.63901" result="effect1_foregroundBlur_289_157"/>
</filter>
<filter id="filter17_f_289_157" x="461.278" y="299.499" width="12.2313" height="12.2313" filterUnits="userSpaceOnUse" color-interpolation-filters="sRGB">
<feFlood flood-opacity="0" result="BackgroundImageFix"/>
<feBlend mode="normal" in="SourceGraphic" in2="BackgroundImageFix" result="shape"/>
<feGaussianBlur stdDeviation="1.63901" result="effect1_foregroundBlur_289_157"/>
</filter>
<filter id="filter18_f_289_157" x="447.414" y="335.561" width="12.2313" height="12.2313" filterUnits="userSpaceOnUse" color-interpolation-filters="sRGB">
<feFlood flood-opacity="0" result="BackgroundImageFix"/>
<feBlend mode="normal" in="SourceGraphic" in2="BackgroundImageFix" result="shape"/>
<feGaussianBlur stdDeviation="1.63901" result="effect1_foregroundBlur_289_157"/>
</filter>
<filter id="filter19_f_289_157" x="455.768" y="318.099" width="12.2313" height="12.2313" filterUnits="userSpaceOnUse" color-interpolation-filters="sRGB">
<feFlood flood-opacity="0" result="BackgroundImageFix"/>
<feBlend mode="normal" in="SourceGraphic" in2="BackgroundImageFix" result="shape"/>
<feGaussianBlur stdDeviation="1.63901" result="effect1_foregroundBlur_289_157"/>
</filter>
<filter id="filter20_f_289_157" x="473.811" y="306.014" width="12.2313" height="12.2313" filterUnits="userSpaceOnUse" color-interpolation-filters="sRGB">
<feFlood flood-opacity="0" result="BackgroundImageFix"/>
<feBlend mode="normal" in="SourceGraphic" in2="BackgroundImageFix" result="shape"/>
<feGaussianBlur stdDeviation="1.63901" result="effect1_foregroundBlur_289_157"/>
</filter>
<filter id="filter21_f_289_157" x="483.023" y="265.21" width="12.2313" height="12.2313" filterUnits="userSpaceOnUse" color-interpolation-filters="sRGB">
<feFlood flood-opacity="0" result="BackgroundImageFix"/>
<feBlend mode="normal" in="SourceGraphic" in2="BackgroundImageFix" result="shape"/>
<feGaussianBlur stdDeviation="1.63901" result="effect1_foregroundBlur_289_157"/>
</filter>
<filter id="filter22_f_289_157" x="70.7812" y="270.121" width="208.801" height="145.207" filterUnits="userSpaceOnUse" color-interpolation-filters="sRGB">
<feFlood flood-opacity="0" result="BackgroundImageFix"/>
<feBlend mode="normal" in="SourceGraphic" in2="BackgroundImageFix" result="shape"/>
<feGaussianBlur stdDeviation="0.891434" result="effect1_foregroundBlur_289_157"/>
</filter>
<filter id="filter23_f_289_157" x="70.8873" y="381.852" width="185.369" height="106.973" filterUnits="userSpaceOnUse" color-interpolation-filters="sRGB">
<feFlood flood-opacity="0" result="BackgroundImageFix"/>
<feBlend mode="normal" in="SourceGraphic" in2="BackgroundImageFix" result="shape"/>
<feGaussianBlur stdDeviation="4.95325" result="effect1_foregroundBlur_289_157"/>
</filter>
<filter id="filter24_f_289_157" x="8.88095" y="338.067" width="103.318" height="108.223" filterUnits="userSpaceOnUse" color-interpolation-filters="sRGB">
<feFlood flood-opacity="0" result="BackgroundImageFix"/>
<feBlend mode="normal" in="SourceGraphic" in2="BackgroundImageFix" result="shape"/>
<feGaussianBlur stdDeviation="6.41035" result="effect1_foregroundBlur_289_157"/>
</filter>
<filter id="filter25_f_289_157" x="77.3402" y="338.914" width="91.9789" height="53.2642" filterUnits="userSpaceOnUse" color-interpolation-filters="sRGB">
<feFlood flood-opacity="0" result="BackgroundImageFix"/>
<feBlend mode="normal" in="SourceGraphic" in2="BackgroundImageFix" result="shape"/>
<feGaussianBlur stdDeviation="4.4013" result="effect1_foregroundBlur_289_157"/>
</filter>
<filter id="filter26_f_289_157" x="215.993" y="367.626" width="47.5725" height="47.3844" filterUnits="userSpaceOnUse" color-interpolation-filters="sRGB">
<feFlood flood-opacity="0" result="BackgroundImageFix"/>
<feBlend mode="normal" in="SourceGraphic" in2="BackgroundImageFix" result="shape"/>
<feGaussianBlur stdDeviation="6.36216" result="effect1_foregroundBlur_289_157"/>
</filter>
<filter id="filter27_f_289_157" x="232.055" y="315.603" width="67.2808" height="65.7728" filterUnits="userSpaceOnUse" color-interpolation-filters="sRGB">
<feFlood flood-opacity="0" result="BackgroundImageFix"/>
<feBlend mode="normal" in="SourceGraphic" in2="BackgroundImageFix" result="shape"/>
<feGaussianBlur stdDeviation="7.48938" result="effect1_foregroundBlur_289_157"/>
</filter>
<filter id="filter28_f_289_157" x="208.859" y="281.785" width="55.5001" height="51.9606" filterUnits="userSpaceOnUse" color-interpolation-filters="sRGB">
<feFlood flood-opacity="0" result="BackgroundImageFix"/>
<feBlend mode="normal" in="SourceGraphic" in2="BackgroundImageFix" result="shape"/>
<feGaussianBlur stdDeviation="6.04879" result="effect1_foregroundBlur_289_157"/>
</filter>
<filter id="filter29_f_289_157" x="173.498" y="263.157" width="43.7131" height="43.525" filterUnits="userSpaceOnUse" color-interpolation-filters="sRGB">
<feFlood flood-opacity="0" result="BackgroundImageFix"/>
<feBlend mode="normal" in="SourceGraphic" in2="BackgroundImageFix" result="shape"/>
<feGaussianBlur stdDeviation="5.39731" result="effect1_foregroundBlur_289_157"/>
</filter>
<filter id="filter30_f_289_157" x="196.432" y="330.668" width="42.9895" height="35.9019" filterUnits="userSpaceOnUse" color-interpolation-filters="sRGB">
<feFlood flood-opacity="0" result="BackgroundImageFix"/>
<feBlend mode="normal" in="SourceGraphic" in2="BackgroundImageFix" result="shape"/>
<feGaussianBlur stdDeviation="3.55655" result="effect1_foregroundBlur_289_157"/>
</filter>
<filter id="filter31_f_289_157" x="178.632" y="308.661" width="36.655" height="39.7176" filterUnits="userSpaceOnUse" color-interpolation-filters="sRGB">
<feFlood flood-opacity="0" result="BackgroundImageFix"/>
<feBlend mode="normal" in="SourceGraphic" in2="BackgroundImageFix" result="shape"/>
<feGaussianBlur stdDeviation="3.44237" result="effect1_foregroundBlur_289_157"/>
</filter>
<filter id="filter32_f_289_157" x="163.189" y="372.825" width="16.0854" height="15.9666" filterUnits="userSpaceOnUse" color-interpolation-filters="sRGB">
<feFlood flood-opacity="0" result="BackgroundImageFix"/>
<feBlend mode="normal" in="SourceGraphic" in2="BackgroundImageFix" result="shape"/>
<feGaussianBlur stdDeviation="2.14748" result="effect1_foregroundBlur_289_157"/>
</filter>
<filter id="filter33_f_289_157" x="165.357" y="347.311" width="22.2196" height="22.2196" filterUnits="userSpaceOnUse" color-interpolation-filters="sRGB">
<feFlood flood-opacity="0" result="BackgroundImageFix"/>
<feBlend mode="normal" in="SourceGraphic" in2="BackgroundImageFix" result="shape"/>
<feGaussianBlur stdDeviation="2.97746" result="effect1_foregroundBlur_289_157"/>
</filter>
<filter id="filter34_f_289_157" x="178.55" y="356.289" width="27.421" height="28.026" filterUnits="userSpaceOnUse" color-interpolation-filters="sRGB">
<feFlood flood-opacity="0" result="BackgroundImageFix"/>
<feBlend mode="normal" in="SourceGraphic" in2="BackgroundImageFix" result="shape"/>
<feGaussianBlur stdDeviation="3.71452" result="effect1_foregroundBlur_289_157"/>
</filter>
<filter id="filter35_f_289_157" x="22.8938" y="96.6225" width="295.526" height="196.873" filterUnits="userSpaceOnUse" color-interpolation-filters="sRGB">
<feFlood flood-opacity="0" result="BackgroundImageFix"/>
<feBlend mode="normal" in="SourceGraphic" in2="BackgroundImageFix" result="shape"/>
<feGaussianBlur stdDeviation="5.05349" result="effect1_foregroundBlur_289_157"/>
</filter>
<filter id="filter36_f_289_157" x="13.9544" y="151.006" width="343.311" height="169.181" filterUnits="userSpaceOnUse" color-interpolation-filters="sRGB">
<feFlood flood-opacity="0" result="BackgroundImageFix"/>
<feBlend mode="normal" in="SourceGraphic" in2="BackgroundImageFix" result="shape"/>
<feGaussianBlur stdDeviation="8.70946" result="effect1_foregroundBlur_289_157"/>
</filter>
<filter id="filter37_f_289_157" x="127.722" y="143.129" width="81.6343" height="68.5753" filterUnits="userSpaceOnUse" color-interpolation-filters="sRGB">
<feFlood flood-opacity="0" result="BackgroundImageFix"/>
<feBlend mode="normal" in="SourceGraphic" in2="BackgroundImageFix" result="shape"/>
<feGaussianBlur stdDeviation="1.93076" result="effect1_foregroundBlur_289_157"/>
</filter>
<filter id="filter38_f_289_157" x="141.385" y="154.07" width="56.9492" height="48.65" filterUnits="userSpaceOnUse" color-interpolation-filters="sRGB">
<feFlood flood-opacity="0" result="BackgroundImageFix"/>
<feBlend mode="normal" in="SourceGraphic" in2="BackgroundImageFix" result="shape"/>
<feGaussianBlur stdDeviation="2.95409" result="effect1_foregroundBlur_289_157"/>
</filter>
<filter id="filter39_f_289_157" x="249.075" y="161.767" width="22.2196" height="22.2196" filterUnits="userSpaceOnUse" color-interpolation-filters="sRGB">
<feFlood flood-opacity="0" result="BackgroundImageFix"/>
<feBlend mode="normal" in="SourceGraphic" in2="BackgroundImageFix" result="shape"/>
<feGaussianBlur stdDeviation="2.97746" result="effect1_foregroundBlur_289_157"/>
</filter>
<filter id="filter40_f_289_157" x="269.926" y="177.348" width="16.9676" height="16.9675" filterUnits="userSpaceOnUse" color-interpolation-filters="sRGB">
<feFlood flood-opacity="0" result="BackgroundImageFix"/>
<feBlend mode="normal" in="SourceGraphic" in2="BackgroundImageFix" result="shape"/>
<feGaussianBlur stdDeviation="2.27368" result="effect1_foregroundBlur_289_157"/>
</filter>
<filter id="filter41_f_289_157" x="254.245" y="189.568" width="12.2313" height="12.2313" filterUnits="userSpaceOnUse" color-interpolation-filters="sRGB">
<feFlood flood-opacity="0" result="BackgroundImageFix"/>
<feBlend mode="normal" in="SourceGraphic" in2="BackgroundImageFix" result="shape"/>
<feGaussianBlur stdDeviation="1.63901" result="effect1_foregroundBlur_289_157"/>
</filter>
<filter id="filter42_f_289_157" x="249.205" y="127.018" width="22.2196" height="22.2196" filterUnits="userSpaceOnUse" color-interpolation-filters="sRGB">
<feFlood flood-opacity="0" result="BackgroundImageFix"/>
<feBlend mode="normal" in="SourceGraphic" in2="BackgroundImageFix" result="shape"/>
<feGaussianBlur stdDeviation="2.97746" result="effect1_foregroundBlur_289_157"/>
</filter>
<filter id="filter43_f_289_157" x="220.597" y="117.03" width="22.2196" height="22.2196" filterUnits="userSpaceOnUse" color-interpolation-filters="sRGB">
<feFlood flood-opacity="0" result="BackgroundImageFix"/>
<feBlend mode="normal" in="SourceGraphic" in2="BackgroundImageFix" result="shape"/>
<feGaussianBlur stdDeviation="2.97746" result="effect1_foregroundBlur_289_157"/>
</filter>
<filter id="filter44_f_289_157" x="88.9663" y="167.867" width="22.2196" height="22.2196" filterUnits="userSpaceOnUse" color-interpolation-filters="sRGB">
<feFlood flood-opacity="0" result="BackgroundImageFix"/>
<feBlend mode="normal" in="SourceGraphic" in2="BackgroundImageFix" result="shape"/>
<feGaussianBlur stdDeviation="2.97746" result="effect1_foregroundBlur_289_157"/>
</filter>
<filter id="filter45_f_289_157" x="232.708" y="137.345" width="22.2196" height="22.2196" filterUnits="userSpaceOnUse" color-interpolation-filters="sRGB">
<feFlood flood-opacity="0" result="BackgroundImageFix"/>
<feBlend mode="normal" in="SourceGraphic" in2="BackgroundImageFix" result="shape"/>
<feGaussianBlur stdDeviation="2.97746" result="effect1_foregroundBlur_289_157"/>
</filter>
<filter id="filter46_f_289_157" x="260.537" y="149.717" width="12.2313" height="12.2313" filterUnits="userSpaceOnUse" color-interpolation-filters="sRGB">
<feFlood flood-opacity="0" result="BackgroundImageFix"/>
<feBlend mode="normal" in="SourceGraphic" in2="BackgroundImageFix" result="shape"/>
<feGaussianBlur stdDeviation="1.63901" result="effect1_foregroundBlur_289_157"/>
</filter>
<filter id="filter47_f_289_157" x="216.633" y="139.266" width="12.2313" height="12.2313" filterUnits="userSpaceOnUse" color-interpolation-filters="sRGB">
<feFlood flood-opacity="0" result="BackgroundImageFix"/>
<feBlend mode="normal" in="SourceGraphic" in2="BackgroundImageFix" result="shape"/>
<feGaussianBlur stdDeviation="1.63901" result="effect1_foregroundBlur_289_157"/>
</filter>
<filter id="filter48_f_289_157" x="97.7776" y="188.499" width="22.2196" height="22.2196" filterUnits="userSpaceOnUse" color-interpolation-filters="sRGB">
<feFlood flood-opacity="0" result="BackgroundImageFix"/>
<feBlend mode="normal" in="SourceGraphic" in2="BackgroundImageFix" result="shape"/>
<feGaussianBlur stdDeviation="2.97746" result="effect1_foregroundBlur_289_157"/>
</filter>
<filter id="filter49_f_289_157" x="79.0561" y="182.122" width="22.2196" height="22.2196" filterUnits="userSpaceOnUse" color-interpolation-filters="sRGB">
<feFlood flood-opacity="0" result="BackgroundImageFix"/>
<feBlend mode="normal" in="SourceGraphic" in2="BackgroundImageFix" result="shape"/>
<feGaussianBlur stdDeviation="2.97746" result="effect1_foregroundBlur_289_157"/>
</filter>
<filter id="filter50_f_289_157" x="45.2679" y="142.113" width="22.2196" height="22.2196" filterUnits="userSpaceOnUse" color-interpolation-filters="sRGB">
<feFlood flood-opacity="0" result="BackgroundImageFix"/>
<feBlend mode="normal" in="SourceGraphic" in2="BackgroundImageFix" result="shape"/>
<feGaussianBlur stdDeviation="2.97746" result="effect1_foregroundBlur_289_157"/>
</filter>
<filter id="filter51_f_289_157" x="94.8038" y="145.224" width="12.2313" height="12.2313" filterUnits="userSpaceOnUse" color-interpolation-filters="sRGB">
<feFlood flood-opacity="0" result="BackgroundImageFix"/>
<feBlend mode="normal" in="SourceGraphic" in2="BackgroundImageFix" result="shape"/>
<feGaussianBlur stdDeviation="1.63901" result="effect1_foregroundBlur_289_157"/>
</filter>
<filter id="filter52_f_289_157" x="113.611" y="70.2519" width="108.595" height="74.0888" filterUnits="userSpaceOnUse" color-interpolation-filters="sRGB">
<feFlood flood-opacity="0" result="BackgroundImageFix"/>
<feBlend mode="normal" in="SourceGraphic" in2="BackgroundImageFix" result="shape"/>
<feGaussianBlur stdDeviation="9.18442" result="effect1_foregroundBlur_289_157"/>
</filter>
<filter id="filter53_f_289_157" x="207.897" y="96.2113" width="22.2196" height="22.2196" filterUnits="userSpaceOnUse" color-interpolation-filters="sRGB">
<feFlood flood-opacity="0" result="BackgroundImageFix"/>
<feBlend mode="normal" in="SourceGraphic" in2="BackgroundImageFix" result="shape"/>
<feGaussianBlur stdDeviation="2.97746" result="effect1_foregroundBlur_289_157"/>
</filter>
<filter id="filter54_f_289_157" x="194.978" y="119.378" width="22.2196" height="22.2196" filterUnits="userSpaceOnUse" color-interpolation-filters="sRGB">
<feFlood flood-opacity="0" result="BackgroundImageFix"/>
<feBlend mode="normal" in="SourceGraphic" in2="BackgroundImageFix" result="shape"/>
<feGaussianBlur stdDeviation="2.97746" result="effect1_foregroundBlur_289_157"/>
</filter>
<filter id="filter55_f_289_157" x="103.676" y="119.953" width="12.2313" height="12.2313" filterUnits="userSpaceOnUse" color-interpolation-filters="sRGB">
<feFlood flood-opacity="0" result="BackgroundImageFix"/>
<feBlend mode="normal" in="SourceGraphic" in2="BackgroundImageFix" result="shape"/>
<feGaussianBlur stdDeviation="1.63901" result="effect1_foregroundBlur_289_157"/>
</filter>
<filter id="filter56_f_289_157" x="176.607" y="100.568" width="22.2196" height="22.2196" filterUnits="userSpaceOnUse" color-interpolation-filters="sRGB">
<feFlood flood-opacity="0" result="BackgroundImageFix"/>
<feBlend mode="normal" in="SourceGraphic" in2="BackgroundImageFix" result="shape"/>
<feGaussianBlur stdDeviation="2.97746" result="effect1_foregroundBlur_289_157"/>
</filter>
<filter id="filter57_f_289_157" x="117" y="92.9324" width="12.2313" height="12.2313" filterUnits="userSpaceOnUse" color-interpolation-filters="sRGB">
<feFlood flood-opacity="0" result="BackgroundImageFix"/>
<feBlend mode="normal" in="SourceGraphic" in2="BackgroundImageFix" result="shape"/>
<feGaussianBlur stdDeviation="1.63901" result="effect1_foregroundBlur_289_157"/>
</filter>
<filter id="filter58_f_289_157" x="138.262" y="106.93" width="12.2313" height="12.2313" filterUnits="userSpaceOnUse" color-interpolation-filters="sRGB">
<feFlood flood-opacity="0" result="BackgroundImageFix"/>
<feBlend mode="normal" in="SourceGraphic" in2="BackgroundImageFix" result="shape"/>
<feGaussianBlur stdDeviation="1.63901" result="effect1_foregroundBlur_289_157"/>
</filter>
<filter id="filter59_f_289_157" x="40.1972" y="-7.29699" width="353.629" height="235.428" filterUnits="userSpaceOnUse" color-interpolation-filters="sRGB">
<feFlood flood-opacity="0" result="BackgroundImageFix"/>
<feBlend mode="normal" in="SourceGraphic" in2="BackgroundImageFix" result="shape"/>
<feGaussianBlur stdDeviation="6.49853" result="effect1_foregroundBlur_289_157"/>
</filter>
<filter id="filter60_f_289_157" x="0.448616" y="-9.58959" width="325.012" height="219.393" filterUnits="userSpaceOnUse" color-interpolation-filters="sRGB">
<feFlood flood-opacity="0" result="BackgroundImageFix"/>
<feBlend mode="normal" in="SourceGraphic" in2="BackgroundImageFix" result="shape"/>
<feGaussianBlur stdDeviation="22.6045" result="effect1_foregroundBlur_289_157"/>
</filter>
<linearGradient id="paint0_linear_289_157" x1="357.986" y1="182.572" x2="332.827" y2="341.178" gradientUnits="userSpaceOnUse">
<stop stop-opacity="0"/>
<stop offset="1" stop-color="#25556C" stop-opacity="0.161413"/>
</linearGradient>
<linearGradient id="paint1_linear_289_157" x1="373.229" y1="301.579" x2="383.352" y2="354.306" gradientUnits="userSpaceOnUse">
<stop stop-color="#010101" stop-opacity="0.196078"/>
<stop offset="1" stop-color="#010101" stop-opacity="0"/>
</linearGradient>
<linearGradient id="paint2_linear_289_157" x1="139.307" y1="400.51" x2="251.55" y2="316.26" gradientUnits="userSpaceOnUse">
<stop stop-color="#FFF866" stop-opacity="0"/>
<stop offset="1" stop-color="#FFF866" stop-opacity="0.278616"/>
</linearGradient>
<radialGradient id="paint3_radial_289_157" cx="0" cy="0" r="1" gradientUnits="userSpaceOnUse" gradientTransform="translate(265.235 100.215) rotate(47.447) scale(31.5792 11.5946)">
<stop stop-color="#1A1A1A" stop-opacity="0.7"/>
<stop offset="1" stop-color="#1A1A1A" stop-opacity="0.16"/>
</radialGradient>
<linearGradient id="paint4_linear_289_157" x1="119.35" y1="143.554" x2="169.103" y2="183.858" gradientUnits="userSpaceOnUse">
<stop stop-color="#514D00" stop-opacity="0.28"/>
<stop offset="1" stop-color="#FFF866" stop-opacity="0.38"/>
</linearGradient>
<linearGradient id="paint5_linear_289_157" x1="130.35" y1="148.554" x2="130.35" y2="213.554" gradientUnits="userSpaceOnUse">
<stop stop-color="#454020"/>
<stop offset="1" stop-opacity="0.224535"/>
</linearGradient>
<radialGradient id="paint6_radial_289_157" cx="0" cy="0" r="1" gradientUnits="userSpaceOnUse" gradientTransform="translate(170.174 163.194) rotate(21.731) scale(46.5114 44.2901)">
<stop stop-color="#485A37" stop-opacity="0"/>
<stop offset="0.68" stop-color="#485A37" stop-opacity="0"/>
<stop offset="0.763002" stop-color="#51653E" stop-opacity="0.164706"/>
<stop offset="1" stop-color="#51653E"/>
</radialGradient>
<radialGradient id="paint7_radial_289_157" cx="0" cy="0" r="1" gradientUnits="userSpaceOnUse" gradientTransform="translate(186.946 195.513) rotate(-0.786742) scale(77.4416 52.1241)">
<stop stop-color="#FEFEFD" stop-opacity="0"/>
<stop offset="0.7" stop-color="white" stop-opacity="0"/>
<stop offset="0.82" stop-color="white" stop-opacity="0.220521"/>
<stop offset="1" stop-color="white" stop-opacity="0.638164"/>
</radialGradient>
<linearGradient id="paint8_linear_289_157" x1="231.35" y1="198.554" x2="171.36" y2="178.525" gradientUnits="userSpaceOnUse">
<stop stop-color="#514D00" stop-opacity="0.164922"/>
<stop offset="1" stop-color="#FFF866" stop-opacity="0.341176"/>
</linearGradient>
</defs>
</svg>
