<svg width="6" height="8" viewBox="0 0 6 8" fill="none" xmlns="http://www.w3.org/2000/svg" preserveAspectRatio="none">
<mask id="mask0_529_370" style="mask-type:alpha" maskUnits="userSpaceOnUse" x="0" y="0" width="6" height="8">
<rect width="6" height="8" fill="white"/>
</mask>
<g mask="url(#mask0_529_370)">
<mask id="path-2-outside-1_529_370" maskUnits="userSpaceOnUse" x="0" y="-6" width="13" height="20" fill="black">
<rect fill="white" y="-6" width="13" height="20"/>
<path d="M1 -6H12V8C12 10.7614 9.76142 13 7 13H6C3.23858 13 1 10.7614 1 8V-6Z"/>
</mask>
<path d="M1 -6H12H1ZM13 8C13 11.3137 10.3137 14 7 14H6C2.68629 14 0 11.3137 0 8H2C2 10.2091 3.79086 12 6 12H7C9.20914 12 11 10.2091 11 8H13ZM6 14C2.68629 14 0 11.3137 0 8V-6H2V8C2 10.2091 3.79086 12 6 12V14ZM13 -6V8C13 11.3137 10.3137 14 7 14V12C9.20914 12 11 10.2091 11 8V-6H13Z" fill="white" fill-opacity="0.7" mask="url(#path-2-outside-1_529_370)"/>
<mask id="path-4-inside-2_529_370" fill="white">
<path d="M1 -6H12V8C12 10.7614 9.76142 13 7 13H6C3.23858 13 1 10.7614 1 8V-6Z"/>
</mask>
<path d="M1 -6H12H1ZM13 8C13 11.3137 10.3137 14 7 14H6C2.68629 14 0 11.3137 0 8H2C2 10.2091 3.79086 12 6 12H7C9.20914 12 11 10.2091 11 8H13ZM6 14C2.68629 14 0 11.3137 0 8V-6H2V8C2 10.2091 3.79086 12 6 12V14ZM13 -6V8C13 11.3137 10.3137 14 7 14V12C9.20914 12 11 10.2091 11 8V-6H13Z" fill="black" fill-opacity="0.6" mask="url(#path-4-inside-2_529_370)"/>
<mask id="path-6-outside-3_529_370" maskUnits="userSpaceOnUse" x="2" y="-5" width="9" height="17" fill="black">
<rect fill="white" x="2" y="-5" width="9" height="17"/>
<path d="M3 -5H10V8C10 9.65685 8.65685 11 7 11H6C4.34315 11 3 9.65685 3 8V-5Z"/>
</mask>
<path d="M3 -5H10V8C10 9.65685 8.65685 11 7 11H6C4.34315 11 3 9.65685 3 8V-5Z" fill="url(#paint0_linear_529_370)"/>
<path d="M3 -5H10H3ZM11 8C11 10.2091 9.20914 12 7 12H6C3.79086 12 2 10.2091 2 8H4C4 9.10457 4.89543 10 6 10H7C8.10457 10 9 9.10457 9 8H11ZM6 12C3.79086 12 2 10.2091 2 8V-5H4V8C4 9.10457 4.89543 10 6 10V12ZM11 -5V8C11 10.2091 9.20914 12 7 12V10C8.10457 10 9 9.10457 9 8V-5H11Z" fill="url(#paint1_linear_529_370)" mask="url(#path-6-outside-3_529_370)"/>
</g>
<defs>
<linearGradient id="paint0_linear_529_370" x1="6.5" y1="-4.5" x2="6.5" y2="10.5" gradientUnits="userSpaceOnUse">
<stop stop-color="#CECECE" stop-opacity="0.73"/>
<stop offset="0.50026" stop-color="#BDBDBD" stop-opacity="0.68"/>
<stop offset="0.50036" stop-opacity="0.28"/>
<stop offset="1" stop-color="#525252" stop-opacity="0.45"/>
</linearGradient>
<linearGradient id="paint1_linear_529_370" x1="6.5" y1="-4.5" x2="6.5" y2="11.5" gradientUnits="userSpaceOnUse">
<stop stop-color="#E3E3E3" stop-opacity="0.8"/>
<stop offset="0.468994" stop-color="#DADADA" stop-opacity="0.76"/>
<stop offset="0.469094" stop-color="#989898" stop-opacity="0.51"/>
<stop offset="1" stop-color="#B4B4B4" stop-opacity="0.62"/>
</linearGradient>
</defs>
</svg>
