<svg width="6" height="8" viewBox="0 0 6 8" fill="none" xmlns="http://www.w3.org/2000/svg" preserveAspectRatio="none">
<mask id="mask0_529_376" style="mask-type:alpha" maskUnits="userSpaceOnUse" x="0" y="0" width="6" height="8">
<rect width="6" height="8" fill="white"/>
</mask>
<g mask="url(#mask0_529_376)">
<mask id="path-2-outside-1_529_376" maskUnits="userSpaceOnUse" x="-7" y="-6" width="13" height="20" fill="black">
<rect fill="white" x="-7" y="-6" width="13" height="20"/>
<path d="M-6 -6H5V8C5 10.7614 2.76142 13 -1.49012e-07 13H-1C-3.76142 13 -6 10.7614 -6 8V-6Z"/>
</mask>
<path d="M-6 -6H5H-6ZM6 8C6 11.3137 3.31371 14 0 14H-1C-4.31371 14 -7 11.3137 -7 8H-5C-5 10.2091 -3.20914 12 -1 12H0C2.20914 12 4 10.2091 4 8H6ZM-1 14C-4.31371 14 -7 11.3137 -7 8V-6H-5V8C-5 10.2091 -3.20914 12 -1 12V14ZM6 -6V8C6 11.3137 3.31371 14 0 14V12C2.20914 12 4 10.2091 4 8V-6H6Z" fill="white" fill-opacity="0.7" mask="url(#path-2-outside-1_529_376)"/>
<mask id="path-4-inside-2_529_376" fill="white">
<path d="M-6 -6H5V8C5 10.7614 2.76142 13 -1.49012e-07 13H-1C-3.76142 13 -6 10.7614 -6 8V-6Z"/>
</mask>
<path d="M-6 -6H5H-6ZM6 8C6 11.3137 3.31371 14 0 14H-1C-4.31371 14 -7 11.3137 -7 8H-5C-5 10.2091 -3.20914 12 -1 12H0C2.20914 12 4 10.2091 4 8H6ZM-1 14C-4.31371 14 -7 11.3137 -7 8V-6H-5V8C-5 10.2091 -3.20914 12 -1 12V14ZM6 -6V8C6 11.3137 3.31371 14 0 14V12C2.20914 12 4 10.2091 4 8V-6H6Z" fill="black" fill-opacity="0.6" mask="url(#path-4-inside-2_529_376)"/>
<mask id="path-6-outside-3_529_376" maskUnits="userSpaceOnUse" x="-5" y="-5" width="9" height="17" fill="black">
<rect fill="white" x="-5" y="-5" width="9" height="17"/>
<path d="M-4 -5H3V8C3 9.65685 1.65685 11 -2.98023e-08 11H-1C-2.65685 11 -4 9.65685 -4 8V-5Z"/>
</mask>
<path d="M-4 -5H3V8C3 9.65685 1.65685 11 -2.98023e-08 11H-1C-2.65685 11 -4 9.65685 -4 8V-5Z" fill="url(#paint0_linear_529_376)"/>
<path d="M-4 -5H3H-4ZM4 8C4 10.2091 2.20914 12 0 12H-1C-3.20914 12 -5 10.2091 -5 8H-3C-3 9.10457 -2.10457 10 -1 10H0C1.10457 10 2 9.10457 2 8H4ZM-1 12C-3.20914 12 -5 10.2091 -5 8V-5H-3V8C-3 9.10457 -2.10457 10 -1 10V12ZM4 -5V8C4 10.2091 2.20914 12 0 12V10C1.10457 10 2 9.10457 2 8V-5H4Z" fill="url(#paint1_linear_529_376)" mask="url(#path-6-outside-3_529_376)"/>
</g>
<defs>
<linearGradient id="paint0_linear_529_376" x1="-0.5" y1="-4.5" x2="-0.5" y2="10.5" gradientUnits="userSpaceOnUse">
<stop stop-color="#CECECE" stop-opacity="0.73"/>
<stop offset="0.50026" stop-color="#BDBDBD" stop-opacity="0.68"/>
<stop offset="0.50036" stop-opacity="0.28"/>
<stop offset="1" stop-color="#525252" stop-opacity="0.45"/>
</linearGradient>
<linearGradient id="paint1_linear_529_376" x1="-0.5" y1="-4.5" x2="-0.5" y2="11.5" gradientUnits="userSpaceOnUse">
<stop stop-color="#E3E3E3" stop-opacity="0.8"/>
<stop offset="0.468994" stop-color="#DADADA" stop-opacity="0.76"/>
<stop offset="0.469094" stop-color="#989898" stop-opacity="0.51"/>
<stop offset="1" stop-color="#B4B4B4" stop-opacity="0.62"/>
</linearGradient>
</defs>
</svg>
