<svg width="1" height="6" viewBox="0 0 1 6" fill="none" xmlns="http://www.w3.org/2000/svg" preserveAspectRatio="none">
<mask id="mask0_529_364" style="mask-type:alpha" maskUnits="userSpaceOnUse" x="0" y="0" width="1" height="6">
<rect width="1" height="6" fill="white"/>
</mask>
<g mask="url(#mask0_529_364)">
<mask id="path-2-outside-1_529_364" maskUnits="userSpaceOnUse" x="-6" y="0" width="13" height="20" fill="black">
<rect fill="white" x="-6" width="13" height="20"/>
<path d="M-5 0H6V14C6 16.7614 3.76142 19 1 19H-1.78814e-07C-2.76142 19 -5 16.7614 -5 14V0Z"/>
</mask>
<path d="M-5 0H6H-5ZM7 14C7 17.3137 4.31371 20 1 20H0C-3.31371 20 -6 17.3137 -6 14H-4C-4 16.2091 -2.20914 18 0 18H1C3.20914 18 5 16.2091 5 14H7ZM0 20C-3.31371 20 -6 17.3137 -6 14V0H-4V14C-4 16.2091 -2.20914 18 0 18V20ZM7 0V14C7 17.3137 4.31371 20 1 20V18C3.20914 18 5 16.2091 5 14V0H7Z" fill="white" fill-opacity="0.7" mask="url(#path-2-outside-1_529_364)"/>
<mask id="path-4-inside-2_529_364" fill="white">
<path d="M-5 0H6V14C6 16.7614 3.76142 19 1 19H-1.78814e-07C-2.76142 19 -5 16.7614 -5 14V0Z"/>
</mask>
<path d="M-5 0H6H-5ZM7 14C7 17.3137 4.31371 20 1 20H0C-3.31371 20 -6 17.3137 -6 14H-4C-4 16.2091 -2.20914 18 0 18H1C3.20914 18 5 16.2091 5 14H7ZM0 20C-3.31371 20 -6 17.3137 -6 14V0H-4V14C-4 16.2091 -2.20914 18 0 18V20ZM7 0V14C7 17.3137 4.31371 20 1 20V18C3.20914 18 5 16.2091 5 14V0H7Z" fill="black" fill-opacity="0.6" mask="url(#path-4-inside-2_529_364)"/>
<rect x="-4" width="9" height="1" fill="#FCFCFC"/>
<mask id="path-7-outside-3_529_364" maskUnits="userSpaceOnUse" x="-4" y="1" width="9" height="17" fill="black">
<rect fill="white" x="-4" y="1" width="9" height="17"/>
<path d="M-3 1H4V14C4 15.6569 2.65685 17 1 17H-1.78814e-07C-1.65685 17 -3 15.6569 -3 14V1Z"/>
</mask>
<path d="M-3 1H4V14C4 15.6569 2.65685 17 1 17H-1.78814e-07C-1.65685 17 -3 15.6569 -3 14V1Z" fill="url(#paint0_linear_529_364)"/>
<path d="M-3 1H4H-3ZM5 14C5 16.2091 3.20914 18 1 18H0C-2.20914 18 -4 16.2091 -4 14H-2C-2 15.1046 -1.10457 16 0 16H1C2.10457 16 3 15.1046 3 14H5ZM0 18C-2.20914 18 -4 16.2091 -4 14V1H-2V14C-2 15.1046 -1.10457 16 0 16V18ZM5 1V14C5 16.2091 3.20914 18 1 18V16C2.10457 16 3 15.1046 3 14V1H5Z" fill="url(#paint1_linear_529_364)" mask="url(#path-7-outside-3_529_364)"/>
</g>
<defs>
<linearGradient id="paint0_linear_529_364" x1="0.5" y1="1.5" x2="0.5" y2="16.5" gradientUnits="userSpaceOnUse">
<stop stop-color="#CECECE" stop-opacity="0.73"/>
<stop offset="0.50026" stop-color="#BDBDBD" stop-opacity="0.68"/>
<stop offset="0.50036" stop-opacity="0.28"/>
<stop offset="1" stop-color="#525252" stop-opacity="0.45"/>
</linearGradient>
<linearGradient id="paint1_linear_529_364" x1="0.5" y1="1.5" x2="0.5" y2="17.5" gradientUnits="userSpaceOnUse">
<stop stop-color="#E3E3E3" stop-opacity="0.8"/>
<stop offset="0.468994" stop-color="#DADADA" stop-opacity="0.76"/>
<stop offset="0.469094" stop-color="#989898" stop-opacity="0.51"/>
<stop offset="1" stop-color="#B4B4B4" stop-opacity="0.62"/>
</linearGradient>
</defs>
</svg>
