<svg width="6" height="6" viewBox="0 0 6 6" fill="none" xmlns="http://www.w3.org/2000/svg">
<mask id="mask0_529_379" style="mask-type:alpha" maskUnits="userSpaceOnUse" x="0" y="0" width="6" height="6">
<rect width="6" height="6" fill="white"/>
</mask>
<g mask="url(#mask0_529_379)">
<mask id="path-2-outside-1_529_379" maskUnits="userSpaceOnUse" x="0" y="-14" width="13" height="20" fill="black">
<rect fill="white" y="-14" width="13" height="20"/>
<path d="M1 -14H12V-1.78814e-07C12 2.76142 9.76142 5 7 5H6C3.23858 5 1 2.76142 1 -1.78814e-07V-14Z"/>
</mask>
<path d="M1 -14H12H1ZM13 0C13 3.31371 10.3137 6 7 6H6C2.68629 6 0 3.31371 0 0H2C2 2.20914 3.79086 4 6 4H7C9.20914 4 11 2.20914 11 0H13ZM6 6C2.68629 6 0 3.31371 0 0V-14H2V0C2 2.20914 3.79086 4 6 4V6ZM13 -14V0C13 3.31371 10.3137 6 7 6V4C9.20914 4 11 2.20914 11 0V-14H13Z" fill="white" fill-opacity="0.7" mask="url(#path-2-outside-1_529_379)"/>
<mask id="path-4-inside-2_529_379" fill="white">
<path d="M1 -14H12V-1.78814e-07C12 2.76142 9.76142 5 7 5H6C3.23858 5 1 2.76142 1 -1.78814e-07V-14Z"/>
</mask>
<path d="M1 -14H12H1ZM13 0C13 3.31371 10.3137 6 7 6H6C2.68629 6 0 3.31371 0 0H2C2 2.20914 3.79086 4 6 4H7C9.20914 4 11 2.20914 11 0H13ZM6 6C2.68629 6 0 3.31371 0 0V-14H2V0C2 2.20914 3.79086 4 6 4V6ZM13 -14V0C13 3.31371 10.3137 6 7 6V4C9.20914 4 11 2.20914 11 0V-14H13Z" fill="black" fill-opacity="0.6" mask="url(#path-4-inside-2_529_379)"/>
<mask id="path-6-outside-3_529_379" maskUnits="userSpaceOnUse" x="2" y="-13" width="9" height="17" fill="black">
<rect fill="white" x="2" y="-13" width="9" height="17"/>
<path d="M3 -13H10V0C10 1.65685 8.65685 3 7 3H6C4.34315 3 3 1.65685 3 0V-13Z"/>
</mask>
<path d="M3 -13H10V0C10 1.65685 8.65685 3 7 3H6C4.34315 3 3 1.65685 3 0V-13Z" fill="url(#paint0_linear_529_379)"/>
<path d="M3 -13H10H3ZM11 0C11 2.20914 9.20914 4 7 4H6C3.79086 4 2 2.20914 2 0H4C4 1.10457 4.89543 2 6 2H7C8.10457 2 9 1.10457 9 0H11ZM6 4C3.79086 4 2 2.20914 2 0V-13H4V0C4 1.10457 4.89543 2 6 2V4ZM11 -13V0C11 2.20914 9.20914 4 7 4V2C8.10457 2 9 1.10457 9 0V-13H11Z" fill="url(#paint1_linear_529_379)" mask="url(#path-6-outside-3_529_379)"/>
</g>
<defs>
<linearGradient id="paint0_linear_529_379" x1="6.5" y1="-12.5" x2="6.5" y2="2.5" gradientUnits="userSpaceOnUse">
<stop stop-color="#CECECE" stop-opacity="0.73"/>
<stop offset="0.50026" stop-color="#BDBDBD" stop-opacity="0.68"/>
<stop offset="0.50036" stop-opacity="0.28"/>
<stop offset="1" stop-color="#525252" stop-opacity="0.45"/>
</linearGradient>
<linearGradient id="paint1_linear_529_379" x1="6.5" y1="-12.5" x2="6.5" y2="3.5" gradientUnits="userSpaceOnUse">
<stop stop-color="#E3E3E3" stop-opacity="0.8"/>
<stop offset="0.468994" stop-color="#DADADA" stop-opacity="0.76"/>
<stop offset="0.469094" stop-color="#989898" stop-opacity="0.51"/>
<stop offset="1" stop-color="#B4B4B4" stop-opacity="0.62"/>
</linearGradient>
</defs>
</svg>
