<svg width="6" height="6" viewBox="0 0 6 6" fill="none" xmlns="http://www.w3.org/2000/svg">
<mask id="mask0_529_258" style="mask-type:alpha" maskUnits="userSpaceOnUse" x="0" y="0" width="6" height="6">
<rect width="6" height="6" fill="white"/>
</mask>
<g mask="url(#mask0_529_258)">
<mask id="path-2-outside-1_529_258" maskUnits="userSpaceOnUse" x="-7" y="0" width="13" height="20" fill="black">
<rect fill="white" x="-7" width="13" height="20"/>
<path d="M-6 0H5V14C5 16.7614 2.76142 19 -1.49012e-07 19H-1C-3.76142 19 -6 16.7614 -6 14V0Z"/>
</mask>
<path d="M-6 0H5H-6ZM6 14C6 17.3137 3.31371 20 0 20H-1C-4.31371 20 -7 17.3137 -7 14H-5C-5 16.2091 -3.20914 18 -1 18H0C2.20914 18 4 16.2091 4 14H6ZM-1 20C-4.31371 20 -7 17.3137 -7 14V0H-5V14C-5 16.2091 -3.20914 18 -1 18V20ZM6 0V14C6 17.3137 3.31371 20 0 20V18C2.20914 18 4 16.2091 4 14V0H6Z" fill="white" fill-opacity="0.7" mask="url(#path-2-outside-1_529_258)"/>
<mask id="path-4-inside-2_529_258" fill="white">
<path d="M-6 0H5V14C5 16.7614 2.76142 19 -1.49012e-07 19H-1C-3.76142 19 -6 16.7614 -6 14V0Z"/>
</mask>
<path d="M-6 0H5H-6ZM6 14C6 17.3137 3.31371 20 0 20H-1C-4.31371 20 -7 17.3137 -7 14H-5C-5 16.2091 -3.20914 18 -1 18H0C2.20914 18 4 16.2091 4 14H6ZM-1 20C-4.31371 20 -7 17.3137 -7 14V0H-5V14C-5 16.2091 -3.20914 18 -1 18V20ZM6 0V14C6 17.3137 3.31371 20 0 20V18C2.20914 18 4 16.2091 4 14V0H6Z" fill="black" fill-opacity="0.6" mask="url(#path-4-inside-2_529_258)"/>
<rect x="-5" width="9" height="1" fill="#FCFCFC"/>
<mask id="path-7-outside-3_529_258" maskUnits="userSpaceOnUse" x="-5" y="1" width="9" height="17" fill="black">
<rect fill="white" x="-5" y="1" width="9" height="17"/>
<path d="M-4 1H3V14C3 15.6569 1.65685 17 -2.98023e-08 17H-1C-2.65685 17 -4 15.6569 -4 14V1Z"/>
</mask>
<path d="M-4 1H3V14C3 15.6569 1.65685 17 -2.98023e-08 17H-1C-2.65685 17 -4 15.6569 -4 14V1Z" fill="url(#paint0_linear_529_258)"/>
<path d="M-4 1H3H-4ZM4 14C4 16.2091 2.20914 18 0 18H-1C-3.20914 18 -5 16.2091 -5 14H-3C-3 15.1046 -2.10457 16 -1 16H0C1.10457 16 2 15.1046 2 14H4ZM-1 18C-3.20914 18 -5 16.2091 -5 14V1H-3V14C-3 15.1046 -2.10457 16 -1 16V18ZM4 1V14C4 16.2091 2.20914 18 0 18V16C1.10457 16 2 15.1046 2 14V1H4Z" fill="url(#paint1_linear_529_258)" mask="url(#path-7-outside-3_529_258)"/>
</g>
<defs>
<linearGradient id="paint0_linear_529_258" x1="-0.5" y1="1.5" x2="-0.5" y2="16.5" gradientUnits="userSpaceOnUse">
<stop stop-color="#E4E4E4" stop-opacity="0.66"/>
<stop offset="0.50026" stop-color="#DADADA" stop-opacity="0.59"/>
<stop offset="0.50036" stop-color="#7A7A7A" stop-opacity="0.28"/>
<stop offset="1" stop-color="#ACACAC" stop-opacity="0.38"/>
</linearGradient>
<linearGradient id="paint1_linear_529_258" x1="-0.5" y1="1.5" x2="-0.5" y2="17.5" gradientUnits="userSpaceOnUse">
<stop stop-color="#F3F3F3" stop-opacity="0.8"/>
<stop offset="0.468994" stop-color="#EFEFEF" stop-opacity="0.76"/>
<stop offset="0.469094" stop-color="#D1D1D1" stop-opacity="0.51"/>
<stop offset="1" stop-color="#DCDCDC" stop-opacity="0.59"/>
</linearGradient>
</defs>
</svg>
