<svg width="1" height="6" viewBox="0 0 1 6" fill="none" xmlns="http://www.w3.org/2000/svg" preserveAspectRatio="none">
<mask id="mask0_529_275" style="mask-type:alpha" maskUnits="userSpaceOnUse" x="0" y="0" width="1" height="6">
<rect width="1" height="6" fill="white"/>
</mask>
<g mask="url(#mask0_529_275)">
<mask id="path-2-outside-1_529_275" maskUnits="userSpaceOnUse" x="-6" y="-14" width="13" height="20" fill="black">
<rect fill="white" x="-6" y="-14" width="13" height="20"/>
<path d="M-5 -14H6V-1.78814e-07C6 2.76142 3.76142 5 1 5H-1.78814e-07C-2.76142 5 -5 2.76142 -5 -1.78814e-07V-14Z"/>
</mask>
<path d="M-5 -14H6H-5ZM7 0C7 3.31371 4.31371 6 1 6H0C-3.31371 6 -6 3.31371 -6 0H-4C-4 2.20914 -2.20914 4 0 4H1C3.20914 4 5 2.20914 5 0H7ZM0 6C-3.31371 6 -6 3.31371 -6 0V-14H-4V0C-4 2.20914 -2.20914 4 0 4V6ZM7 -14V0C7 3.31371 4.31371 6 1 6V4C3.20914 4 5 2.20914 5 0V-14H7Z" fill="white" fill-opacity="0.7" mask="url(#path-2-outside-1_529_275)"/>
<mask id="path-4-inside-2_529_275" fill="white">
<path d="M-5 -14H6V-1.78814e-07C6 2.76142 3.76142 5 1 5H-1.78814e-07C-2.76142 5 -5 2.76142 -5 -1.78814e-07V-14Z"/>
</mask>
<path d="M-5 -14H6H-5ZM7 0C7 3.31371 4.31371 6 1 6H0C-3.31371 6 -6 3.31371 -6 0H-4C-4 2.20914 -2.20914 4 0 4H1C3.20914 4 5 2.20914 5 0H7ZM0 6C-3.31371 6 -6 3.31371 -6 0V-14H-4V0C-4 2.20914 -2.20914 4 0 4V6ZM7 -14V0C7 3.31371 4.31371 6 1 6V4C3.20914 4 5 2.20914 5 0V-14H7Z" fill="black" fill-opacity="0.6" mask="url(#path-4-inside-2_529_275)"/>
<mask id="path-6-outside-3_529_275" maskUnits="userSpaceOnUse" x="-4" y="-13" width="9" height="17" fill="black">
<rect fill="white" x="-4" y="-13" width="9" height="17"/>
<path d="M-3 -13H4V0C4 1.65685 2.65685 3 1 3H-1.78814e-07C-1.65685 3 -3 1.65685 -3 0V-13Z"/>
</mask>
<path d="M-3 -13H4V0C4 1.65685 2.65685 3 1 3H-1.78814e-07C-1.65685 3 -3 1.65685 -3 0V-13Z" fill="url(#paint0_linear_529_275)"/>
<path d="M-3 -13H4H-3ZM5 0C5 2.20914 3.20914 4 1 4H0C-2.20914 4 -4 2.20914 -4 0H-2C-2 1.10457 -1.10457 2 0 2H1C2.10457 2 3 1.10457 3 0H5ZM0 4C-2.20914 4 -4 2.20914 -4 0V-13H-2V0C-2 1.10457 -1.10457 2 0 2V4ZM5 -13V0C5 2.20914 3.20914 4 1 4V2C2.10457 2 3 1.10457 3 0V-13H5Z" fill="url(#paint1_linear_529_275)" mask="url(#path-6-outside-3_529_275)"/>
</g>
<defs>
<linearGradient id="paint0_linear_529_275" x1="0.5" y1="-12.5" x2="0.5" y2="2.5" gradientUnits="userSpaceOnUse">
<stop stop-color="#E4E4E4" stop-opacity="0.66"/>
<stop offset="0.50026" stop-color="#DADADA" stop-opacity="0.59"/>
<stop offset="0.50036" stop-color="#7A7A7A" stop-opacity="0.28"/>
<stop offset="1" stop-color="#ACACAC" stop-opacity="0.38"/>
</linearGradient>
<linearGradient id="paint1_linear_529_275" x1="0.5" y1="-12.5" x2="0.5" y2="3.5" gradientUnits="userSpaceOnUse">
<stop stop-color="#F3F3F3" stop-opacity="0.8"/>
<stop offset="0.468994" stop-color="#EFEFEF" stop-opacity="0.76"/>
<stop offset="0.469094" stop-color="#D1D1D1" stop-opacity="0.51"/>
<stop offset="1" stop-color="#DCDCDC" stop-opacity="0.59"/>
</linearGradient>
</defs>
</svg>
