<svg width="1" height="8" viewBox="0 0 1 8" fill="none" xmlns="http://www.w3.org/2000/svg" preserveAspectRatio="none">
<mask id="mask0_529_268" style="mask-type:alpha" maskUnits="userSpaceOnUse" x="0" y="0" width="1" height="8">
<rect width="1" height="8" fill="white"/>
</mask>
<g mask="url(#mask0_529_268)">
<mask id="path-2-outside-1_529_268" maskUnits="userSpaceOnUse" x="-6" y="-6" width="13" height="20" fill="black">
<rect fill="white" x="-6" y="-6" width="13" height="20"/>
<path d="M-5 -6H6V8C6 10.7614 3.76142 13 1 13H-1.78814e-07C-2.76142 13 -5 10.7614 -5 8V-6Z"/>
</mask>
<path d="M-5 -6H6H-5ZM7 8C7 11.3137 4.31371 14 1 14H0C-3.31371 14 -6 11.3137 -6 8H-4C-4 10.2091 -2.20914 12 0 12H1C3.20914 12 5 10.2091 5 8H7ZM0 14C-3.31371 14 -6 11.3137 -6 8V-6H-4V8C-4 10.2091 -2.20914 12 0 12V14ZM7 -6V8C7 11.3137 4.31371 14 1 14V12C3.20914 12 5 10.2091 5 8V-6H7Z" fill="white" fill-opacity="0.7" mask="url(#path-2-outside-1_529_268)"/>
<mask id="path-4-inside-2_529_268" fill="white">
<path d="M-5 -6H6V8C6 10.7614 3.76142 13 1 13H-1.78814e-07C-2.76142 13 -5 10.7614 -5 8V-6Z"/>
</mask>
<path d="M-5 -6H6H-5ZM7 8C7 11.3137 4.31371 14 1 14H0C-3.31371 14 -6 11.3137 -6 8H-4C-4 10.2091 -2.20914 12 0 12H1C3.20914 12 5 10.2091 5 8H7ZM0 14C-3.31371 14 -6 11.3137 -6 8V-6H-4V8C-4 10.2091 -2.20914 12 0 12V14ZM7 -6V8C7 11.3137 4.31371 14 1 14V12C3.20914 12 5 10.2091 5 8V-6H7Z" fill="black" fill-opacity="0.6" mask="url(#path-4-inside-2_529_268)"/>
<mask id="path-6-outside-3_529_268" maskUnits="userSpaceOnUse" x="-4" y="-5" width="9" height="17" fill="black">
<rect fill="white" x="-4" y="-5" width="9" height="17"/>
<path d="M-3 -5H4V8C4 9.65685 2.65685 11 1 11H-1.78814e-07C-1.65685 11 -3 9.65685 -3 8V-5Z"/>
</mask>
<path d="M-3 -5H4V8C4 9.65685 2.65685 11 1 11H-1.78814e-07C-1.65685 11 -3 9.65685 -3 8V-5Z" fill="url(#paint0_linear_529_268)"/>
<path d="M-3 -5H4H-3ZM5 8C5 10.2091 3.20914 12 1 12H0C-2.20914 12 -4 10.2091 -4 8H-2C-2 9.10457 -1.10457 10 0 10H1C2.10457 10 3 9.10457 3 8H5ZM0 12C-2.20914 12 -4 10.2091 -4 8V-5H-2V8C-2 9.10457 -1.10457 10 0 10V12ZM5 -5V8C5 10.2091 3.20914 12 1 12V10C2.10457 10 3 9.10457 3 8V-5H5Z" fill="url(#paint1_linear_529_268)" mask="url(#path-6-outside-3_529_268)"/>
</g>
<defs>
<linearGradient id="paint0_linear_529_268" x1="0.5" y1="-4.5" x2="0.5" y2="10.5" gradientUnits="userSpaceOnUse">
<stop stop-color="#E4E4E4" stop-opacity="0.66"/>
<stop offset="0.50026" stop-color="#DADADA" stop-opacity="0.59"/>
<stop offset="0.50036" stop-color="#7A7A7A" stop-opacity="0.28"/>
<stop offset="1" stop-color="#ACACAC" stop-opacity="0.38"/>
</linearGradient>
<linearGradient id="paint1_linear_529_268" x1="0.5" y1="-4.5" x2="0.5" y2="11.5" gradientUnits="userSpaceOnUse">
<stop stop-color="#F3F3F3" stop-opacity="0.8"/>
<stop offset="0.468994" stop-color="#EFEFEF" stop-opacity="0.76"/>
<stop offset="0.469094" stop-color="#D1D1D1" stop-opacity="0.51"/>
<stop offset="1" stop-color="#DCDCDC" stop-opacity="0.59"/>
</linearGradient>
</defs>
</svg>
