<svg width="6" height="6" viewBox="0 0 6 6" fill="none" xmlns="http://www.w3.org/2000/svg">
<mask id="mask0_529_182" style="mask-type:alpha" maskUnits="userSpaceOnUse" x="0" y="0" width="6" height="6">
<rect width="6" height="6" fill="white"/>
</mask>
<g mask="url(#mask0_529_182)">
<mask id="path-2-outside-1_529_182" maskUnits="userSpaceOnUse" x="-7" y="-14" width="13" height="20" fill="black">
<rect fill="white" x="-7" y="-14" width="13" height="20"/>
<path d="M-6 -14H5V-1.78814e-07C5 2.76142 2.76142 5 -1.49012e-07 5H-1C-3.76142 5 -6 2.76142 -6 -1.78814e-07V-14Z"/>
</mask>
<path d="M-6 -14H5H-6ZM6 0C6 3.31371 3.31371 6 0 6H-1C-4.31371 6 -7 3.31371 -7 0H-5C-5 2.20914 -3.20914 4 -1 4H0C2.20914 4 4 2.20914 4 0H6ZM-1 6C-4.31371 6 -7 3.31371 -7 0V-14H-5V0C-5 2.20914 -3.20914 4 -1 4V6ZM6 -14V0C6 3.31371 3.31371 6 0 6V4C2.20914 4 4 2.20914 4 0V-14H6Z" fill="white" fill-opacity="0.7" mask="url(#path-2-outside-1_529_182)"/>
<mask id="path-4-inside-2_529_182" fill="white">
<path d="M-6 -14H5V-1.78814e-07C5 2.76142 2.76142 5 -1.49012e-07 5H-1C-3.76142 5 -6 2.76142 -6 -1.78814e-07V-14Z"/>
</mask>
<path d="M-6 -14H5H-6ZM6 0C6 3.31371 3.31371 6 0 6H-1C-4.31371 6 -7 3.31371 -7 0H-5C-5 2.20914 -3.20914 4 -1 4H0C2.20914 4 4 2.20914 4 0H6ZM-1 6C-4.31371 6 -7 3.31371 -7 0V-14H-5V0C-5 2.20914 -3.20914 4 -1 4V6ZM6 -14V0C6 3.31371 3.31371 6 0 6V4C2.20914 4 4 2.20914 4 0V-14H6Z" fill="black" fill-opacity="0.6" mask="url(#path-4-inside-2_529_182)"/>
<mask id="path-6-outside-3_529_182" maskUnits="userSpaceOnUse" x="-5" y="-13" width="9" height="17" fill="black">
<rect fill="white" x="-5" y="-13" width="9" height="17"/>
<path d="M-4 -13H3V0C3 1.65685 1.65685 3 -2.98023e-08 3H-1C-2.65685 3 -4 1.65685 -4 0V-13Z"/>
</mask>
<path d="M-4 -13H3V0C3 1.65685 1.65685 3 -2.98023e-08 3H-1C-2.65685 3 -4 1.65685 -4 0V-13Z" fill="url(#paint0_linear_529_182)"/>
<path d="M-4 -13H3H-4ZM4 0C4 2.20914 2.20914 4 0 4H-1C-3.20914 4 -5 2.20914 -5 0H-3C-3 1.10457 -2.10457 2 -1 2H0C1.10457 2 2 1.10457 2 0H4ZM-1 4C-3.20914 4 -5 2.20914 -5 0V-13H-3V0C-3 1.10457 -2.10457 2 -1 2V4ZM4 -13V0C4 2.20914 2.20914 4 0 4V2C1.10457 2 2 1.10457 2 0V-13H4Z" fill="url(#paint1_linear_529_182)" mask="url(#path-6-outside-3_529_182)"/>
</g>
<defs>
<linearGradient id="paint0_linear_529_182" x1="-0.5" y1="-12.5" x2="-0.5" y2="2.5" gradientUnits="userSpaceOnUse">
<stop stop-color="#E4E4E4" stop-opacity="0.66"/>
<stop offset="0.50026" stop-color="#DADADA" stop-opacity="0.59"/>
<stop offset="0.50036" stop-opacity="0.18"/>
<stop offset="1" stop-color="#7C7C7C" stop-opacity="0.29"/>
</linearGradient>
<linearGradient id="paint1_linear_529_182" x1="-0.5" y1="-12.5" x2="-0.5" y2="3.5" gradientUnits="userSpaceOnUse">
<stop stop-color="#F2F2F2" stop-opacity="0.77"/>
<stop offset="0.468994" stop-color="#ECECEC" stop-opacity="0.72"/>
<stop offset="0.469094" stop-color="#BFBFBF" stop-opacity="0.45"/>
<stop offset="1" stop-color="#D2D2D2" stop-opacity="0.53"/>
</linearGradient>
</defs>
</svg>
