<svg width="6" height="6" viewBox="0 0 6 6" fill="none" xmlns="http://www.w3.org/2000/svg">
<mask id="mask0_529_148" style="mask-type:alpha" maskUnits="userSpaceOnUse" x="0" y="0" width="6" height="6">
<rect width="6" height="6" fill="white"/>
</mask>
<g mask="url(#mask0_529_148)">
<mask id="path-2-outside-1_529_148" maskUnits="userSpaceOnUse" x="0" y="0" width="13" height="20" fill="black">
<rect fill="white" width="13" height="20"/>
<path d="M1 0H12V14C12 16.7614 9.76142 19 7 19H6C3.23858 19 1 16.7614 1 14V0Z"/>
</mask>
<path d="M1 0H12H1ZM13 14C13 17.3137 10.3137 20 7 20H6C2.68629 20 0 17.3137 0 14H2C2 16.2091 3.79086 18 6 18H7C9.20914 18 11 16.2091 11 14H13ZM6 20C2.68629 20 0 17.3137 0 14V0H2V14C2 16.2091 3.79086 18 6 18V20ZM13 0V14C13 17.3137 10.3137 20 7 20V18C9.20914 18 11 16.2091 11 14V0H13Z" fill="white" fill-opacity="0.7" mask="url(#path-2-outside-1_529_148)"/>
<mask id="path-4-inside-2_529_148" fill="white">
<path d="M1 0H12V14C12 16.7614 9.76142 19 7 19H6C3.23858 19 1 16.7614 1 14V0Z"/>
</mask>
<path d="M1 0H12H1ZM13 14C13 17.3137 10.3137 20 7 20H6C2.68629 20 0 17.3137 0 14H2C2 16.2091 3.79086 18 6 18H7C9.20914 18 11 16.2091 11 14H13ZM6 20C2.68629 20 0 17.3137 0 14V0H2V14C2 16.2091 3.79086 18 6 18V20ZM13 0V14C13 17.3137 10.3137 20 7 20V18C9.20914 18 11 16.2091 11 14V0H13Z" fill="black" fill-opacity="0.6" mask="url(#path-4-inside-2_529_148)"/>
<rect x="2" width="9" height="1" fill="#FCFCFC"/>
<mask id="path-7-outside-3_529_148" maskUnits="userSpaceOnUse" x="2" y="1" width="9" height="17" fill="black">
<rect fill="white" x="2" y="1" width="9" height="17"/>
<path d="M3 1H10V14C10 15.6569 8.65685 17 7 17H6C4.34315 17 3 15.6569 3 14V1Z"/>
</mask>
<path d="M3 1H10V14C10 15.6569 8.65685 17 7 17H6C4.34315 17 3 15.6569 3 14V1Z" fill="url(#paint0_linear_529_148)"/>
<path d="M3 1H10H3ZM11 14C11 16.2091 9.20914 18 7 18H6C3.79086 18 2 16.2091 2 14H4C4 15.1046 4.89543 16 6 16H7C8.10457 16 9 15.1046 9 14H11ZM6 18C3.79086 18 2 16.2091 2 14V1H4V14C4 15.1046 4.89543 16 6 16V18ZM11 1V14C11 16.2091 9.20914 18 7 18V16C8.10457 16 9 15.1046 9 14V1H11Z" fill="url(#paint1_linear_529_148)" mask="url(#path-7-outside-3_529_148)"/>
</g>
<defs>
<linearGradient id="paint0_linear_529_148" x1="6.5" y1="1.5" x2="6.5" y2="16.5" gradientUnits="userSpaceOnUse">
<stop stop-color="#E4E4E4" stop-opacity="0.66"/>
<stop offset="0.50026" stop-color="#DADADA" stop-opacity="0.59"/>
<stop offset="0.50036" stop-opacity="0.18"/>
<stop offset="1" stop-color="#7C7C7C" stop-opacity="0.29"/>
</linearGradient>
<linearGradient id="paint1_linear_529_148" x1="6.5" y1="1.5" x2="6.5" y2="17.5" gradientUnits="userSpaceOnUse">
<stop stop-color="#F2F2F2" stop-opacity="0.77"/>
<stop offset="0.468994" stop-color="#ECECEC" stop-opacity="0.72"/>
<stop offset="0.469094" stop-color="#BFBFBF" stop-opacity="0.45"/>
<stop offset="1" stop-color="#D2D2D2" stop-opacity="0.53"/>
</linearGradient>
</defs>
</svg>
