<svg width="18" height="16" viewBox="0 0 18 16" fill="none" xmlns="http://www.w3.org/2000/svg">
<path fill-rule="evenodd" clip-rule="evenodd" d="M15.9937 13.1926C15.8927 14.685 14.644 15.896 13.1051 15.9938C11.3014 16.1039 9.81294 14.7217 9.81294 12.9969C9.81294 12.9113 9.81294 12.8257 9.82555 12.74C9.57328 12.6544 9.29577 12.6177 9.01827 12.6177C8.72816 12.6177 8.45066 12.6667 8.17315 12.7523C8.18577 12.8379 8.18577 12.9113 8.18577 12.9969C8.18577 14.7217 6.69735 16.1039 4.89359 15.9938C3.35472 15.896 2.10596 14.685 2.00505 13.1926C1.90414 11.4556 3.32949 10 5.09541 10C6.38201 10 7.49201 10.7706 7.95872 11.8593C8.29929 11.7615 8.65247 11.7003 9.01827 11.7003C9.37146 11.7003 9.71203 11.7492 10.04 11.8471C10.5067 10.7584 11.6041 10 12.9033 10C14.6818 10 16.1072 11.4556 15.9937 13.1926ZM12.9033 15.1375C14.1155 15.1375 15.0981 14.1846 15.0981 13.0091C15.0981 11.8336 14.1155 10.8807 12.9033 10.8807C11.6912 10.8807 10.7086 11.8336 10.7086 13.0091C10.7086 14.1846 11.6912 15.1375 12.9033 15.1375ZM7.30283 13.0091C7.30283 14.1846 6.32019 15.1375 5.10804 15.1375C3.89589 15.1375 2.91325 14.1846 2.91325 13.0091C2.91325 11.8336 3.89589 10.8807 5.10804 10.8807C6.32019 10.8807 7.30283 11.8336 7.30283 13.0091Z" fill="white"/>
<path d="M0.0238397 8H17.9762C17.999 8 18.0104 7.96667 17.9876 7.95555C17.4059 7.64444 14.007 6 9.02281 6C4.05 6 0.605522 7.65555 0.0124339 7.95555C-0.0103772 7.96667 0.00102861 8 0.0238397 8Z" fill="white"/>
<path d="M6.00348 0.160077C5.87819 0.130764 5.8051 0.189389 5.77378 0.277326C5.73202 0.375034 5.08469 2.29011 4.5 4H13.5C12.9362 2.22171 12.2889 0.179618 12.2784 0.140535C12.2575 0.0428272 12.174 -0.0157974 12.0592 0.00374421C11.9234 0.0330566 8.08121 0.580221 8.08121 0.580221C8.08121 0.580221 6.23318 0.208931 6.00348 0.160077Z" fill="white"/>
</svg>
