<svg width="544" height="184" viewBox="0 0 544 184" fill="none" xmlns="http://www.w3.org/2000/svg">
<mask id="mask0_592_40" style="mask-type:alpha" maskUnits="userSpaceOnUse" x="0" y="0" width="544" height="184">
<rect width="544" height="184" fill="white"/>
</mask>
<g mask="url(#mask0_592_40)">
<path d="M230.753 93.4095C230.753 118.946 210.775 137.764 186.258 137.764C161.741 137.764 141.763 118.946 141.763 93.4095C141.763 67.6925 161.741 49.0547 186.258 49.0547C210.775 49.0547 230.753 67.6925 230.753 93.4095ZM211.275 93.4095C211.275 77.4514 199.696 66.5326 186.258 66.5326C172.82 66.5326 161.241 77.4514 161.241 93.4095C161.241 109.208 172.82 120.286 186.258 120.286C199.696 120.286 211.275 109.188 211.275 93.4095Z" fill="#EA4335"/>
<path d="M326.742 93.4095C326.742 118.946 306.764 137.764 282.247 137.764C257.73 137.764 237.752 118.946 237.752 93.4095C237.752 67.7125 257.73 49.0547 282.247 49.0547C306.764 49.0547 326.742 67.6925 326.742 93.4095ZM307.264 93.4095C307.264 77.4514 295.685 66.5326 282.247 66.5326C268.808 66.5326 257.23 77.4514 257.23 93.4095C257.23 109.208 268.808 120.286 282.247 120.286C295.685 120.286 307.264 109.188 307.264 93.4095Z" fill="#FBBC05"/>
<path d="M418.731 51.7344V131.365C418.731 164.121 399.413 177.5 376.576 177.5C355.078 177.5 342.14 163.121 337.26 151.363L354.218 144.303C357.238 151.523 364.637 160.042 376.556 160.042C391.174 160.042 400.233 151.023 400.233 134.045V127.665H399.553C395.193 133.045 386.794 137.744 376.196 137.744C354.018 137.744 333.701 118.427 333.701 93.5694C333.701 68.5324 354.018 49.0547 376.196 49.0547C386.774 49.0547 395.173 53.7541 399.553 58.9735H400.233V51.7544H418.731V51.7344ZM401.613 93.5694C401.613 77.9513 391.194 66.5326 377.936 66.5326C364.497 66.5326 353.238 77.9513 353.238 93.5694C353.238 109.028 364.497 120.286 377.936 120.286C391.194 120.286 401.613 109.028 401.613 93.5694Z" fill="#4285F4"/>
<path d="M449.227 5.06055V135.045H430.229V5.06055H449.227Z" fill="#34A853"/>
<path d="M523.258 108.008L538.377 118.087C533.497 125.306 521.739 137.745 501.421 137.745C476.224 137.745 457.406 118.267 457.406 93.3899C457.406 67.013 476.384 49.0352 499.241 49.0352C522.259 49.0352 533.517 67.353 537.197 77.2518L539.217 82.2912L479.924 106.848C484.463 115.747 491.522 120.287 501.421 120.287C511.34 120.287 518.219 115.407 523.258 108.008ZM476.724 92.0501L516.359 75.592C514.18 70.0527 507.62 66.1931 499.901 66.1931C490.002 66.1931 476.224 74.9321 476.724 92.0501Z" fill="#EA4335"/>
<path d="M69.8518 81.8704V63.0526H133.264C133.884 66.3322 134.204 70.2118 134.204 74.4113C134.204 88.5296 130.345 105.988 117.906 118.426C105.808 131.025 90.3494 137.744 69.8718 137.744C31.9162 137.744 0 106.827 0 68.8719C0 30.9164 31.9162 0 69.8718 0C90.8693 0 105.828 8.23903 117.066 18.9778L103.788 32.2562C95.7287 24.6971 84.81 18.8178 69.8518 18.8178C42.135 18.8178 20.4576 41.1552 20.4576 68.8719C20.4576 96.5887 42.135 118.926 69.8518 118.926C87.8297 118.926 98.0685 111.707 104.628 105.148C109.947 99.8283 113.447 92.2292 114.826 81.8504L69.8518 81.8704Z" fill="#4285F4"/>
</g>
</svg>
