<svg width="544" height="184" viewBox="0 0 544 184" fill="none" xmlns="http://www.w3.org/2000/svg">
<mask id="mask0_592_44" style="mask-type:alpha" maskUnits="userSpaceOnUse" x="0" y="0" width="544" height="184">
<rect width="544" height="184" fill="white"/>
</mask>
<g mask="url(#mask0_592_44)">
<path d="M230.753 93.41C230.753 118.947 210.775 137.765 186.258 137.765C161.741 137.765 141.763 118.947 141.763 93.41C141.763 67.693 161.741 49.0552 186.258 49.0552C210.775 49.0552 230.753 67.693 230.753 93.41ZM211.275 93.41C211.275 77.4518 199.696 66.5331 186.258 66.5331C172.82 66.5331 161.241 77.4518 161.241 93.41C161.241 109.208 172.82 120.287 186.258 120.287C199.696 120.287 211.275 109.188 211.275 93.41Z" fill="white"/>
<path d="M326.742 93.41C326.742 118.947 306.764 137.765 282.247 137.765C257.73 137.765 237.752 118.947 237.752 93.41C237.752 67.713 257.73 49.0552 282.247 49.0552C306.764 49.0552 326.742 67.693 326.742 93.41ZM307.264 93.41C307.264 77.4518 295.685 66.5331 282.247 66.5331C268.808 66.5331 257.23 77.4518 257.23 93.41C257.23 109.208 268.808 120.287 282.247 120.287C295.685 120.287 307.264 109.188 307.264 93.41Z" fill="white"/>
<path d="M418.731 51.7349V131.366C418.731 164.122 399.413 177.5 376.576 177.5C355.078 177.5 342.14 163.122 337.26 151.363L354.218 144.304C357.238 151.523 364.637 160.042 376.556 160.042C391.174 160.042 400.233 151.023 400.233 134.045V127.666H399.553C395.193 133.045 386.794 137.745 376.196 137.745C354.018 137.745 333.701 118.427 333.701 93.5699C333.701 68.5329 354.018 49.0552 376.196 49.0552C386.774 49.0552 395.173 53.7546 399.553 58.974H400.233V51.7549H418.731V51.7349ZM401.613 93.5699C401.613 77.9518 391.194 66.5331 377.936 66.5331C364.497 66.5331 353.238 77.9518 353.238 93.5699C353.238 109.028 364.497 120.287 377.936 120.287C391.194 120.287 401.613 109.028 401.613 93.5699Z" fill="white"/>
<path d="M449.227 5.06006V135.045H430.229V5.06006H449.227Z" fill="white"/>
<path d="M523.258 108.009L538.377 118.088C533.497 125.307 521.739 137.745 501.421 137.745C476.224 137.745 457.406 118.268 457.406 93.3904C457.406 67.0135 476.384 49.0356 499.241 49.0356C522.259 49.0356 533.517 67.3535 537.197 77.2523L539.217 82.2917L479.924 106.849C484.463 115.748 491.522 120.287 501.421 120.287C511.34 120.287 518.219 115.408 523.258 108.009ZM476.724 92.0506L516.359 75.5925C514.18 70.0532 507.62 66.1936 499.901 66.1936C490.002 66.1936 476.224 74.9326 476.724 92.0506Z" fill="white"/>
<path d="M69.8518 81.8704V63.0526H133.264C133.884 66.3322 134.204 70.2118 134.204 74.4113C134.204 88.5296 130.345 105.988 117.906 118.426C105.808 131.025 90.3494 137.744 69.8718 137.744C31.9162 137.744 0 106.827 0 68.8719C0 30.9164 31.9162 0 69.8718 0C90.8693 0 105.828 8.23903 117.066 18.9778L103.788 32.2562C95.7287 24.6971 84.81 18.8178 69.8518 18.8178C42.135 18.8178 20.4576 41.1552 20.4576 68.8719C20.4576 96.5887 42.135 118.926 69.8518 118.926C87.8297 118.926 98.0685 111.707 104.628 105.148C109.947 99.8283 113.447 92.2292 114.826 81.8504L69.8518 81.8704Z" fill="white"/>
</g>
</svg>
