<svg width="16" height="16" fill="context-fill" version="1.1" viewBox="0 0 4.2333332 4.2333335" xmlns="http://www.w3.org/2000/svg">
    <path d="m2.091862 0.26460406a1.8520833 1.8520833 0 0 0-1.8272787 1.8520833 1.8520833 1.8520833 0 0 0 1.8520833 1.8520834 1.8520833 1.8520833 0 0 0 1.8520834-1.8520834 1.8520833 1.8520833 0 0 0-1.8520834-1.8520833 1.8520833 1.8520833 0 0 0-0.024791 0zm0.024805 0.396875a1.4552083 1.4552083 0 0 1 1.455208 1.4552083 1.4552083 1.4552083 0 0 1-1.4552084 1.4552084 1.4552083 1.4552083 0 0 1-1.4552083-1.4552084 1.4552083 1.4552083 0 0 1 1.4552087-1.4552083z"/>
    <circle cx="2.1166658" cy="2.1166873" r="1.0583333"/>
</svg>
