<svg width="30" height="30" viewBox="0 0 30 30" fill="none" xmlns="http://www.w3.org/2000/svg">
<path d="M6.55596 24.8845C6.34038 24.7002 6.3347 24.3724 6.53527 24.1718L10.8002 19.9069C10.9841 19.723 11.2771 19.7127 11.4878 19.8651C12.2299 20.4018 13.0997 20.7729 14.0429 20.9241C14.2999 20.9652 14.5 21.1797 14.5 21.4399V27.4712C14.5 27.7548 14.2642 27.9825 13.9814 27.9606C11.1572 27.7417 8.58602 26.6204 6.55596 24.8845Z" fill="context-fill"/>
<path d="M19.9069 10.8002C19.723 10.9841 19.7128 11.2771 19.8652 11.4878C20.4018 12.23 20.7729 13.0998 20.9241 14.043C20.9653 14.2999 21.1797 14.5 21.4399 14.5H27.4712C27.7548 14.5 27.9825 14.2642 27.9606 13.9815C27.7418 11.1572 26.6204 8.58606 24.8846 6.556C24.7002 6.34042 24.3724 6.33474 24.1719 6.53531L19.9069 10.8002Z" fill="context-fill"/>
<path d="M21.4399 15.5C21.1797 15.5 20.9653 15.7001 20.9241 15.957C20.7729 16.9003 20.4019 17.7701 19.8652 18.5122C19.7128 18.7229 19.723 19.0159 19.9069 19.1998L24.1718 23.4647C24.3724 23.6653 24.7002 23.6596 24.8845 23.444C26.6204 21.414 27.7418 18.8428 27.9607 16.0185C27.9826 15.7358 27.7548 15.5 27.4713 15.5H21.4399Z" fill="context-fill"/>
<path d="M15.5 27.4713C15.5 27.7548 15.7358 27.9826 16.0185 27.9607C18.8428 27.7418 21.414 26.6204 23.444 24.8845C23.6596 24.7002 23.6653 24.3724 23.4647 24.1718L19.1998 19.9069C19.0159 19.723 18.7229 19.7128 18.5122 19.8652C17.7701 20.4019 16.9003 20.7729 15.957 20.9241C15.7001 20.9653 15.5 21.1797 15.5 21.4399V27.4713Z" fill="context-fill"/>
<path d="M2.03927 16.0185C2.01736 15.7358 2.24511 15.5 2.52867 15.5H8.56009C8.8203 15.5 9.03473 15.7001 9.07592 15.957C9.22712 16.9003 9.59818 17.7701 10.1349 18.5122C10.2873 18.723 10.277 19.0159 10.0931 19.1998L5.82819 23.4648C5.62763 23.6653 5.29983 23.6597 5.11549 23.4441C3.37959 21.414 2.25816 18.8428 2.03927 16.0185Z" fill="context-fill"/>
<path d="M5.11541 6.55587C5.29975 6.3403 5.62755 6.33462 5.82812 6.53518L10.0931 10.8002C10.277 10.9841 10.2873 11.277 10.1349 11.4878C9.59817 12.2299 9.22712 13.0997 9.07592 14.0429C9.03474 14.2999 8.8203 14.5 8.5601 14.5H2.52866C2.24511 14.5 2.01736 14.2642 2.03927 13.9815C2.25814 11.1572 3.37954 8.58594 5.11541 6.55587Z" fill="context-fill"/>
<path d="M13.9815 2.03927C14.2642 2.01736 14.5 2.24511 14.5 2.52866V8.5601C14.5 8.8203 14.2999 9.03474 14.0429 9.07592C13.0997 9.22712 12.2299 9.59817 11.4878 10.1349C11.277 10.2873 10.9841 10.277 10.8002 10.0931L6.53518 5.82812C6.33462 5.62755 6.3403 5.29975 6.55587 5.11541C8.58594 3.37954 11.1572 2.25814 13.9815 2.03927Z" fill="context-fill"/>
<path d="M23.4441 5.11549C23.6597 5.29983 23.6653 5.62763 23.4648 5.82819L19.1998 10.0931C19.0159 10.277 18.723 10.2873 18.5122 10.1349C17.7701 9.59818 16.9003 9.22712 15.957 9.07592C15.7001 9.03473 15.5 8.8203 15.5 8.56009V2.52867C15.5 2.24511 15.7358 2.01736 16.0185 2.03927C18.8428 2.25816 21.414 3.37959 23.4441 5.11549Z" fill="context-fill"/>
<g filter="url(#filter0_i_377_177)">
<path d="M6.55596 24.8845C6.34038 24.7002 6.3347 24.3724 6.53527 24.1718L10.8002 19.9069C10.9841 19.723 11.2771 19.7127 11.4878 19.8651C12.2299 20.4018 13.0997 20.7729 14.0429 20.9241C14.2999 20.9652 14.5 21.1797 14.5 21.4399V27.4712C14.5 27.7548 14.2642 27.9825 13.9814 27.9606C11.1572 27.7417 8.58602 26.6204 6.55596 24.8845Z" fill="white" fill-opacity="0.01"/>
<path d="M19.9069 10.8002C19.723 10.9841 19.7128 11.2771 19.8652 11.4878C20.4018 12.23 20.7729 13.0998 20.9241 14.043C20.9653 14.2999 21.1797 14.5 21.4399 14.5H27.4712C27.7548 14.5 27.9825 14.2642 27.9606 13.9815C27.7418 11.1572 26.6204 8.58606 24.8846 6.556C24.7002 6.34042 24.3724 6.33474 24.1719 6.53531L19.9069 10.8002Z" fill="white" fill-opacity="0.01"/>
<path d="M21.4399 15.5C21.1797 15.5 20.9653 15.7001 20.9241 15.957C20.7729 16.9003 20.4019 17.7701 19.8652 18.5122C19.7128 18.7229 19.723 19.0159 19.9069 19.1998L24.1718 23.4647C24.3724 23.6653 24.7002 23.6596 24.8845 23.444C26.6204 21.414 27.7418 18.8428 27.9607 16.0185C27.9826 15.7358 27.7548 15.5 27.4713 15.5H21.4399Z" fill="white" fill-opacity="0.01"/>
<path d="M15.5 27.4713C15.5 27.7548 15.7358 27.9826 16.0185 27.9607C18.8428 27.7418 21.414 26.6204 23.444 24.8845C23.6596 24.7002 23.6653 24.3724 23.4647 24.1718L19.1998 19.9069C19.0159 19.723 18.7229 19.7128 18.5122 19.8652C17.7701 20.4019 16.9003 20.7729 15.957 20.9241C15.7001 20.9653 15.5 21.1797 15.5 21.4399V27.4713Z" fill="white" fill-opacity="0.01"/>
<path d="M2.03927 16.0185C2.01736 15.7358 2.24511 15.5 2.52867 15.5H8.56009C8.8203 15.5 9.03473 15.7001 9.07592 15.957C9.22712 16.9003 9.59818 17.7701 10.1349 18.5122C10.2873 18.723 10.277 19.0159 10.0931 19.1998L5.82819 23.4648C5.62763 23.6653 5.29983 23.6597 5.11549 23.4441C3.37959 21.414 2.25816 18.8428 2.03927 16.0185Z" fill="white" fill-opacity="0.01"/>
<path d="M5.11541 6.55587C5.29975 6.3403 5.62755 6.33462 5.82812 6.53518L10.0931 10.8002C10.277 10.9841 10.2873 11.277 10.1349 11.4878C9.59817 12.2299 9.22712 13.0997 9.07592 14.0429C9.03474 14.2999 8.8203 14.5 8.5601 14.5H2.52866C2.24511 14.5 2.01736 14.2642 2.03927 13.9815C2.25814 11.1572 3.37954 8.58594 5.11541 6.55587Z" fill="white" fill-opacity="0.01"/>
<path d="M13.9815 2.03927C14.2642 2.01736 14.5 2.24511 14.5 2.52866V8.5601C14.5 8.8203 14.2999 9.03474 14.0429 9.07592C13.0997 9.22712 12.2299 9.59817 11.4878 10.1349C11.277 10.2873 10.9841 10.277 10.8002 10.0931L6.53518 5.82812C6.33462 5.62755 6.3403 5.29975 6.55587 5.11541C8.58594 3.37954 11.1572 2.25814 13.9815 2.03927Z" fill="white" fill-opacity="0.01"/>
<path d="M23.4441 5.11549C23.6597 5.29983 23.6653 5.62763 23.4648 5.82819L19.1998 10.0931C19.0159 10.277 18.723 10.2873 18.5122 10.1349C17.7701 9.59818 16.9003 9.22712 15.957 9.07592C15.7001 9.03473 15.5 8.8203 15.5 8.56009V2.52867C15.5 2.24511 15.7358 2.01736 16.0185 2.03927C18.8428 2.25816 21.414 3.37959 23.4441 5.11549Z" fill="white" fill-opacity="0.01"/>
</g>
<defs>
<filter id="filter0_i_377_177" x="2.03784" y="2.03784" width="25.9243" height="26.9243" filterUnits="userSpaceOnUse" color-interpolation-filters="sRGB">
<feFlood flood-opacity="0" result="BackgroundImageFix"/>
<feBlend mode="normal" in="SourceGraphic" in2="BackgroundImageFix" result="shape"/>
<feColorMatrix in="SourceAlpha" type="matrix" values="0 0 0 0 0 0 0 0 0 0 0 0 0 0 0 0 0 0 127 0" result="hardAlpha"/>
<feOffset dy="1"/>
<feGaussianBlur stdDeviation="1"/>
<feComposite in2="hardAlpha" operator="arithmetic" k2="-1" k3="1"/>
<feColorMatrix type="matrix" values="0 0 0 0 0 0 0 0 0 0 0 0 0 0 0 0 0 0 0.28 0"/>
<feBlend mode="normal" in2="shape" result="effect1_innerShadow_377_177"/>
</filter>
</defs>
</svg>
