<svg width="30" height="30" viewBox="0 0 30 30" fill="none" xmlns="http://www.w3.org/2000/svg">
<rect x="8" y="8" width="14" height="14" fill="white" fill-opacity="0.32"/>
<path fill-rule="evenodd" clip-rule="evenodd" d="M24.3538 25.9485C22.1062 27.8705 19.2565 29.1139 16.1267 29.3564C15.7073 29.3889 15.3207 29.2846 15 29.0863C14.6793 29.2846 14.2927 29.3889 13.8733 29.3564C10.7435 29.1139 7.89382 27.8705 5.64615 25.9486C5.3261 25.675 5.12628 25.3276 5.03967 24.9604C4.67252 24.8738 4.32511 24.674 4.05144 24.3539C2.12946 22.1063 0.886017 19.2566 0.643442 16.1267C0.610942 15.7073 0.715318 15.3207 0.913591 15C0.715316 14.6793 0.610937 14.2927 0.643434 13.8733C0.885984 10.7434 2.1294 7.89373 4.05135 5.64605C4.32502 5.326 4.67243 5.12618 5.03958 5.03958C5.12618 4.67243 5.326 4.32502 5.64605 4.05135C7.89373 2.1294 10.7434 0.885984 13.8733 0.643434C14.2927 0.610937 14.6793 0.715316 15 0.91359C15.3207 0.715318 15.7073 0.610942 16.1267 0.643442C19.2566 0.886017 22.1063 2.12946 24.3539 4.05144C24.674 4.32511 24.8738 4.67253 24.9604 5.03968C25.3276 5.12629 25.675 5.3261 25.9486 5.64616C27.8705 7.89383 29.1139 10.7435 29.3564 13.8733C29.3889 14.2927 29.2846 14.6793 29.0863 15C29.2846 15.3207 29.3889 15.7073 29.3564 16.1267C29.1139 19.2565 27.8705 22.1062 25.9485 24.3538C25.6749 24.6739 25.3275 24.8737 24.9603 24.9603C24.8737 25.3275 24.6739 25.6749 24.3538 25.9485ZM15 19.8209C15.224 19.6796 15.475 19.5835 15.7354 19.5417C16.4568 19.4261 17.1224 19.1424 17.6918 18.7307C17.9053 18.5763 18.1505 18.4669 18.4085 18.4085C18.4669 18.1505 18.5763 17.9053 18.7307 17.6918C19.1424 17.1224 19.4261 16.4568 19.5417 15.7354C19.5835 15.475 19.6796 15.224 19.8209 15C19.6796 14.776 19.5835 14.525 19.5417 14.2645C19.4261 13.5432 19.1425 12.8776 18.7307 12.3082C18.5763 12.0947 18.4669 11.8495 18.4086 11.5915C18.1506 11.5331 17.9054 11.4237 17.6918 11.2693C17.1225 10.8575 16.4568 10.5739 15.7354 10.4583C15.475 10.4165 15.224 10.3204 15 10.1791C14.776 10.3204 14.525 10.4165 14.2645 10.4583C13.5432 10.5739 12.8775 10.8575 12.3082 11.2693C12.0947 11.4237 11.8494 11.5331 11.5914 11.5914C11.5331 11.8494 11.4237 12.0947 11.2693 12.3082C10.8575 12.8775 10.5739 13.5432 10.4583 14.2645C10.4165 14.525 10.3204 14.776 10.1791 15C10.3204 15.224 10.4165 15.475 10.4583 15.7354C10.5739 16.4568 10.8575 17.1225 11.2693 17.6918C11.4237 17.9054 11.5331 18.1506 11.5915 18.4086C11.8495 18.4669 12.0947 18.5763 12.3082 18.7307C12.8776 19.1425 13.5432 19.4261 14.2645 19.5417C14.525 19.5835 14.776 19.6796 15 19.8209Z" fill="white"/>
<path d="M6.55596 24.8845C6.34038 24.7002 6.3347 24.3724 6.53527 24.1718L10.8002 19.9069C10.9841 19.723 11.2771 19.7127 11.4878 19.8651C12.2299 20.4018 13.0997 20.7729 14.0429 20.9241C14.2999 20.9652 14.5 21.1797 14.5 21.4399V27.4712C14.5 27.7548 14.2642 27.9825 13.9814 27.9606C11.1572 27.7417 8.58602 26.6204 6.55596 24.8845Z" fill="#E6E6E6"/>
<path d="M19.9069 10.8002C19.723 10.9841 19.7128 11.2771 19.8652 11.4878C20.4018 12.23 20.7729 13.0998 20.9241 14.043C20.9653 14.2999 21.1797 14.5 21.4399 14.5H27.4712C27.7548 14.5 27.9825 14.2642 27.9606 13.9815C27.7418 11.1572 26.6204 8.58606 24.8846 6.556C24.7002 6.34042 24.3724 6.33474 24.1719 6.53531L19.9069 10.8002Z" fill="#E6E6E6"/>
<path d="M21.4399 15.5C21.1797 15.5 20.9653 15.7001 20.9241 15.957C20.7729 16.9003 20.4019 17.7701 19.8652 18.5122C19.7128 18.7229 19.723 19.0159 19.9069 19.1998L24.1718 23.4647C24.3724 23.6653 24.7002 23.6596 24.8845 23.444C26.6204 21.414 27.7418 18.8428 27.9607 16.0185C27.9826 15.7358 27.7548 15.5 27.4713 15.5H21.4399Z" fill="#E6E6E6"/>
<path d="M15.5 27.4713C15.5 27.7548 15.7358 27.9826 16.0185 27.9607C18.8428 27.7418 21.414 26.6204 23.444 24.8845C23.6596 24.7002 23.6653 24.3724 23.4647 24.1718L19.1998 19.9069C19.0159 19.723 18.7229 19.7128 18.5122 19.8652C17.7701 20.4019 16.9003 20.7729 15.957 20.9241C15.7001 20.9653 15.5 21.1797 15.5 21.4399V27.4713Z" fill="#E6E6E6"/>
<path d="M2.03927 16.0185C2.01736 15.7358 2.24511 15.5 2.52867 15.5H8.56009C8.8203 15.5 9.03473 15.7001 9.07592 15.957C9.22712 16.9003 9.59818 17.7701 10.1349 18.5122C10.2873 18.723 10.277 19.0159 10.0931 19.1998L5.82819 23.4648C5.62763 23.6653 5.29983 23.6597 5.11549 23.4441C3.37959 21.414 2.25816 18.8428 2.03927 16.0185Z" fill="#E6E6E6"/>
<path d="M5.11541 6.55587C5.29975 6.3403 5.62755 6.33462 5.82812 6.53518L10.0931 10.8002C10.277 10.9841 10.2873 11.277 10.1349 11.4878C9.59817 12.2299 9.22712 13.0997 9.07592 14.0429C9.03474 14.2999 8.8203 14.5 8.5601 14.5H2.52866C2.24511 14.5 2.01736 14.2642 2.03927 13.9815C2.25814 11.1572 3.37954 8.58594 5.11541 6.55587Z" fill="#E6E6E6"/>
<path d="M13.9815 2.03927C14.2642 2.01736 14.5 2.24511 14.5 2.52866V8.5601C14.5 8.8203 14.2999 9.03474 14.0429 9.07592C13.0997 9.22712 12.2299 9.59817 11.4878 10.1349C11.277 10.2873 10.9841 10.277 10.8002 10.0931L6.53518 5.82812C6.33462 5.62755 6.3403 5.29975 6.55587 5.11541C8.58594 3.37954 11.1572 2.25814 13.9815 2.03927Z" fill="#E6E6E6"/>
<path d="M23.4441 5.11549C23.6597 5.29983 23.6653 5.62763 23.4648 5.82819L19.1998 10.0931C19.0159 10.277 18.723 10.2873 18.5122 10.1349C17.7701 9.59818 16.9003 9.22712 15.957 9.07592C15.7001 9.03473 15.5 8.8203 15.5 8.56009V2.52867C15.5 2.24511 15.7358 2.01736 16.0185 2.03927C18.8428 2.25816 21.414 3.37959 23.4441 5.11549Z" fill="#E6E6E6"/>
<g filter="url(#filter0_i_377_167)">
<path d="M6.55596 24.8845C6.34038 24.7002 6.3347 24.3724 6.53527 24.1718L10.8002 19.9069C10.9841 19.723 11.2771 19.7127 11.4878 19.8651C12.2299 20.4018 13.0997 20.7729 14.0429 20.9241C14.2999 20.9652 14.5 21.1797 14.5 21.4399V27.4712C14.5 27.7548 14.2642 27.9825 13.9814 27.9606C11.1572 27.7417 8.58602 26.6204 6.55596 24.8845Z" fill="white" fill-opacity="0.01"/>
<path d="M19.9069 10.8002C19.723 10.9841 19.7128 11.2771 19.8652 11.4878C20.4018 12.23 20.7729 13.0998 20.9241 14.043C20.9653 14.2999 21.1797 14.5 21.4399 14.5H27.4712C27.7548 14.5 27.9825 14.2642 27.9606 13.9815C27.7418 11.1572 26.6204 8.58606 24.8846 6.556C24.7002 6.34042 24.3724 6.33474 24.1719 6.53531L19.9069 10.8002Z" fill="white" fill-opacity="0.01"/>
<path d="M21.4399 15.5C21.1797 15.5 20.9653 15.7001 20.9241 15.957C20.7729 16.9003 20.4019 17.7701 19.8652 18.5122C19.7128 18.7229 19.723 19.0159 19.9069 19.1998L24.1718 23.4647C24.3724 23.6653 24.7002 23.6596 24.8845 23.444C26.6204 21.414 27.7418 18.8428 27.9607 16.0185C27.9826 15.7358 27.7548 15.5 27.4713 15.5H21.4399Z" fill="white" fill-opacity="0.01"/>
<path d="M15.5 27.4713C15.5 27.7548 15.7358 27.9826 16.0185 27.9607C18.8428 27.7418 21.414 26.6204 23.444 24.8845C23.6596 24.7002 23.6653 24.3724 23.4647 24.1718L19.1998 19.9069C19.0159 19.723 18.7229 19.7128 18.5122 19.8652C17.7701 20.4019 16.9003 20.7729 15.957 20.9241C15.7001 20.9653 15.5 21.1797 15.5 21.4399V27.4713Z" fill="white" fill-opacity="0.01"/>
<path d="M2.03927 16.0185C2.01736 15.7358 2.24511 15.5 2.52867 15.5H8.56009C8.8203 15.5 9.03473 15.7001 9.07592 15.957C9.22712 16.9003 9.59818 17.7701 10.1349 18.5122C10.2873 18.723 10.277 19.0159 10.0931 19.1998L5.82819 23.4648C5.62763 23.6653 5.29983 23.6597 5.11549 23.4441C3.37959 21.414 2.25816 18.8428 2.03927 16.0185Z" fill="white" fill-opacity="0.01"/>
<path d="M5.11541 6.55587C5.29975 6.3403 5.62755 6.33462 5.82812 6.53518L10.0931 10.8002C10.277 10.9841 10.2873 11.277 10.1349 11.4878C9.59817 12.2299 9.22712 13.0997 9.07592 14.0429C9.03474 14.2999 8.8203 14.5 8.5601 14.5H2.52866C2.24511 14.5 2.01736 14.2642 2.03927 13.9815C2.25814 11.1572 3.37954 8.58594 5.11541 6.55587Z" fill="white" fill-opacity="0.01"/>
<path d="M13.9815 2.03927C14.2642 2.01736 14.5 2.24511 14.5 2.52866V8.5601C14.5 8.8203 14.2999 9.03474 14.0429 9.07592C13.0997 9.22712 12.2299 9.59817 11.4878 10.1349C11.277 10.2873 10.9841 10.277 10.8002 10.0931L6.53518 5.82812C6.33462 5.62755 6.3403 5.29975 6.55587 5.11541C8.58594 3.37954 11.1572 2.25814 13.9815 2.03927Z" fill="white" fill-opacity="0.01"/>
<path d="M23.4441 5.11549C23.6597 5.29983 23.6653 5.62763 23.4648 5.82819L19.1998 10.0931C19.0159 10.277 18.723 10.2873 18.5122 10.1349C17.7701 9.59818 16.9003 9.22712 15.957 9.07592C15.7001 9.03473 15.5 8.8203 15.5 8.56009V2.52867C15.5 2.24511 15.7358 2.01736 16.0185 2.03927C18.8428 2.25816 21.414 3.37959 23.4441 5.11549Z" fill="white" fill-opacity="0.01"/>
</g>
<defs>
<filter id="filter0_i_377_167" x="2.03784" y="2.03784" width="25.9243" height="26.9243" filterUnits="userSpaceOnUse" color-interpolation-filters="sRGB">
<feFlood flood-opacity="0" result="BackgroundImageFix"/>
<feBlend mode="normal" in="SourceGraphic" in2="BackgroundImageFix" result="shape"/>
<feColorMatrix in="SourceAlpha" type="matrix" values="0 0 0 0 0 0 0 0 0 0 0 0 0 0 0 0 0 0 127 0" result="hardAlpha"/>
<feOffset dy="1"/>
<feGaussianBlur stdDeviation="1"/>
<feComposite in2="hardAlpha" operator="arithmetic" k2="-1" k3="1"/>
<feColorMatrix type="matrix" values="0 0 0 0 0 0 0 0 0 0 0 0 0 0 0 0 0 0 0.28 0"/>
<feBlend mode="normal" in2="shape" result="effect1_innerShadow_377_167"/>
</filter>
</defs>
</svg>
