<svg width="48" height="48" viewBox="0 0 48 48" fill="none" xmlns="http://www.w3.org/2000/svg">
<g filter="url(#filter0_i_372_119)">
<path d="M38.0711 8.46998C38.4742 8.06691 38.4606 7.40718 38.022 7.04306C34.7035 4.28787 30.5621 2.48954 26.021 2.07131C25.4536 2.01905 24.9777 2.47591 24.9777 3.04574V13.1214C24.9777 13.6354 25.3688 14.0603 25.8736 14.1572C27.2261 14.4167 28.4817 14.9487 29.5811 15.6938C30.0064 15.9821 30.5831 15.958 30.9464 15.5947L38.0711 8.46998Z" fill="context-fill"/>
<path d="M34.8339 22.9777C34.3199 22.9777 33.895 22.5865 33.7982 22.0817C33.5386 20.7292 33.0066 19.4736 32.2615 18.3742C31.9732 17.9489 31.9973 17.3722 32.3606 17.0089L39.4853 9.88419C39.8884 9.48112 40.5481 9.49468 40.9122 9.93324C43.6675 13.2518 45.4658 17.3932 45.884 21.9344C45.9363 22.5018 45.4794 22.9777 44.9096 22.9777H34.8339Z" fill="context-fill"/>
<path d="M32.3606 30.9463C31.9973 30.583 31.9732 30.0064 32.2615 29.5811C33.0066 28.4817 33.5386 27.2261 33.7982 25.8736C33.895 25.3688 34.3199 24.9777 34.8339 24.9777H44.9096C45.4794 24.9777 45.9363 25.4536 45.884 26.021C45.4658 30.5621 43.6675 34.7035 40.9123 38.022C40.5482 38.4606 39.8884 38.4742 39.4854 38.0711L32.3606 30.9463Z" fill="context-fill"/>
<path d="M24.9777 34.8339C24.9777 34.3199 25.3688 33.895 25.8736 33.7982C27.2261 33.5386 28.4817 33.0066 29.5811 32.2615C30.0064 31.9732 30.5831 31.9973 30.9464 32.3606L38.0712 39.4853C38.4742 39.8884 38.4607 40.5481 38.0221 40.9122C34.7036 43.6675 30.5621 45.4658 26.021 45.884C25.4536 45.9363 24.9777 45.4794 24.9777 44.9096V34.8339Z" fill="context-fill"/>
<path d="M17.0089 32.3606C17.3722 31.9973 17.9489 31.9732 18.3742 32.2615C19.4736 33.0066 20.7292 33.5386 22.0817 33.7982C22.5865 33.895 22.9777 34.3199 22.9777 34.8339V44.9096C22.9777 45.4794 22.5018 45.9363 21.9344 45.884C17.3932 45.4658 13.2518 43.6675 9.93324 40.9122C9.49468 40.5481 9.48112 39.8884 9.88419 39.4853L17.0089 32.3606Z" fill="context-fill"/>
<path d="M13.1214 24.9777C13.6354 24.9777 14.0603 25.3688 14.1572 25.8736C14.4167 27.2261 14.9487 28.4817 15.6938 29.5811C15.9821 30.0064 15.958 30.5831 15.5947 30.9464L8.46998 38.0711C8.06691 38.4742 7.40718 38.4606 7.04306 38.022C4.28787 34.7035 2.48954 30.5621 2.07131 26.021C2.01905 25.4536 2.47591 24.9777 3.04574 24.9777H13.1214Z" fill="context-fill"/>
<path d="M15.5948 17.0089C15.9581 17.3722 15.9821 17.9489 15.6939 18.3742C14.9487 19.4736 14.4167 20.7292 14.1572 22.0817C14.0603 22.5865 13.6354 22.9777 13.1214 22.9777H3.04574C2.47591 22.9777 2.01905 22.5018 2.07131 21.9344C2.48954 17.3932 4.28789 13.2518 7.04312 9.93324C7.40724 9.49468 8.06697 9.48112 8.47003 9.88419L15.5948 17.0089Z" fill="context-fill"/>
<path d="M22.9777 13.1214C22.9777 13.6354 22.5865 14.0603 22.0817 14.1572C20.7293 14.4167 19.4737 14.9487 18.3743 15.6938C17.949 15.9821 17.3723 15.958 17.009 15.5947L9.88425 8.46998C9.48119 8.06692 9.49475 7.40718 9.93331 7.04306C13.2518 4.28787 17.3932 2.48954 21.9344 2.07131C22.5018 2.01905 22.9777 2.47591 22.9777 3.04574V13.1214Z" fill="context-fill"/>
</g>
<defs>
<filter id="filter0_i_372_119" x="2.06726" y="2.06726" width="44.8209" height="44.8208" filterUnits="userSpaceOnUse" color-interpolation-filters="sRGB">
<feFlood flood-opacity="0" result="BackgroundImageFix"/>
<feBlend mode="normal" in="SourceGraphic" in2="BackgroundImageFix" result="shape"/>
<feColorMatrix in="SourceAlpha" type="matrix" values="0 0 0 0 0 0 0 0 0 0 0 0 0 0 0 0 0 0 127 0" result="hardAlpha"/>
<feOffset dx="1" dy="1"/>
<feGaussianBlur stdDeviation="1.25"/>
<feComposite in2="hardAlpha" operator="arithmetic" k2="-1" k3="1"/>
<feColorMatrix type="matrix" values="0 0 0 0 0 0 0 0 0 0 0 0 0 0 0 0 0 0 0.16 0"/>
<feBlend mode="normal" in2="shape" result="effect1_innerShadow_372_119"/>
</filter>
</defs>
</svg>
