<svg width="48" height="48" viewBox="0 0 48 48" fill="none" xmlns="http://www.w3.org/2000/svg">
<path fill-rule="evenodd" clip-rule="evenodd" d="M39.2996 5.50431C35.6807 2.49971 31.1607 0.536224 26.2044 0.0797613C25.3351 -0.000305824 24.5537 0.295407 23.9777 0.811814C23.4017 0.295407 22.6203 -0.000305824 21.751 0.0797613C16.7947 0.536224 12.2747 2.49971 8.65577 5.50431C7.98345 6.0625 7.63967 6.82454 7.59751 7.59744C6.82461 7.6396 6.06257 7.98338 5.50437 8.65569C2.49974 12.2746 0.536227 16.7947 0.0797613 21.751C-0.000305593 22.6203 0.295407 23.4017 0.811815 23.9777C0.295407 24.5537 -0.000305831 25.3351 0.0797613 26.2044C0.536224 31.1607 2.49971 35.6807 5.50431 39.2996C6.0625 39.9719 6.82454 40.3157 7.59744 40.3579C7.6396 41.1308 7.98338 41.8928 8.65569 42.451C12.2746 45.4557 16.7947 47.4192 21.751 47.8756C22.6203 47.9557 23.4017 47.66 23.9777 47.1436C24.5537 47.66 25.3351 47.9557 26.2044 47.8756C31.1607 47.4192 35.6808 45.4557 39.2997 42.451C39.972 41.8928 40.3158 41.1308 40.358 40.3579C41.1309 40.3157 41.8929 39.9719 42.4511 39.2996C45.4557 35.6807 47.4192 31.1607 47.8756 26.2044C47.9557 25.3351 47.66 24.5537 47.1436 23.9777C47.66 23.4017 47.9557 22.6203 47.8756 21.751C47.4192 16.7947 45.4557 12.2746 42.451 8.65569C41.8928 7.98338 41.1308 7.6396 40.3579 7.59744C40.3157 6.82454 39.9719 6.0625 39.2996 5.50431ZM22.4587 16.1213C23.0169 16.0142 23.5482 15.7491 23.9777 15.3615C24.4072 15.7491 24.9385 16.0142 25.4967 16.1213C26.5763 16.3285 27.5793 16.7532 28.459 17.3494C28.9295 17.6683 29.4922 17.8563 30.0695 17.8859C30.0991 18.4631 30.2871 19.0259 30.6059 19.4963C31.2022 20.3761 31.6268 21.3791 31.834 22.4587C31.9412 23.0169 32.2063 23.5482 32.5938 23.9777C32.2063 24.4072 31.9412 24.9385 31.834 25.4967C31.6268 26.5763 31.2022 27.5793 30.6059 28.459C30.2871 28.9294 30.0991 29.4922 30.0695 30.0695C29.4922 30.0991 28.9295 30.2871 28.4591 30.6059C27.5793 31.2022 26.5763 31.6268 25.4967 31.834C24.9385 31.9412 24.4072 32.2063 23.9777 32.5938C23.5482 32.2063 23.0169 31.9412 22.4587 31.834C21.3791 31.6268 20.3761 31.2022 19.4963 30.6059C19.0259 30.2871 18.4631 30.0991 17.8859 30.0695C17.8563 29.4922 17.6683 28.9295 17.3494 28.459C16.7532 27.5793 16.3285 26.5763 16.1213 25.4967C16.0142 24.9385 15.7491 24.4072 15.3615 23.9777C15.7491 23.5482 16.0142 23.0169 16.1213 22.4587C16.3285 21.3791 16.7532 20.3761 17.3495 19.4963C17.6683 19.0259 17.8563 18.4631 17.8859 17.8859C18.4632 17.8563 19.0259 17.6683 19.4964 17.3494C20.3761 16.7532 21.3791 16.3285 22.4587 16.1213Z" fill="white"/>
<g filter="url(#filter0_i_372_128)">
<path d="M38.0711 8.46998C38.4742 8.06691 38.4606 7.40718 38.022 7.04306C34.7035 4.28787 30.5621 2.48954 26.021 2.07131C25.4536 2.01905 24.9777 2.47591 24.9777 3.04574V13.1214C24.9777 13.6354 25.3688 14.0603 25.8736 14.1572C27.2261 14.4167 28.4817 14.9487 29.5811 15.6938C30.0064 15.9821 30.5831 15.958 30.9464 15.5947L38.0711 8.46998Z" fill="#E6E6E6"/>
<path d="M34.8339 22.9777C34.3199 22.9777 33.895 22.5865 33.7982 22.0817C33.5386 20.7292 33.0066 19.4736 32.2615 18.3742C31.9732 17.9489 31.9973 17.3722 32.3606 17.0089L39.4853 9.88419C39.8884 9.48112 40.5481 9.49468 40.9122 9.93324C43.6675 13.2518 45.4658 17.3932 45.884 21.9344C45.9363 22.5018 45.4794 22.9777 44.9096 22.9777H34.8339Z" fill="#E6E6E6"/>
<path d="M32.3606 30.9463C31.9973 30.583 31.9732 30.0064 32.2615 29.5811C33.0066 28.4817 33.5386 27.2261 33.7982 25.8736C33.895 25.3688 34.3199 24.9777 34.8339 24.9777H44.9096C45.4794 24.9777 45.9363 25.4536 45.884 26.021C45.4658 30.5621 43.6675 34.7035 40.9123 38.022C40.5482 38.4606 39.8884 38.4742 39.4854 38.0711L32.3606 30.9463Z" fill="#E6E6E6"/>
<path d="M24.9777 34.8339C24.9777 34.3199 25.3688 33.895 25.8736 33.7982C27.2261 33.5386 28.4817 33.0066 29.5811 32.2615C30.0064 31.9732 30.5831 31.9973 30.9464 32.3606L38.0712 39.4853C38.4742 39.8884 38.4607 40.5481 38.0221 40.9122C34.7036 43.6675 30.5621 45.4658 26.021 45.884C25.4536 45.9363 24.9777 45.4794 24.9777 44.9096V34.8339Z" fill="#E6E6E6"/>
<path d="M17.0089 32.3606C17.3722 31.9973 17.9489 31.9732 18.3742 32.2615C19.4736 33.0066 20.7292 33.5386 22.0817 33.7982C22.5865 33.895 22.9777 34.3199 22.9777 34.8339V44.9096C22.9777 45.4794 22.5018 45.9363 21.9344 45.884C17.3932 45.4658 13.2518 43.6675 9.93324 40.9122C9.49468 40.5481 9.48113 39.8884 9.88419 39.4853L17.0089 32.3606Z" fill="#E6E6E6"/>
<path d="M13.1214 24.9777C13.6354 24.9777 14.0603 25.3688 14.1572 25.8736C14.4167 27.2261 14.9487 28.4817 15.6938 29.5811C15.9821 30.0064 15.958 30.5831 15.5947 30.9464L8.46998 38.0711C8.06691 38.4742 7.40718 38.4606 7.04306 38.022C4.28787 34.7035 2.48954 30.5621 2.07131 26.021C2.01905 25.4536 2.47591 24.9777 3.04574 24.9777H13.1214Z" fill="#E6E6E6"/>
<path d="M15.5948 17.0089C15.9581 17.3722 15.9821 17.9489 15.6939 18.3742C14.9487 19.4736 14.4167 20.7292 14.1572 22.0817C14.0603 22.5865 13.6354 22.9777 13.1214 22.9777H3.04574C2.47591 22.9777 2.01905 22.5018 2.07131 21.9344C2.48954 17.3932 4.28789 13.2518 7.04312 9.93324C7.40724 9.49468 8.06697 9.48112 8.47003 9.88419L15.5948 17.0089Z" fill="#E6E6E6"/>
<path d="M22.9777 13.1214C22.9777 13.6354 22.5865 14.0603 22.0817 14.1572C20.7293 14.4167 19.4737 14.9487 18.3743 15.6938C17.949 15.9821 17.3723 15.958 17.009 15.5947L9.88425 8.46998C9.48119 8.06692 9.49475 7.40718 9.93331 7.04306C13.2518 4.28787 17.3932 2.48954 21.9344 2.07131C22.5018 2.01905 22.9777 2.47591 22.9777 3.04574V13.1214Z" fill="#E6E6E6"/>
</g>
<defs>
<filter id="filter0_i_372_128" x="2.06726" y="2.06726" width="44.8209" height="44.8208" filterUnits="userSpaceOnUse" color-interpolation-filters="sRGB">
<feFlood flood-opacity="0" result="BackgroundImageFix"/>
<feBlend mode="normal" in="SourceGraphic" in2="BackgroundImageFix" result="shape"/>
<feColorMatrix in="SourceAlpha" type="matrix" values="0 0 0 0 0 0 0 0 0 0 0 0 0 0 0 0 0 0 127 0" result="hardAlpha"/>
<feOffset dx="1" dy="1"/>
<feGaussianBlur stdDeviation="1.25"/>
<feComposite in2="hardAlpha" operator="arithmetic" k2="-1" k3="1"/>
<feColorMatrix type="matrix" values="0 0 0 0 0 0 0 0 0 0 0 0 0 0 0 0 0 0 0.16 0"/>
<feBlend mode="normal" in2="shape" result="effect1_innerShadow_372_128"/>
</filter>
</defs>
</svg>
