<svg width="12" height="12" viewBox="0 0 12 12" fill="none" xmlns="http://www.w3.org/2000/svg">
<mask id="path-1-outside-1_366_45" maskUnits="userSpaceOnUse" x="1" y="1" width="10" height="10" fill="black">
<rect fill="white" x="1" y="1" width="10" height="10"/>
<path fill-rule="evenodd" clip-rule="evenodd" d="M10 3.20711C10 3.33971 9.94732 3.46689 9.85355 3.56066L7.76777 5.64645C7.5725 5.84171 7.5725 6.15829 7.76777 6.35355L9.85355 8.43934C9.94732 8.53311 10 8.66029 10 8.79289V9.5C10 9.77614 9.77614 10 9.5 10H8.79289C8.66029 10 8.53311 9.94732 8.43934 9.85355L6.35355 7.76777C6.15829 7.5725 5.84171 7.5725 5.64645 7.76777L3.56066 9.85355C3.46689 9.94732 3.33971 10 3.20711 10H2.5C2.22386 10 2 9.77614 2 9.5V8.79289C2 8.66029 2.05268 8.53311 2.14645 8.43934L4.23223 6.35355C4.4275 6.15829 4.4275 5.84171 4.23223 5.64645L2.14645 3.56066C2.05268 3.46689 2 3.33971 2 3.20711V2.5C2 2.22386 2.22386 2 2.5 2H3.20711C3.33972 2 3.46689 2.05268 3.56066 2.14645L5.64645 4.23223C5.84171 4.4275 6.15829 4.4275 6.35355 4.23223L8.43934 2.14645C8.53311 2.05268 8.66028 2 8.79289 2H9.5C9.77614 2 10 2.22386 10 2.5V3.20711Z"/>
</mask>
<path fill-rule="evenodd" clip-rule="evenodd" d="M10 3.20711C10 3.33971 9.94732 3.46689 9.85355 3.56066L7.76777 5.64645C7.5725 5.84171 7.5725 6.15829 7.76777 6.35355L9.85355 8.43934C9.94732 8.53311 10 8.66029 10 8.79289V9.5C10 9.77614 9.77614 10 9.5 10H8.79289C8.66029 10 8.53311 9.94732 8.43934 9.85355L6.35355 7.76777C6.15829 7.5725 5.84171 7.5725 5.64645 7.76777L3.56066 9.85355C3.46689 9.94732 3.33971 10 3.20711 10H2.5C2.22386 10 2 9.77614 2 9.5V8.79289C2 8.66029 2.05268 8.53311 2.14645 8.43934L4.23223 6.35355C4.4275 6.15829 4.4275 5.84171 4.23223 5.64645L2.14645 3.56066C2.05268 3.46689 2 3.33971 2 3.20711V2.5C2 2.22386 2.22386 2 2.5 2H3.20711C3.33972 2 3.46689 2.05268 3.56066 2.14645L5.64645 4.23223C5.84171 4.4275 6.15829 4.4275 6.35355 4.23223L8.43934 2.14645C8.53311 2.05268 8.66028 2 8.79289 2H9.5C9.77614 2 10 2.22386 10 2.5V3.20711Z" fill="white"/>
<path d="M8.43934 2.14645L9.14645 2.85355L8.43934 2.14645ZM6.35355 4.23223L5.64645 3.52513L6.35355 4.23223ZM2.14645 3.56066L1.43934 4.26777L1.43934 4.26777L2.14645 3.56066ZM2.14645 8.43934L1.43934 7.73223L2.14645 8.43934ZM3.56066 9.85355L2.85355 9.14645L3.56066 9.85355ZM9.85355 3.56066L10.5607 4.26777L10.5607 4.26777L9.85355 3.56066ZM7.76777 5.64645L7.06066 4.93934L7.76777 5.64645ZM8.47487 6.35355L10.5607 4.26777L9.14645 2.85355L7.06066 4.93934L8.47487 6.35355ZM10.5607 7.73223L8.47487 5.64645L7.06066 7.06066L9.14645 9.14645L10.5607 7.73223ZM9 8.79289V9.5H11V8.79289H9ZM9.5 9H8.79289V11H9.5V9ZM5.64645 8.47487L7.73223 10.5607L9.14645 9.14645L7.06066 7.06066L5.64645 8.47487ZM4.26777 10.5607L6.35355 8.47487L4.93934 7.06066L2.85355 9.14645L4.26777 10.5607ZM3.20711 9H2.5V11H3.20711V9ZM3 9.5V8.79289H1V9.5H3ZM3.52513 5.64645L1.43934 7.73223L2.85355 9.14645L4.93934 7.06066L3.52513 5.64645ZM1.43934 4.26777L3.52513 6.35355L4.93934 4.93934L2.85355 2.85355L1.43934 4.26777ZM3 3.20711V2.5H1V3.20711H3ZM2.5 3H3.20711V1H2.5V3ZM6.35355 3.52513L4.26777 1.43934L2.85355 2.85355L4.93934 4.93934L6.35355 3.52513ZM7.73223 1.43934L5.64645 3.52513L7.06066 4.93934L9.14645 2.85355L7.73223 1.43934ZM8.79289 3H9.5V1H8.79289V3ZM9 2.5V3.20711H11V2.5H9ZM9.5 3C9.22386 3 9 2.77614 9 2.5H11C11 1.67157 10.3284 1 9.5 1V3ZM9.14645 2.85355C9.05268 2.94732 8.9255 3 8.79289 3V1C8.39507 1 8.01354 1.15804 7.73223 1.43934L9.14645 2.85355ZM4.93934 4.93934C5.52513 5.52513 6.47487 5.52513 7.06066 4.93934L5.64645 3.52513C5.84171 3.32986 6.15829 3.32986 6.35355 3.52513L4.93934 4.93934ZM3.20711 3C3.0745 3 2.94732 2.94732 2.85355 2.85355L4.26777 1.43934C3.98646 1.15804 3.60493 1 3.20711 1V3ZM3 2.5C3 2.77614 2.77614 3 2.5 3V1C1.67157 1 1 1.67157 1 2.5H3ZM2.85355 2.85355C2.94732 2.94732 3 3.0745 3 3.20711H1C1 3.60493 1.15804 3.98646 1.43934 4.26777L2.85355 2.85355ZM4.93934 7.06066C5.52513 6.47487 5.52513 5.52513 4.93934 4.93934L3.52513 6.35355C3.32986 6.15829 3.32986 5.84171 3.52513 5.64645L4.93934 7.06066ZM3 8.79289C3 8.9255 2.94732 9.05268 2.85355 9.14645L1.43934 7.73223C1.15804 8.01354 1 8.39507 1 8.79289H3ZM2.5 9C2.77614 9 3 9.22386 3 9.5H1C1 10.3284 1.67157 11 2.5 11V9ZM2.85355 9.14645C2.94732 9.05268 3.0745 9 3.20711 9V11C3.60493 11 3.98646 10.842 4.26777 10.5607L2.85355 9.14645ZM7.06066 7.06066C6.47487 6.47487 5.52513 6.47487 4.93934 7.06066L6.35355 8.47487C6.15829 8.67014 5.84171 8.67014 5.64645 8.47487L7.06066 7.06066ZM8.79289 9C8.9255 9 9.05268 9.05268 9.14645 9.14645L7.73223 10.5607C8.01354 10.842 8.39507 11 8.79289 11V9ZM9 9.5C9 9.22386 9.22386 9 9.5 9V11C10.3284 11 11 10.3284 11 9.5H9ZM9.14645 9.14645C9.05268 9.05268 9 8.9255 9 8.79289H11C11 8.39507 10.842 8.01354 10.5607 7.73223L9.14645 9.14645ZM10.5607 4.26777C10.842 3.98646 11 3.60493 11 3.20711H9C9 3.0745 9.05268 2.94732 9.14645 2.85355L10.5607 4.26777ZM7.06066 4.93934C6.47487 5.52513 6.47487 6.47487 7.06066 7.06066L8.47487 5.64645C8.67014 5.84171 8.67014 6.15829 8.47487 6.35355L7.06066 4.93934Z" fill="black" fill-opacity="0.55" mask="url(#path-1-outside-1_366_45)"/>
</svg>
