<svg width="12" height="12" viewBox="0 0 12 12" fill="none" xmlns="http://www.w3.org/2000/svg">
<mask id="path-1-outside-1_366_43" maskUnits="userSpaceOnUse" x="1" y="1" width="10" height="10" fill="black">
<rect fill="white" x="1" y="1" width="10" height="10"/>
<path fill-rule="evenodd" clip-rule="evenodd" d="M2.5 2C2.22386 2 2 2.22386 2 2.5V9.5C2 9.77614 2.22386 10 2.5 10H9.5C9.77614 10 10 9.77614 10 9.5V2.5C10 2.22386 9.77614 2 9.5 2H2.5ZM9 4H3V9H9V4Z"/>
</mask>
<path fill-rule="evenodd" clip-rule="evenodd" d="M2.5 2C2.22386 2 2 2.22386 2 2.5V9.5C2 9.77614 2.22386 10 2.5 10H9.5C9.77614 10 10 9.77614 10 9.5V2.5C10 2.22386 9.77614 2 9.5 2H2.5ZM9 4H3V9H9V4Z" fill="white"/>
<path d="M3 4V3H2V4H3ZM9 4H10V3H9V4ZM3 9H2V10H3V9ZM9 9V10H10V9H9ZM3 2.5C3 2.77614 2.77614 3 2.5 3V1C1.67157 1 1 1.67157 1 2.5H3ZM3 9.5V2.5H1V9.5H3ZM2.5 9C2.77614 9 3 9.22386 3 9.5H1C1 10.3284 1.67157 11 2.5 11V9ZM9.5 9H2.5V11H9.5V9ZM9 9.5C9 9.22386 9.22386 9 9.5 9V11C10.3284 11 11 10.3284 11 9.5H9ZM9 2.5V9.5H11V2.5H9ZM9.5 3C9.22386 3 9 2.77614 9 2.5H11C11 1.67157 10.3284 1 9.5 1V3ZM2.5 3H9.5V1H2.5V3ZM3 5H9V3H3V5ZM4 9V4H2V9H4ZM9 8H3V10H9V8ZM8 4V9H10V4H8Z" fill="black" fill-opacity="0.55" mask="url(#path-1-outside-1_366_43)"/>
</svg>
