<svg width="12" height="12" viewBox="0 0 12 12" fill="none" xmlns="http://www.w3.org/2000/svg">
<path fill-rule="evenodd" clip-rule="evenodd" d="M11 1.5C11 1.22386 10.7761 1 10.5 1H3.5C3.22386 1 3 1.22386 3 1.5V4H1.5C1.22386 4 1 4.22386 1 4.5V10.5C1 10.7761 1.22386 11 1.5 11H8.5C8.77614 11 9 10.7761 9 10.5V8H10.5C10.7761 8 11 7.77614 11 7.5V1.5ZM9 7H10V2H4V4H9V7ZM2 5V10H8V5H2Z" fill="white"/>
<path d="M9.5 3.5H9H4.5V2.5H9.5V3.5ZM10.5 0.5H3.5C2.94772 0.5 2.5 0.947715 2.5 1.5V3.5H1.5C0.947715 3.5 0.5 3.94772 0.5 4.5V10.5C0.5 11.0523 0.947715 11.5 1.5 11.5H8.5C9.05229 11.5 9.5 11.0523 9.5 10.5V8.5H10.5C11.0523 8.5 11.5 8.05228 11.5 7.5V1.5C11.5 0.947715 11.0523 0.5 10.5 0.5ZM7.5 9.5H2.5V5.5H7.5V9.5Z" stroke="black" stroke-opacity="0.55"/>
</svg>
