<svg width="28" height="18" viewBox="0 0 28 18" fill="none" xmlns="http://www.w3.org/2000/svg">
<mask id="mask0_457_169" style="mask-type:alpha" maskUnits="userSpaceOnUse" x="0" y="0" width="28" height="18">
<rect width="28" height="18" fill="white"/>
</mask>
<g mask="url(#mask0_457_169)">
<path d="M22.5891 5.37931L23.0481 5.18114L23.047 5.17848L22.5891 5.37931ZM22.5891 5.37931L23.0482 5.18123L23.0483 5.18147L23.0487 5.18242L23.0503 5.18614L23.0566 5.20077L23.0812 5.25789L23.1751 5.47612C23.2562 5.66499 23.3728 5.93689 23.5147 6.26916C23.7985 6.93365 24.1835 7.83994 24.5884 8.80684C25.3942 10.7307 26.2916 12.9241 26.6167 13.9128C26.7922 14.4461 26.8385 14.8962 26.7692 15.2752C26.6979 15.6658 26.5089 15.9501 26.2756 16.1435C26.0515 16.3294 25.8064 16.4155 25.6304 16.4567C25.5405 16.4777 25.4626 16.4884 25.4051 16.4939C25.3762 16.4967 25.352 16.4982 25.3334 16.499C25.3277 16.4993 25.3226 16.4995 25.3179 16.4996C25.315 16.4997 25.3122 16.4998 25.3097 16.4998L25.3011 16.5L25.2977 16.5L25.2962 16.5L25.2955 16.5C25.2952 16.5 25.2949 16.5 25.2949 16V16.5H8.52199C7.2662 16.5 6.29735 15.786 5.67437 15.1403C5.35794 14.8123 5.11497 14.4861 4.95104 14.2424C4.86877 14.12 4.80559 14.0172 4.76227 13.9437C4.74059 13.9068 4.72383 13.8773 4.71209 13.8561L4.69822 13.8308L4.69412 13.8232L4.69279 13.8207L4.69229 13.8198L4.69209 13.8194C4.69201 13.8192 4.69192 13.8191 5.13439 13.5862M22.5891 5.37931C23.047 5.17848 23.0469 5.17834 23.0468 5.17818L23.0467 5.17781L23.0462 5.17682L23.045 5.17394L23.0408 5.16454L23.0258 5.13182C23.013 5.10402 22.9944 5.06449 22.9702 5.01489C22.9219 4.91577 22.8509 4.77604 22.7586 4.60917C22.5745 4.27663 22.3022 3.83041 21.9505 3.38136C21.2691 2.51127 20.1865 1.5 18.778 1.5H2.00514V2C2.00514 1.5 2.00482 1.5 2.00449 1.5L2.0038 1.5L2.0023 1.50001L1.99888 1.50003L1.99033 1.50017C1.98389 1.50031 1.97595 1.50055 1.96665 1.50096C1.94806 1.50177 1.92382 1.50328 1.89492 1.50606C1.83746 1.51158 1.75955 1.52228 1.66964 1.54331C1.49364 1.58447 1.24854 1.6706 1.02437 1.85648C0.791067 2.04991 0.602121 2.33423 0.530753 2.72477C0.461488 3.10381 0.507831 3.55387 0.683279 4.08726C1.00875 5.07675 2.01274 7.51315 2.92369 9.67678C3.38153 10.7642 3.81943 11.7911 4.14284 12.546C4.30455 12.9235 4.43767 13.2331 4.53038 13.4483L4.63766 13.6972L4.66581 13.7623L4.67302 13.779L4.67486 13.7833L4.67532 13.7843L4.67544 13.7846C4.67547 13.7847 4.67548 13.7847 5.13439 13.5862M5.13439 13.5862L4.67548 13.7847L4.68305 13.8022L4.69192 13.8191L5.13439 13.5862Z" stroke="black" stroke-opacity="0.22"/>
<g filter="url(#filter0_i_457_169)">
<path d="M22.5891 5.37931C22.5891 5.37931 21.1069 2 18.778 2H2.00514C2.00514 2 0.52307 2 1.15824 3.93103C1.79342 5.86207 5.13439 13.5862 5.13439 13.5862C5.13439 13.5862 6.40467 16 8.52199 16H25.2949C25.2949 16 26.7769 16 26.1418 14.069C25.5067 12.1379 22.5891 5.37931 22.5891 5.37931Z" fill="black" fill-opacity="0.01"/>
</g>
<path d="M15 5.5C15 5.22386 14.7761 5 14.5 5H13.5C13.2239 5 13 5.22386 13 5.5V8H10.5C10.2239 8 10 8.22386 10 8.5V9.5C10 9.77614 10.2239 10 10.5 10H13V12.5C13 12.7761 13.2239 13 13.5 13H14.5C14.7761 13 15 12.7761 15 12.5V10H17.5C17.7761 10 18 9.77614 18 9.5V8.5C18 8.22386 17.7761 8 17.5 8H15V5.5Z" fill="white" fill-opacity="0.5"/>
<path d="M14.5 4.5H13.5C12.9477 4.5 12.5 4.94772 12.5 5.5V7.5H10.5C9.94772 7.5 9.5 7.94772 9.5 8.5V9.5C9.5 10.0523 9.94772 10.5 10.5 10.5H12.5V12.5C12.5 13.0523 12.9477 13.5 13.5 13.5H14.5C15.0523 13.5 15.5 13.0523 15.5 12.5V10.5H17.5C18.0523 10.5 18.5 10.0523 18.5 9.5V8.5C18.5 7.94772 18.0523 7.5 17.5 7.5H15.5V5.5C15.5 4.94772 15.0523 4.5 14.5 4.5Z" stroke="#171414" stroke-opacity="0.29"/>
</g>
<defs>
<filter id="filter0_i_457_169" x="1" y="2" width="25.2998" height="14" filterUnits="userSpaceOnUse" color-interpolation-filters="sRGB">
<feFlood flood-opacity="0" result="BackgroundImageFix"/>
<feBlend mode="normal" in="SourceGraphic" in2="BackgroundImageFix" result="shape"/>
<feColorMatrix in="SourceAlpha" type="matrix" values="0 0 0 0 0 0 0 0 0 0 0 0 0 0 0 0 0 0 127 0" result="hardAlpha"/>
<feOffset/>
<feGaussianBlur stdDeviation="3"/>
<feComposite in2="hardAlpha" operator="arithmetic" k2="-1" k3="1"/>
<feColorMatrix type="matrix" values="0 0 0 0 0 0 0 0 0 0 0 0 0 0 0 0 0 0 0.25 0"/>
<feBlend mode="normal" in2="shape" result="effect1_innerShadow_457_169"/>
</filter>
</defs>
</svg>
