<svg width="15" height="27" viewBox="0 0 15 27" fill="none" xmlns="http://www.w3.org/2000/svg">
<mask id="mask0_477_669" style="mask-type:alpha" maskUnits="userSpaceOnUse" x="0" y="0" width="15" height="27">
<rect width="15" height="27" fill="url(#paint0_linear_477_669)"/>
</mask>
<g mask="url(#mask0_477_669)">
<path d="M8.5349 12.4739C8.67386 12.0528 8.81974 11.6152 8.97363 11.16C10.0648 7.93242 11.0393 6.13055 12.013 5.01641C12.9711 3.92006 13.9563 3.45587 15.1857 2.96412L14.8143 2.03564C13.5437 2.54389 12.3775 3.07971 11.26 4.35835C10.1581 5.61922 9.13259 7.56735 8.0263 10.8398C8.02045 10.8571 8.01462 10.8743 8.00879 10.8916C8.19496 11.4434 8.36977 11.9704 8.5349 12.4739Z" fill="url(#paint1_linear_477_669)"/>
</g>
<defs>
<linearGradient id="paint0_linear_477_669" x1="7.5" y1="25.5" x2="7.5" y2="0.500002" gradientUnits="userSpaceOnUse">
<stop stop-color="white" stop-opacity="0"/>
<stop offset="0.8" stop-color="white"/>
</linearGradient>
<linearGradient id="paint1_linear_477_669" x1="11.5972" y1="25.5" x2="11.5" y2="2.5" gradientUnits="userSpaceOnUse">
<stop stop-color="white" stop-opacity="0"/>
<stop offset="0.8" stop-color="white"/>
</linearGradient>
</defs>
</svg>
