<svg width="15" height="27" viewBox="0 0 15 27" fill="none" xmlns="http://www.w3.org/2000/svg">
<mask id="mask0_477_652" style="mask-type:alpha" maskUnits="userSpaceOnUse" x="0" y="0" width="15" height="27">
<rect width="15" height="27" fill="white"/>
</mask>
<g mask="url(#mask0_477_652)">
<path fill-rule="evenodd" clip-rule="evenodd" d="M11.2602 4.35835C12.3777 3.07971 13.5438 2.54389 14.8144 2.03564L15.1858 2.96412C13.9565 3.45587 12.9713 3.92006 12.0132 5.01641C11.0395 6.13055 10.0649 7.93242 8.97381 11.16C8.43572 12.7517 7.99554 14.1274 7.60675 15.3424C7.4159 15.9389 7.23744 16.4967 7.06586 17.0222C6.54761 18.6098 6.09287 19.9016 5.56016 21.0264C4.478 23.3113 3.08942 24.8714 0.294226 26.9043L-0.293945 26.0955C2.41086 24.1284 3.66646 22.6885 4.6564 20.5984C5.15973 19.5356 5.59802 18.2962 6.11523 16.7119C6.28367 16.1959 6.46057 15.6431 6.65054 15.0494C7.04071 13.8301 7.48603 12.4384 8.02647 10.8398C9.13276 7.56735 10.1583 5.61922 11.2602 4.35835Z" fill="url(#paint0_linear_477_652)"/>
</g>
<defs>
<linearGradient id="paint0_linear_477_652" x1="7.5" y1="26.5" x2="7.5" y2="2.5" gradientUnits="userSpaceOnUse">
<stop stop-color="white" stop-opacity="0"/>
<stop offset="0.8" stop-color="white"/>
</linearGradient>
</defs>
</svg>
