<svg width="15" height="27" viewBox="0 0 15 27" fill="none" xmlns="http://www.w3.org/2000/svg">
<mask id="mask0_454_287" style="mask-type:alpha" maskUnits="userSpaceOnUse" x="0" y="0" width="15" height="27">
<rect width="15" height="27" transform="matrix(-1 0 0 1 15 0)" fill="white"/>
</mask>
<g mask="url(#mask0_454_287)">
<path fill-rule="evenodd" clip-rule="evenodd" d="M4.56496 3.69605C3.33461 2.21108 1.94329 1.53532 0.13716 1.01929L-0.137561 1.98081C1.55631 2.46477 2.73851 3.05901 3.79493 4.33405C4.87581 5.63862 5.85232 7.68805 7.02613 11.1602C8.62777 15.8978 9.63959 18.8112 10.6949 20.912C11.7662 23.0447 12.8843 24.3453 14.6744 25.8797L15.3252 25.1204C13.6153 23.6548 12.5892 22.4554 11.5885 20.4631C10.5716 18.4389 9.58345 15.6023 7.97346 10.8399C6.79433 7.35205 5.77085 5.15148 4.56496 3.69605Z" fill="black" fill-opacity="0.2"/>
<path fill-rule="evenodd" clip-rule="evenodd" d="M3.73981 4.35835C2.62233 3.07971 1.45617 2.54389 0.185555 2.03564L-0.185836 2.96412C1.04355 3.45587 2.02868 3.92006 2.98684 5.01641C3.96055 6.13055 4.93505 7.93242 6.02619 11.16C6.56428 12.7517 7.00446 14.1274 7.39325 15.3424C7.5841 15.9389 7.76256 16.4967 7.93414 17.0222C8.45239 18.6098 8.90713 19.9016 9.43984 21.0264C10.522 23.3113 11.9106 24.8714 14.7058 26.9043L15.2939 26.0955C12.5891 24.1284 11.3335 22.6885 10.3436 20.5984C9.84027 19.5356 9.40198 18.2962 8.88477 16.7119C8.71633 16.1959 8.53943 15.6431 8.34946 15.0494C7.95929 13.8301 7.51397 12.4384 6.97353 10.8398C5.86724 7.56735 4.84174 5.61922 3.73981 4.35835Z" fill="white" fill-opacity="0.12"/>
<path fill-rule="evenodd" clip-rule="evenodd" d="M3.40267 5.77752C2.35847 4.27248 1.05554 3.09885 -0.752084 2.06592L-1.24822 2.93416C0.444148 3.90123 1.63057 4.9776 2.58105 6.34756C3.53833 7.72732 4.27049 9.42485 5.02618 11.6602C6.62897 16.4012 7.89129 19.9414 9.19948 22.4209C10.5097 24.9041 11.9177 26.4252 13.8625 26.9808L14.1372 26.0193C12.582 25.5749 11.3458 24.346 10.0839 21.9542C8.82004 19.5587 7.58235 16.0989 5.97351 11.3399C5.2079 9.07523 4.44007 7.27276 3.40267 5.77752Z" fill="white" fill-opacity="0.09"/>
</g>
</svg>
