<svg width="15" height="27" viewBox="0 0 15 27" fill="none" xmlns="http://www.w3.org/2000/svg">
<mask id="mask0_454_253" style="mask-type:alpha" maskUnits="userSpaceOnUse" x="0" y="0" width="15" height="27">
<rect width="15" height="27" fill="white"/>
</mask>
<g mask="url(#mask0_454_253)">
<path fill-rule="evenodd" clip-rule="evenodd" d="M10.435 3.69605C11.6654 2.21108 13.0567 1.53532 14.8628 1.01929L15.1376 1.98081C13.4437 2.46477 12.2615 3.05901 11.2051 4.33405C10.1242 5.63862 9.14768 7.68805 7.97387 11.1602C6.37223 15.8978 5.36041 18.8112 4.30514 20.912C3.23381 23.0447 2.11573 24.3453 0.325596 25.8797L-0.325195 25.1204C1.38467 23.6548 2.41077 22.4554 3.41154 20.4631C4.42836 18.4389 5.41655 15.6023 7.02654 10.8399C8.20567 7.35205 9.22915 5.15148 10.435 3.69605Z" fill="black" fill-opacity="0.29"/>
<path fill-rule="evenodd" clip-rule="evenodd" d="M11.2602 4.35835C12.3777 3.07971 13.5438 2.54389 14.8144 2.03564L15.1858 2.96412C13.9565 3.45587 12.9713 3.92006 12.0132 5.01641C11.0395 6.13055 10.0649 7.93242 8.97381 11.16C8.43572 12.7517 7.99554 14.1274 7.60675 15.3424C7.4159 15.9389 7.23744 16.4967 7.06586 17.0222C6.54761 18.6098 6.09287 19.9016 5.56016 21.0264C4.478 23.3113 3.08942 24.8714 0.294226 26.9043L-0.293945 26.0955C2.41086 24.1284 3.66646 22.6885 4.6564 20.5984C5.15973 19.5356 5.59802 18.2962 6.11523 16.7119C6.28367 16.1959 6.46057 15.6431 6.65054 15.0494C7.04071 13.8301 7.48603 12.4384 8.02647 10.8398C9.13276 7.56735 10.1583 5.61922 11.2602 4.35835Z" fill="white" fill-opacity="0.25"/>
<path fill-rule="evenodd" clip-rule="evenodd" d="M11.5973 5.77752C12.6415 4.27248 13.9445 3.09885 15.7521 2.06592L16.2482 2.93416C14.5559 3.90123 13.3694 4.9776 12.4189 6.34756C11.4617 7.72732 10.7295 9.42485 9.97382 11.6602C8.37103 16.4012 7.10871 19.9414 5.80052 22.4209C4.49033 24.9041 3.08228 26.4252 1.13751 26.9808L0.862793 26.0193C2.41803 25.5749 3.65416 24.346 4.91607 21.9542C6.17996 19.5587 7.41765 16.0989 9.02649 11.3399C9.7921 9.07523 10.5599 7.27276 11.5973 5.77752Z" fill="white" fill-opacity="0.1"/>
</g>
</svg>
