<svg width="15" height="27" viewBox="0 0 15 27" fill="none" xmlns="http://www.w3.org/2000/svg">
<mask id="mask0_477_657" style="mask-type:alpha" maskUnits="userSpaceOnUse" x="0" y="0" width="15" height="27">
<rect width="15" height="27" transform="matrix(-1 0 0 1 15 0)" fill="white"/>
</mask>
<g mask="url(#mask0_477_657)">
<path fill-rule="evenodd" clip-rule="evenodd" d="M3.73981 4.35835C2.62233 3.07971 1.45617 2.54389 0.185555 2.03564L-0.185836 2.96412C1.04355 3.45587 2.02868 3.92006 2.98684 5.01641C3.96055 6.13055 4.93505 7.93242 6.02619 11.16C6.56428 12.7517 7.00446 14.1274 7.39325 15.3424C7.5841 15.9389 7.76256 16.4967 7.93414 17.0222C8.45239 18.6098 8.90713 19.9016 9.43984 21.0264C10.522 23.3113 11.9106 24.8714 14.7058 26.9043L15.2939 26.0955C12.5891 24.1284 11.3335 22.6885 10.3436 20.5984C9.84027 19.5356 9.40198 18.2962 8.88477 16.7119C8.71633 16.1959 8.53943 15.6431 8.34946 15.0494C7.95929 13.8301 7.51397 12.4384 6.97353 10.8398C5.86724 7.56735 4.84174 5.61922 3.73981 4.35835Z" fill="url(#paint0_linear_477_657)"/>
</g>
<defs>
<linearGradient id="paint0_linear_477_657" x1="7.5" y1="26.5" x2="7.5" y2="2.5" gradientUnits="userSpaceOnUse">
<stop stop-color="white" stop-opacity="0"/>
<stop offset="0.8" stop-color="white"/>
</linearGradient>
</defs>
</svg>
