<svg width="15" height="27" viewBox="0 0 15 27" fill="none" xmlns="http://www.w3.org/2000/svg">
<mask id="mask0_454_328" style="mask-type:alpha" maskUnits="userSpaceOnUse" x="0" y="0" width="15" height="27">
<rect width="15" height="27" transform="matrix(-1 0 0 1 15 0)" fill="white"/>
</mask>
<g mask="url(#mask0_454_328)">
<mask id="mask1_454_328" style="mask-type:alpha" maskUnits="userSpaceOnUse" x="0" y="2" width="15" height="25">
<rect width="15" height="25" transform="matrix(-1 0 0 1 15 2)" fill="white"/>
</mask>
<g mask="url(#mask1_454_328)">
<path d="M5.72205e-06 26.9999V1.69092L0.723613 2.05272C1.73896 2.5604 2.76802 3.09856 3.81235 4.37009C4.84303 5.62498 5.86659 7.56506 6.97367 10.8398C7.51409 12.4384 7.95939 13.83 8.34953 15.0492C8.53951 15.6429 8.71648 16.196 8.88491 16.712C9.40212 18.2963 9.84041 19.5357 10.3437 20.5984C11.3337 22.6886 12.5893 24.1284 15.2941 26.0956L16.5376 26.9999H5.72205e-06Z" fill="white"/>
</g>
</g>
</svg>
