<svg width="15" height="27" viewBox="0 0 15 27" fill="none" xmlns="http://www.w3.org/2000/svg">
<mask id="mask0_455_11" style="mask-type:alpha" maskUnits="userSpaceOnUse" x="0" y="0" width="15" height="27">
<rect width="15" height="27" fill="white"/>
</mask>
<g mask="url(#mask0_455_11)">
<path d="M1.12793 26.9472L1.13753 26.9808C1.17544 26.97 1.21316 26.9588 1.25067 26.9472H1.12793Z" fill="white" fill-opacity="0.06"/>
<path d="M9.10001 14.2175C9.38089 13.4072 9.67129 12.5551 9.97383 11.6602C10.7295 9.42485 11.4617 7.72732 12.419 6.34756C13.3694 4.9776 14.5559 3.90123 16.2482 2.93416L15.7521 2.06592C13.9445 3.09885 12.6415 4.27248 11.5973 5.77752C10.5599 7.27276 9.79212 9.07523 9.0265 11.3399C8.87699 11.7822 8.73068 12.2132 8.58726 12.6332C8.76924 13.1896 8.93938 13.717 9.10001 14.2175Z" fill="white" fill-opacity="0.06"/>
<path d="M8.5349 12.4739C8.67386 12.0528 8.81974 11.6152 8.97363 11.16C10.0648 7.93242 11.0393 6.13055 12.013 5.01641C12.9711 3.92006 13.9563 3.45587 15.1857 2.96412L14.8143 2.03564C13.5437 2.54389 12.3775 3.07971 11.26 4.35835C10.1581 5.61922 9.13259 7.56735 8.0263 10.8398C8.02045 10.8571 8.01462 10.8743 8.00879 10.8916C8.19496 11.4434 8.36977 11.9704 8.5349 12.4739Z" fill="white" fill-opacity="0.12"/>
<path d="M14.8629 1.01929C13.0568 1.53532 11.6655 2.21108 10.4351 3.69605C9.39551 4.95082 8.49145 6.75943 7.50635 9.4693C7.66064 9.88282 7.81637 10.3215 7.97378 10.7871C7.995 10.8499 8.01608 10.9123 8.03702 10.9745C9.18289 7.61468 10.1437 5.61519 11.2052 4.33405C12.2616 3.05901 13.4438 2.46477 15.1377 1.98081L14.8629 1.01929Z" fill="black" fill-opacity="0.2"/>
</g>
</svg>
