<svg width="269" height="95" viewBox="0 0 269 95" fill="none" xmlns="http://www.w3.org/2000/svg">
<mask id="mask0_591_16" style="mask-type:alpha" maskUnits="userSpaceOnUse" x="0" y="0" width="269" height="95">
<rect width="269" height="95" fill="white"/>
</mask>
<g mask="url(#mask0_591_16)">
<path d="M42.0194 45.6992H53.5661V61.9169C49.9633 63.0748 45.4143 63.7093 40.6859 63.7093C21.5214 63.7093 10.2578 47.298 10.2578 31.2702C10.2578 15.5508 20.446 4.52391 34.6598 4.52391C43.6541 4.52391 48.888 7.57095 53.5698 11.8154V17.1066L62.3489 8.32736C56.796 4.57046 48.7553 1 37.2623 1C12.0323 1 0.5 19.0496 0.5 33.8836C0.5 54.9982 15.8789 67.7172 35.2047 67.7172C44.5754 67.7172 52.8957 66.2868 62.5066 63.6125V46.857C62.5066 46.0003 62.8831 45.4124 63.4459 44.8962L66.4786 41.8634H45.8839L42.0194 45.6992Z" fill="url(#paint0_linear_591_16)"/>
<path d="M93.7446 23.6611C79.2225 23.6611 70.2246 34.2722 70.2246 45.5357C70.2246 55.2578 77.4731 66.8009 92.1601 66.8009C106.288 66.8009 114.956 56.1683 114.956 44.7076C114.956 34.032 106.485 23.6647 93.7446 23.6647V23.6611ZM91.3357 26.7549C101.574 26.7549 106.134 40.094 106.134 49.6081C106.134 63.7574 95.5191 64.0371 94.2501 64.0371C89.3927 64.0371 85.9977 61.101 83.4561 57.2509C81.2191 53.7019 79.0325 47.1095 79.0325 40.6676C79.0325 34.2508 81.1332 31.1176 84.4384 28.8126C87.1414 27.0847 89.6722 26.7549 91.332 26.7549H91.3357Z" fill="url(#paint1_linear_591_16)"/>
<path d="M188.675 23.6572C175.991 23.6572 169.13 31.6873 169.13 40.6529C169.13 47.4784 174.02 55.1787 184.107 55.1787H186.66C186.66 55.1787 185.964 56.8671 185.961 58.4982C185.961 60.9036 186.825 62.255 188.66 64.3342C171.302 65.3917 164.326 72.393 164.326 79.9175C164.326 86.5064 170.636 92.9914 183.896 92.9914C199.594 92.9914 207.724 84.2766 207.724 75.7232C207.724 69.6935 204.72 66.3884 197.113 60.6885C194.876 58.9498 194.443 57.8421 194.443 56.5408C194.443 54.6767 195.557 53.4435 195.966 52.9775C196.687 52.2175 197.934 51.35 198.4 50.9342C200.956 48.769 204.566 45.5641 204.566 39.1688C204.566 34.7809 202.741 31.0062 198.583 27.4715H203.659L207.473 23.6572H188.678H188.675ZM185.176 26.5107C187.477 26.5107 189.399 27.3246 191.428 29.013C193.679 31.042 197.275 36.4945 197.275 43.2412C197.275 50.5219 191.618 52.5151 188.556 52.5151C187.058 52.5151 185.262 52.0957 183.742 51.0561C180.365 48.8658 177.013 43.0368 177.013 36.1001C177.013 29.841 180.741 26.5107 185.176 26.5107ZM190.198 67.0982C191.166 67.0982 191.861 67.177 191.861 67.177C191.861 67.177 194.145 68.8081 195.74 70.027C199.454 72.9629 201.77 75.2071 201.77 79.2042C201.77 84.6997 196.672 89.0086 188.416 89.0086C179.354 89.0086 172.428 84.7893 172.428 77.8992C172.428 72.1922 177.174 67.281 190.198 67.0982Z" fill="url(#paint2_linear_591_16)"/>
<path d="M210.219 65.5411H227.631L230.284 62.8884L225.29 62.2647C223.946 62.0997 223.146 60.9382 223.146 59.8126V7.21965C223.146 6.18364 223.627 5.65306 223.978 5.31609L227.118 2.17578H212.27L208.406 6.04023H214.177V60.5188C214.177 61.2931 213.933 61.8201 213.41 62.3614L210.219 65.5411Z" fill="url(#paint3_linear_591_16)"/>
<path d="M251.223 23.6611C241.501 23.6611 231.173 31.071 231.173 44.3743C231.173 55.3617 238.583 66.8009 252.427 66.8009C255.879 66.8009 258.722 66.3565 261.386 65.134C264.243 63.8184 266.992 61.6818 269 58.9968C265.211 60.9075 262.121 62.1622 258.016 62.1622C250.215 62.1622 242.694 56.534 240.063 46.1882L267.62 35.0501C266.028 29.3753 261.54 23.6611 251.226 23.6611H251.223ZM249.423 26.7046C254.639 26.7046 258.41 30.9957 258.41 34.3547C258.41 35.4409 257.729 36.0145 256.381 36.5451L239.443 43.3956C239.443 43.3956 238.984 41.2627 238.984 38.9576C238.984 29.2894 245.975 26.7046 249.423 26.7046Z" fill="url(#paint4_linear_591_16)"/>
<path d="M143.022 23.6611C128.5 23.6611 119.502 34.2722 119.502 45.5357C119.502 55.2578 126.75 66.8009 141.437 66.8009C155.565 66.8009 164.233 56.1683 164.233 44.7076C164.233 34.032 155.762 23.6647 143.022 23.6647V23.6611ZM140.613 26.7549C150.851 26.7549 155.411 40.094 155.411 49.6081C155.411 63.7574 144.796 64.0371 143.527 64.0371C138.67 64.0371 135.275 61.101 132.733 57.2509C130.496 53.7019 128.31 47.1095 128.31 40.6676C128.31 34.2508 130.41 31.1176 133.716 28.8126C136.418 27.0847 138.949 26.7549 140.609 26.7549H140.613Z" fill="url(#paint5_linear_591_16)"/>
</g>
<defs>
<linearGradient id="paint0_linear_591_16" x1="36.729" y1="0.820479" x2="36.729" y2="67.721" gradientUnits="userSpaceOnUse">
<stop stop-color="#196EEF"/>
<stop offset="0.5" stop-color="#186DEE"/>
<stop offset="1" stop-color="#1065E7"/>
</linearGradient>
<linearGradient id="paint1_linear_591_16" x1="93.1208" y1="23.5676" x2="93.1208" y2="66.8265" gradientUnits="userSpaceOnUse">
<stop stop-color="#DE5744"/>
<stop offset="0.5" stop-color="#DB4632"/>
<stop offset="1" stop-color="#D13D29"/>
</linearGradient>
<linearGradient id="paint2_linear_591_16" x1="187.895" y1="23.5673" x2="187.895" y2="93.0247" gradientUnits="userSpaceOnUse">
<stop stop-color="#1A6FEF"/>
<stop offset="0.25" stop-color="#1E72EF"/>
<stop offset="0.5" stop-color="#166BEC"/>
<stop offset="0.75" stop-color="#1267E9"/>
<stop offset="1" stop-color="#1063E5" stop-opacity="0.87"/>
</linearGradient>
<linearGradient id="paint3_linear_591_16" x1="219.198" y1="2.03593" x2="219.198" y2="65.6095" gradientUnits="userSpaceOnUse">
<stop stop-color="#0AA561"/>
<stop offset="0.5" stop-color="#009B58"/>
<stop offset="1" stop-color="#00914B"/>
</linearGradient>
<linearGradient id="paint4_linear_591_16" x1="251.111" y1="23.5676" x2="251.111" y2="66.7345" gradientUnits="userSpaceOnUse">
<stop stop-color="#DE5644"/>
<stop offset="0.5" stop-color="#DA4531"/>
<stop offset="1" stop-color="#CE3A28"/>
</linearGradient>
<linearGradient id="paint5_linear_591_16" x1="142.583" y1="23.6548" x2="142.583" y2="66.7345" gradientUnits="userSpaceOnUse">
<stop stop-color="#FFC01A"/>
<stop offset="0.5" stop-color="#FFBA03"/>
<stop offset="1" stop-color="#FFB300"/>
</linearGradient>
</defs>
</svg>
