<svg width="269" height="95" viewBox="0 0 269 95" fill="none" xmlns="http://www.w3.org/2000/svg">
<mask id="mask0_591_17" style="mask-type:alpha" maskUnits="userSpaceOnUse" x="0" y="0" width="269" height="95">
<rect width="269" height="95" fill="white"/>
<rect x="0.25" y="0.25" width="268.5" height="94.5" stroke="black" stroke-opacity="0.06" stroke-width="0.5"/>
</mask>
<g mask="url(#mask0_591_17)">
<path d="M42.0194 45.6992H53.5661V61.9169C49.9633 63.0748 45.4143 63.7093 40.6859 63.7093C21.5214 63.7093 10.2578 47.298 10.2578 31.2702C10.2578 15.5508 20.446 4.52391 34.6598 4.52391C43.6541 4.52391 48.888 7.57095 53.5698 11.8154V17.1066L62.3489 8.32736C56.796 4.57046 48.7553 1 37.2623 1C12.0323 1 0.5 19.0496 0.5 33.8836C0.5 54.9982 15.8789 67.7172 35.2047 67.7172C44.5754 67.7172 52.8957 66.2868 62.5066 63.6125V46.857C62.5066 46.0003 62.8831 45.4124 63.4459 44.8962L66.4786 41.8634H45.8839L42.0194 45.6992Z" fill="#EEEEEE"/>
<path d="M53.8161 45.6992V45.4492H53.5661H42.6261L45.9869 42.1134H65.8751L63.2729 44.7156C62.6785 45.262 62.2566 45.9113 62.2566 46.857V63.4225C52.7385 66.0597 44.4876 67.4672 35.2047 67.4672C25.5963 67.4672 16.9836 64.3058 10.7754 58.5353C4.56954 52.7669 0.75 44.3767 0.75 33.8836C0.75 19.175 12.1827 1.25 37.2623 1.25C48.5258 1.25 56.4491 4.69497 61.9572 8.36549L53.8198 16.503V11.8154V11.7046L53.7377 11.6302C49.02 7.35318 43.7286 4.27391 34.6598 4.27391C20.2876 4.27391 10.0078 15.4339 10.0078 31.2702C10.0078 47.3974 21.3477 63.9593 40.6859 63.9593C45.4342 63.9593 50.0099 63.3224 53.6426 62.1549L53.8161 62.0991V61.9169V45.6992Z" stroke="black" stroke-opacity="0.06" stroke-width="0.5"/>
<path d="M93.7446 23.6611C79.2225 23.6611 70.2246 34.2722 70.2246 45.5357C70.2246 55.2578 77.4731 66.8009 92.1601 66.8009C106.288 66.8009 114.956 56.1683 114.956 44.7076C114.956 34.032 106.485 23.6647 93.7446 23.6647V23.6611ZM91.3357 26.7549C101.574 26.7549 106.134 40.094 106.134 49.6081C106.134 63.7574 95.5191 64.0371 94.2501 64.0371C89.3927 64.0371 85.9977 61.101 83.4561 57.2509C81.2191 53.7019 79.0325 47.1095 79.0325 40.6676C79.0325 34.2508 81.1332 31.1176 84.4384 28.8126C87.1414 27.0847 89.6722 26.7549 91.332 26.7549H91.3357Z" fill="#EEEEEE"/>
<path d="M70.4746 45.5357C70.4746 34.4751 79.2574 24.0331 93.4946 23.9122V23.9147H93.7446C106.334 23.9147 114.706 34.1566 114.706 44.7076C114.706 56.0396 106.141 66.5509 92.1601 66.5509C77.6379 66.5509 70.4746 55.148 70.4746 45.5357ZM83.2446 57.3842L83.2445 57.3843L83.2474 57.3886C85.8109 61.2717 89.2723 64.2871 94.2501 64.2871C94.9009 64.2871 97.9311 64.2164 100.805 62.3378C103.697 60.4471 106.384 56.7557 106.384 49.6081C106.384 44.818 105.237 39.0626 102.795 34.4958C100.352 29.9288 96.5836 26.5049 91.3357 26.5049H91.332C89.6379 26.5049 87.0569 26.842 84.3038 28.6019L84.3036 28.6018L84.2954 28.6075C82.618 29.7773 81.234 31.1663 80.2724 33.0862C79.312 35.0039 78.7825 37.4324 78.7825 40.6676C78.7825 47.1555 80.9819 53.7944 83.2446 57.3842Z" stroke="black" stroke-opacity="0.06" stroke-width="0.5"/>
<path d="M188.675 23.6572C175.991 23.6572 169.13 31.6873 169.13 40.6529C169.13 47.4784 174.02 55.1787 184.107 55.1787H186.66C186.66 55.1787 185.964 56.8671 185.961 58.4982C185.961 60.9036 186.825 62.255 188.66 64.3342C171.302 65.3917 164.326 72.393 164.326 79.9175C164.326 86.5064 170.636 92.9914 183.896 92.9914C199.594 92.9914 207.724 84.2766 207.724 75.7232C207.724 69.6935 204.72 66.3884 197.113 60.6885C194.876 58.9498 194.443 57.8421 194.443 56.5408C194.443 54.6767 195.557 53.4435 195.966 52.9775C196.687 52.2175 197.934 51.35 198.4 50.9342C200.956 48.769 204.566 45.5641 204.566 39.1688C204.566 34.7809 202.741 31.0062 198.583 27.4715H203.659L207.473 23.6572H188.678H188.675ZM185.176 26.5107C187.477 26.5107 189.399 27.3246 191.428 29.013C193.679 31.042 197.275 36.4945 197.275 43.2412C197.275 50.5219 191.618 52.5151 188.556 52.5151C187.058 52.5151 185.262 52.0957 183.742 51.0561C180.365 48.8658 177.013 43.0368 177.013 36.1001C177.013 29.841 180.741 26.5107 185.176 26.5107ZM190.198 67.0982C191.166 67.0982 191.861 67.177 191.861 67.177C191.861 67.177 194.145 68.8081 195.74 70.027C199.454 72.9629 201.77 75.2071 201.77 79.2042C201.77 84.6997 196.672 89.0086 188.416 89.0086C179.354 89.0086 172.428 84.7893 172.428 77.8992C172.428 72.1922 177.174 67.281 190.198 67.0982Z" fill="#EEEEEE"/>
<path d="M186.891 55.2739L186.891 55.2738L186.891 55.2738L187.033 54.9287H186.66H184.107C174.183 54.9287 169.38 47.3675 169.38 40.6529C169.38 36.235 171.07 32.0529 174.318 28.9744C177.566 25.8966 182.387 23.9072 188.675 23.9072H188.678H206.87L203.556 27.2215H198.583H197.903L198.421 27.662C202.533 31.1576 204.316 34.8664 204.316 39.1688C204.316 45.446 200.785 48.5862 198.239 50.7434L198.238 50.7434L198.234 50.7477C198.081 50.8836 197.843 51.0688 197.56 51.2893C197.423 51.3955 197.276 51.5098 197.123 51.6307C196.663 51.9949 196.158 52.4113 195.785 52.8055L195.785 52.8054L195.778 52.8127C195.769 52.8227 195.76 52.8331 195.751 52.8439C195.319 53.3349 194.193 54.6172 194.193 56.5408C194.193 57.2251 194.308 57.8738 194.724 58.5778C195.135 59.2734 195.83 60.0077 196.96 60.8859L196.96 60.8859L196.963 60.8885C200.767 63.7384 203.393 65.9708 205.071 68.2312C206.739 70.4782 207.474 72.759 207.474 75.7232C207.474 84.0927 199.507 92.7414 183.896 92.7414C170.704 92.7414 164.576 86.3079 164.576 79.9175C164.576 76.2422 166.276 72.6836 170.13 69.9035C173.992 67.1179 180.024 65.1109 188.675 64.5838L189.186 64.5526L188.848 64.1688C187.932 63.1317 187.276 62.2946 186.846 61.4275C186.42 60.5676 186.211 59.6673 186.211 58.4988C186.213 57.7149 186.381 56.9094 186.553 56.2938C186.638 55.9874 186.723 55.731 186.787 55.5516C186.819 55.462 186.845 55.3917 186.863 55.3443C186.867 55.3342 186.871 55.3252 186.874 55.3172C186.878 55.3064 186.881 55.2975 186.884 55.2907L186.889 55.2775L186.891 55.2745L186.891 55.2739ZM191.595 28.8273L191.595 28.8272L191.588 28.8209C189.525 27.1042 187.548 26.2607 185.176 26.2607C182.894 26.2607 180.785 27.1187 179.248 28.789C177.711 30.4587 176.763 32.9206 176.763 36.1001C176.763 43.1015 180.142 49.0174 183.603 51.2642C185.171 52.3353 187.017 52.7651 188.556 52.7651C190.132 52.7651 192.369 52.2541 194.218 50.8052C196.077 49.3477 197.525 46.9556 197.525 43.2412C197.525 36.4136 193.891 30.8965 191.595 28.8273ZM190.198 66.8482L190.195 66.8482C183.657 66.94 179.158 68.218 176.286 70.2221C173.402 72.2345 172.178 74.9668 172.178 77.8992C172.178 81.4404 173.962 84.2905 176.885 86.2455C179.801 88.1961 183.85 89.2586 188.416 89.2586C196.744 89.2586 202.02 84.8959 202.02 79.2042C202.02 75.0766 199.607 72.7654 195.895 69.8308L195.895 69.8308L195.892 69.8283C195.092 69.2171 194.12 68.5032 193.35 67.9427C192.964 67.6624 192.628 67.4202 192.389 67.248C192.27 67.1619 192.174 67.0934 192.108 67.0463L192.033 66.9923L192.013 66.9784L192.008 66.9748L192.007 66.9739L192.007 66.9737L192.007 66.9736L191.861 67.177L192.007 66.9736L191.954 66.9359L191.89 66.9286L191.89 66.9286L191.889 66.9286L191.889 66.9285L191.887 66.9283L191.88 66.9276L191.855 66.925C191.847 66.9241 191.837 66.9231 191.825 66.922C191.807 66.9202 191.786 66.9181 191.761 66.9158C191.678 66.9082 191.559 66.8982 191.409 66.8882C191.11 66.8682 190.689 66.8482 190.198 66.8482Z" stroke="black" stroke-opacity="0.06" stroke-width="0.5"/>
<path d="M210.219 65.5411H227.631L230.284 62.8884L225.29 62.2647C223.946 62.0997 223.146 60.9382 223.146 59.8126V7.21965C223.146 6.18364 223.627 5.65306 223.978 5.31609L227.118 2.17578H212.27L208.406 6.04023H214.177V60.5188C214.177 61.2931 213.933 61.8201 213.41 62.3614L210.219 65.5411Z" fill="#EEEEEE"/>
<path d="M209.009 5.79023L212.374 2.42578H226.515L223.803 5.13749C223.429 5.49647 222.896 6.08795 222.896 7.21965V59.8126C222.896 61.0459 223.772 62.3303 225.26 62.5128L229.745 63.0731L227.527 65.2911H210.824L213.586 62.5384L213.586 62.5385L213.59 62.5351C213.866 62.2491 214.078 61.9572 214.22 61.6256C214.362 61.2931 214.427 60.9334 214.427 60.5188V6.04023V5.79023H214.177H209.009Z" stroke="black" stroke-opacity="0.06" stroke-width="0.5"/>
<path d="M251.223 23.6611C241.501 23.6611 231.173 31.071 231.173 44.3743C231.173 55.3617 238.583 66.8009 252.427 66.8009C255.879 66.8009 258.722 66.3565 261.386 65.134C264.243 63.8184 266.992 61.6818 269 58.9968C265.211 60.9075 262.121 62.1622 258.016 62.1622C250.215 62.1622 242.694 56.534 240.063 46.1882L267.62 35.0501C266.028 29.3753 261.54 23.6611 251.226 23.6611H251.223ZM249.423 26.7046C254.639 26.7046 258.41 30.9957 258.41 34.3547C258.41 35.4409 257.729 36.0145 256.381 36.5451L239.443 43.3956C239.443 43.3956 238.984 41.2627 238.984 38.9576C238.984 29.2894 245.975 26.7046 249.423 26.7046Z" fill="#EEEEEE"/>
<path d="M239.97 45.9564L239.767 46.0382L239.821 46.2498C242.476 56.6886 250.084 62.4122 258.016 62.4122C261.807 62.4122 264.743 61.3546 268.105 59.7198C266.207 61.9612 263.785 63.7538 261.281 64.9069C258.661 66.1093 255.857 66.5509 252.427 66.5509C238.758 66.5509 231.423 55.2644 231.423 44.3743C231.423 31.2269 241.62 23.9111 251.223 23.9111H251.226C256.335 23.9111 259.976 25.3251 262.535 27.421C265.031 29.4653 266.516 32.1743 267.317 34.9027L239.97 45.9564ZM239.443 43.3956L239.199 43.4482L239.261 43.7388L239.537 43.6274L256.473 36.7777C256.473 36.7775 256.474 36.7774 256.474 36.7773C257.157 36.5085 257.704 36.217 258.08 35.8333C258.467 35.4382 258.66 34.9591 258.66 34.3547C258.66 32.5882 257.674 30.6137 256.044 29.0875C254.408 27.5566 252.102 26.4546 249.423 26.4546C247.647 26.4546 244.978 27.1174 242.748 29.0152C240.51 30.9211 238.734 34.0562 238.734 38.9576C238.734 40.1255 238.85 41.2473 238.966 42.0756C239.024 42.4902 239.082 42.8323 239.125 43.0711C239.147 43.1906 239.165 43.2843 239.178 43.3484C239.185 43.3805 239.19 43.4051 239.193 43.4219L239.197 43.4411L239.198 43.4462L239.198 43.4476L239.199 43.448L239.199 43.4481L239.443 43.3956Z" stroke="black" stroke-opacity="0.06" stroke-width="0.5"/>
<path d="M143.022 23.6611C128.5 23.6611 119.502 34.2722 119.502 45.5357C119.502 55.2578 126.75 66.8009 141.437 66.8009C155.565 66.8009 164.233 56.1683 164.233 44.7076C164.233 34.032 155.762 23.6647 143.022 23.6647V23.6611ZM140.613 26.7549C150.851 26.7549 155.411 40.094 155.411 49.6081C155.411 63.7574 144.796 64.0371 143.527 64.0371C138.67 64.0371 135.275 61.101 132.733 57.2509C130.496 53.7019 128.31 47.1095 128.31 40.6676C128.31 34.2508 130.41 31.1176 133.716 28.8126C136.418 27.0847 138.949 26.7549 140.609 26.7549H140.613Z" fill="#EEEEEE"/>
<path d="M119.752 45.5357C119.752 34.4751 128.535 24.0331 142.772 23.9122V23.9147H143.022C155.611 23.9147 163.983 34.1566 163.983 44.7076C163.983 56.0396 155.418 66.5509 141.437 66.5509C126.915 66.5509 119.752 55.148 119.752 45.5357ZM132.522 57.3842L132.522 57.3843L132.525 57.3886C135.088 61.2717 138.549 64.2871 143.527 64.2871C144.178 64.2871 147.208 64.2164 150.082 62.3378C152.974 60.4471 155.661 56.7557 155.661 49.6081C155.661 44.818 154.514 39.0626 152.072 34.4958C149.629 29.9288 145.861 26.5049 140.613 26.5049H140.609C138.915 26.5049 136.334 26.842 133.581 28.6019L133.581 28.6018L133.572 28.6075C131.895 29.7773 130.511 31.1663 129.55 33.0862C128.589 35.0039 128.06 37.4324 128.06 40.6676C128.06 47.1555 130.259 53.7944 132.522 57.3842Z" stroke="black" stroke-opacity="0.06" stroke-width="0.5"/>
</g>
</svg>
