<svg width="16" height="16" viewBox="0 0 16 16" fill="none" xmlns="http://www.w3.org/2000/svg">
<g filter="url(#filter0_d_383_34)">
<rect width="15" height="15" rx="2" fill="url(#paint0_linear_383_34)"/>
</g>
<g filter="url(#filter1_d_383_34)">
<path d="M5.99998 3C5.44773 3 4.99998 3.44775 4.99998 4V7H3.20701C2.76157 7 2.53855 7.53857 2.85349 7.85352L7.14634 12.1465C7.34165 12.3417 7.65818 12.3417 7.85349 12.1465L12.1463 7.85352C12.4614 7.53857 12.2383 7 11.7928 7H9.99998V4C9.99998 3.44775 9.55222 3 8.99998 3H5.99998Z" fill="url(#paint1_linear_383_34)"/>
</g>
<defs>
<filter id="filter0_d_383_34" x="0" y="0" width="15.5" height="16" filterUnits="userSpaceOnUse" color-interpolation-filters="sRGB">
<feFlood flood-opacity="0" result="BackgroundImageFix"/>
<feColorMatrix in="SourceAlpha" type="matrix" values="0 0 0 0 0 0 0 0 0 0 0 0 0 0 0 0 0 0 127 0" result="hardAlpha"/>
<feOffset dx="0.5" dy="1"/>
<feComposite in2="hardAlpha" operator="out"/>
<feColorMatrix type="matrix" values="0 0 0 0 1 0 0 0 0 1 0 0 0 0 1 0 0 0 0.5 0"/>
<feBlend mode="normal" in2="BackgroundImageFix" result="effect1_dropShadow_383_34"/>
<feBlend mode="normal" in="SourceGraphic" in2="effect1_dropShadow_383_34" result="shape"/>
</filter>
<filter id="filter1_d_383_34" x="2.20605" y="2" width="13.5878" height="13.2928" filterUnits="userSpaceOnUse" color-interpolation-filters="sRGB">
<feFlood flood-opacity="0" result="BackgroundImageFix"/>
<feColorMatrix in="SourceAlpha" type="matrix" values="0 0 0 0 0 0 0 0 0 0 0 0 0 0 0 0 0 0 127 0" result="hardAlpha"/>
<feOffset dx="1.5" dy="1"/>
<feGaussianBlur stdDeviation="1"/>
<feComposite in2="hardAlpha" operator="out"/>
<feColorMatrix type="matrix" values="0 0 0 0 0 0 0 0 0 0 0 0 0 0 0 0 0 0 0.5 0"/>
<feBlend mode="normal" in2="BackgroundImageFix" result="effect1_dropShadow_383_34"/>
<feBlend mode="normal" in="SourceGraphic" in2="effect1_dropShadow_383_34" result="shape"/>
</filter>
<linearGradient id="paint0_linear_383_34" x1="3.5" y1="3.5" x2="12.5" y2="12.5" gradientUnits="userSpaceOnUse">
<stop stop-color="#456195"/>
<stop offset="1" stop-color="#2D4980"/>
</linearGradient>
<linearGradient id="paint1_linear_383_34" x1="5.5" y1="5.5" x2="9.5" y2="9.5" gradientUnits="userSpaceOnUse">
<stop stop-color="#F8F9FB"/>
<stop offset="1" stop-color="#DCE1EA"/>
</linearGradient>
</defs>
</svg>
