<svg width="139" height="32" viewBox="0 0 139 32" fill="none" xmlns="http://www.w3.org/2000/svg">
<path d="M71.6156 11.05L71.7656 13.25C72.3906 11.575 73.7656 10.8 75.2406 10.8C77.1156 10.8 78.2406 11.825 78.6906 13.325C79.5406 11.6 80.8156 10.8 82.3656 10.8C84.8906 10.8 86.0656 12.65 86.0656 15.05V23H84.0156V15.65C84.0156 13.875 83.3906 12.6 81.6406 12.6C80.1156 12.6 78.9406 14.25 78.9406 16.325V23H76.8906V15.65C76.8906 13.875 76.2656 12.6 74.5156 12.6C72.9906 12.6 71.8156 14.25 71.8156 16.325V23H69.7656V11.05H71.6156Z" fill="#77787B"/>
<path d="M66.2547 11.05V23H64.4047L64.2547 20.75C63.5797 22.5 62.0047 23.25 60.5547 23.25C57.9797 23.25 56.5797 21.475 56.5797 19.025V11.05H58.6297V18.425C58.6297 20.125 59.4047 21.4501 61.2797 21.4501C62.8797 21.4501 64.2047 19.8001 64.2047 17.725V11.05H66.2547Z" fill="#77787B"/>
<path d="M52.1627 6.67505C52.8627 6.67505 53.4377 7.25005 53.4377 7.95005C53.4377 8.65005 52.8627 9.22505 52.1627 9.22505C51.4627 9.22505 50.8877 8.65005 50.8877 7.95005C50.8877 7.25005 51.4627 6.67505 52.1627 6.67505ZM51.1377 23V11.05H53.1877V23H51.1377Z" fill="#77787B"/>
<path d="M49.3096 23H46.5096L42.5596 17.75L41.8596 18.475V23H39.8096V4.625H41.8596V16.55L46.6846 11.05H49.2346L44.1096 16.575L49.3096 23Z" fill="#77787B"/>
<path d="M37.0424 21L37.2174 22.675C36.3924 23 35.2924 23.25 34.0674 23.25C30.8174 23.25 28.2674 21.325 28.2674 17.175C28.2674 13 31.1924 10.8 34.4174 10.8C35.6174 10.8 36.6674 11.025 37.3424 11.35L37.1674 13.15C36.4424 12.75 35.5424 12.5 34.4924 12.5C32.2674 12.5 30.5174 13.95 30.5174 17.025C30.5174 20 31.9924 21.6 34.5174 21.6C35.3674 21.6 36.2924 21.375 37.0424 21Z" fill="#77787B"/>
<path d="M25.4742 20.725L25.5742 22.425C24.6742 22.925 23.3492 23.25 21.9492 23.25C18.6492 23.25 16.5242 21.2501 16.5242 17.35C16.5242 13.35 18.6492 10.8 21.8742 10.8C24.9742 10.8 26.2492 13.45 26.2492 16.7001C26.2492 17.075 26.2242 17.325 26.1492 17.725H18.6742C18.7992 20.4251 20.0492 21.6 22.4492 21.6C23.4992 21.6 24.6242 21.2501 25.4742 20.725ZM18.7242 16.05H24.1742C24.1742 14.1 23.4742 12.55 21.6492 12.55C19.9992 12.55 18.8992 13.95 18.7242 16.05Z" fill="#77787B"/>
<path d="M13.825 11.05V21.8251C13.825 26.3001 11.25 28.375 7.32501 28.375C6.20001 28.375 4.95001 28.1 3.90001 27.425L4.02501 25.5751C5.07501 26.2751 6.42501 26.675 7.47501 26.675C10.1 26.675 11.775 25.2 11.775 22V20.925C11.05 22.325 9.75001 23.25 8.07501 23.25C5.02501 23.25 2.95001 20.8 2.95001 17.175C2.95001 13.425 5.22501 10.8 8.40001 10.8C10.1 10.8 11.45 11.8 11.85 13.075L11.975 11.05H13.825ZM11.775 17.8V16.5C11.775 14.25 10.375 12.525 8.57501 12.525C6.65001 12.525 5.20001 14.275 5.20001 17.075C5.20001 19.475 6.35001 21.475 8.50001 21.475C10.15 21.475 11.775 19.875 11.775 17.8Z" fill="#77787B"/>
</svg>
