<svg width="81" height="81" viewBox="0 0 81 81" fill="none" xmlns="http://www.w3.org/2000/svg">
<mask id="mask0_446_50" style="mask-type:alpha" maskUnits="userSpaceOnUse" x="0" y="0" width="81" height="81">
<rect width="81" height="81" fill="white"/>
</mask>
<g mask="url(#mask0_446_50)">
<g filter="url(#filter0_d_446_50)">
<rect x="14.5" y="10.5" width="52" height="51" fill="#DBDBDB" fill-opacity="0.63" stroke="url(#paint0_linear_446_50)"/>
<rect x="17.5" y="13.5" width="46" height="45" stroke="white" stroke-opacity="0.44"/>
<mask id="mask1_446_50" style="mask-type:alpha" maskUnits="userSpaceOnUse" x="26" y="22" width="27" height="27">
<rect x="26" y="22" width="27" height="27" fill="#D9D9D9"/>
</mask>
<g mask="url(#mask1_446_50)">
<g filter="url(#filter1_d_446_50)">
<path d="M26 31.45L32.75 34.15L35.45 38.2L38.15 46.3L42.7931 41.6569L51.5681 50.4319L54.4319 47.5681L45.6569 38.7931L50.3 34.15L42.2 31.45L38.15 28.75L35.45 22L26 31.45Z" fill="black" shape-rendering="crispEdges"/>
<path d="M26 31.45L32.75 34.15L35.45 38.2L38.15 46.3L42.7931 41.6569L51.5681 50.4319L54.4319 47.5681L45.6569 38.7931L50.3 34.15L42.2 31.45L38.15 28.75L35.45 22L26 31.45Z" fill="url(#paint1_linear_446_50)" shape-rendering="crispEdges"/>
<path d="M26 31.45L32.75 34.15L35.45 38.2L38.15 46.3L42.7931 41.6569L51.5681 50.4319L54.4319 47.5681L45.6569 38.7931L50.3 34.15L42.2 31.45L38.15 28.75L35.45 22L26 31.45Z" fill="url(#paint2_linear_446_50)" fill-opacity="0.51" shape-rendering="crispEdges"/>
<path d="M26 31.45L32.75 34.15L35.45 38.2L38.15 46.3L42.7931 41.6569L51.5681 50.4319L54.4319 47.5681L45.6569 38.7931L50.3 34.15L42.2 31.45L38.15 28.75L35.45 22L26 31.45Z" fill="url(#paint3_linear_446_50)" shape-rendering="crispEdges"/>
<path d="M26 31.45L32.75 34.15L35.45 38.2L38.15 46.3L42.7931 41.6569L51.5681 50.4319L54.4319 47.5681L45.6569 38.7931L50.3 34.15L42.2 31.45L38.15 28.75L35.45 22L26 31.45Z" stroke="url(#paint4_radial_446_50)" stroke-width="1.5" shape-rendering="crispEdges"/>
</g>
</g>
</g>
</g>
<defs>
<filter id="filter0_d_446_50" x="6" y="7" width="69" height="68" filterUnits="userSpaceOnUse" color-interpolation-filters="sRGB">
<feFlood flood-opacity="0" result="BackgroundImageFix"/>
<feColorMatrix in="SourceAlpha" type="matrix" values="0 0 0 0 0 0 0 0 0 0 0 0 0 0 0 0 0 0 127 0" result="hardAlpha"/>
<feOffset dy="5"/>
<feGaussianBlur stdDeviation="4"/>
<feComposite in2="hardAlpha" operator="out"/>
<feColorMatrix type="matrix" values="0 0 0 0 0 0 0 0 0 0 0 0 0 0 0 0 0 0 0.3 0"/>
<feBlend mode="normal" in2="BackgroundImageFix" result="effect1_dropShadow_446_50"/>
<feBlend mode="normal" in="SourceGraphic" in2="effect1_dropShadow_446_50" result="shape"/>
</filter>
<filter id="filter1_d_446_50" x="24.6654" y="20.6654" width="30.8271" height="31.8271" filterUnits="userSpaceOnUse" color-interpolation-filters="sRGB">
<feFlood flood-opacity="0" result="BackgroundImageFix"/>
<feColorMatrix in="SourceAlpha" type="matrix" values="0 0 0 0 0 0 0 0 0 0 0 0 0 0 0 0 0 0 127 0" result="hardAlpha"/>
<feOffset dy="1"/>
<feComposite in2="hardAlpha" operator="out"/>
<feColorMatrix type="matrix" values="0 0 0 0 1 0 0 0 0 1 0 0 0 0 1 0 0 0 1 0"/>
<feBlend mode="normal" in2="BackgroundImageFix" result="effect1_dropShadow_446_50"/>
<feBlend mode="normal" in="SourceGraphic" in2="effect1_dropShadow_446_50" result="shape"/>
</filter>
<linearGradient id="paint0_linear_446_50" x1="14.5" y1="10.5" x2="66.5" y2="61.5" gradientUnits="userSpaceOnUse">
<stop stop-color="#B4B4B4"/>
<stop offset="1" stop-color="#979797"/>
</linearGradient>
<linearGradient id="paint1_linear_446_50" x1="28.7732" y1="24.6014" x2="49.9441" y2="47.4454" gradientUnits="userSpaceOnUse">
<stop stop-color="#CCCCCC"/>
<stop offset="1" stop-color="#333333"/>
</linearGradient>
<linearGradient id="paint2_linear_446_50" x1="37.6153" y1="38.7408" x2="29.5391" y2="47.0592" gradientUnits="userSpaceOnUse">
<stop stop-opacity="0"/>
<stop offset="1" stop-opacity="0.9"/>
</linearGradient>
<linearGradient id="paint3_linear_446_50" x1="51.486" y1="24.6014" x2="41.419" y2="36.0071" gradientUnits="userSpaceOnUse">
<stop stop-color="#BABABA"/>
<stop offset="1" stop-color="#BABABA" stop-opacity="0"/>
</linearGradient>
<radialGradient id="paint4_radial_446_50" cx="0" cy="0" r="1" gradientUnits="userSpaceOnUse" gradientTransform="translate(40.2159 49.8504) rotate(-90) scale(27.269)">
<stop offset="0.179856" stop-opacity="0.4"/>
<stop offset="1" stop-color="#777777" stop-opacity="0.75"/>
</radialGradient>
</defs>
</svg>
