<svg width="15" height="15" viewBox="0 0 15 15" fill="none" xmlns="http://www.w3.org/2000/svg">
<mask id="mask0_443_13" style="mask-type:alpha" maskUnits="userSpaceOnUse" x="0" y="0" width="15" height="15">
<rect width="15" height="15" fill="white"/>
</mask>
<g mask="url(#mask0_443_13)">
<path fill-rule="evenodd" clip-rule="evenodd" d="M7.43934 9.54363L12.835 14.9393L14.9393 12.835L9.54364 7.43933L14.9393 2.04365L12.835 -0.0606526L7.43934 5.33503L2.04363 -0.0606689L-0.0606689 2.04363L5.33504 7.43933L-0.0606689 12.835L2.04363 14.9393L7.43934 9.54363Z" fill="url(#paint0_linear_443_13)"/>
<path d="M12.835 14.9393L12.4815 15.2929L12.835 15.6464L13.1886 15.2929L12.835 14.9393ZM7.43934 9.54363L7.79289 9.19008L7.43934 8.83652L7.08579 9.19008L7.43934 9.54363ZM14.9393 12.835L15.2929 13.1886L15.6464 12.835L15.2929 12.4815L14.9393 12.835ZM9.54364 7.43933L9.19009 7.08578L8.83653 7.43933L9.19009 7.79288L9.54364 7.43933ZM14.9393 2.04365L15.2929 2.3972L15.6464 2.04365L15.2929 1.69009L14.9393 2.04365ZM12.835 -0.0606526L13.1886 -0.414206L12.835 -0.767759L12.4815 -0.414206L12.835 -0.0606526ZM7.43934 5.33503L7.08579 5.68859L7.43934 6.04214L7.79289 5.68859L7.43934 5.33503ZM2.04363 -0.0606689L2.39718 -0.414223L2.04363 -0.767775L1.69008 -0.414223L2.04363 -0.0606689ZM-0.0606689 2.04363L-0.414222 1.69008L-0.767776 2.04363L-0.414222 2.39718L-0.0606689 2.04363ZM5.33504 7.43933L5.68859 7.79288L6.04215 7.43933L5.68859 7.08578L5.33504 7.43933ZM-0.0606689 12.835L-0.414222 12.4815L-0.767776 12.835L-0.414222 13.1886L-0.0606689 12.835ZM2.04363 14.9393L1.69008 15.2929L2.04363 15.6464L2.39718 15.2929L2.04363 14.9393ZM13.1886 14.5858L7.79289 9.19008L7.08579 9.89718L12.4815 15.2929L13.1886 14.5858ZM14.5858 12.4815L12.4815 14.5858L13.1886 15.2929L15.2929 13.1886L14.5858 12.4815ZM9.19009 7.79288L14.5858 13.1886L15.2929 12.4815L9.89719 7.08578L9.19009 7.79288ZM14.5858 1.69009L9.19009 7.08578L9.89719 7.79288L15.2929 2.3972L14.5858 1.69009ZM12.4815 0.292901L14.5858 2.3972L15.2929 1.69009L13.1886 -0.414206L12.4815 0.292901ZM7.79289 5.68859L13.1886 0.292901L12.4815 -0.414206L7.08579 4.98148L7.79289 5.68859ZM1.69008 0.292885L7.08579 5.68859L7.79289 4.98148L2.39718 -0.414223L1.69008 0.292885ZM0.292884 2.39718L2.39718 0.292885L1.69008 -0.414223L-0.414222 1.69008L0.292884 2.39718ZM5.68859 7.08578L0.292884 1.69008L-0.414222 2.39718L4.98149 7.79288L5.68859 7.08578ZM0.292884 13.1886L5.68859 7.79288L4.98149 7.08578L-0.414222 12.4815L0.292884 13.1886ZM2.39718 14.5858L0.292884 12.4815L-0.414222 13.1886L1.69008 15.2929L2.39718 14.5858ZM7.08579 9.19008L1.69008 14.5858L2.39718 15.2929L7.79289 9.89718L7.08579 9.19008Z" fill="#858585"/>
</g>
<defs>
<linearGradient id="paint0_linear_443_13" x1="14.8792" y1="14.8791" x2="-0.00045508" y2="-0.000516799" gradientUnits="userSpaceOnUse">
<stop offset="0.3" stop-color="#4D4D4D"/>
<stop offset="0.8" stop-color="#959595"/>
</linearGradient>
</defs>
</svg>
