<svg width="81" height="81" viewBox="0 0 81 81" fill="none" xmlns="http://www.w3.org/2000/svg">
<mask id="mask0_446_47" style="mask-type:alpha" maskUnits="userSpaceOnUse" x="0" y="0" width="81" height="81">
<rect width="81" height="81" fill="white"/>
</mask>
<g mask="url(#mask0_446_47)">
<g filter="url(#filter0_d_446_47)">
<rect x="14.5" y="10.5" width="52" height="51" fill="#D2D2D2" stroke="url(#paint0_linear_446_47)"/>
<rect x="17.5" y="13.5" width="46" height="45" fill="url(#paint1_linear_446_47)" stroke="#DFDFDF"/>
<g filter="url(#filter1_d_446_47)">
<path fill-rule="evenodd" clip-rule="evenodd" d="M35.5108 36L26 26.0757L30.3319 21.9243L39.666 31.6641L49 21.9243L53.3319 26.0757L43.8212 36L53.3319 45.9243L49 50.0757L39.666 40.3359L30.3319 50.0757L26 45.9243L35.5108 36Z" fill="url(#paint2_linear_446_47)"/>
<path fill-rule="evenodd" clip-rule="evenodd" d="M35.5108 36L26 26.0757L30.3319 21.9243L39.666 31.6641L49 21.9243L53.3319 26.0757L43.8212 36L53.3319 45.9243L49 50.0757L39.666 40.3359L30.3319 50.0757L26 45.9243L35.5108 36Z" fill="url(#paint3_linear_446_47)" fill-opacity="0.51"/>
<path fill-rule="evenodd" clip-rule="evenodd" d="M35.5108 36L26 26.0757L30.3319 21.9243L39.666 31.6641L49 21.9243L53.3319 26.0757L43.8212 36L53.3319 45.9243L49 50.0757L39.666 40.3359L30.3319 50.0757L26 45.9243L35.5108 36Z" fill="url(#paint4_linear_446_47)"/>
<path d="M40.027 32.0101L49.015 22.6312L52.625 26.0908L43.4602 35.654L43.1286 36L43.4602 36.346L52.625 45.9092L49.015 49.3688L40.027 39.9899L39.666 39.6132L39.305 39.9899L30.3169 49.3688L26.7069 45.9092L35.8718 36.346L36.2033 36L35.8718 35.654L26.7069 26.0908L30.3169 22.6312L39.305 32.0101L39.666 32.3868L40.027 32.0101Z" stroke="url(#paint5_radial_446_47)"/>
</g>
</g>
</g>
<defs>
<filter id="filter0_d_446_47" x="2" y="4" width="77" height="76" filterUnits="userSpaceOnUse" color-interpolation-filters="sRGB">
<feFlood flood-opacity="0" result="BackgroundImageFix"/>
<feColorMatrix in="SourceAlpha" type="matrix" values="0 0 0 0 0 0 0 0 0 0 0 0 0 0 0 0 0 0 127 0" result="hardAlpha"/>
<feOffset dy="6"/>
<feGaussianBlur stdDeviation="6"/>
<feComposite in2="hardAlpha" operator="out"/>
<feColorMatrix type="matrix" values="0 0 0 0 0 0 0 0 0 0 0 0 0 0 0 0 0 0 0.4 0"/>
<feBlend mode="normal" in2="BackgroundImageFix" result="effect1_dropShadow_446_47"/>
<feBlend mode="normal" in="SourceGraphic" in2="effect1_dropShadow_446_47" result="shape"/>
</filter>
<filter id="filter1_d_446_47" x="26" y="21.9243" width="27.3319" height="29.1514" filterUnits="userSpaceOnUse" color-interpolation-filters="sRGB">
<feFlood flood-opacity="0" result="BackgroundImageFix"/>
<feColorMatrix in="SourceAlpha" type="matrix" values="0 0 0 0 0 0 0 0 0 0 0 0 0 0 0 0 0 0 127 0" result="hardAlpha"/>
<feOffset dy="1"/>
<feComposite in2="hardAlpha" operator="out"/>
<feColorMatrix type="matrix" values="0 0 0 0 1 0 0 0 0 1 0 0 0 0 1 0 0 0 1 0"/>
<feBlend mode="normal" in2="BackgroundImageFix" result="effect1_dropShadow_446_47"/>
<feBlend mode="normal" in="SourceGraphic" in2="effect1_dropShadow_446_47" result="shape"/>
</filter>
<linearGradient id="paint0_linear_446_47" x1="14.5" y1="10.5" x2="66.5" y2="61.5" gradientUnits="userSpaceOnUse">
<stop stop-color="#B4B4B4"/>
<stop offset="1" stop-color="#979797"/>
</linearGradient>
<linearGradient id="paint1_linear_446_47" x1="40.5" y1="14.5" x2="40.5" y2="57.5" gradientUnits="userSpaceOnUse">
<stop stop-color="#D1D1D1"/>
<stop offset="1" stop-color="#C0C0C0"/>
</linearGradient>
<linearGradient id="paint2_linear_446_47" x1="28.666" y1="24.5" x2="49.666" y2="46.5" gradientUnits="userSpaceOnUse">
<stop stop-color="#CCCCCC"/>
<stop offset="1" stop-color="#333333"/>
</linearGradient>
<linearGradient id="paint3_linear_446_47" x1="37.166" y1="38.5" x2="29.166" y2="46.5" gradientUnits="userSpaceOnUse">
<stop stop-opacity="0"/>
<stop offset="1" stop-opacity="0.9"/>
</linearGradient>
<linearGradient id="paint4_linear_446_47" x1="50.5" y1="24.5" x2="40.5" y2="35.5" gradientUnits="userSpaceOnUse">
<stop stop-color="#BABABA"/>
<stop offset="1" stop-color="#BABABA" stop-opacity="0"/>
</linearGradient>
<radialGradient id="paint5_radial_446_47" cx="0" cy="0" r="1" gradientUnits="userSpaceOnUse" gradientTransform="translate(39.666 49.5) rotate(-90) scale(27 26.214)">
<stop offset="0.179856" stop-opacity="0.4"/>
<stop offset="1" stop-color="#777777" stop-opacity="0.75"/>
</radialGradient>
</defs>
</svg>
