<svg width="16" height="16" viewBox="0 0 16 16" fill="none" xmlns="http://www.w3.org/2000/svg">
<path d="M1 1.5C1 1.22386 1.22386 1 1.5 1H4.79289C4.9255 1 5.05268 1.05268 5.14645 1.14645L6.85355 2.85355C6.94732 2.94732 7.0745 3 7.20711 3H14.5C14.7761 3 15 3.22386 15 3.5V13.5C15 13.7761 14.7761 14 14.5 14H1.5C1.22386 14 1 13.7761 1 13.5V1.5Z" fill="white"/>
<path fill-rule="evenodd" clip-rule="evenodd" d="M16 3.5V13.5C16 14.3284 15.3284 15 14.5 15H1.5C0.671572 15 0 14.3284 0 13.5V1.5C0 0.671574 0.671572 0 1.5 0H4.79289C5.19072 0 5.57225 0.158035 5.85355 0.43934L7.41421 2H14.5C15.3284 2 16 2.67157 16 3.5ZM1.5 1C1.22386 1 1 1.22386 1 1.5V13.5C1 13.7761 1.22386 14 1.5 14H14.5C14.7761 14 15 13.7761 15 13.5V3.5C15 3.22386 14.7761 3 14.5 3H7.20711C7.0745 3 6.94732 2.94732 6.85355 2.85355L5.14645 1.14645C5.05268 1.05268 4.9255 1 4.79289 1H1.5Z" fill="black" fill-opacity="0.4"/>
<rect x="12" y="11" width="2" height="1" fill="#949494"/>
<rect width="8" height="1" transform="matrix(-1 0 0 1 12 10)" fill="#949494"/>
<rect width="1" height="1" transform="matrix(-1 0 0 1 4 11)" fill="#949494"/>
<rect width="1" height="1" transform="matrix(-1 0 0 1 6 7)" fill="#949494"/>
<rect width="1" height="1" transform="matrix(-1 0 0 1 5 6)" fill="#949494"/>
<rect width="1" height="1" transform="matrix(-1 0 0 1 4 5)" fill="#949494"/>
<rect width="1" height="1" transform="matrix(-1 0 0 1 6 5)" fill="#949494"/>
<rect width="1" height="1" transform="matrix(-1 0 0 1 4 7)" fill="#949494"/>
<rect width="1" height="1" transform="matrix(-1 0 0 1 13 7)" fill="#949494"/>
<rect width="1" height="1" transform="matrix(-1 0 0 1 12 6)" fill="#949494"/>
<rect width="1" height="1" transform="matrix(-1 0 0 1 11 5)" fill="#949494"/>
<rect width="1" height="1" transform="matrix(-1 0 0 1 13 5)" fill="#949494"/>
<rect width="1" height="1" transform="matrix(-1 0 0 1 11 7)" fill="#949494"/>
</svg>
