<svg width="14" height="13" viewBox="0 0 14 13" fill="none" xmlns="http://www.w3.org/2000/svg">
	<path
		d="M7.96529 2.47531C8.53155 1.90904 8.53155 0.990956 7.96529 0.424695C7.39903 -0.141565 6.48094 -0.141565 5.91468 0.424695L0.424695 5.39997C-0.141565 5.96623 -0.141565 6.88432 0.424695 7.45058L5.91468 12.4753C6.48094 13.0416 7.39903 13.0416 7.96529 12.4753C8.53155 11.909 8.53155 10.991 7.96529 10.4247L5.00062 7.92529H12.5C13.3284 7.92529 14 7.25372 14 6.42529C14 5.59686 13.3284 4.92529 12.5 4.92529H5.0006L7.96529 2.47531Z"
		fill="context-fill" />
	<path
		d="M7.96529 2.47531C8.53155 1.90904 8.53155 0.990956 7.96529 0.424695C7.39903 -0.141565 6.48094 -0.141565 5.91468 0.424695L0.424695 5.39997C-0.141565 5.96623 -0.141565 6.88432 0.424695 7.45058L5.91468 12.4753C6.48094 13.0416 7.39903 13.0416 7.96529 12.4753C8.53155 11.909 8.53155 10.991 7.96529 10.4247L5.00062 7.92529H12.5C13.3284 7.92529 14 7.25372 14 6.42529C14 5.59686 13.3284 4.92529 12.5 4.92529H5.0006L7.96529 2.47531Z"
		fill="url(#paint0_linear_324_445)" />
	<g filter="url(#filter0_i_324_445)">
		<path
			d="M7.96529 2.47531C8.53155 1.90904 8.53155 0.990956 7.96529 0.424695C7.39903 -0.141565 6.48094 -0.141565 5.91468 0.424695L0.424695 5.39997C-0.141565 5.96623 -0.141565 6.88432 0.424695 7.45058L5.91468 12.4753C6.48094 13.0416 7.39903 13.0416 7.96529 12.4753C8.53155 11.909 8.53155 10.991 7.96529 10.4247L5.00062 7.92529H12.5C13.3284 7.92529 14 7.25372 14 6.42529C14 5.59686 13.3284 4.92529 12.5 4.92529H5.0006L7.96529 2.47531Z"
			fill="white" fill-opacity="0.01" />
	</g>
	<defs>
		<filter id="filter0_i_324_445" x="0" y="0" width="14" height="13.9"
			filterUnits="userSpaceOnUse" color-interpolation-filters="sRGB">
			<feFlood flood-opacity="0" result="BackgroundImageFix" />
			<feBlend mode="normal" in="SourceGraphic" in2="BackgroundImageFix" result="shape" />
			<feColorMatrix in="SourceAlpha" type="matrix"
				values="0 0 0 0 0 0 0 0 0 0 0 0 0 0 0 0 0 0 127 0" result="hardAlpha" />
			<feOffset dy="1" />
			<feGaussianBlur stdDeviation="1" />
			<feComposite in2="hardAlpha" operator="arithmetic" k2="-1" k3="1" />
			<feColorMatrix type="matrix" values="0 0 0 0 0 0 0 0 0 0 0 0 0 0 0 0 0 0 0.65 0" />
			<feBlend mode="normal" in2="shape" result="effect1_innerShadow_324_445" />
		</filter>
		<linearGradient id="paint0_linear_324_445" x1="6.995" y1="0.5" x2="6.995" y2="12.5"
			gradientUnits="userSpaceOnUse">
			<stop stop-opacity="0" />
			<stop offset="0.5" stop-opacity="0" />
			<stop offset="1" stop-opacity="0.12" />
		</linearGradient>
	</defs>
</svg>