<svg width="15" height="15" viewBox="0 0 15 15" fill="none" xmlns="http://www.w3.org/2000/svg">
<path d="M0.0387001 4.46521L1.9458 5.54768C2.2459 5.72165 2.575 5.79897 2.9042 5.79897C3.5721 5.79897 4.2304 5.45103 4.5886 4.82281C5.12101 3.89497 4.7919 2.71585 3.8722 2.18428L1.8683 1.04381C2.6912 0.396263 3.7173 0 4.8403 0C7.5121 0 9.68054 2.16495 9.68054 4.83247C9.68054 5.45103 9.5547 6.04059 9.34172 6.59149L14.4337 11.6946C15.1888 12.4485 15.1888 13.6759 14.4337 14.4298C14.0561 14.8067 13.5624 15 13.0687 15C12.575 15 12.0813 14.8067 11.7038 14.4298L6.60213 9.33634C6.06002 9.54897 5.46951 9.67461 4.8403 9.67461C2.1684 9.67461 0 7.50967 0 4.84214C0 4.7165 0.0290001 4.59085 0.0387001 4.46521Z" fill="context-fill"/>
<path d="M0.0387001 4.46521L1.9458 5.54768C2.2459 5.72165 2.575 5.79897 2.9042 5.79897C3.5721 5.79897 4.2304 5.45103 4.5886 4.82281C5.12101 3.89497 4.7919 2.71585 3.8722 2.18428L1.8683 1.04381C2.6912 0.396263 3.7173 0 4.8403 0C7.5121 0 9.68054 2.16495 9.68054 4.83247C9.68054 5.45103 9.5547 6.04059 9.34172 6.59149L14.4337 11.6946C15.1888 12.4485 15.1888 13.6759 14.4337 14.4298C14.0561 14.8067 13.5624 15 13.0687 15C12.575 15 12.0813 14.8067 11.7038 14.4298L6.60213 9.33634C6.06002 9.54897 5.46951 9.67461 4.8403 9.67461C2.1684 9.67461 0 7.50967 0 4.84214C0 4.7165 0.0290001 4.59085 0.0387001 4.46521Z" fill="url(#paint0_linear_344_10)"/>
<g filter="url(#filter0_i_344_10)">
<path d="M0.0387001 4.46521L1.9458 5.54768C2.2459 5.72165 2.575 5.79897 2.9042 5.79897C3.5721 5.79897 4.2304 5.45103 4.5886 4.82281C5.12101 3.89497 4.7919 2.71585 3.8722 2.18428L1.8683 1.04381C2.6912 0.396263 3.7173 0 4.8403 0C7.5121 0 9.68054 2.16495 9.68054 4.83247C9.68054 5.45103 9.5547 6.04059 9.34172 6.59149L14.4337 11.6946C15.1888 12.4485 15.1888 13.6759 14.4337 14.4298C14.0561 14.8067 13.5624 15 13.0687 15C12.575 15 12.0813 14.8067 11.7038 14.4298L6.60213 9.33634C6.06002 9.54897 5.46951 9.67461 4.8403 9.67461C2.1684 9.67461 0 7.50967 0 4.84214C0 4.7165 0.0290001 4.59085 0.0387001 4.46521Z" fill="white" fill-opacity="0.01"/>
</g>
<defs>
<filter id="filter0_i_344_10" x="0" y="0" width="15" height="16" filterUnits="userSpaceOnUse" color-interpolation-filters="sRGB">
<feFlood flood-opacity="0" result="BackgroundImageFix"/>
<feBlend mode="normal" in="SourceGraphic" in2="BackgroundImageFix" result="shape"/>
<feColorMatrix in="SourceAlpha" type="matrix" values="0 0 0 0 0 0 0 0 0 0 0 0 0 0 0 0 0 0 127 0" result="hardAlpha"/>
<feOffset dy="1"/>
<feGaussianBlur stdDeviation="1"/>
<feComposite in2="hardAlpha" operator="arithmetic" k2="-1" k3="1"/>
<feColorMatrix type="matrix" values="0 0 0 0 0 0 0 0 0 0 0 0 0 0 0 0 0 0 0.65 0"/>
<feBlend mode="normal" in2="shape" result="effect1_innerShadow_344_10"/>
</filter>
<linearGradient id="paint0_linear_344_10" x1="7.50536" y1="0.581395" x2="7.50536" y2="14.5349" gradientUnits="userSpaceOnUse">
<stop stop-opacity="0"/>
<stop offset="0.5" stop-opacity="0"/>
<stop offset="1" stop-opacity="0.12"/>
</linearGradient>
</defs>
</svg>
