<svg width="15" height="15" viewBox="0 0 15 15" fill="none" xmlns="http://www.w3.org/2000/svg">
	<path fill-rule="evenodd" clip-rule="evenodd"
		d="M0 2.5C0 1.11929 1.11929 0 2.5 0H6.37868C7.04172 0 7.67761 0.263391 8.14645 0.732233L9.26777 1.85355C9.36154 1.94732 9.48871 2 9.62132 2H12.5C13.8807 2 15 3.11929 15 4.5V12.5C15 13.8807 13.8807 15 12.5 15H2.5C1.11929 15 0 13.8807 0 12.5V2.5ZM2.5 2C2.22386 2 2 2.22386 2 2.5V12.5C2 12.7761 2.22386 13 2.5 13H12.5C12.7761 13 13 12.7761 13 12.5V4.5C13 4.22386 12.7761 4 12.5 4H9.62132C8.95828 4 8.3224 3.73661 7.85355 3.26777L6.73223 2.14645C6.63847 2.05268 6.51129 2 6.37868 2H2.5Z"
		fill="context-fill" />
	<path fill-rule="evenodd" clip-rule="evenodd"
		d="M0 2.5C0 1.11929 1.11929 0 2.5 0H6.37868C7.04172 0 7.67761 0.263391 8.14645 0.732233L9.26777 1.85355C9.36154 1.94732 9.48871 2 9.62132 2H12.5C13.8807 2 15 3.11929 15 4.5V12.5C15 13.8807 13.8807 15 12.5 15H2.5C1.11929 15 0 13.8807 0 12.5V2.5ZM2.5 2C2.22386 2 2 2.22386 2 2.5V12.5C2 12.7761 2.22386 13 2.5 13H12.5C12.7761 13 13 12.7761 13 12.5V4.5C13 4.22386 12.7761 4 12.5 4H9.62132C8.95828 4 8.3224 3.73661 7.85355 3.26777L6.73223 2.14645C6.63847 2.05268 6.51129 2 6.37868 2H2.5Z"
		fill="url(#paint0_linear_321_383)" />
	<path
		d="M7.50278 5.66879L8.17565 7.82675H10.3571L8.59138 9.15987L9.26425 11.3178L7.4985 9.98471L5.73275 11.3178L6.40562 9.15987L4.64415 7.82675H6.82563L7.4985 5.66879M7.50278 5C7.22421 5 6.97563 5.18726 6.88991 5.46369L6.35847 7.16242H4.64415C4.36557 7.16242 4.117 7.34968 4.03128 7.62611C3.94556 7.90255 4.03985 8.20573 4.267 8.37516L5.6556 9.42293L5.12416 11.1217C5.03845 11.3981 5.13273 11.7013 5.35988 11.8707C5.47131 11.9554 5.60417 12 5.73703 12C5.86989 12 6.00275 11.9554 6.11418 11.8707L7.50278 10.8229L8.89138 11.8707C9.00282 11.9554 9.13568 12 9.26854 12C9.4014 12 9.53426 11.9554 9.64569 11.8707C9.87283 11.7013 9.96712 11.3981 9.87712 11.1217L9.34568 9.42293L10.7171 8.38408C10.8886 8.26369 11 8.06306 11 7.83121C11 7.46115 10.7129 7.16242 10.3571 7.16242H8.63852L8.10708 5.46369C8.02565 5.18726 7.78136 5 7.50278 5Z"
		fill="context-fill" />
	<path
		d="M7.50278 5.66879L8.17565 7.82675H10.3571L8.59138 9.15987L9.26425 11.3178L7.4985 9.98471L5.73275 11.3178L6.40562 9.15987L4.64415 7.82675H6.82563L7.4985 5.66879M7.50278 5C7.22421 5 6.97563 5.18726 6.88991 5.46369L6.35847 7.16242H4.64415C4.36557 7.16242 4.117 7.34968 4.03128 7.62611C3.94556 7.90255 4.03985 8.20573 4.267 8.37516L5.6556 9.42293L5.12416 11.1217C5.03845 11.3981 5.13273 11.7013 5.35988 11.8707C5.47131 11.9554 5.60417 12 5.73703 12C5.86989 12 6.00275 11.9554 6.11418 11.8707L7.50278 10.8229L8.89138 11.8707C9.00282 11.9554 9.13568 12 9.26854 12C9.4014 12 9.53426 11.9554 9.64569 11.8707C9.87283 11.7013 9.96712 11.3981 9.87712 11.1217L9.34568 9.42293L10.7171 8.38408C10.8886 8.26369 11 8.06306 11 7.83121C11 7.46115 10.7129 7.16242 10.3571 7.16242H8.63852L8.10708 5.46369C8.02565 5.18726 7.78136 5 7.50278 5Z"
		fill="url(#paint1_linear_321_383)" />
	<g filter="url(#filter0_i_321_383)">
		<path fill-rule="evenodd" clip-rule="evenodd"
			d="M0 2.5C0 1.11929 1.11929 0 2.5 0H6.37868C7.04172 0 7.67761 0.263391 8.14645 0.732233L9.26777 1.85355C9.36154 1.94732 9.48871 2 9.62132 2H12.5C13.8807 2 15 3.11929 15 4.5V12.5C15 13.8807 13.8807 15 12.5 15H2.5C1.11929 15 0 13.8807 0 12.5V2.5ZM2.5 2C2.22386 2 2 2.22386 2 2.5V12.5C2 12.7761 2.22386 13 2.5 13H12.5C12.7761 13 13 12.7761 13 12.5V4.5C13 4.22386 12.7761 4 12.5 4H9.62132C8.95828 4 8.32239 3.73661 7.85355 3.26777L6.73223 2.14645C6.63847 2.05268 6.51129 2 6.37868 2H2.5Z"
			fill="white" fill-opacity="0.01" />
	</g>
	<g filter="url(#filter1_i_321_383)">
		<path
			d="M7.50278 5.66879L8.17565 7.82675H10.3571L8.59138 9.15987L9.26425 11.3178L7.4985 9.98471L5.73275 11.3178L6.40562 9.15987L4.64415 7.82675H6.82563L7.4985 5.66879M7.50278 5C7.22421 5 6.97563 5.18726 6.88991 5.46369L6.35847 7.16242H4.64415C4.36557 7.16242 4.117 7.34968 4.03128 7.62611C3.94556 7.90255 4.03985 8.20573 4.267 8.37516L5.6556 9.42293L5.12416 11.1217C5.03845 11.3981 5.13273 11.7013 5.35988 11.8707C5.47131 11.9554 5.60417 12 5.73703 12C5.86989 12 6.00275 11.9554 6.11418 11.8707L7.50278 10.8229L8.89138 11.8707C9.00282 11.9554 9.13568 12 9.26854 12C9.4014 12 9.53426 11.9554 9.64569 11.8707C9.87283 11.7013 9.96712 11.3981 9.87712 11.1217L9.34568 9.42293L10.7171 8.38408C10.8886 8.26369 11 8.06306 11 7.83121C11 7.46115 10.7129 7.16242 10.3571 7.16242H8.63852L8.10708 5.46369C8.02565 5.18726 7.78136 5 7.50278 5Z"
			fill="white" fill-opacity="0.01" />
	</g>
	<defs>
		<filter id="filter0_i_321_383" x="0" y="0" width="15" height="16"
			filterUnits="userSpaceOnUse" color-interpolation-filters="sRGB">
			<feFlood flood-opacity="0" result="BackgroundImageFix" />
			<feBlend mode="normal" in="SourceGraphic" in2="BackgroundImageFix" result="shape" />
			<feColorMatrix in="SourceAlpha" type="matrix"
				values="0 0 0 0 0 0 0 0 0 0 0 0 0 0 0 0 0 0 127 0" result="hardAlpha" />
			<feOffset dy="1" />
			<feGaussianBlur stdDeviation="1" />
			<feComposite in2="hardAlpha" operator="arithmetic" k2="-1" k3="1" />
			<feColorMatrix type="matrix" values="0 0 0 0 0 0 0 0 0 0 0 0 0 0 0 0 0 0 0.65 0" />
			<feBlend mode="normal" in2="shape" result="effect1_innerShadow_321_383" />
		</filter>
		<filter id="filter1_i_321_383" x="4" y="5" width="7" height="8" filterUnits="userSpaceOnUse"
			color-interpolation-filters="sRGB">
			<feFlood flood-opacity="0" result="BackgroundImageFix" />
			<feBlend mode="normal" in="SourceGraphic" in2="BackgroundImageFix" result="shape" />
			<feColorMatrix in="SourceAlpha" type="matrix"
				values="0 0 0 0 0 0 0 0 0 0 0 0 0 0 0 0 0 0 127 0" result="hardAlpha" />
			<feOffset dy="1" />
			<feGaussianBlur stdDeviation="0.75" />
			<feComposite in2="hardAlpha" operator="arithmetic" k2="-1" k3="1" />
			<feColorMatrix type="matrix" values="0 0 0 0 0 0 0 0 0 0 0 0 0 0 0 0 0 0 0.25 0" />
			<feBlend mode="normal" in2="shape" result="effect1_innerShadow_321_383" />
		</filter>
		<linearGradient id="paint0_linear_321_383" x1="7.49464" y1="0.581395" x2="7.49464"
			y2="14.5349" gradientUnits="userSpaceOnUse">
			<stop stop-opacity="0" />
			<stop offset="0.5" stop-opacity="0" />
			<stop offset="1" stop-opacity="0.12" />
		</linearGradient>
		<linearGradient id="paint1_linear_321_383" x1="7.4975" y1="5.27132" x2="7.4975" y2="11.7829"
			gradientUnits="userSpaceOnUse">
			<stop stop-opacity="0" />
			<stop offset="0.5" stop-opacity="0" />
			<stop offset="1" stop-opacity="0.12" />
		</linearGradient>
	</defs>
</svg>