<svg width="15" height="13" viewBox="0 0 15 13" fill="none" xmlns="http://www.w3.org/2000/svg">
	<path fill-rule="evenodd" clip-rule="evenodd"
		d="M3 0C1.34315 0 0 1.34315 0 3V10C0 11.6569 1.34315 13 3 13H12C13.6569 13 15 11.6569 15 10V3C15 1.34315 13.6569 0 12 0H3ZM3 4C2.44772 4 2 4.44772 2 5V10C2 10.5523 2.44772 11 3 11H12C12.5523 11 13 10.5523 13 10V5C13 4.44772 12.5523 4 12 4H3Z"
		fill="context-fill" />
	<path fill-rule="evenodd" clip-rule="evenodd"
		d="M3 0C1.34315 0 0 1.34315 0 3V10C0 11.6569 1.34315 13 3 13H12C13.6569 13 15 11.6569 15 10V3C15 1.34315 13.6569 0 12 0H3ZM3 4C2.44772 4 2 4.44772 2 5V10C2 10.5523 2.44772 11 3 11H12C12.5523 11 13 10.5523 13 10V5C13 4.44772 12.5523 4 12 4H3Z"
		fill="url(#paint0_linear_337_108)" />
	<g filter="url(#filter0_i_337_108)">
		<path fill-rule="evenodd" clip-rule="evenodd"
			d="M3 0C1.34315 0 0 1.34315 0 3V10C0 11.6569 1.34315 13 3 13H12C13.6569 13 15 11.6569 15 10V3C15 1.34315 13.6569 0 12 0H3ZM3 4C2.44772 4 2 4.44772 2 5V10C2 10.5523 2.44772 11 3 11H12C12.5523 11 13 10.5523 13 10V5C13 4.44772 12.5523 4 12 4H3Z"
			fill="white" fill-opacity="0.01" />
	</g>
	<defs>
		<filter id="filter0_i_337_108" x="0" y="0" width="15" height="14"
			filterUnits="userSpaceOnUse" color-interpolation-filters="sRGB">
			<feFlood flood-opacity="0" result="BackgroundImageFix" />
			<feBlend mode="normal" in="SourceGraphic" in2="BackgroundImageFix" result="shape" />
			<feColorMatrix in="SourceAlpha" type="matrix"
				values="0 0 0 0 0 0 0 0 0 0 0 0 0 0 0 0 0 0 127 0" result="hardAlpha" />
			<feOffset dy="1" />
			<feGaussianBlur stdDeviation="1" />
			<feComposite in2="hardAlpha" operator="arithmetic" k2="-1" k3="1" />
			<feColorMatrix type="matrix" values="0 0 0 0 0 0 0 0 0 0 0 0 0 0 0 0 0 0 0.65 0" />
			<feBlend mode="normal" in2="shape" result="effect1_innerShadow_337_108" />
		</filter>
		<linearGradient id="paint0_linear_337_108" x1="7.49464" y1="0.503876" x2="7.49464"
			y2="12.5969" gradientUnits="userSpaceOnUse">
			<stop stop-opacity="0" />
			<stop offset="0.5" stop-opacity="0" />
			<stop offset="1" stop-opacity="0.12" />
		</linearGradient>
	</defs>
</svg>