<svg width="15" height="15" viewBox="0 0 15 15" fill="none" xmlns="http://www.w3.org/2000/svg">
	<path
		d="M13.2353 7.05V3L10.2941 0H1.47059C0.654412 0 0 0.675 0 1.5V12C0 12.825 0.654412 13.5 1.47059 13.5H6.91176L13.2353 7.05ZM8.82353 9C8.82353 10.245 7.83824 11.25 6.61765 11.25C5.39706 11.25 4.41176 10.245 4.41176 9C4.41176 7.755 5.39706 6.75 6.61765 6.75C7.83824 6.75 8.82353 7.755 8.82353 9ZM2.20588 2.25H8.82353V5.25H2.20588V2.25ZM12.4926 9.9375L13.7941 11.265L10.125 15H8.82353V13.6725L12.4926 9.9375ZM14.8897 10.1325L14.2647 10.77L12.9632 9.4425L13.5882 8.805C13.7353 8.655 13.9632 8.655 14.1103 8.805L14.8897 9.6C15.0368 9.75 15.0368 9.99 14.8897 10.1325Z"
		fill="context-fill" />
	<path
		d="M13.2353 7.05V3L10.2941 0H1.47059C0.654412 0 0 0.675 0 1.5V12C0 12.825 0.654412 13.5 1.47059 13.5H6.91176L13.2353 7.05ZM8.82353 9C8.82353 10.245 7.83824 11.25 6.61765 11.25C5.39706 11.25 4.41176 10.245 4.41176 9C4.41176 7.755 5.39706 6.75 6.61765 6.75C7.83824 6.75 8.82353 7.755 8.82353 9ZM2.20588 2.25H8.82353V5.25H2.20588V2.25ZM12.4926 9.9375L13.7941 11.265L10.125 15H8.82353V13.6725L12.4926 9.9375ZM14.8897 10.1325L14.2647 10.77L12.9632 9.4425L13.5882 8.805C13.7353 8.655 13.9632 8.655 14.1103 8.805L14.8897 9.6C15.0368 9.75 15.0368 9.99 14.8897 10.1325Z"
		fill="url(#paint0_linear_337_138)" />
	<g filter="url(#filter0_i_337_138)">
		<path
			d="M13.2353 7.05V3L10.2941 0H1.47059C0.654412 0 0 0.675 0 1.5V12C0 12.825 0.654412 13.5 1.47059 13.5H6.91176L13.2353 7.05ZM8.82353 9C8.82353 10.245 7.83824 11.25 6.61765 11.25C5.39706 11.25 4.41176 10.245 4.41176 9C4.41176 7.755 5.39706 6.75 6.61765 6.75C7.83824 6.75 8.82353 7.755 8.82353 9ZM2.20588 2.25H8.82353V5.25H2.20588V2.25ZM12.4926 9.9375L13.7941 11.265L10.125 15H8.82353V13.6725L12.4926 9.9375ZM14.8897 10.1325L14.2647 10.77L12.9632 9.4425L13.5882 8.805C13.7353 8.655 13.9632 8.655 14.1103 8.805L14.8897 9.6C15.0368 9.75 15.0368 9.99 14.8897 10.1325Z"
			fill="white" fill-opacity="0.01" />
	</g>
	<defs>
		<filter id="filter0_i_337_138" x="0" y="0" width="15" height="16"
			filterUnits="userSpaceOnUse" color-interpolation-filters="sRGB">
			<feFlood flood-opacity="0" result="BackgroundImageFix" />
			<feBlend mode="normal" in="SourceGraphic" in2="BackgroundImageFix" result="shape" />
			<feColorMatrix in="SourceAlpha" type="matrix"
				values="0 0 0 0 0 0 0 0 0 0 0 0 0 0 0 0 0 0 127 0" result="hardAlpha" />
			<feOffset dy="1" />
			<feGaussianBlur stdDeviation="1" />
			<feComposite in2="hardAlpha" operator="arithmetic" k2="-1" k3="1" />
			<feColorMatrix type="matrix" values="0 0 0 0 0 0 0 0 0 0 0 0 0 0 0 0 0 0 0.65 0" />
			<feBlend mode="normal" in2="shape" result="effect1_innerShadow_337_138" />
		</filter>
		<linearGradient id="paint0_linear_337_138" x1="7.49464" y1="0.581395" x2="7.49464"
			y2="14.5349" gradientUnits="userSpaceOnUse">
			<stop stop-opacity="0" />
			<stop offset="0.5" stop-opacity="0" />
			<stop offset="1" stop-opacity="0.12" />
		</linearGradient>
	</defs>
</svg>