<svg width="14" height="13" viewBox="0 0 14 13" fill="none" xmlns="http://www.w3.org/2000/svg">
	<path fill-rule="evenodd" clip-rule="evenodd"
		d="M5.23282 6.5L0.616699 1.88389L2.38447 0.116119L7.00058 4.73224L11.6167 0.116119L13.3845 1.88389L8.76835 6.5L13.3845 11.1161L11.6167 12.8839L7.00058 8.26777L2.38447 12.8839L0.616699 11.1161L5.23282 6.5Z"
		fill="context-fill" />
	<path fill-rule="evenodd" clip-rule="evenodd"
		d="M5.23282 6.5L0.616699 1.88389L2.38447 0.116119L7.00058 4.73224L11.6167 0.116119L13.3845 1.88389L8.76835 6.5L13.3845 11.1161L11.6167 12.8839L7.00058 8.26777L2.38447 12.8839L0.616699 11.1161L5.23282 6.5Z"
		fill="url(#paint0_linear_324_449)" />
	<g filter="url(#filter0_i_324_449)">
		<path fill-rule="evenodd" clip-rule="evenodd"
			d="M5.23282 6.5L0.616699 1.88389L2.38447 0.116119L7.00058 4.73224L11.6167 0.116119L13.3845 1.88389L8.76835 6.5L13.3845 11.1161L11.6167 12.8839L7.00058 8.26777L2.38447 12.8839L0.616699 11.1161L5.23282 6.5Z"
			fill="white" fill-opacity="0.01" />
	</g>
	<defs>
		<filter id="filter0_i_324_449" x="0.616699" y="0.116119" width="12.7678" height="13.7678"
			filterUnits="userSpaceOnUse" color-interpolation-filters="sRGB">
			<feFlood flood-opacity="0" result="BackgroundImageFix" />
			<feBlend mode="normal" in="SourceGraphic" in2="BackgroundImageFix" result="shape" />
			<feColorMatrix in="SourceAlpha" type="matrix"
				values="0 0 0 0 0 0 0 0 0 0 0 0 0 0 0 0 0 0 127 0" result="hardAlpha" />
			<feOffset dy="1" />
			<feGaussianBlur stdDeviation="1" />
			<feComposite in2="hardAlpha" operator="arithmetic" k2="-1" k3="1" />
			<feColorMatrix type="matrix" values="0 0 0 0 0 0 0 0 0 0 0 0 0 0 0 0 0 0 0.65 0" />
			<feBlend mode="normal" in2="shape" result="effect1_innerShadow_324_449" />
		</filter>
		<linearGradient id="paint0_linear_324_449" x1="6.99602" y1="0.610994" x2="6.99602"
			y2="12.488" gradientUnits="userSpaceOnUse">
			<stop stop-opacity="0" />
			<stop offset="0.5" stop-opacity="0" />
			<stop offset="1" stop-opacity="0.12" />
		</linearGradient>
	</defs>
</svg>