<svg width="28" height="18" viewBox="0 0 28 18" fill="none" xmlns="http://www.w3.org/2000/svg">
<mask id="mask0_457_115" style="mask-type:alpha" maskUnits="userSpaceOnUse" x="0" y="0" width="28" height="18">
<rect width="28" height="18" fill="white"/>
</mask>
<g mask="url(#mask0_457_115)">
<path d="M3.63442 10.3613L3.63441 10.3613L3.61667 10.3171L3.61666 10.3171C2.82907 8.35784 2.2686 6.18565 1.6312 3.39604C1.32598 2.06022 1.63042 1.69269 1.7445 1.60102C1.81947 1.54078 1.91026 1.51315 1.99695 1.50373C2.03898 1.49916 2.07448 1.49957 2.09741 1.50088C2.10777 1.50146 2.11492 1.5022 2.11821 1.50258L2.15424 1.50882L2.19723 1.50882L20.0263 1.50878C20.3416 1.50878 20.7258 1.68932 21.1723 2.10763C21.6103 2.51807 22.0482 3.1016 22.4642 3.77126C23.2946 5.10798 23.9848 6.69986 24.3836 7.69169C24.9357 9.06524 25.3701 10.7658 25.8042 12.4653C25.9912 13.1976 26.1782 13.9297 26.3746 14.6354C26.6582 15.6547 26.3992 16.0751 26.2177 16.2541C26.1098 16.3605 25.9854 16.4252 25.8831 16.4632C25.8329 16.4818 25.7912 16.4929 25.7646 16.4989C25.7628 16.4993 25.761 16.4996 25.7594 16.5H7.9667C7.5902 16.5 7.18118 16.3103 6.73932 15.9067C6.29987 15.5054 5.87414 14.9335 5.47491 14.2728C4.67688 12.9523 4.04245 11.3765 3.63442 10.3613Z" stroke="black" stroke-opacity="0.168"/>
<g filter="url(#filter0_i_457_115)">
<path d="M24.0131 7.69205C23.2713 5.94302 21.4171 2.00769 19.5628 2.00769L3.10513 2.00772C3.10513 2.00772 1.54392 1.75134 2.13271 4.19398C2.72149 6.63663 3.24544 8.56663 3.98715 10.3157L4.00353 10.3543C4.75301 12.1219 6.39734 16 8.4308 16H24.8951C24.8951 16 26.456 15.819 25.8673 13.8137C25.2787 11.8083 24.7548 9.44109 24.0131 7.69205Z" fill="white" fill-opacity="0.23"/>
</g>
</g>
<defs>
<filter id="filter0_i_457_115" x="2" y="2" width="24" height="14" filterUnits="userSpaceOnUse" color-interpolation-filters="sRGB">
<feFlood flood-opacity="0" result="BackgroundImageFix"/>
<feBlend mode="normal" in="SourceGraphic" in2="BackgroundImageFix" result="shape"/>
<feColorMatrix in="SourceAlpha" type="matrix" values="0 0 0 0 0 0 0 0 0 0 0 0 0 0 0 0 0 0 127 0" result="hardAlpha"/>
<feOffset dy="1"/>
<feComposite in2="hardAlpha" operator="arithmetic" k2="-1" k3="1"/>
<feColorMatrix type="matrix" values="0 0 0 0 1 0 0 0 0 1 0 0 0 0 1 0 0 0 0.08 0"/>
<feBlend mode="normal" in2="shape" result="effect1_innerShadow_457_115"/>
</filter>
</defs>
</svg>
