<svg width="34" height="18" viewBox="0 0 34 18" fill="none" xmlns="http://www.w3.org/2000/svg">
<mask id="mask0_457_43" style="mask-type:alpha" maskUnits="userSpaceOnUse" x="0" y="0" width="34" height="18">
<rect width="34" height="18" fill="white"/>
</mask>
<g mask="url(#mask0_457_43)">
<path d="M31.689 16.4947C31.676 16.497 31.6652 16.4988 31.6568 16.5H9.4915C8.94558 16.5 8.39475 16.2797 7.84028 15.8725C7.28498 15.4648 6.75294 14.8888 6.25752 14.2297C5.26555 12.91 4.47728 11.3359 3.96974 10.3207L3.96973 10.3206L3.94765 10.2765L3.94764 10.2765C2.97011 8.32141 2.27409 6.15336 1.48116 3.36332C1.29615 2.71234 1.29747 2.29876 1.35695 2.04523C1.41258 1.80814 1.52261 1.69155 1.62938 1.62258C1.75017 1.54454 1.89982 1.50807 2.03831 1.49597C2.10473 1.49017 2.16128 1.49062 2.19953 1.49237C2.21845 1.49324 2.23229 1.49439 2.23991 1.49512L2.24571 1.49573L2.27661 1.50004L2.31127 1.50004L24.5 1.5C24.9745 1.5 25.4949 1.71509 26.0507 2.13375C26.6032 2.54993 27.1502 3.13717 27.6669 3.80572C28.6996 5.14217 29.5575 6.73297 30.0528 7.72361C30.7377 9.09351 31.2756 10.7866 31.8151 12.4847C32.0483 13.2186 32.2817 13.9534 32.5275 14.6635C32.7033 15.1714 32.7011 15.5127 32.645 15.7365C32.5902 15.955 32.4731 16.106 32.3316 16.2181C32.1841 16.335 32.01 16.4087 31.8625 16.4528C31.7906 16.4743 31.7299 16.4873 31.689 16.4947Z" stroke="url(#paint0_linear_457_43)"/>
<g filter="url(#filter0_i_457_43)">
<path d="M29.5163 7.69205C28.5892 5.94302 26.2713 2.00769 23.9535 2.00769L3.38142 2.00772C3.38142 2.00772 1.42991 1.75134 2.16588 4.19398C2.90186 6.63663 3.5568 8.56663 4.48394 10.3157L4.50441 10.3543C5.44126 12.1219 7.49668 16 10.0385 16H30.6189C30.6189 16 32.57 15.819 31.8342 13.8137C31.0984 11.8083 30.4435 9.44109 29.5163 7.69205Z" fill="white" fill-opacity="0.01"/>
</g>
</g>
<defs>
<filter id="filter0_i_457_43" x="2" y="2" width="31" height="15" filterUnits="userSpaceOnUse" color-interpolation-filters="sRGB">
<feFlood flood-opacity="0" result="BackgroundImageFix"/>
<feBlend mode="normal" in="SourceGraphic" in2="BackgroundImageFix" result="shape"/>
<feColorMatrix in="SourceAlpha" type="matrix" values="0 0 0 0 0 0 0 0 0 0 0 0 0 0 0 0 0 0 127 0" result="hardAlpha"/>
<feOffset dx="1" dy="1"/>
<feGaussianBlur stdDeviation="1"/>
<feComposite in2="hardAlpha" operator="arithmetic" k2="-1" k3="1"/>
<feColorMatrix type="matrix" values="0 0 0 0 1 0 0 0 0 1 0 0 0 0 1 0 0 0 0.28 0"/>
<feBlend mode="normal" in2="shape" result="effect1_innerShadow_457_43"/>
</filter>
<linearGradient id="paint0_linear_457_43" x1="17" y1="1.5" x2="17" y2="16.5" gradientUnits="userSpaceOnUse">
<stop stop-opacity="0.18"/>
<stop offset="1" stop-opacity="0.3"/>
</linearGradient>
</defs>
</svg>
