<svg width="15" height="27" viewBox="0 0 15 27" fill="none" xmlns="http://www.w3.org/2000/svg">
<mask id="mask0_450_105" style="mask-type:alpha" maskUnits="userSpaceOnUse" x="0" y="0" width="15" height="27">
<rect width="15" height="27" fill="white"/>
</mask>
<g mask="url(#mask0_450_105)">
<path d="M8.5 11.1612C8.64356 11.5517 8.7976 11.9552 8.96415 12.3718C9.26011 13.112 9.55216 13.8563 9.84205 14.5951C10.8777 17.2345 11.8857 19.8032 12.9447 21.8655C13.6217 23.1837 14.302 24.2588 14.9985 24.9984L15 25V2L14.4667 2.03565C13.4362 2.10455 12.6366 2.38518 11.9964 2.91573C11.3663 3.43803 10.9386 4.16368 10.5753 5.02833C10.2543 5.79231 9.96598 6.71058 9.63874 7.75272L9.63816 7.75456C9.59689 7.88601 9.55499 8.01943 9.51233 8.15475C9.22842 9.05543 8.9062 10.0564 8.5 11.1612Z" fill="white"/>
</g>
</svg>
