<svg width="15" height="27" viewBox="0 0 15 27" fill="none" xmlns="http://www.w3.org/2000/svg">
<mask id="mask0_450_71" style="mask-type:alpha" maskUnits="userSpaceOnUse" x="0" y="0" width="15" height="27">
<rect width="15" height="27" transform="matrix(-1 0 0 1 15 0)" fill="white"/>
</mask>
<g mask="url(#mask0_450_71)">
<path d="M0 26.9651V1.96533L0.53328 2.00086C1.56384 2.06951 2.36343 2.34912 3.00358 2.87776C3.63376 3.39818 4.06144 4.12122 4.42472 4.98274C4.7457 5.74398 5.03405 6.65894 5.36129 7.69734C5.40275 7.8289 5.44483 7.96245 5.48769 8.0979C5.87192 9.31246 6.32634 10.71 6.96413 12.2996C7.26008 13.0372 7.55214 13.7788 7.84203 14.5149C8.87772 17.1448 9.8857 19.7043 10.9447 21.7591C11.6216 23.0726 12.302 24.1438 12.9984 24.8807C13.6964 25.6191 14.3564 25.9665 15 25.9665V26.9651H0Z" fill="white"/>
</g>
</svg>
