<svg width="15" height="27" viewBox="0 0 15 27" fill="none" xmlns="http://www.w3.org/2000/svg">
<mask id="mask0_477_706" style="mask-type:alpha" maskUnits="userSpaceOnUse" x="0" y="0" width="15" height="27">
<path d="M0 0H15V27H0V0Z" fill="#D9D9D9"/>
</mask>
<g mask="url(#mask0_477_706)">
<path d="M0 26.9652V26.9999C0.149753 26.9999 0.29681 26.988 0.441212 26.9652L0 26.9652Z" fill="url(#paint0_linear_477_706)"/>
<path d="M9.04129 12.4924C9.5806 11.1339 10.0111 9.917 10.3889 8.84904L10.5384 8.42681C10.9722 7.20415 11.3367 6.20994 11.7338 5.41178C12.1292 4.61688 12.5383 4.05618 13.0391 3.67641C13.5322 3.30243 14.1549 3.07347 15.0333 3.01487L14.9667 2.01709C13.9367 2.0858 13.1151 2.3637 12.4348 2.87961C11.7621 3.38973 11.2684 4.10193 10.8384 4.96641C10.41 5.82764 10.0264 6.87929 9.59599 8.09243L9.44603 8.51589C9.1661 9.30713 8.86082 10.17 8.50538 11.1083C8.6474 11.4928 8.79967 11.8899 8.96413 12.2998C8.98988 12.364 9.0156 12.4282 9.04129 12.4924Z" fill="url(#paint1_linear_477_706)"/>
</g>
<defs>
<linearGradient id="paint0_linear_477_706" x1="7.5" y1="2.5" x2="7.5" y2="26.5" gradientUnits="userSpaceOnUse">
<stop stop-color="white"/>
<stop offset="0.8" stop-color="white" stop-opacity="0"/>
</linearGradient>
<linearGradient id="paint1_linear_477_706" x1="7.5" y1="2.5" x2="7.5" y2="26.5" gradientUnits="userSpaceOnUse">
<stop stop-color="white"/>
<stop offset="0.8" stop-color="white" stop-opacity="0"/>
</linearGradient>
</defs>
</svg>
