<svg width="15" height="27" viewBox="0 0 15 27" fill="none" xmlns="http://www.w3.org/2000/svg">
<mask id="mask0_450_44" style="mask-type:alpha" maskUnits="userSpaceOnUse" x="0" y="0" width="15" height="27">
<path d="M15 0H0V27H15V0Z" fill="#D9D9D9"/>
</mask>
<g mask="url(#mask0_450_44)">
<path fill-rule="evenodd" clip-rule="evenodd" d="M4.61108 8.84902C5.00674 9.96743 5.46019 11.2492 6.03587 12.6859C6.32473 13.4068 6.61201 14.1375 6.89892 14.8671C7.93753 17.5085 8.97109 20.1371 10.0556 22.2443C10.7484 23.5905 11.4795 24.76 12.2712 25.5989C13.0615 26.4363 13.9665 26.9999 15 26.9999V25.9999C14.3564 25.9999 13.6964 25.652 12.9984 24.9125C12.302 24.1746 11.6216 23.1019 10.9447 21.7867C9.88569 19.729 8.87772 17.1659 7.84202 14.5323C7.55214 13.7952 7.26008 13.0526 6.96413 12.314C6.39655 10.8975 5.94991 9.63503 5.55397 8.51589C5.5032 8.37239 5.45326 8.23124 5.40401 8.09243C4.97359 6.87929 4.58998 5.82764 4.16157 4.96641C3.73155 4.10193 3.23788 3.38973 2.56518 2.87961C1.88486 2.3637 1.06325 2.0858 0.0332804 2.01709L-0.0332804 3.01487C0.845147 3.07347 1.46778 3.30243 1.96095 3.67641C2.46174 4.05618 2.87082 4.61688 3.26623 5.41178C3.66326 6.20994 4.02777 7.20415 4.46157 8.42681C4.51055 8.56485 4.56034 8.70559 4.61108 8.84902Z" fill="white" fill-opacity="0.5"/>
<path fill-rule="evenodd" clip-rule="evenodd" d="M5.67049 8.56319C6.02782 9.52138 6.42511 10.5867 6.88991 11.7467C7.53737 13.3626 8.09272 14.9518 8.61362 16.4423L8.66086 16.5775C9.19339 18.1011 9.69403 19.5263 10.2179 20.7436C10.7396 21.9559 11.3017 23.0047 11.974 23.7552C12.6574 24.5182 13.4815 25 14.5 25V24C13.8414 24 13.2697 23.7029 12.7188 23.088C12.1568 22.4605 11.646 21.5323 11.1364 20.3483C10.6291 19.1693 10.1401 17.7789 9.60486 16.2475L9.55537 16.1059C9.03599 14.6197 8.47414 13.0119 7.81817 11.3748C7.35785 10.226 6.96824 9.18115 6.61282 8.22802C6.45085 7.79366 6.29597 7.37834 6.14475 6.98091C5.66616 5.72311 5.22315 4.64175 4.71966 3.76556C4.2133 2.88438 3.62906 2.18023 2.85215 1.70245C2.0722 1.2228 1.14436 0.999581 -0.00019455 0.999512L-0.000255585 1.99951C1.01143 1.99957 1.74501 2.19556 2.3283 2.55426C2.91463 2.91484 3.39545 3.46821 3.85262 4.26379C4.31265 5.06435 4.73163 6.079 5.21012 7.33653C5.35717 7.723 5.50979 8.13226 5.67049 8.56319Z" fill="black" fill-opacity="0.28"/>
</g>
</svg>
