<svg width="15" height="27" viewBox="0 0 15 27" fill="none" xmlns="http://www.w3.org/2000/svg">
<mask id="mask0_477_690" style="mask-type:alpha" maskUnits="userSpaceOnUse" x="0" y="0" width="15" height="27">
<path d="M15 0H0V27H15V0Z" fill="#D9D9D9"/>
</mask>
<g mask="url(#mask0_477_690)">
<path fill-rule="evenodd" clip-rule="evenodd" d="M4.61108 8.84902C5.00674 9.96743 5.46019 11.2492 6.03587 12.6859C6.32473 13.4068 6.61201 14.1375 6.89892 14.8671C7.93753 17.5085 8.97109 20.1371 10.0556 22.2443C10.7484 23.5905 11.4795 24.76 12.2712 25.5989C13.0615 26.4363 13.9665 26.9999 15 26.9999V25.9999C14.3564 25.9999 13.6964 25.652 12.9984 24.9125C12.302 24.1746 11.6216 23.1019 10.9447 21.7867C9.88569 19.729 8.87772 17.1659 7.84202 14.5323C7.55214 13.7952 7.26008 13.0526 6.96413 12.314C6.39655 10.8975 5.94991 9.63503 5.55397 8.51589C5.5032 8.37239 5.45326 8.23124 5.40401 8.09243C4.97359 6.87929 4.58998 5.82764 4.16157 4.96641C3.73155 4.10193 3.23788 3.38973 2.56518 2.87961C1.88486 2.3637 1.06325 2.0858 0.0332804 2.01709L-0.0332804 3.01487C0.845147 3.07347 1.46778 3.30243 1.96095 3.67641C2.46174 4.05618 2.87082 4.61688 3.26623 5.41178C3.66326 6.20994 4.02777 7.20415 4.46157 8.42681C4.51055 8.56485 4.56034 8.70559 4.61108 8.84902Z" fill="url(#paint0_linear_477_690)"/>
</g>
<defs>
<linearGradient id="paint0_linear_477_690" x1="7.5" y1="2.5" x2="7.5" y2="26.5" gradientUnits="userSpaceOnUse">
<stop stop-color="white"/>
<stop offset="0.8" stop-color="white" stop-opacity="0"/>
</linearGradient>
</defs>
</svg>
