<svg width="15" height="27" viewBox="0 0 15 27" fill="none" xmlns="http://www.w3.org/2000/svg">
<mask id="mask0_451_106" style="mask-type:alpha" maskUnits="userSpaceOnUse" x="0" y="0" width="15" height="27">
<path d="M0 0H15V27H0V0Z" fill="#D9D9D9"/>
</mask>
<g mask="url(#mask0_451_106)">
<path fill-rule="evenodd" clip-rule="evenodd" d="M10.3889 8.84902C9.99326 9.96743 9.53981 11.2492 8.96413 12.6859C8.67527 13.4068 8.38799 14.1375 8.10108 14.8671C7.06247 17.5085 6.02891 20.1371 4.94443 22.2443C4.25161 23.5905 3.52055 24.76 2.7288 25.5989C1.9385 26.4363 1.03346 26.9999 0 26.9999V25.9999C0.643614 25.9999 1.30363 25.652 2.00155 24.9125C2.69803 24.1746 3.37836 23.1019 4.05528 21.7867C5.11431 19.729 6.12228 17.1659 7.15798 14.5323C7.44786 13.7952 7.73992 13.0526 8.03587 12.314C8.60345 10.8975 9.05009 9.63503 9.44603 8.51589C9.4968 8.37239 9.54674 8.23124 9.59599 8.09243C10.0264 6.87929 10.41 5.82764 10.8384 4.96641C11.2684 4.10193 11.7621 3.38973 12.4348 2.87961C13.1151 2.3637 13.9367 2.0858 14.9667 2.01709L15.0333 3.01487C14.1549 3.07347 13.5322 3.30243 13.0391 3.67641C12.5383 4.05618 12.1292 4.61688 11.7338 5.41178C11.3367 6.20994 10.9722 7.20415 10.5384 8.42681C10.4895 8.56485 10.4397 8.70559 10.3889 8.84902Z" fill="white" fill-opacity="0.25"/>
<path fill-rule="evenodd" clip-rule="evenodd" d="M9.32951 8.56319C8.97218 9.52138 8.57489 10.5867 8.11009 11.7467C7.46263 13.3626 6.90728 14.9518 6.38638 16.4423L6.33914 16.5775C5.80661 18.1011 5.30597 19.5263 4.78211 20.7436C4.2604 21.9559 3.69833 23.0047 3.02604 23.7552C2.34258 24.5182 1.5185 25 0.5 25V24C1.15857 24 1.7303 23.7029 2.28118 23.088C2.84322 22.4605 3.35404 21.5323 3.86356 20.3483C4.37094 19.1693 4.8599 17.7789 5.39514 16.2475L5.44463 16.1059C5.96401 14.6197 6.52586 13.0119 7.18183 11.3748C7.64215 10.226 8.03176 9.18115 8.38718 8.22802C8.54915 7.79366 8.70403 7.37834 8.85525 6.98091C9.33384 5.72311 9.77685 4.64175 10.2803 3.76556C10.7867 2.88438 11.3709 2.18023 12.1479 1.70245C12.9278 1.2228 13.8556 0.999581 15.0002 0.999512L15.0003 1.99951C13.9886 1.99957 13.255 2.19556 12.6717 2.55426C12.0854 2.91484 11.6046 3.46821 11.1474 4.26379C10.6874 5.06435 10.2684 6.079 9.78988 7.33653C9.64283 7.723 9.49021 8.13226 9.32951 8.56319Z" fill="black" fill-opacity="0.23"/>
</g>
</svg>
