<svg width="15" height="27" viewBox="0 0 15 27" fill="none" xmlns="http://www.w3.org/2000/svg">
<mask id="mask0_451_126" style="mask-type:alpha" maskUnits="userSpaceOnUse" x="0" y="0" width="15" height="27">
<path d="M0 0H15V27H0V0Z" fill="#D9D9D9"/>
</mask>
<g mask="url(#mask0_451_126)">
<path fill-rule="evenodd" clip-rule="evenodd" d="M0 26.9652V26.9999C0.149753 26.9999 0.29681 26.988 0.441212 26.9652L0 26.9652ZM9.04129 12.4924C9.5806 11.1339 10.0111 9.917 10.3889 8.84904L10.3889 8.84902L10.5384 8.42681C10.9722 7.20415 11.3367 6.20994 11.7338 5.41178C12.1292 4.61688 12.5383 4.05618 13.0391 3.67641C13.5322 3.30243 14.1549 3.07347 15.0333 3.01487L14.9667 2.01709C13.9367 2.0858 13.1151 2.3637 12.4348 2.87961C11.7621 3.38973 11.2684 4.10193 10.8384 4.96641C10.41 5.82764 10.0264 6.87929 9.59599 8.09243L9.44603 8.51589L9.44603 8.5159C9.1661 9.30714 8.86082 10.17 8.50538 11.1083C8.6474 11.4928 8.79967 11.8899 8.96413 12.2998C8.98988 12.364 9.0156 12.4282 9.04129 12.4924Z" fill="white" fill-opacity="0.25"/>
<path fill-rule="evenodd" clip-rule="evenodd" d="M8.43631 10.9204C8.76493 10.0768 9.05863 9.28923 9.32939 8.56319L9.32943 8.56308C9.49011 8.13219 9.64272 7.72296 9.78976 7.33653C10.2683 6.079 10.6872 5.06435 11.1473 4.26379C11.6044 3.46821 12.0853 2.91484 12.6716 2.55426C13.2549 2.19556 13.9885 1.99957 15.0001 1.99951L15.0001 0.999512C13.8555 0.999581 12.9277 1.2228 12.1477 1.70245C11.3708 2.18023 10.7866 2.88438 10.2802 3.76556C9.77673 4.64175 9.33372 5.72311 8.85513 6.98091C8.70393 7.37829 8.54908 7.79355 8.38713 8.22784L8.38706 8.22802L8.38705 8.22804C8.24031 8.62157 8.08773 9.03073 7.92676 9.45638C8.08184 9.92197 8.25012 10.4099 8.43631 10.9204Z" fill="black" fill-opacity="0.23"/>
</g>
</svg>
