<svg width="15" height="27" viewBox="0 0 15 27" fill="none" xmlns="http://www.w3.org/2000/svg">
<mask id="mask0_477_701" style="mask-type:alpha" maskUnits="userSpaceOnUse" x="0" y="0" width="15" height="27">
<path d="M0 0H15V27H0V0Z" fill="#D9D9D9"/>
</mask>
<g mask="url(#mask0_477_701)">
<path fill-rule="evenodd" clip-rule="evenodd" d="M10.3889 8.84902C9.99326 9.96743 9.53981 11.2492 8.96413 12.6859C8.67527 13.4068 8.38799 14.1375 8.10108 14.8671C7.06247 17.5085 6.02891 20.1371 4.94443 22.2443C4.25161 23.5905 3.52055 24.76 2.7288 25.5989C1.9385 26.4363 1.03346 26.9999 0 26.9999V25.9999C0.643614 25.9999 1.30363 25.652 2.00155 24.9125C2.69803 24.1746 3.37836 23.1019 4.05528 21.7867C5.11431 19.729 6.12228 17.1659 7.15798 14.5323C7.44786 13.7952 7.73992 13.0526 8.03587 12.314C8.60345 10.8975 9.05009 9.63503 9.44603 8.51589C9.4968 8.37239 9.54674 8.23124 9.59599 8.09243C10.0264 6.87929 10.41 5.82764 10.8384 4.96641C11.2684 4.10193 11.7621 3.38973 12.4348 2.87961C13.1151 2.3637 13.9367 2.0858 14.9667 2.01709L15.0333 3.01487C14.1549 3.07347 13.5322 3.30243 13.0391 3.67641C12.5383 4.05618 12.1292 4.61688 11.7338 5.41178C11.3367 6.20994 10.9722 7.20415 10.5384 8.42681C10.4895 8.56485 10.4397 8.70559 10.3889 8.84902Z" fill="url(#paint0_linear_477_701)"/>
</g>
<defs>
<linearGradient id="paint0_linear_477_701" x1="7.5" y1="2.5" x2="7.5" y2="26.5" gradientUnits="userSpaceOnUse">
<stop stop-color="white"/>
<stop offset="0.8" stop-color="white" stop-opacity="0"/>
</linearGradient>
</defs>
</svg>
