<svg width="15" height="27" viewBox="0 0 15 27" fill="none" xmlns="http://www.w3.org/2000/svg">
<mask id="mask0_450_70" style="mask-type:alpha" maskUnits="userSpaceOnUse" x="0" y="0" width="15" height="27">
<rect width="15" height="27" fill="white"/>
</mask>
<g mask="url(#mask0_450_70)">
<path d="M15 26.9651V1.96533L14.4667 2.00086C13.4362 2.06951 12.6366 2.34912 11.9964 2.87776C11.3662 3.39818 10.9386 4.12122 10.5753 4.98274C10.2543 5.74398 9.96595 6.65894 9.63871 7.69734C9.59725 7.8289 9.55517 7.96245 9.51231 8.0979C9.12808 9.31246 8.67366 10.71 8.03587 12.2996C7.73992 13.0372 7.44786 13.7788 7.15797 14.5149C6.12228 17.1448 5.1143 19.7043 4.05528 21.7591C3.37836 23.0726 2.69803 24.1438 2.00155 24.8807C1.30363 25.6191 0.643614 25.9665 0 25.9665V26.9651H15Z" fill="white"/>
</g>
</svg>
