<svg width="16" height="16" viewBox="0 0 16 16" fill="none" xmlns="http://www.w3.org/2000/svg">
<mask id="mask0_460_6" style="mask-type:alpha" maskUnits="userSpaceOnUse" x="3" y="3" width="10" height="10">
<rect x="3" y="3" width="10" height="10" fill="white"/>
</mask>
<g mask="url(#mask0_460_6)">
<mask id="mask1_460_6" style="mask-type:alpha" maskUnits="userSpaceOnUse" x="3" y="3" width="10" height="10">
<path d="M3.04291 4.45711L6.58581 8.00001L3.04291 11.5429L4.45712 12.9571L8.00002 9.41422L11.5429 12.9571L12.9571 11.5429L9.41424 8.00001L12.9571 4.45712L11.5429 3.04291L8.00002 6.58579L4.45712 3.04289L3.04291 4.45711Z" fill="white"/>
</mask>
<g mask="url(#mask1_460_6)">
<g filter="url(#filter0_i_460_6)">
<path d="M3.04291 4.45711L6.58581 8.00001L3.04291 11.5429L4.45712 12.9571L8.00002 9.41422L11.5429 12.9571L12.9571 11.5429L9.41424 8.00001L12.9571 4.45712L11.5429 3.04291L8.00002 6.58579L4.45712 3.04289L3.04291 4.45711Z" fill="black" fill-opacity="0.5"/>
</g>
</g>
</g>
<defs>
<filter id="filter0_i_460_6" x="3.04291" y="3.04289" width="10.9142" height="10.9142" filterUnits="userSpaceOnUse" color-interpolation-filters="sRGB">
<feFlood flood-opacity="0" result="BackgroundImageFix"/>
<feBlend mode="normal" in="SourceGraphic" in2="BackgroundImageFix" result="shape"/>
<feColorMatrix in="SourceAlpha" type="matrix" values="0 0 0 0 0 0 0 0 0 0 0 0 0 0 0 0 0 0 127 0" result="hardAlpha"/>
<feOffset dx="1" dy="1"/>
<feGaussianBlur stdDeviation="1"/>
<feComposite in2="hardAlpha" operator="arithmetic" k2="-1" k3="1"/>
<feColorMatrix type="matrix" values="0 0 0 0 0 0 0 0 0 0 0 0 0 0 0 0 0 0 0.8 0"/>
<feBlend mode="normal" in2="shape" result="effect1_innerShadow_460_6"/>
</filter>
</defs>
</svg>
