<svg width="218" height="160" version="1.1" viewBox="0 0 57.679166 42.333332" xmlns="http://www.w3.org/2000/svg">
    <rect width="57.679165" height="42.333332" fill="#d3e3fd" style="paint-order:stroke fill markers"/>
    <path d="m3.4395833 2.6458333c-1.0080071 0.7671125-1.0898069 3.3771199-2.1166667 5.2916666h-0.79374994v33.866666h56.620832v-33.866666h-28.794106c-1.026867-1.9145467-1.10866-4.5245541-2.116668-5.2916666h-19.285128z" color="#000000" color-rendering="auto" dominant-baseline="auto" fill="#fff" image-rendering="auto" shape-rendering="auto" solid-color="#000000" stop-color="#000000" style="font-feature-settings:normal;font-variant-alternates:normal;font-variant-caps:normal;font-variant-east-asian:normal;font-variant-ligatures:normal;font-variant-numeric:normal;font-variant-position:normal;font-variation-settings:normal;inline-size:0;isolation:auto;mix-blend-mode:normal;paint-order:stroke fill markers;shape-margin:0;shape-padding:0;text-decoration-color:#000000;text-decoration-line:none;text-decoration-style:solid;text-indent:0;text-orientation:mixed;text-transform:none;white-space:normal"/>
    <path d="m0.52916664 7.9374995h56.620826v5.8208335h-56.620826z" fill="#202020" style="paint-order:stroke fill markers"/>
    <path d="m3.4395833 2.6458333c-1.0080071 0.7671125-1.089807 3.4035782-2.1166667 5.3181249h27.032977c-1.026861-1.9145467-1.10866-4.5510124-2.116668-5.3181249h-19.285129z" fill="#fff"/>
    <rect x=".52916664" y="7.9374995" width="56.620831" height="5.8208332" fill="#fff" style="paint-order:stroke fill markers"/>
    <rect x=".52916664" y="13.49375" width="56.620831" height=".26458332" fill="#e1e1e1" style="paint-order:stroke fill markers"/>
    <path transform="scale(.26458333)" d="m85 0 47.5 160h85.5v-160z" fill="#1f2020" style="paint-order:stroke fill markers"/>
    <path transform="scale(.26458333)" d="m87.96875 10 43.9375 148h84.09375v-128h-108.82812c-3.88108-7.236082-4.19021-17.100677-8.000005-20z" color="#000000" color-rendering="auto" dominant-baseline="auto" fill="#202020" image-rendering="auto" shape-rendering="auto" solid-color="#000000" stop-color="#000000" style="font-feature-settings:normal;font-variant-alternates:normal;font-variant-caps:normal;font-variant-east-asian:normal;font-variant-ligatures:normal;font-variant-numeric:normal;font-variant-position:normal;font-variation-settings:normal;inline-size:0;isolation:auto;mix-blend-mode:normal;paint-order:stroke fill markers;shape-margin:0;shape-padding:0;text-decoration-color:#000000;text-decoration-line:none;text-decoration-style:solid;text-indent:0;text-orientation:mixed;text-transform:none;white-space:normal"/>
    <path transform="scale(.26458333)" d="m87.96875 10 5.9375 20h13.26563c-3.88105-7.236082-4.19021-17.100677-8.000005-20z" fill="#3c3c3c"/>
    <path transform="scale(.26458333)" d="m93.90625 30 6.53125 22h115.5625v-22z" fill="#3c3c3c" style="paint-order:stroke fill markers"/>
    <path transform="scale(.26458333)" d="m100.14062 51 0.29688 1h115.5625v-1z" fill="#444746" style="paint-order:stroke fill markers"/>
</svg>
