<svg width="218" height="160" fill="context-fill" version="1.1" viewBox="0 0 57.679166 42.333332" xmlns="http://www.w3.org/2000/svg">
    <defs>
        <linearGradient id="linearGradient2142" x2="0" y2="42.333332" gradientTransform="scale(3.7795276)" gradientUnits="userSpaceOnUse">
            <stop stop-color="#fff" stop-opacity=".28999999" offset="0"/>
            <stop stop-color="#fff" stop-opacity="0" offset=".07"/>
            <stop stop-color="#fff" stop-opacity="0" offset="1"/>
        </linearGradient>
    </defs>
    <path transform="scale(.26458333)" d="m0 0v160h218v-160h-218z" fill="url(#linearGradient2142)" stroke-width="3.77953" style="paint-order:stroke fill markers"/>
    <path d="m3.3945312 2.5136719-0.0351562 0.0273437c-0.5601692 0.4262994-0.8220138 1.2944489-1.0976562 2.2851563-0.2693104 0.9679484-0.5505172 2.0553754-1.03125 2.9785156h-0.83398442v34.13086h56.886719v-34.13086h-28.833984c-0.480736-0.9231401-0.761941-2.0105673-1.03125-2.9785156-0.275642-0.9907073-0.537487-1.8588569-1.097657-2.2851563l-0.03711-0.027344h-19.330077zm0.1132813 0.2636719h22.66211c0.438703 0.3479341 0.721449 1.1460586 0.992187 2.1191406 0.273974 0.9847112 0.553548 2.1254653 1.078125 3.1035156l0.03711 0.070312h28.740234v33.601563h-56.355469v-33.601562h0.74023442l0.0371093-0.0703125c0.5245735-0.9780501 0.8021977-2.1188045 1.0761719-3.1035156 0.2707386-0.973082 0.5534847-1.7712065 0.9921875-2.1191406z" color-rendering="auto" dominant-baseline="auto" fill="#000" fill-opacity=".30000001" image-rendering="auto" shape-rendering="auto"/>
    <path transform="scale(.26458333)" d="m2 52v106h214v-106h-214z" fill="#fff" stroke-width="3.77953"/>
    <path transform="scale(.26458333)" d="m13 10c-3.7927249 2.886336-4.1192279 12.772196-7.9511719 20h-3.0488281v22h214v-22h-108.82812c-3.63812-6.783116-4.13777-15.87497-7.324224-19.375-0.212786-0.233726-0.437295-0.443508-0.675781-0.625h-86.171875z"/>
    <rect x=".52916664" y="13.49375" width="56.620831" height=".26458332" fill="#000" fill-opacity=".10256383" style="paint-order:stroke fill markers"/>
</svg>
