<svg width="218" height="160" version="1.1" viewBox="0 0 57.679166 42.333332" xmlns="http://www.w3.org/2000/svg">
    <defs>
        <linearGradient id="linearGradient2142" x2="0" y2="7.9375" gradientUnits="userSpaceOnUse">
            <stop stop-color="#cfcfcf" offset="0"/>
            <stop stop-color="#a8a8a8" offset="1"/>
        </linearGradient>
        <linearGradient id="linearGradient2150-3" x1="1.3229166" x2="1.3229166" y1="2.6458333" y2="7.9375" gradientUnits="userSpaceOnUse">
            <stop stop-color="#ededed" offset="0"/>
            <stop stop-color="#d7d7d7" offset="1"/>
        </linearGradient>
        <linearGradient id="linearGradient2158" x1=".52916664" x2=".52916664" y1="7.9374995" y2="13.758333" gradientUnits="userSpaceOnUse">
            <stop stop-color="#d7d7d7" offset="0"/>
            <stop stop-color="#bebebe" offset="1"/>
        </linearGradient>
        <linearGradient id="linearGradient2427" x1="1.3229166" x2="1.3229166" y1="2.6458333" y2="7.9375" gradientTransform="scale(3.7795276)" gradientUnits="userSpaceOnUse">
            <stop stop-color="#515151" offset="0"/>
            <stop stop-color="#4a4a4a" offset="1"/>
        </linearGradient>
        <linearGradient id="linearGradient2429" x1=".52916664" x2=".52916664" y1="7.9374995" y2="13.758333" gradientTransform="scale(3.7795276)" gradientUnits="userSpaceOnUse">
            <stop stop-color="#4a4a4a" offset="0"/>
            <stop stop-color="#3c3c3c" offset="1"/>
        </linearGradient>
        <linearGradient id="linearGradient2456" x2="0" y2="7.9375" gradientTransform="scale(3.7795276)" gradientUnits="userSpaceOnUse">
            <stop stop-color="#3c3c3c" offset="0"/>
            <stop stop-color="#171717" offset="1"/>
        </linearGradient>
    </defs>
    <rect width="57.679165" height="42.333332" fill="url(#linearGradient2142)" style="paint-order:stroke fill markers"/>
    <path d="m3.3945312 2.5136719-0.0351562 0.0273437c-0.5601692 0.4262994-0.8220138 1.2944489-1.0976562 2.2851563-0.2693104 0.9679484-0.5505172 2.0553754-1.03125 2.9785156h-0.83398442v34.13086h56.886719v-34.13086h-28.833984c-0.480736-0.9231401-0.761941-2.0105673-1.03125-2.9785156-0.275642-0.9907073-0.537487-1.8588569-1.097657-2.2851563l-0.03711-0.027344h-19.330077zm0.1132813 0.2636719h22.66211c0.438703 0.3479341 0.721449 1.1460586 0.992187 2.1191406 0.273974 0.9847112 0.553548 2.1254653 1.078125 3.1035156l0.03711 0.070312h28.740234v33.601563h-56.355469v-33.601562h0.74023442l0.0371093-0.0703125c0.5245735-0.9780501 0.8021977-2.1188045 1.0761719-3.1035156 0.2707386-0.973082 0.5534847-1.7712065 0.9921875-2.1191406z" color="#000000" color-rendering="auto" dominant-baseline="auto" fill-opacity=".3" image-rendering="auto" shape-rendering="auto" solid-color="#000000" stop-color="#000000" style="font-feature-settings:normal;font-variant-alternates:normal;font-variant-caps:normal;font-variant-east-asian:normal;font-variant-ligatures:normal;font-variant-numeric:normal;font-variant-position:normal;font-variation-settings:normal;inline-size:0;isolation:auto;mix-blend-mode:normal;paint-order:stroke fill markers;shape-margin:0;shape-padding:0;text-decoration-color:#000000;text-decoration-line:none;text-decoration-style:solid;text-indent:0;text-orientation:mixed;text-transform:none;white-space:normal"/>
    <path d="m3.4395833 2.6458333c-1.0080071 0.7671125-1.0898069 3.3771199-2.1166667 5.2916666h-0.79374994v33.866666h56.620832v-33.866666h-28.794106c-1.026867-1.9145467-1.10866-4.5245541-2.116668-5.2916666h-19.285128z" color="#000000" color-rendering="auto" dominant-baseline="auto" fill="#fff" image-rendering="auto" shape-rendering="auto" solid-color="#000000" stop-color="#000000" style="font-feature-settings:normal;font-variant-alternates:normal;font-variant-caps:normal;font-variant-east-asian:normal;font-variant-ligatures:normal;font-variant-numeric:normal;font-variant-position:normal;font-variation-settings:normal;inline-size:0;isolation:auto;mix-blend-mode:normal;paint-order:stroke fill markers;shape-margin:0;shape-padding:0;text-decoration-color:#000000;text-decoration-line:none;text-decoration-style:solid;text-indent:0;text-orientation:mixed;text-transform:none;white-space:normal"/>
    <path d="m0.52916664 7.9374995h56.620826v5.8208335h-56.620826z" fill="#202020" style="paint-order:stroke fill markers"/>
    <path d="m3.4395833 2.6458333c-1.0080071 0.7671125-1.089807 3.4035782-2.1166667 5.3181249h27.032977c-1.026861-1.9145467-1.10866-4.5510124-2.116668-5.3181249h-19.285129z" fill="url(#linearGradient2150-3)"/>
    <rect x=".52916664" y="7.9374995" width="56.620831" height="5.8208332" fill="url(#linearGradient2158)" style="paint-order:stroke fill markers"/>
    <rect x=".52916664" y="13.49375" width="56.620831" height=".26458332" fill="#676767" stroke-width=".999996" style="paint-order:stroke fill markers"/>
    <path transform="scale(.26458333)" d="m85 0 47.5 160h85.5v-160z" fill="url(#linearGradient2456)" style="paint-order:stroke fill markers"/>
    <path transform="scale(.26458333)" d="m87.820312 9.5 0.294922 0.996094h10.794922c1.658094 1.315026 2.726734 4.331975 3.750004 8.009765 1.03549 3.721744 2.09156 8.033901 4.07422 11.730469l0.14062 0.265625h108.625v126.99805h-83.74219l0.29492 0.99609h84.45118v-128.99804h-108.97852c-1.81695-3.489034-2.88058-7.599425-3.89844-11.257813-1.04179-3.744405-2.03126-7.025508-4.148434-8.6367184l-0.140625-0.1035156z" color="#000000" color-rendering="auto" dominant-baseline="auto" fill-opacity=".3" image-rendering="auto" shape-rendering="auto" solid-color="#000000" stop-color="#000000" style="font-feature-settings:normal;font-variant-alternates:normal;font-variant-caps:normal;font-variant-east-asian:normal;font-variant-ligatures:normal;font-variant-numeric:normal;font-variant-position:normal;font-variation-settings:normal;inline-size:0;isolation:auto;mix-blend-mode:normal;paint-order:stroke fill markers;shape-margin:0;shape-padding:0;text-decoration-color:#000000;text-decoration-line:none;text-decoration-style:solid;text-indent:0;text-orientation:mixed;text-transform:none;white-space:normal"/>
    <path transform="scale(.26458333)" d="m87.96875 10 43.9375 148h84.09375v-128h-108.82812c-3.88108-7.236082-4.19021-17.100677-8.000005-20z" color="#000000" color-rendering="auto" dominant-baseline="auto" fill="#202020" image-rendering="auto" shape-rendering="auto" solid-color="#000000" stop-color="#000000" style="font-feature-settings:normal;font-variant-alternates:normal;font-variant-caps:normal;font-variant-east-asian:normal;font-variant-ligatures:normal;font-variant-numeric:normal;font-variant-position:normal;font-variation-settings:normal;inline-size:0;isolation:auto;mix-blend-mode:normal;paint-order:stroke fill markers;shape-margin:0;shape-padding:0;text-decoration-color:#000000;text-decoration-line:none;text-decoration-style:solid;text-indent:0;text-orientation:mixed;text-transform:none;white-space:normal"/>
    <path transform="scale(.26458333)" d="m87.96875 10 6.037434 20.1h13.265626c-3.88105-7.236082-4.29014-17.200677-8.099935-20.1z" fill="url(#linearGradient2427)"/>
    <path transform="scale(.26458333)" d="m93.90625 30 6.53125 22h115.5625v-22z" fill="url(#linearGradient2429)" style="paint-order:stroke fill markers"/>
    <path transform="scale(.26458333)" d="m100.14062 51 0.29688 1h115.5625v-1z" fill="#292929" style="paint-order:stroke fill markers"/>
</svg>
