<svg width="218" height="160" version="1.1" viewBox="0 0 57.679166 42.333332" xmlns="http://www.w3.org/2000/svg">
    <defs>
        <linearGradient id="linearGradient2142" x2="0" y2="7.9375" gradientUnits="userSpaceOnUse">
            <stop stop-color="#e28383" offset="0"/>
            <stop stop-color="#da6262" offset="1"/>
        </linearGradient>
        <linearGradient id="linearGradient2456" x2="0" y2="7.9375" gradientTransform="scale(3.7795276)" gradientUnits="userSpaceOnUse">
            <stop stop-color="#47632c" offset="0"/>
            <stop stop-color="#324620" offset="1"/>
        </linearGradient>
        <linearGradient id="linearGradient2456-6" x2="0" y2="7.9375" gradientTransform="scale(3.7795276)" gradientUnits="userSpaceOnUse">
            <stop stop-color="#575757" offset="0"/>
            <stop stop-color="#424242" offset="1"/>
        </linearGradient>
        <linearGradient id="linearGradient2142-8" x2="0" y2="7.9375" gradientTransform="scale(3.7795276)" gradientUnits="userSpaceOnUse">
            <stop stop-color="#ae84e1" offset="0"/>
            <stop stop-color="#9863d9" offset="1"/>
        </linearGradient>
        <linearGradient id="linearGradient2158-6" x1=".52916664" x2=".52916664" y1="7.9374995" y2="13.758333" gradientUnits="userSpaceOnUse">
            <stop stop-color="#f9f9f9" offset="0"/>
            <stop stop-color="#e4e4e4" offset="1"/>
        </linearGradient>
        <linearGradient id="linearGradient2150-1" x1="1.3229166" x2="1.3229166" y1="2.6458333" y2="7.9375" gradientUnits="userSpaceOnUse">
            <stop stop-color="#fff" offset="0"/>
            <stop stop-color="#f9f9f9" offset="1"/>
        </linearGradient>
        <linearGradient id="linearGradient2427-7" x1="1.3229166" x2="1.3229166" y1="2.6458333" y2="7.9375" gradientTransform="scale(3.7795276)" gradientUnits="userSpaceOnUse">
            <stop stop-color="#414141" offset="0"/>
            <stop stop-color="#333" offset="1"/>
        </linearGradient>
        <linearGradient id="linearGradient2429" x1=".52916664" x2=".52916664" y1="7.9374995" y2="13.758333" gradientTransform="scale(3.7795276)" gradientUnits="userSpaceOnUse">
            <stop stop-color="#333" offset="0"/>
            <stop stop-color="#242424" offset="1"/>
        </linearGradient>
    </defs>
    <rect width="57.679165" height="42.333332" fill="url(#linearGradient2142)" style="paint-order:stroke fill markers"/>
    <g stroke-width="3.77953">
        <path transform="scale(.26458333)" d="m30.5 0 47.5 160h140v-160z" fill="url(#linearGradient2142-8)" style="paint-order:stroke fill markers"/>
        <g stroke-width="1">
            <path d="m3.3945316 2.5136723-0.035156 0.027344c-0.5601692 0.4262994-0.8220138 1.2944489-1.097657 2.2851563-0.26931 0.9679483-0.550517 2.0553754-1.03125 2.9785156h-0.83398396v34.13086h56.886717v-34.13086h-28.833984c-0.480735-0.9231402-0.761939-2.0105673-1.031248-2.9785156-0.275643-0.9907073-0.537488-1.8588569-1.097658-2.2851563l-0.03711-0.027344h-19.330076zm0.1132813 0.2636719h22.662109c0.438703 0.3479341 0.721451 1.1460586 0.992188 2.1191406 0.273974 0.9847112 0.553548 2.1254654 1.078124 3.1035156l0.03711 0.070312h28.740235v33.601563h-56.355469v-33.601562h0.74023496l0.03711-0.070312c0.524573-0.9780508 0.802198-2.1188052 1.0761718-3.1035162 0.2707386-0.973082 0.5534848-1.7712065 0.9921865-2.1191411z" color="#000000" color-rendering="auto" dominant-baseline="auto" fill-opacity=".3" image-rendering="auto" shape-rendering="auto" solid-color="#000000" stop-color="#000000" style="font-feature-settings:normal;font-variant-alternates:normal;font-variant-caps:normal;font-variant-east-asian:normal;font-variant-ligatures:normal;font-variant-numeric:normal;font-variant-position:normal;font-variation-settings:normal;inline-size:0;isolation:auto;mix-blend-mode:normal;paint-order:stroke fill markers;shape-margin:0;shape-padding:0;text-decoration-color:#000000;text-decoration-line:none;text-decoration-style:solid;text-indent:0;text-orientation:mixed;text-transform:none;white-space:normal"/>
            <path d="m3.4395835 2.6458337c-1.0080069 0.7671125-1.0898069 3.37712-2.1166669 5.2916666h-0.79374996v33.866667h56.620831v-33.866667h-28.794104c-1.026869-1.9145466-1.108659-4.5245541-2.116669-5.2916666h-19.285128z" color="#000000" color-rendering="auto" dominant-baseline="auto" fill="#fff" image-rendering="auto" shape-rendering="auto" solid-color="#000000" stop-color="#000000" style="font-feature-settings:normal;font-variant-alternates:normal;font-variant-caps:normal;font-variant-east-asian:normal;font-variant-ligatures:normal;font-variant-numeric:normal;font-variant-position:normal;font-variation-settings:normal;inline-size:0;isolation:auto;mix-blend-mode:normal;paint-order:stroke fill markers;shape-margin:0;shape-padding:0;text-decoration-color:#000000;text-decoration-line:none;text-decoration-style:solid;text-indent:0;text-orientation:mixed;text-transform:none;white-space:normal"/>
            <path d="m0.52916664 7.9374998h56.620825v5.8208332h-56.620825z" fill="#202020" style="paint-order:stroke fill markers"/>
            <path d="m3.4395835 2.6458337c-1.0080069 0.7671125-1.0898069 3.4035783-2.1166669 5.3181249h27.032977c-1.026861-1.9145466-1.108659-4.5510124-2.116668-5.3181249h-19.285129z" fill="url(#linearGradient2150-1)"/>
            <rect x=".52916664" y="7.9375" width="56.620827" height="5.8208332" fill="url(#linearGradient2158-6)" style="paint-order:stroke fill markers"/>
            <rect x=".52916664" y="13.49375" width="56.620827" height=".26458332" fill="#b6bac0" style="paint-order:stroke fill markers"/>
        </g>
    </g>
    <path transform="scale(.26458333)" d="m85 0 47.5 160h85.5v-160z" fill="url(#linearGradient2456)" style="paint-order:stroke fill markers"/>
    <path transform="scale(.26458333)" d="m139.5 0 47.5 160h31v-160z" fill="url(#linearGradient2456-6)" style="paint-order:stroke fill markers"/>
    <path d="m23.23579 2.513541 0.07803 0.26355h2.856156c0.438705 0.347934 0.721449 1.146168 0.992189 2.11925 0.273973 0.984712 0.553392 2.125637 1.077971 3.103687l0.03721 0.07028h28.740361v33.601565h-22.156788l0.07803 0.263549h22.344376v-34.130729h-28.8339c-0.480735-0.923141-0.762154-2.010681-1.031462-2.97863-0.275641-0.990707-0.537438-1.858832-1.097607-2.285132l-0.03721-0.02739z" color="#000000" color-rendering="auto" dominant-baseline="auto" fill-opacity=".3" image-rendering="auto" shape-rendering="auto" solid-color="#000000" stop-color="#000000" stroke-width=".264583" style="font-feature-settings:normal;font-variant-alternates:normal;font-variant-caps:normal;font-variant-east-asian:normal;font-variant-ligatures:normal;font-variant-numeric:normal;font-variant-position:normal;font-variation-settings:normal;inline-size:0;isolation:auto;mix-blend-mode:normal;paint-order:stroke fill markers;shape-margin:0;shape-padding:0;text-decoration-color:#000000;text-decoration-line:none;text-decoration-style:solid;text-indent:0;text-orientation:mixed;text-transform:none;white-space:normal"/>
    <path transform="scale(.26458333)" d="m87.96875 10 43.9375 148h84.09375v-128h-108.82812c-3.88108-7.236082-4.19021-17.100677-8.000005-20z" color="#000000" color-rendering="auto" dominant-baseline="auto" fill="#202020" image-rendering="auto" shape-rendering="auto" solid-color="#000000" stop-color="#000000" style="font-feature-settings:normal;font-variant-alternates:normal;font-variant-caps:normal;font-variant-east-asian:normal;font-variant-ligatures:normal;font-variant-numeric:normal;font-variant-position:normal;font-variation-settings:normal;inline-size:0;isolation:auto;mix-blend-mode:normal;paint-order:stroke fill markers;shape-margin:0;shape-padding:0;text-decoration-color:#000000;text-decoration-line:none;text-decoration-style:solid;text-indent:0;text-orientation:mixed;text-transform:none;white-space:normal"/>
    <path transform="scale(.26458333)" d="m87.96875 10 5.9375 20h13.26563c-3.88105-7.236082-4.19021-17.100677-8.000005-20z" fill="url(#linearGradient2427-7)"/>
    <path transform="scale(.26458333)" d="m93.90625 30 6.53125 22h115.5625v-22z" fill="url(#linearGradient2429)" style="paint-order:stroke fill markers"/>
    <path transform="scale(.26458333)" d="m100.14062 51 0.29688 1h115.5625v-1z" fill="#5b5b5b" style="paint-order:stroke fill markers"/>
</svg>
