<svg width="218" height="160" version="1.1" viewBox="0 0 57.679166 42.333332" xmlns="http://www.w3.org/2000/svg" xmlns:xlink="http://www.w3.org/1999/xlink">
    <defs>
        <linearGradient id="linearGradient2142" x2="0" y2="7.9375" gradientUnits="userSpaceOnUse">
            <stop stop-color="#e28383" offset="0"/>
            <stop stop-color="#da6262" offset="1"/>
        </linearGradient>
        <linearGradient id="linearGradient2427" x1="1.3229166" x2="1.3229166" y1="2.6458333" y2="7.9375" gradientTransform="scale(3.7795276)" gradientUnits="userSpaceOnUse">
            <stop stop-color="#2b3c1b" offset="0"/>
            <stop stop-color="#192310" offset="1"/>
        </linearGradient>
        <linearGradient id="linearGradient2456" x2="0" y2="7.9375" gradientTransform="scale(3.7795276)" gradientUnits="userSpaceOnUse">
            <stop stop-color="#47632c" offset="0"/>
            <stop stop-color="#324620" offset="1"/>
        </linearGradient>
        <linearGradient id="linearGradient2456-6" x2="0" y2="7.9375" gradientTransform="scale(3.7795276)" gradientUnits="userSpaceOnUse">
            <stop stop-color="#575757" offset="0"/>
            <stop stop-color="#424242" offset="1"/>
        </linearGradient>
        <linearGradient id="linearGradient993" x1=".52916664" x2=".52916664" y1="7.9374995" y2="13.758333" gradientTransform="scale(3.7795276)" gradientUnits="userSpaceOnUse">
            <stop stop-color="#292929" offset="0"/>
            <stop stop-color="#1f1f1f" offset="1"/>
        </linearGradient>
        <linearGradient id="linearGradient2142-8" x2="0" y2="7.9375" gradientTransform="scale(3.7795276)" gradientUnits="userSpaceOnUse">
            <stop stop-color="#ae84e1" offset="0"/>
            <stop stop-color="#9863d9" offset="1"/>
        </linearGradient>
        <linearGradient id="linearGradient1149" x1="1.3229166" x2="1.3229166" y1="2.6458333" y2="7.9375" gradientTransform="scale(3.7795276)" gradientUnits="userSpaceOnUse">
            <stop stop-color="#fff" offset="0"/>
            <stop stop-color="#fff" offset="1"/>
        </linearGradient>
        <linearGradient id="linearGradient1151" x1=".52916664" x2=".52916664" y1="7.9374995" y2="13.758333" gradientTransform="scale(3.7795276)" gradientUnits="userSpaceOnUse">
            <stop stop-color="#fff" offset="0"/>
            <stop stop-color="#faf7fd" offset=".5"/>
            <stop stop-color="#f1ebfa" offset="1"/>
        </linearGradient>
        <linearGradient id="linearGradient1809" x1=".52916664" x2=".52916664" y1="7.9374995" y2="13.758333" gradientUnits="userSpaceOnUse">
            <stop stop-color="#fff" offset="0"/>
            <stop stop-color="#fdf7f7" offset=".5"/>
            <stop stop-color="#faebeb" offset="1"/>
        </linearGradient>
        <linearGradient id="linearGradient1817" x1="1.3229166" x2="1.3229166" y1="2.6458333" y2="7.9375" gradientUnits="userSpaceOnUse">
            <stop stop-color="#fff" offset="0"/>
            <stop stop-color="#fff" offset="1"/>
        </linearGradient>
        <linearGradient id="linearGradient1831" x1=".52916664" x2=".52916664" y1="7.9374995" y2="13.758333" gradientTransform="scale(3.7795276)" gradientUnits="userSpaceOnUse">
            <stop stop-color="#192310" offset="0"/>
            <stop stop-color="#0f1509" offset="1"/>
        </linearGradient>
    </defs>
    <rect width="57.679165" height="42.333332" fill="url(#linearGradient2142)" style="paint-order:stroke fill markers"/>
    <path d="m3.3945312 2.5136719-0.0351562 0.0273437c-0.5601692 0.4262994-0.8220138 1.2944489-1.0976562 2.2851563-0.2693104 0.9679484-0.5505172 2.0553754-1.03125 2.9785156h-0.83398442v34.13086h56.886719v-34.13086h-28.833984c-0.480736-0.9231401-0.761941-2.0105673-1.03125-2.9785156-0.275642-0.9907073-0.537487-1.8588569-1.097657-2.2851563l-0.03711-0.027344h-19.330077zm0.1132813 0.2636719h22.66211c0.438703 0.3479341 0.721449 1.1460586 0.992187 2.1191406 0.273974 0.9847112 0.553548 2.1254653 1.078125 3.1035156l0.03711 0.070312h28.740234v33.601563h-56.355468v-33.601562h0.7402344l0.037109-0.070312c0.5245738-0.9780506 0.802198-2.118805 1.0761722-3.1035161 0.2707386-0.973082 0.5534847-1.7712065 0.9921874-2.1191411z" color="#000000" color-rendering="auto" dominant-baseline="auto" fill-opacity=".3" image-rendering="auto" shape-rendering="auto" solid-color="#000000" stop-color="#000000" style="font-feature-settings:normal;font-variant-alternates:normal;font-variant-caps:normal;font-variant-east-asian:normal;font-variant-ligatures:normal;font-variant-numeric:normal;font-variant-position:normal;font-variation-settings:normal;inline-size:0;isolation:auto;mix-blend-mode:normal;paint-order:stroke fill markers;shape-margin:0;shape-padding:0;text-decoration-color:#000000;text-decoration-line:none;text-decoration-style:solid;text-indent:0;text-orientation:mixed;text-transform:none;white-space:normal"/>
    <path d="m3.4395833 2.6458333c-1.0080071 0.7671125-1.0898069 3.3771199-2.1166667 5.2916666h-0.79374994v33.866666h56.620832v-33.866666h-28.794106c-1.026867-1.9145467-1.10866-4.5245541-2.116668-5.2916666h-19.285128z" color="#000000" color-rendering="auto" dominant-baseline="auto" fill="#fff" image-rendering="auto" shape-rendering="auto" solid-color="#000000" stop-color="#000000" style="font-feature-settings:normal;font-variant-alternates:normal;font-variant-caps:normal;font-variant-east-asian:normal;font-variant-ligatures:normal;font-variant-numeric:normal;font-variant-position:normal;font-variation-settings:normal;inline-size:0;isolation:auto;mix-blend-mode:normal;paint-order:stroke fill markers;shape-margin:0;shape-padding:0;text-decoration-color:#000000;text-decoration-line:none;text-decoration-style:solid;text-indent:0;text-orientation:mixed;text-transform:none;white-space:normal"/>
    <path d="m0.52916664 7.9374995h56.620826v5.8208335h-56.620826z" fill="#202020" style="paint-order:stroke fill markers"/>
    <g>
        <path d="m3.4395833 2.6458333c-1.0080071 0.7671125-1.089807 3.4035782-2.1166667 5.3181249h27.032977c-1.026861-1.9145467-1.10866-4.5510124-2.116668-5.3181249h-19.285129z" fill="url(#linearGradient1817)"/>
        <rect x=".52916664" y="7.9374995" width="56.620831" height="5.8208332" fill="url(#linearGradient1809)" style="paint-order:stroke fill markers"/>
        <rect x=".52916664" y="13.49375" width="56.620831" height=".26458332" fill="#c4c4c4" style="paint-order:stroke fill markers"/>
    </g>
    <g stroke-width="3.77953">
        <path transform="scale(.26458333)" d="m30.5 0 47.5 160h140v-160z" fill="url(#linearGradient2142-8)" style="paint-order:stroke fill markers"/>
        <path transform="scale(.26458333)" d="m33.320312 9.5 0.294922 0.996094h65.294922c1.658094 1.315026 2.726734 4.331975 3.750004 8.009765 1.03549 3.721744 2.09156 8.033901 4.07422 11.730469l0.14062 0.265625h108.625v126.99805h-138.24219l0.294922 0.99609h138.95118v-128.99804h-108.97852c-1.81695-3.489034-2.88058-7.599425-3.89844-11.257813-1.04179-3.744405-2.03126-7.025508-4.148434-8.6367184l-0.140625-0.1035156z" fill-opacity=".3" style="font-feature-settings:normal;font-variant-alternates:normal;font-variant-caps:normal;font-variant-east-asian:normal;font-variant-ligatures:normal;font-variant-numeric:normal;font-variant-position:normal;font-variation-settings:normal;inline-size:0;isolation:auto;mix-blend-mode:normal;paint-order:stroke fill markers;shape-margin:0;shape-padding:0;text-decoration-color:#000000;text-decoration-line:none;text-decoration-style:solid;text-indent:0;text-orientation:mixed;text-transform:none;white-space:normal"/>
        <path transform="scale(.26458333)" d="m33.46875 10 43.9375 148h138.59375v-128h-108.82812c-3.88108-7.236082-4.19021-17.100677-8.000005-20z" fill="#fff" style="font-feature-settings:normal;font-variant-alternates:normal;font-variant-caps:normal;font-variant-east-asian:normal;font-variant-ligatures:normal;font-variant-numeric:normal;font-variant-position:normal;font-variation-settings:normal;inline-size:0;isolation:auto;mix-blend-mode:normal;paint-order:stroke fill markers;shape-margin:0;shape-padding:0;text-decoration-color:#000000;text-decoration-line:none;text-decoration-style:solid;text-indent:0;text-orientation:mixed;text-transform:none;white-space:normal"/>
        <path transform="scale(.26458333)" d="m33.46875 10 5.966797 20.099609h67.736333c-3.88105-7.236082-4.19021-17.200286-8.000005-20.099609z" fill="url(#linearGradient1149)"/>
        <path transform="scale(.26458333)" d="m39.40625 30 6.53125 22h170.0625v-22z" fill="url(#linearGradient1151)" style="paint-order:stroke fill markers"/>
        <path transform="scale(.26458333)" d="m45.640625 51 0.296875 1h170.0625v-1z" fill="#c4c4c4" style="paint-order:stroke fill markers"/>
    </g>
    <rect x=".52916664" y="13.758333" width="33.203693" height="28.045832" fill="#fff" style="paint-order:stroke fill markers"/>
    <path transform="scale(.26458333)" d="m85 0 47.5 160h85.5v-160z" fill="url(#linearGradient2456)" style="paint-order:stroke fill markers"/>
    <path transform="scale(.26458333)" d="m87.820312 9.5 0.294922 0.996094h10.794922c1.658094 1.315026 2.726734 4.331975 3.750004 8.009765 1.03549 3.721744 2.09156 8.033901 4.07422 11.730469l0.14062 0.265625h108.625v126.99805h-83.74219l0.29492 0.99609h84.45118v-128.99804h-108.97852c-1.81695-3.489034-2.88058-7.599425-3.89844-11.257813-1.04179-3.744405-2.03126-7.025508-4.148434-8.6367184l-0.140625-0.1035156z" color="#000000" color-rendering="auto" dominant-baseline="auto" fill-opacity=".3" image-rendering="auto" shape-rendering="auto" solid-color="#000000" stop-color="#000000" style="font-feature-settings:normal;font-variant-alternates:normal;font-variant-caps:normal;font-variant-east-asian:normal;font-variant-ligatures:normal;font-variant-numeric:normal;font-variant-position:normal;font-variation-settings:normal;inline-size:0;isolation:auto;mix-blend-mode:normal;paint-order:stroke fill markers;shape-margin:0;shape-padding:0;text-decoration-color:#000000;text-decoration-line:none;text-decoration-style:solid;text-indent:0;text-orientation:mixed;text-transform:none;white-space:normal"/>
    <path transform="scale(.26458333)" d="m87.96875 10 43.9375 148h84.09375v-128h-108.82812c-3.88108-7.236082-4.19021-17.100677-8.000005-20z" color="#000000" color-rendering="auto" dominant-baseline="auto" fill="#202020" image-rendering="auto" shape-rendering="auto" solid-color="#000000" stop-color="#000000" style="font-feature-settings:normal;font-variant-alternates:normal;font-variant-caps:normal;font-variant-east-asian:normal;font-variant-ligatures:normal;font-variant-numeric:normal;font-variant-position:normal;font-variation-settings:normal;inline-size:0;isolation:auto;mix-blend-mode:normal;paint-order:stroke fill markers;shape-margin:0;shape-padding:0;text-decoration-color:#000000;text-decoration-line:none;text-decoration-style:solid;text-indent:0;text-orientation:mixed;text-transform:none;white-space:normal"/>
    <path transform="scale(.26458333)" d="m87.96875 10 5.9375 20h13.26563c-3.88105-7.236082-4.19021-17.100677-8.000005-20z" fill="url(#linearGradient2427)"/>
    <path transform="scale(.26458333)" d="m93.90625 30 6.53125 22h115.5625v-22z" fill="url(#linearGradient1831)" style="paint-order:stroke fill markers"/>
    <path transform="scale(.26458333)" d="m100.14062 51 0.29688 1h115.5625v-1z" fill="#5b5b5b" style="paint-order:stroke fill markers"/>
    <path transform="scale(.26458333)" d="m139.5 0 47.5 160h31v-160z" fill="url(#linearGradient2456-6)" style="paint-order:stroke fill markers"/>
    <path transform="scale(.26458333)" d="m148.25781 29.498047 0.29688 1.003906h66.94531v126.99805h-29.24219l0.29492 0.99609h29.95118v-128.99804z" fill-opacity=".3" style="font-feature-settings:normal;font-variant-alternates:normal;font-variant-caps:normal;font-variant-east-asian:normal;font-variant-ligatures:normal;font-variant-numeric:normal;font-variant-position:normal;font-variation-settings:normal;inline-size:0;isolation:auto;mix-blend-mode:normal;paint-order:stroke fill markers;shape-margin:0;shape-padding:0;text-decoration-color:#000000;text-decoration-line:none;text-decoration-style:solid;text-indent:0;text-orientation:mixed;text-transform:none;white-space:normal"/>
    <path transform="scale(.26458333)" d="m 148.40625,30 38,128 H 216 V 30 Z" fill="#202020" stroke-width=".999999" style="font-feature-settings:normal;font-variant-alternates:normal;font-variant-caps:normal;font-variant-east-asian:normal;font-variant-ligatures:normal;font-variant-numeric:normal;font-variant-position:normal;font-variation-settings:normal;inline-size:0;isolation:auto;mix-blend-mode:normal;paint-order:stroke fill markers;shape-margin:0;shape-padding:0;text-decoration-color:#000000;text-decoration-line:none;text-decoration-style:solid;text-indent:0;text-orientation:mixed;text-transform:none;white-space:normal"/>
    <path transform="scale(.26458333)" d="m148.40625 30 6.53125 22h61.0625v-22z" fill="url(#linearGradient993)" style="paint-order:stroke fill markers"/>
    <path transform="scale(.26458333)" d="m100.14062 51 0.29688 1h115.5625v-1z" fill="#5b5b5b" style="paint-order:stroke fill markers"/>
    <rect x="36.45599" y="13.758333" width="20.694006" height="28.04583" fill="#202020" style="paint-order:stroke fill markers"/>
</svg>
