<svg width="15" height="15" viewBox="0 0 15 15" fill="none" xmlns="http://www.w3.org/2000/svg">
	<path fill-rule="evenodd" clip-rule="evenodd"
		d="M0 2.5C0 1.11929 1.11929 0 2.5 0H6.37868C7.04172 0 7.67761 0.263391 8.14645 0.732233L9.26777 1.85355C9.36154 1.94732 9.48871 2 9.62132 2H12.5C13.8807 2 15 3.11929 15 4.5V12.5C15 13.8807 13.8807 15 12.5 15H2.5C1.11929 15 0 13.8807 0 12.5V2.5ZM2.5 2C2.22386 2 2 2.22386 2 2.5V12.5C2 12.7761 2.22386 13 2.5 13H12.5C12.7761 13 13 12.7761 13 12.5V4.5C13 4.22386 12.7761 4 12.5 4H9.62132C8.95828 4 8.32239 3.73661 7.85355 3.26777L6.73223 2.14645C6.63846 2.05268 6.51129 2 6.37868 2H2.5Z"
		fill="context-fill" />
	<path
		d="M6.58838 4.04007C6.54134 3.88264 6.40629 3.77597 6.25383 3.77582C6.10138 3.77566 5.96615 3.88206 5.91884 4.03939L4.88563 7.47518H1.55718C1.4047 7.47518 1.26956 7.58174 1.2224 7.73914C1.17523 7.89654 1.22677 8.06901 1.35007 8.16639L4.03732 10.2886L3.01072 13.7241C2.96368 13.8816 3.01532 14.054 3.13865 14.1512C3.26198 14.2485 3.42898 14.2486 3.55236 14.1514L6.24646 12.0289L8.94057 14.1514C9.06395 14.2486 9.23095 14.2485 9.35428 14.1512C9.47761 14.054 9.52925 13.8816 9.48221 13.7241L8.45571 10.2889L11.1496 8.16665C11.273 8.06938 11.3247 7.89686 11.2776 7.73935C11.2305 7.58184 11.0953 7.47518 10.9428 7.47518H7.61485L6.58838 4.04007Z"
		fill="url(#paint0_radial_250_39)" />
	<path
		d="M6.25457 4.1465L7.36 7.84586H10.9439L8.04298 10.1312L9.14841 13.8306L6.24753 11.5452L3.34665 13.8306L4.45209 10.1312L1.55825 7.84586H5.1421L6.24753 4.1465M6.25457 3C5.79691 3 5.38853 3.32102 5.24771 3.7949L4.37463 6.70701H1.55825C1.10059 6.70701 0.692209 7.02803 0.55139 7.50191C0.410571 7.9758 0.565472 8.49554 0.938643 8.78599L3.21992 10.5822L2.34684 13.4943C2.20602 13.9682 2.36092 14.4879 2.73409 14.7783C2.91715 14.9236 3.13542 15 3.35369 15C3.57196 15 3.79023 14.9236 3.9733 14.7783L6.25457 12.9822L8.53585 14.7783C8.71891 14.9236 8.93718 15 9.15545 15C9.37372 15 9.59199 14.9236 9.77506 14.7783C10.1482 14.4879 10.3031 13.9682 10.1553 13.4943L9.28219 10.5822L11.5353 8.80127C11.8169 8.5949 12 8.25096 12 7.8535C12 7.21911 11.5283 6.70701 10.9439 6.70701H8.12043L7.24735 3.7949C7.11357 3.32102 6.71224 3 6.25457 3Z"
		fill="context-fill" />
	<path fill-rule="evenodd" clip-rule="evenodd"
		d="M0 2.5C0 1.11929 1.11929 0 2.5 0H6.37868C7.04172 0 7.67761 0.263391 8.14645 0.732233L9.26777 1.85355C9.36154 1.94732 9.48871 2 9.62132 2H12.5C13.8807 2 15 3.11929 15 4.5V12.5C15 13.8807 13.8807 15 12.5 15H2.5C1.11929 15 0 13.8807 0 12.5V2.5ZM2.5 2C2.22386 2 2 2.22386 2 2.5V12.5C2 12.7761 2.22386 13 2.5 13H12.5C12.7761 13 13 12.7761 13 12.5V4.5C13 4.22386 12.7761 4 12.5 4H9.62132C8.95828 4 8.32239 3.73661 7.85355 3.26777L6.73223 2.14645C6.63846 2.05268 6.51129 2 6.37868 2H2.5Z"
		fill="url(#paint1_linear_250_39)" />
	<path
		d="M6.25457 4.1465L7.36 7.84586H10.9439L8.04298 10.1312L9.14841 13.8306L6.24753 11.5452L3.34665 13.8306L4.45209 10.1312L1.55825 7.84586H5.1421L6.24753 4.1465M6.25457 3C5.79691 3 5.38853 3.32102 5.24771 3.7949L4.37463 6.70701H1.55825C1.10059 6.70701 0.692209 7.02803 0.55139 7.50191C0.410571 7.9758 0.565472 8.49554 0.938643 8.78599L3.21992 10.5822L2.34684 13.4943C2.20602 13.9682 2.36092 14.4879 2.73409 14.7783C2.91715 14.9236 3.13542 15 3.35369 15C3.57196 15 3.79023 14.9236 3.9733 14.7783L6.25457 12.9822L8.53585 14.7783C8.71891 14.9236 8.93718 15 9.15545 15C9.37372 15 9.59199 14.9236 9.77506 14.7783C10.1482 14.4879 10.3031 13.9682 10.1553 13.4943L9.28219 10.5822L11.5353 8.80127C11.8169 8.5949 12 8.25096 12 7.8535C12 7.21911 11.5283 6.70701 10.9439 6.70701H8.12043L7.24735 3.7949C7.11357 3.32102 6.71224 3 6.25457 3Z"
		fill="url(#paint2_linear_250_39)" />
	<g filter="url(#filter0_i_250_39)">
		<path fill-rule="evenodd" clip-rule="evenodd"
			d="M0 2.5C0 1.11929 1.11929 0 2.5 0H6.37868C7.04172 0 7.67761 0.263391 8.14645 0.732233L9.26777 1.85355C9.36154 1.94732 9.48871 2 9.62132 2H12.5C13.8807 2 15 3.11929 15 4.5V12.5C15 13.8807 13.8807 15 12.5 15H2.5C1.11929 15 0 13.8807 0 12.5V2.5ZM2.5 2C2.22386 2 2 2.22386 2 2.5V12.5C2 12.7761 2.22386 13 2.5 13H12.5C12.7761 13 13 12.7761 13 12.5V4.5C13 4.22386 12.7761 4 12.5 4H9.62132C8.95828 4 8.32239 3.73661 7.85355 3.26777L6.73223 2.14645C6.63846 2.05268 6.51129 2 6.37868 2H2.5Z"
			fill="white" fill-opacity="0.01" />
	</g>
	<g filter="url(#filter1_i_250_39)">
		<path
			d="M6.25457 4.1465L7.36 7.84586H10.9439L8.04298 10.1312L9.14841 13.8306L6.24753 11.5452L3.34665 13.8306L4.45209 10.1312L1.55825 7.84586H5.1421L6.24753 4.1465M6.25457 3C5.79691 3 5.38853 3.32102 5.24771 3.7949L4.37463 6.70701H1.55825C1.10059 6.70701 0.692209 7.02803 0.55139 7.50191C0.410571 7.9758 0.565472 8.49554 0.938643 8.78599L3.21992 10.5822L2.34684 13.4943C2.20602 13.9682 2.36092 14.4879 2.73409 14.7783C2.91715 14.9236 3.13542 15 3.35369 15C3.57196 15 3.79023 14.9236 3.9733 14.7783L6.25457 12.9822L8.53585 14.7783C8.71891 14.9236 8.93718 15 9.15545 15C9.37372 15 9.59199 14.9236 9.77506 14.7783C10.1482 14.4879 10.3031 13.9682 10.1553 13.4943L9.28219 10.5822L11.5353 8.80127C11.8169 8.5949 12 8.25096 12 7.8535C12 7.21911 11.5283 6.70701 10.9439 6.70701H8.12043L7.24735 3.7949C7.11357 3.32102 6.71224 3 6.25457 3Z"
			fill="white" fill-opacity="0.01" />
	</g>
	<defs>
		<filter id="filter0_i_250_39" x="0" y="0" width="16" height="16"
			filterUnits="userSpaceOnUse" color-interpolation-filters="sRGB">
			<feFlood flood-opacity="0" result="BackgroundImageFix" />
			<feBlend mode="normal" in="SourceGraphic" in2="BackgroundImageFix" result="shape" />
			<feColorMatrix in="SourceAlpha" type="matrix"
				values="0 0 0 0 0 0 0 0 0 0 0 0 0 0 0 0 0 0 127 0" result="hardAlpha" />
			<feOffset dx="1" dy="1" />
			<feGaussianBlur stdDeviation="0.75" />
			<feComposite in2="hardAlpha" operator="arithmetic" k2="-1" k3="1" />
			<feColorMatrix type="matrix" values="0 0 0 0 0 0 0 0 0 0 0 0 0 0 0 0 0 0 0.15 0" />
			<feBlend mode="normal" in2="shape" result="effect1_innerShadow_250_39" />
		</filter>
		<filter id="filter1_i_250_39" x="0.5" y="3" width="12.5" height="13"
			filterUnits="userSpaceOnUse" color-interpolation-filters="sRGB">
			<feFlood flood-opacity="0" result="BackgroundImageFix" />
			<feBlend mode="normal" in="SourceGraphic" in2="BackgroundImageFix" result="shape" />
			<feColorMatrix in="SourceAlpha" type="matrix"
				values="0 0 0 0 0 0 0 0 0 0 0 0 0 0 0 0 0 0 127 0" result="hardAlpha" />
			<feOffset dx="1" dy="1" />
			<feGaussianBlur stdDeviation="0.75" />
			<feComposite in2="hardAlpha" operator="arithmetic" k2="-1" k3="1" />
			<feColorMatrix type="matrix" values="0 0 0 0 0 0 0 0 0 0 0 0 0 0 0 0 0 0 0.15 0" />
			<feBlend mode="normal" in2="shape" result="effect1_innerShadow_250_39" />
		</filter>
		<radialGradient id="paint0_radial_250_39" cx="0" cy="0" r="1" gradientUnits="userSpaceOnUse"
			gradientTransform="translate(6 8) rotate(63.4349) scale(4.47214 4.31862)">
			<stop stop-color="#FFED77" />
			<stop offset="0.196373" stop-color="#FFEC77" />
			<stop offset="0.536808" stop-color="#FFDC3A" />
			<stop offset="1" stop-color="#FDD019" />
		</radialGradient>
		<linearGradient id="paint1_linear_250_39" x1="6.99428" y1="0.581395" x2="6.99428"
			y2="14.5349" gradientUnits="userSpaceOnUse">
			<stop stop-opacity="0" />
			<stop offset="0.5" stop-opacity="0" />
			<stop offset="1" stop-opacity="0.2" />
		</linearGradient>
		<linearGradient id="paint2_linear_250_39" x1="6.24589" y1="3.46512" x2="6.24589"
			y2="14.6279" gradientUnits="userSpaceOnUse">
			<stop stop-opacity="0" />
			<stop offset="0.5" stop-opacity="0" />
			<stop offset="1" stop-opacity="0.2" />
		</linearGradient>
	</defs>
</svg>