<svg width="15" height="15" viewBox="0 0 15 15" fill="none" xmlns="http://www.w3.org/2000/svg">
	<path fill-rule="evenodd" clip-rule="evenodd"
		d="M0 2.5C0 1.11929 1.11929 0 2.5 0H6.37868C7.04172 0 7.67761 0.263391 8.14645 0.732233L9.26777 1.85355C9.36154 1.94732 9.48871 2 9.62132 2H12.5C13.8807 2 15 3.11929 15 4.5V12.5C15 13.8807 13.8807 15 12.5 15H2.5C1.11929 15 0 13.8807 0 12.5V2.5ZM2.5 2C2.22386 2 2 2.22386 2 2.5V12.5C2 12.7761 2.22386 13 2.5 13H12.5C12.7761 13 13 12.7761 13 12.5V4.5C13 4.22386 12.7761 4 12.5 4H9.62132C8.95828 4 8.3224 3.73661 7.85355 3.26777L6.73223 2.14645C6.63847 2.05268 6.51129 2 6.37868 2H2.5Z"
		fill="context-fill" />
	<path fill-rule="evenodd" clip-rule="evenodd"
		d="M0 2.5C0 1.11929 1.11929 0 2.5 0H6.37868C7.04172 0 7.67761 0.263391 8.14645 0.732233L9.26777 1.85355C9.36154 1.94732 9.48871 2 9.62132 2H12.5C13.8807 2 15 3.11929 15 4.5V12.5C15 13.8807 13.8807 15 12.5 15H2.5C1.11929 15 0 13.8807 0 12.5V2.5ZM2.5 2C2.22386 2 2 2.22386 2 2.5V12.5C2 12.7761 2.22386 13 2.5 13H12.5C12.7761 13 13 12.7761 13 12.5V4.5C13 4.22386 12.7761 4 12.5 4H9.62132C8.95828 4 8.3224 3.73661 7.85355 3.26777L6.73223 2.14645C6.63847 2.05268 6.51129 2 6.37868 2H2.5Z"
		fill="url(#paint0_linear_321_308)" />
	<g filter="url(#filter0_i_321_308)">
		<path fill-rule="evenodd" clip-rule="evenodd"
			d="M0 2.5C0 1.11929 1.11929 0 2.5 0H6.37868C7.04172 0 7.67761 0.263391 8.14645 0.732233L9.26777 1.85355C9.36154 1.94732 9.48871 2 9.62132 2H12.5C13.8807 2 15 3.11929 15 4.5V12.5C15 13.8807 13.8807 15 12.5 15H2.5C1.11929 15 0 13.8807 0 12.5V2.5ZM2.5 2C2.22386 2 2 2.22386 2 2.5V12.5C2 12.7761 2.22386 13 2.5 13H12.5C12.7761 13 13 12.7761 13 12.5V4.5C13 4.22386 12.7761 4 12.5 4H9.62132C8.95828 4 8.32239 3.73661 7.85355 3.26777L6.73223 2.14645C6.63847 2.05268 6.51129 2 6.37868 2H2.5Z"
			fill="white" fill-opacity="0.01" />
	</g>
	<path
		d="M7.62777 3.98311C7.58687 3.85701 7.46944 3.77156 7.33687 3.77144C7.20429 3.77132 7.08671 3.85654 7.04557 3.98257L6.14712 6.73477H3.25282C3.12023 6.73477 3.00272 6.82012 2.9617 6.94621C2.92069 7.07229 2.96551 7.21045 3.07273 7.28845L5.40946 8.98841L4.51676 11.7404C4.47586 11.8665 4.52077 12.0046 4.62801 12.0825C4.73526 12.1605 4.88047 12.1605 4.98776 12.0826L7.33046 10.3825L9.67315 12.0826C9.78044 12.1605 9.92566 12.1605 10.0329 12.0825C10.1402 12.0046 10.1851 11.8665 10.1442 11.7404L9.25154 8.98866L11.594 7.28865C11.7014 7.21074 11.7463 7.07255 11.7054 6.94637C11.6644 6.8202 11.5469 6.73477 11.4142 6.73477H8.52036L7.62777 3.98311Z"
		fill="url(#paint1_radial_321_308)" />
	<path
		d="M7.33747 4.06838L8.29872 7.03171H11.4151L8.89261 8.86236L9.85385 11.8257L7.33135 9.99504L4.80885 11.8257L5.77009 8.86236L3.25371 7.03171H6.3701L7.33135 4.06838M7.33747 3.14999C6.93951 3.14999 6.58439 3.40714 6.46194 3.78674L5.70274 6.11944H3.25371C2.85574 6.11944 2.50063 6.37659 2.37818 6.75619C2.25573 7.13579 2.39043 7.55213 2.71493 7.78479L4.69864 9.22359L3.93944 11.5563C3.81699 11.9359 3.95169 12.3522 4.27618 12.5849C4.43537 12.7012 4.62517 12.7624 4.81497 12.7624C5.00477 12.7624 5.19457 12.7012 5.35376 12.5849L7.33747 11.1461L9.32119 12.5849C9.48037 12.7012 9.67018 12.7624 9.85997 12.7624C10.0498 12.7624 10.2396 12.7012 10.3988 12.5849C10.7233 12.3522 10.858 11.9359 10.7294 11.5563L9.97018 9.22359L11.9294 7.79703C12.1743 7.63172 12.3335 7.3562 12.3335 7.03783C12.3335 6.52966 11.9233 6.11944 11.4151 6.11944H8.95996L8.20076 3.78674C8.08443 3.40714 7.73544 3.14999 7.33747 3.14999Z"
		fill="context-fill" />
	<path
		d="M7.33747 4.06838L8.29872 7.03171H11.4151L8.89261 8.86236L9.85385 11.8257L7.33135 9.99504L4.80885 11.8257L5.77009 8.86236L3.25371 7.03171H6.3701L7.33135 4.06838M7.33747 3.14999C6.93951 3.14999 6.58439 3.40714 6.46194 3.78674L5.70274 6.11944H3.25371C2.85574 6.11944 2.50063 6.37659 2.37818 6.75619C2.25573 7.13579 2.39043 7.55213 2.71493 7.78479L4.69864 9.22359L3.93944 11.5563C3.81699 11.9359 3.95169 12.3522 4.27618 12.5849C4.43537 12.7012 4.62517 12.7624 4.81497 12.7624C5.00477 12.7624 5.19457 12.7012 5.35376 12.5849L7.33747 11.1461L9.32119 12.5849C9.48037 12.7012 9.67018 12.7624 9.85997 12.7624C10.0498 12.7624 10.2396 12.7012 10.3988 12.5849C10.7233 12.3522 10.858 11.9359 10.7294 11.5563L9.97018 9.22359L11.9294 7.79703C12.1743 7.63172 12.3335 7.3562 12.3335 7.03783C12.3335 6.52966 11.9233 6.11944 11.4151 6.11944H8.95996L8.20076 3.78674C8.08443 3.40714 7.73544 3.14999 7.33747 3.14999Z"
		fill="url(#paint2_linear_321_308)" />
	<g filter="url(#filter1_i_321_308)">
		<path
			d="M7.33747 4.06838L8.29872 7.03171H11.4151L8.89261 8.86236L9.85385 11.8257L7.33135 9.99504L4.80885 11.8257L5.77009 8.86236L3.25371 7.03171H6.3701L7.33135 4.06838M7.33747 3.14999C6.9395 3.14999 6.58439 3.40714 6.46194 3.78674L5.70274 6.11944H3.25371C2.85574 6.11944 2.50063 6.37659 2.37818 6.75619C2.25573 7.13579 2.39043 7.55213 2.71493 7.78479L4.69864 9.22359L3.93944 11.5563C3.81699 11.9359 3.95169 12.3522 4.27618 12.5849C4.43537 12.7012 4.62517 12.7624 4.81497 12.7624C5.00477 12.7624 5.19457 12.7012 5.35376 12.5849L7.33747 11.1461L9.32119 12.5849C9.48038 12.7012 9.67018 12.7624 9.85997 12.7624C10.0498 12.7624 10.2396 12.7012 10.3988 12.5849C10.7233 12.3522 10.858 11.9359 10.7294 11.5563L9.97018 9.22359L11.9294 7.79703C12.1743 7.63172 12.3335 7.35621 12.3335 7.03783C12.3335 6.52966 11.9233 6.11944 11.4151 6.11944H8.95996L8.20076 3.78674C8.08443 3.40714 7.73544 3.14999 7.33747 3.14999Z"
			fill="white" fill-opacity="0.01" />
	</g>
	<defs>
		<filter id="filter0_i_321_308" x="0" y="0" width="15" height="16"
			filterUnits="userSpaceOnUse" color-interpolation-filters="sRGB">
			<feFlood flood-opacity="0" result="BackgroundImageFix" />
			<feBlend mode="normal" in="SourceGraphic" in2="BackgroundImageFix" result="shape" />
			<feColorMatrix in="SourceAlpha" type="matrix"
				values="0 0 0 0 0 0 0 0 0 0 0 0 0 0 0 0 0 0 127 0" result="hardAlpha" />
			<feOffset dy="1" />
			<feGaussianBlur stdDeviation="0.75" />
			<feComposite in2="hardAlpha" operator="arithmetic" k2="-1" k3="1" />
			<feColorMatrix type="matrix" values="0 0 0 0 0 0 0 0 0 0 0 0 0 0 0 0 0 0 0.25 0" />
			<feBlend mode="normal" in2="shape" result="effect1_innerShadow_321_308" />
		</filter>
		<filter id="filter1_i_321_308" x="2.3335" y="3.14999" width="10" height="10.6124"
			filterUnits="userSpaceOnUse" color-interpolation-filters="sRGB">
			<feFlood flood-opacity="0" result="BackgroundImageFix" />
			<feBlend mode="normal" in="SourceGraphic" in2="BackgroundImageFix" result="shape" />
			<feColorMatrix in="SourceAlpha" type="matrix"
				values="0 0 0 0 0 0 0 0 0 0 0 0 0 0 0 0 0 0 127 0" result="hardAlpha" />
			<feOffset dy="1" />
			<feGaussianBlur stdDeviation="0.75" />
			<feComposite in2="hardAlpha" operator="arithmetic" k2="-1" k3="1" />
			<feColorMatrix type="matrix" values="0 0 0 0 0 0 0 0 0 0 0 0 0 0 0 0 0 0 0.25 0" />
			<feBlend mode="normal" in2="shape" result="effect1_innerShadow_321_308" />
		</filter>
		<linearGradient id="paint0_linear_321_308" x1="7.49464" y1="0.581395" x2="7.49464"
			y2="14.5349" gradientUnits="userSpaceOnUse">
			<stop stop-opacity="0" />
			<stop offset="0.5" stop-opacity="0" />
			<stop offset="1" stop-opacity="0.12" />
		</linearGradient>
		<radialGradient id="paint1_radial_321_308" cx="0" cy="0" r="1"
			gradientUnits="userSpaceOnUse"
			gradientTransform="translate(7.23158 6.82353) rotate(90) scale(4.59193 4.81366)">
			<stop stop-color="#FFED77" />
			<stop offset="0.137564" stop-color="#FFEC77" />
			<stop offset="0.536808" stop-color="#FFDC3A" />
			<stop offset="1" stop-color="#FDD019" />
		</radialGradient>
		<linearGradient id="paint2_linear_321_308" x1="7.32992" y1="3.52257" x2="7.32992"
			y2="12.4644" gradientUnits="userSpaceOnUse">
			<stop stop-opacity="0" />
			<stop offset="0.5" stop-opacity="0" />
			<stop offset="1" stop-opacity="0.12" />
		</linearGradient>
	</defs>
</svg>