<svg width="10" height="9" viewBox="0 0 10 9" fill="none" xmlns="http://www.w3.org/2000/svg">
	<path
		d="M2.20711 0.792893C1.81658 0.402369 1.18342 0.402369 0.792893 0.792893C0.402369 1.18342 0.402369 1.81658 0.792893 2.20711L3.08579 4.5L0.792893 6.79289C0.402369 7.18342 0.402369 7.81658 0.792893 8.20711C1.18342 8.59763 1.81658 8.59763 2.20711 8.20711L5.20711 5.20711C5.59763 4.81658 5.59763 4.18342 5.20711 3.79289L2.20711 0.792893Z"
		fill="context-fill" />
	<path
		d="M6.20711 0.792893C5.81658 0.402369 5.18342 0.402369 4.79289 0.792893C4.40237 1.18342 4.40237 1.81658 4.79289 2.20711L7.08579 4.5L4.79289 6.79289C4.40237 7.18342 4.40237 7.81658 4.79289 8.20711C5.18342 8.59763 5.81658 8.59763 6.20711 8.20711L9.20711 5.20711C9.59763 4.81658 9.59763 4.18342 9.20711 3.79289L6.20711 0.792893Z"
		fill="context-fill" />
	<path
		d="M2.20711 0.792893C1.81658 0.402369 1.18342 0.402369 0.792893 0.792893C0.402369 1.18342 0.402369 1.81658 0.792893 2.20711L3.08579 4.5L0.792893 6.79289C0.402369 7.18342 0.402369 7.81658 0.792893 8.20711C1.18342 8.59763 1.81658 8.59763 2.20711 8.20711L5.20711 5.20711C5.59763 4.81658 5.59763 4.18342 5.20711 3.79289L2.20711 0.792893Z"
		fill="url(#paint0_linear_200_56)" />
	<path
		d="M6.20711 0.792893C5.81658 0.402369 5.18342 0.402369 4.79289 0.792893C4.40237 1.18342 4.40237 1.81658 4.79289 2.20711L7.08579 4.5L4.79289 6.79289C4.40237 7.18342 4.40237 7.81658 4.79289 8.20711C5.18342 8.59763 5.81658 8.59763 6.20711 8.20711L9.20711 5.20711C9.59763 4.81658 9.59763 4.18342 9.20711 3.79289L6.20711 0.792893Z"
		fill="url(#paint1_linear_200_56)" />
	<g filter="url(#filter0_i_200_56)">
		<path
			d="M2.20711 0.792893C1.81658 0.402369 1.18342 0.402369 0.792893 0.792893C0.402369 1.18342 0.402369 1.81658 0.792893 2.20711L3.08579 4.5L0.792893 6.79289C0.402369 7.18342 0.402369 7.81658 0.792893 8.20711C1.18342 8.59763 1.81658 8.59763 2.20711 8.20711L5.20711 5.20711C5.59763 4.81658 5.59763 4.18342 5.20711 3.79289L2.20711 0.792893Z"
			fill="white" fill-opacity="0.01" />
	</g>
	<g filter="url(#filter1_i_200_56)">
		<path
			d="M6.20711 0.792893C5.81658 0.402369 5.18342 0.402369 4.79289 0.792893C4.40237 1.18342 4.40237 1.81658 4.79289 2.20711L7.08579 4.5L4.79289 6.79289C4.40237 7.18342 4.40237 7.81658 4.79289 8.20711C5.18342 8.59763 5.81658 8.59763 6.20711 8.20711L9.20711 5.20711C9.59763 4.81658 9.59763 4.18342 9.20711 3.79289L6.20711 0.792893Z"
			fill="white" fill-opacity="0.01" />
	</g>
	<defs>
		<filter id="filter0_i_200_56" x="0.5" y="0.5" width="6" height="9"
			filterUnits="userSpaceOnUse" color-interpolation-filters="sRGB">
			<feFlood flood-opacity="0" result="BackgroundImageFix" />
			<feBlend mode="normal" in="SourceGraphic" in2="BackgroundImageFix" result="shape" />
			<feColorMatrix in="SourceAlpha" type="matrix"
				values="0 0 0 0 0 0 0 0 0 0 0 0 0 0 0 0 0 0 127 0" result="hardAlpha" />
			<feOffset dx="1" dy="1" />
			<feGaussianBlur stdDeviation="0.75" />
			<feComposite in2="hardAlpha" operator="arithmetic" k2="-1" k3="1" />
			<feColorMatrix type="matrix" values="0 0 0 0 0 0 0 0 0 0 0 0 0 0 0 0 0 0 0.15 0" />
			<feBlend mode="normal" in2="shape" result="effect1_innerShadow_200_56" />
		</filter>
		<filter id="filter1_i_200_56" x="4.5" y="0.5" width="6" height="9"
			filterUnits="userSpaceOnUse" color-interpolation-filters="sRGB">
			<feFlood flood-opacity="0" result="BackgroundImageFix" />
			<feBlend mode="normal" in="SourceGraphic" in2="BackgroundImageFix" result="shape" />
			<feColorMatrix in="SourceAlpha" type="matrix"
				values="0 0 0 0 0 0 0 0 0 0 0 0 0 0 0 0 0 0 127 0" result="hardAlpha" />
			<feOffset dx="1" dy="1" />
			<feGaussianBlur stdDeviation="0.75" />
			<feComposite in2="hardAlpha" operator="arithmetic" k2="-1" k3="1" />
			<feColorMatrix type="matrix" values="0 0 0 0 0 0 0 0 0 0 0 0 0 0 0 0 0 0 0.15 0" />
			<feBlend mode="normal" in2="shape" result="effect1_innerShadow_200_56" />
		</filter>
		<linearGradient id="paint0_linear_200_56" x1="4.14221" y1="0.810078" x2="4.14221"
			y2="8.25194" gradientUnits="userSpaceOnUse">
			<stop stop-opacity="0" />
			<stop offset="0.5" stop-opacity="0" />
			<stop offset="1" stop-opacity="0.2" />
		</linearGradient>
		<linearGradient id="paint1_linear_200_56" x1="8.14221" y1="0.810078" x2="8.14221"
			y2="8.25194" gradientUnits="userSpaceOnUse">
			<stop stop-opacity="0" />
			<stop offset="0.5" stop-opacity="0" />
			<stop offset="1" stop-opacity="0.2" />
		</linearGradient>
	</defs>
</svg>