<svg width="17" height="16" viewBox="0 0 17 16" fill="none" xmlns="http://www.w3.org/2000/svg">
	<path
		d="M8.98061 1.51073C8.9138 1.30477 8.72201 1.16521 8.50548 1.16501C8.28895 1.16481 8.09689 1.304 8.0297 1.50984L6.56227 6.00501H1.83501C1.61845 6.00501 1.42651 6.14442 1.35953 6.35035C1.29255 6.55629 1.36575 6.78194 1.54087 6.90933L5.35745 9.68587L3.89941 14.1807C3.8326 14.3867 3.90594 14.6122 4.08111 14.7395C4.25627 14.8668 4.49345 14.8668 4.66869 14.7397L8.49501 11.9628L12.3213 14.7397C12.4966 14.8668 12.7337 14.8668 12.9089 14.7395C13.0841 14.6122 13.1574 14.3867 13.0906 14.1807L11.6327 9.68629L15.4587 6.90967C15.634 6.78242 15.7075 6.5567 15.6406 6.35063C15.5737 6.14455 15.3817 6.00501 15.165 6.00501H10.4385L8.98061 1.51073Z"
		fill="url(#paint0_radial_321_265)" />
	<path
		d="M8.5065 1.64999L10.0765 6.48999H15.1665L11.0465 9.47999L12.6165 14.32L8.4965 11.33L4.3765 14.32L5.9465 9.47999L1.8365 6.48999H6.9265L8.4965 1.64999M8.5065 0.149994C7.8565 0.149994 7.2765 0.569994 7.0765 1.18999L5.8365 4.99999H1.8365C1.1865 4.99999 0.606499 5.41999 0.406499 6.03999C0.206499 6.65999 0.426499 7.33999 0.956499 7.71999L4.1965 10.07L2.9565 13.88C2.7565 14.5 2.9765 15.18 3.5065 15.56C3.7665 15.75 4.0765 15.85 4.3865 15.85C4.6965 15.85 5.0065 15.75 5.2665 15.56L8.5065 13.21L11.7465 15.56C12.0065 15.75 12.3165 15.85 12.6265 15.85C12.9365 15.85 13.2465 15.75 13.5065 15.56C14.0365 15.18 14.2565 14.5 14.0465 13.88L12.8065 10.07L16.0065 7.73999C16.4065 7.46999 16.6665 7.01999 16.6665 6.49999C16.6665 5.66999 15.9965 4.99999 15.1665 4.99999H11.1565L9.9165 1.18999C9.7265 0.569994 9.1565 0.149994 8.5065 0.149994Z"
		fill="context-fill" />
	<path
		d="M8.5065 1.64999L10.0765 6.48999H15.1665L11.0465 9.47999L12.6165 14.32L8.4965 11.33L4.3765 14.32L5.9465 9.47999L1.8365 6.48999H6.9265L8.4965 1.64999M8.5065 0.149994C7.8565 0.149994 7.2765 0.569994 7.0765 1.18999L5.8365 4.99999H1.8365C1.1865 4.99999 0.606499 5.41999 0.406499 6.03999C0.206499 6.65999 0.426499 7.33999 0.956499 7.71999L4.1965 10.07L2.9565 13.88C2.7565 14.5 2.9765 15.18 3.5065 15.56C3.7665 15.75 4.0765 15.85 4.3865 15.85C4.6965 15.85 5.0065 15.75 5.2665 15.56L8.5065 13.21L11.7465 15.56C12.0065 15.75 12.3165 15.85 12.6265 15.85C12.9365 15.85 13.2465 15.75 13.5065 15.56C14.0365 15.18 14.2565 14.5 14.0465 13.88L12.8065 10.07L16.0065 7.73999C16.4065 7.46999 16.6665 7.01999 16.6665 6.49999C16.6665 5.66999 15.9965 4.99999 15.1665 4.99999H11.1565L9.9165 1.18999C9.7265 0.569994 9.1565 0.149994 8.5065 0.149994Z"
		fill="url(#paint1_linear_321_265)" />
	<g filter="url(#filter0_i_321_265)">
		<path
			d="M8.5065 1.64999L10.0765 6.48999H15.1665L11.0465 9.47999L12.6165 14.32L8.4965 11.33L4.3765 14.32L5.9465 9.47999L1.8365 6.48999H6.9265L8.4965 1.64999M8.5065 0.149994C7.8565 0.149994 7.2765 0.569994 7.0765 1.18999L5.8365 4.99999H1.8365C1.1865 4.99999 0.606499 5.41999 0.406499 6.03999C0.206499 6.65999 0.426499 7.33999 0.956499 7.71999L4.1965 10.07L2.9565 13.88C2.7565 14.5 2.9765 15.18 3.5065 15.56C3.7665 15.75 4.0765 15.85 4.3865 15.85C4.6965 15.85 5.0065 15.75 5.2665 15.56L8.5065 13.21L11.7465 15.56C12.0065 15.75 12.3165 15.85 12.6265 15.85C12.9365 15.85 13.2465 15.75 13.5065 15.56C14.0365 15.18 14.2565 14.5 14.0465 13.88L12.8065 10.07L16.0065 7.73999C16.4065 7.46999 16.6665 7.01999 16.6665 6.49999C16.6665 5.66999 15.9965 4.99999 15.1665 4.99999H11.1565L9.9165 1.18999C9.7265 0.569994 9.1565 0.149994 8.5065 0.149994Z"
			fill="white" fill-opacity="0.01" />
	</g>
	<defs>
		<filter id="filter0_i_321_265" x="0.333511" y="0.149994" width="16.333" height="16.7"
			filterUnits="userSpaceOnUse" color-interpolation-filters="sRGB">
			<feFlood flood-opacity="0" result="BackgroundImageFix" />
			<feBlend mode="normal" in="SourceGraphic" in2="BackgroundImageFix" result="shape" />
			<feColorMatrix in="SourceAlpha" type="matrix"
				values="0 0 0 0 0 0 0 0 0 0 0 0 0 0 0 0 0 0 127 0" result="hardAlpha" />
			<feOffset dy="1" />
			<feGaussianBlur stdDeviation="0.75" />
			<feComposite in2="hardAlpha" operator="arithmetic" k2="-1" k3="1" />
			<feColorMatrix type="matrix" values="0 0 0 0 0 0 0 0 0 0 0 0 0 0 0 0 0 0 0.25 0" />
			<feBlend mode="normal" in2="shape" result="effect1_innerShadow_321_265" />
		</filter>
		<radialGradient id="paint0_radial_321_265" cx="0" cy="0" r="1"
			gradientUnits="userSpaceOnUse"
			gradientTransform="translate(8.33351 6.14999) rotate(90) scale(7.5 7.86214)">
			<stop stop-color="#FFED77" />
			<stop offset="0.137564" stop-color="#FFEC77" />
			<stop offset="0.536808" stop-color="#FFDC3A" />
			<stop offset="1" stop-color="#FDD019" />
		</radialGradient>
		<linearGradient id="paint1_linear_321_265" x1="8.49417" y1="0.758521" x2="8.49417"
			y2="15.3632" gradientUnits="userSpaceOnUse">
			<stop stop-opacity="0" />
			<stop offset="0.5" stop-opacity="0" />
			<stop offset="1" stop-opacity="0.12" />
		</linearGradient>
	</defs>
</svg>