<svg width="16" height="16" viewBox="0 0 16 16" fill="none" xmlns="http://www.w3.org/2000/svg">
<path d="M6 1H1V15H15V4H6V1Z" fill="#F9FBFE"/>
<rect x="11" y="12" width="2" height="1" fill="black"/>
<rect width="8" height="1" transform="matrix(-1 0 0 1 11 11)" fill="black"/>
<rect width="1" height="1" transform="matrix(-1 0 0 1 3 12)" fill="black"/>
<rect width="1" height="1" transform="matrix(-1 0 0 1 5 8)" fill="black"/>
<rect width="1" height="1" transform="matrix(-1 0 0 1 4 7)" fill="black"/>
<rect width="1" height="1" transform="matrix(-1 0 0 1 3 6)" fill="black"/>
<rect width="1" height="1" transform="matrix(-1 0 0 1 5 6)" fill="black"/>
<rect width="1" height="1" transform="matrix(-1 0 0 1 3 8)" fill="black"/>
<rect width="1" height="1" transform="matrix(-1 0 0 1 13 8)" fill="black"/>
<rect width="1" height="1" transform="matrix(-1 0 0 1 12 7)" fill="black"/>
<rect width="1" height="1" transform="matrix(-1 0 0 1 11 6)" fill="black"/>
<rect width="1" height="1" transform="matrix(-1 0 0 1 13 6)" fill="black"/>
<rect width="1" height="1" transform="matrix(-1 0 0 1 11 8)" fill="black"/>
<rect x="1" width="5" height="1" fill="black"/>
<rect x="1" y="15" width="14" height="1" fill="black"/>
<path d="M6 1V4H15V3H7V1L6 1Z" fill="black"/>
<rect y="15" width="14" height="1" transform="rotate(-90 0 15)" fill="black"/>
<rect x="15" y="15" width="11" height="1" transform="rotate(-90 15 15)" fill="black"/>
</svg>
