<svg width="10" height="10" version="1.1" viewBox="0 0 2.6458332 2.6458334" xmlns="http://www.w3.org/2000/svg" fill="context-fill">
    <path d="m0.7616077 0.49675519c-0.067645 0-0.1352698 0.026208-0.1871029 0.078032-0.1036661 0.1036476-0.1036661 0.2704914 0 0.3741389l0.3742059 0.37413861-0.3742059 0.3741389c-0.1036661 0.1036475-0.1036661 0.2704913 0 0.3741389 0.1036661 0.1036475 0.2705398 0.1036475 0.3742059 0l0.3742059-0.3741389 0.374206 0.3741389c0.1036661 0.1036475 0.2705397 0.1036475 0.3742059 0 0.1036661-0.1036476 0.1036661-0.2704914 0-0.3741389l-0.3742059-0.3741389 0.3742059-0.37413891c0.1036661-0.1036475 0.1036661-0.2704913 0-0.3741389-0.1036662-0.1036475-0.2705398-0.1036475-0.3742059 0l-0.374206 0.3741389-0.3742059-0.3741389c-0.051833-0.051824-0.119458-0.078032-0.187103-0.0780317z"/>
</svg>
