<svg width="10" height="10" version="1.1" viewBox="0 0 2.6458332 2.6458334" xmlns="http://www.w3.org/2000/svg" fill="context-fill">
    <path d="m1.3229166 0.26458335c-0.1465791 0-0.2645833 0.11800417-0.2645833 0.26458333v0.52916672h-0.52916665c-0.14657916 0-0.26458333 0.1180041-0.26458333 0.2645832 0 0.1465792 0.11800417 0.2645833 0.26458333 0.2645833h0.52916665v0.5291667c0 0.1465792 0.1180042 0.2645833 0.2645833 0.2645833 0.1465792 0 0.2645833-0.1180041 0.2645833-0.2645833v-0.5291667h0.5291668c0.1465792 0 0.2645833-0.1180041 0.2645833-0.2645833 0-0.1465791-0.1180041-0.2645832-0.2645833-0.2645832h-0.5291668v-0.52916672c0-0.14657916-0.1180041-0.26458333-0.2645833-0.26458333z"/>
</svg>
