<svg width="10" height="10" viewBox="0 0 10 10" fill="none" xmlns="http://www.w3.org/2000/svg">
<mask id="mask0_532_23" style="mask-type:alpha" maskUnits="userSpaceOnUse" x="0" y="0" width="10" height="10">
<path d="M0 0H10V9L9 10H1L0 9V0Z" fill="#D9D9D9"/>
</mask>
<g mask="url(#mask0_532_23)">
<path fill-rule="evenodd" clip-rule="evenodd" d="M1 7.41421L2.41421 6H7.58579L9 7.41421V9H1V7.41421Z" fill="white"/>
<path fill-rule="evenodd" clip-rule="evenodd" d="M3 3C3 1.89543 3.89543 1 5 1C6.10457 1 7 1.89543 7 3C7 4.10457 6.10457 5 5 5C3.89543 5 3 4.10457 3 3Z" fill="white"/>
<path fill-rule="evenodd" clip-rule="evenodd" d="M7 3C7 4.10457 6.10457 5 5 5C3.89543 5 3 4.10457 3 3C3 1.89543 3.89543 1 5 1C6.10457 1 7 1.89543 7 3ZM7.23611 5C7.71115 4.46924 8 3.76835 8 3C8 1.34315 6.65685 0 5 0C3.34315 0 2 1.34315 2 3C2 3.76835 2.28885 4.46924 2.76389 5H2L0 7V10H10V7L8 5H7.23611ZM5 6H2.41421L1 7.41421V9H9V7.41421L7.58579 6H5Z" fill="black" fill-opacity="0.3"/>
</g>
</svg>
