<svg width="14" height="13" viewBox="0 0 14 13" fill="none" xmlns="http://www.w3.org/2000/svg">
	<path
		d="M6.03471 2.47531C5.46845 1.90904 5.46845 0.990955 6.03471 0.424695C6.60097 -0.141565 7.51906 -0.141565 8.08532 0.424695L13.5753 5.39997C14.1416 5.96623 14.1416 6.88432 13.5753 7.45058L8.08532 12.4753C7.51906 13.0416 6.60097 13.0416 6.03471 12.4753C5.46845 11.909 5.46845 10.991 6.03471 10.4247L8.99938 7.92529H1.5C0.671573 7.92529 0 7.25372 0 6.42529C0 5.59686 0.671573 4.92529 1.5 4.92529H8.9994L6.03471 2.47531Z"
		fill="context-fill" />
	<path
		d="M6.03471 2.47531C5.46845 1.90904 5.46845 0.990955 6.03471 0.424695C6.60097 -0.141565 7.51906 -0.141565 8.08532 0.424695L13.5753 5.39997C14.1416 5.96623 14.1416 6.88432 13.5753 7.45058L8.08532 12.4753C7.51906 13.0416 6.60097 13.0416 6.03471 12.4753C5.46845 11.909 5.46845 10.991 6.03471 10.4247L8.99938 7.92529H1.5C0.671573 7.92529 0 7.25372 0 6.42529C0 5.59686 0.671573 4.92529 1.5 4.92529H8.9994L6.03471 2.47531Z"
		fill="url(#paint0_linear_326_35)" />
	<g filter="url(#filter0_i_326_35)">
		<path
			d="M6.03471 2.47531C5.46845 1.90904 5.46845 0.990956 6.03471 0.424695C6.60097 -0.141565 7.51906 -0.141565 8.08532 0.424695L13.5753 5.39997C14.1416 5.96623 14.1416 6.88432 13.5753 7.45058L8.08532 12.4753C7.51906 13.0416 6.60097 13.0416 6.03471 12.4753C5.46845 11.909 5.46845 10.991 6.03471 10.4247L8.99938 7.92529H1.5C0.671573 7.92529 0 7.25372 0 6.42529C0 5.59686 0.671573 4.92529 1.5 4.92529H8.9994L6.03471 2.47531Z"
			fill="white" fill-opacity="0.01" />
	</g>
	<defs>
		<filter id="filter0_i_326_35" x="0" y="0" width="15" height="13.9"
			filterUnits="userSpaceOnUse" color-interpolation-filters="sRGB">
			<feFlood flood-opacity="0" result="BackgroundImageFix" />
			<feBlend mode="normal" in="SourceGraphic" in2="BackgroundImageFix" result="shape" />
			<feColorMatrix in="SourceAlpha" type="matrix"
				values="0 0 0 0 0 0 0 0 0 0 0 0 0 0 0 0 0 0 127 0" result="hardAlpha" />
			<feOffset dx="1" dy="1" />
			<feGaussianBlur stdDeviation="0.75" />
			<feComposite in2="hardAlpha" operator="arithmetic" k2="-1" k3="1" />
			<feColorMatrix type="matrix" values="0 0 0 0 0 0 0 0 0 0 0 0 0 0 0 0 0 0 0.25 0" />
			<feBlend mode="normal" in2="shape" result="effect1_innerShadow_326_35" />
		</filter>
		<linearGradient id="paint0_linear_326_35" x1="7" y1="0.475311" x2="7" y2="12.4753"
			gradientUnits="userSpaceOnUse">
			<stop stop-opacity="0" />
			<stop offset="0.5" stop-opacity="0" />
			<stop offset="1" stop-opacity="0.27" />
		</linearGradient>
	</defs>
</svg>