<svg width="15" height="13" viewBox="0 0 15 13" fill="none" xmlns="http://www.w3.org/2000/svg">
	<path d="M5 0H3C1.34315 0 0 1.34314 0 3V5H2V3C2 2.44772 2.44772 2 3 2H5V0Z" fill="context-fill" />
	<path d="M5 0H3C1.34315 0 0 1.34314 0 3V5H2V3C2 2.44772 2.44772 2 3 2H5V0Z"
		fill="url(#paint0_linear_336_65)" />
	<path d="M10 2V0H12C13.6569 0 15 1.34315 15 3V5H13V3C13 2.44772 12.5523 2 12 2H10Z"
		fill="context-fill" />
	<path d="M10 2V0H12C13.6569 0 15 1.34315 15 3V5H13V3C13 2.44772 12.5523 2 12 2H10Z"
		fill="url(#paint1_linear_336_65)" />
	<path d="M10 11H12C12.5523 11 13 10.5523 13 10V8H15V10C15 11.6569 13.6569 13 12 13H10V11Z"
		fill="context-fill" />
	<path d="M10 11H12C12.5523 11 13 10.5523 13 10V8H15V10C15 11.6569 13.6569 13 12 13H10V11Z"
		fill="url(#paint2_linear_336_65)" />
	<path d="M2 8V10C2 10.5523 2.44772 11 3 11H5V13H3C1.34314 13 0 11.6569 0 10V8H2Z" fill="context-fill" />
	<path d="M2 8V10C2 10.5523 2.44772 11 3 11H5V13H3C1.34314 13 0 11.6569 0 10V8H2Z"
		fill="url(#paint3_linear_336_65)" />
	<g filter="url(#filter0_i_336_65)">
		<path d="M5 0H3C1.34315 0 0 1.34314 0 3V5H2V3C2 2.44772 2.44772 2 3 2H5V0Z" fill="white"
			fill-opacity="0.01" />
		<path d="M10 2V0H12C13.6569 0 15 1.34315 15 3V5H13V3C13 2.44772 12.5523 2 12 2H10Z"
			fill="white" fill-opacity="0.01" />
		<path d="M10 11H12C12.5523 11 13 10.5523 13 10V8H15V10C15 11.6569 13.6569 13 12 13H10V11Z"
			fill="white" fill-opacity="0.01" />
		<path d="M2 8V10C2 10.5523 2.44772 11 3 11H5V13H3C1.34314 13 0 11.6569 0 10V8H2Z"
			fill="white" fill-opacity="0.01" />
	</g>
	<defs>
		<filter id="filter0_i_336_65" x="0" y="0" width="16" height="14"
			filterUnits="userSpaceOnUse" color-interpolation-filters="sRGB">
			<feFlood flood-opacity="0" result="BackgroundImageFix" />
			<feBlend mode="normal" in="SourceGraphic" in2="BackgroundImageFix" result="shape" />
			<feColorMatrix in="SourceAlpha" type="matrix"
				values="0 0 0 0 0 0 0 0 0 0 0 0 0 0 0 0 0 0 127 0" result="hardAlpha" />
			<feOffset dx="1" dy="1" />
			<feGaussianBlur stdDeviation="0.75" />
			<feComposite in2="hardAlpha" operator="arithmetic" k2="-1" k3="1" />
			<feColorMatrix type="matrix" values="0 0 0 0 0 0 0 0 0 0 0 0 0 0 0 0 0 0 0.25 0" />
			<feBlend mode="normal" in2="shape" result="effect1_innerShadow_336_65" />
		</filter>
		<linearGradient id="paint0_linear_336_65" x1="7.86516" y1="0.00377287" x2="7.86516"
			y2="11.7762" gradientUnits="userSpaceOnUse">
			<stop stop-opacity="0" />
			<stop offset="0.5" stop-opacity="0" />
			<stop offset="1" stop-opacity="0.27" />
		</linearGradient>
		<linearGradient id="paint1_linear_336_65" x1="7.86516" y1="0.00377287" x2="7.86516"
			y2="11.7762" gradientUnits="userSpaceOnUse">
			<stop stop-opacity="0" />
			<stop offset="0.5" stop-opacity="0" />
			<stop offset="1" stop-opacity="0.27" />
		</linearGradient>
		<linearGradient id="paint2_linear_336_65" x1="7.86516" y1="0.00377287" x2="7.86516"
			y2="11.7762" gradientUnits="userSpaceOnUse">
			<stop stop-opacity="0" />
			<stop offset="0.5" stop-opacity="0" />
			<stop offset="1" stop-opacity="0.27" />
		</linearGradient>
		<linearGradient id="paint3_linear_336_65" x1="7.86516" y1="0.00377287" x2="7.86516"
			y2="11.7762" gradientUnits="userSpaceOnUse">
			<stop stop-opacity="0" />
			<stop offset="0.5" stop-opacity="0" />
			<stop offset="1" stop-opacity="0.27" />
		</linearGradient>
	</defs>
</svg>