<svg width="10" height="13" viewBox="0 0 10 13" fill="none" xmlns="http://www.w3.org/2000/svg">
	<path
		d="M8.42905 5.82361C8.92612 6.13755 8.92612 6.86245 8.42905 7.17639L1.22719 11.7249C0.694497 12.0614 0 11.6786 0 11.0485V1.95146C0 1.32142 0.694499 0.938631 1.22719 1.27507L8.42905 5.82361Z"
		fill="context-fill" />
	<path
		d="M8.42905 5.82361C8.92612 6.13755 8.92612 6.86245 8.42905 7.17639L1.22719 11.7249C0.694497 12.0614 0 11.6786 0 11.0485V1.95146C0 1.32142 0.694499 0.938631 1.22719 1.27507L8.42905 5.82361Z"
		fill="url(#paint0_linear_326_45)" />
	<g filter="url(#filter0_i_326_45)">
		<path
			d="M8.42905 5.82361C8.92612 6.13755 8.92612 6.86245 8.42905 7.17639L1.22719 11.7249C0.694497 12.0614 0 11.6786 0 11.0485V1.95146C0 1.32142 0.694499 0.938631 1.22719 1.27507L8.42905 5.82361Z"
			fill="white" fill-opacity="0.01" />
	</g>
	<defs>
		<filter id="filter0_i_326_45" x="0" y="1.15018" width="9.80185" height="11.6996"
			filterUnits="userSpaceOnUse" color-interpolation-filters="sRGB">
			<feFlood flood-opacity="0" result="BackgroundImageFix" />
			<feBlend mode="normal" in="SourceGraphic" in2="BackgroundImageFix" result="shape" />
			<feColorMatrix in="SourceAlpha" type="matrix"
				values="0 0 0 0 0 0 0 0 0 0 0 0 0 0 0 0 0 0 127 0" result="hardAlpha" />
			<feOffset dx="1" dy="1" />
			<feGaussianBlur stdDeviation="0.75" />
			<feComposite in2="hardAlpha" operator="arithmetic" k2="-1" k3="1" />
			<feColorMatrix type="matrix" values="0 0 0 0 0 0 0 0 0 0 0 0 0 0 0 0 0 0 0.25 0" />
			<feBlend mode="normal" in2="shape" result="effect1_innerShadow_326_45" />
		</filter>
		<linearGradient id="paint0_linear_326_45" x1="4.99643" y1="0.503876" x2="4.99643"
			y2="12.5969" gradientUnits="userSpaceOnUse">
			<stop stop-opacity="0" />
			<stop offset="0.5" stop-opacity="0" />
			<stop offset="1" stop-opacity="0.27" />
		</linearGradient>
	</defs>
</svg>