<svg width="31" height="19" viewBox="0 0 31 19" fill="none" xmlns="http://www.w3.org/2000/svg">
	<path fill-rule="evenodd" clip-rule="evenodd"
		d="M3 4.5C3 3.11929 4.11929 2 5.5 2H10.3787C11.0417 2 11.6776 2.26339 12.1464 2.73223L13.2678 3.85355C13.3615 3.94732 13.4887 4 13.6213 4H16.5C17.8807 4 19 5.11929 19 6.5V14.5C19 15.8807 17.8807 17 16.5 17H5.5C4.11929 17 3 15.8807 3 14.5V4.5ZM5.5 4C5.22386 4 5 4.22386 5 4.5V14.5C5 14.7761 5.22386 15 5.5 15H16.5C16.7761 15 17 14.7761 17 14.5V6.5C17 6.22386 16.7761 6 16.5 6H13.6213C12.9583 6 12.3224 5.73661 11.8536 5.26777L10.7322 4.14645C10.6385 4.05268 10.5113 4 10.3787 4H5.5Z"
		fill="context-fill" />
	<path
		d="M6.58838 8.04007C6.54134 7.88264 6.40629 7.77597 6.25383 7.77582C6.10138 7.77566 5.96615 7.88206 5.91884 8.03939L4.88563 11.4752H1.55718C1.4047 11.4752 1.26956 11.5817 1.2224 11.7391C1.17523 11.8965 1.22677 12.069 1.35007 12.1664L4.03732 14.2886L3.01072 17.7241C2.96368 17.8816 3.01532 18.054 3.13865 18.1512C3.26198 18.2485 3.42898 18.2486 3.55236 18.1514L6.24646 16.0289L8.94057 18.1514C9.06395 18.2486 9.23095 18.2485 9.35428 18.1512C9.47761 18.054 9.52925 17.8816 9.48221 17.7241L8.45571 14.2889L11.1496 12.1666C11.273 12.0694 11.3247 11.8969 11.2776 11.7393C11.2305 11.5818 11.0953 11.4752 10.9428 11.4752H7.61485L6.58838 8.04007Z"
		fill="url(#paint0_radial_250_38)" />
	<path
		d="M6.25457 8.1465L7.36 11.8459H10.9439L8.04298 14.1312L9.14841 17.8306L6.24753 15.5452L3.34665 17.8306L4.45209 14.1312L1.55825 11.8459H5.1421L6.24753 8.1465M6.25457 7C5.79691 7 5.38853 7.32102 5.24771 7.7949L4.37463 10.707H1.55825C1.10059 10.707 0.692209 11.028 0.55139 11.5019C0.410571 11.9758 0.565472 12.4955 0.938643 12.786L3.21992 14.5822L2.34684 17.4943C2.20602 17.9682 2.36092 18.4879 2.73409 18.7783C2.91715 18.9236 3.13542 19 3.35369 19C3.57196 19 3.79023 18.9236 3.9733 18.7783L6.25457 16.9822L8.53585 18.7783C8.71891 18.9236 8.93718 19 9.15545 19C9.37372 19 9.59199 18.9236 9.77506 18.7783C10.1482 18.4879 10.3031 17.9682 10.1553 17.4943L9.28219 14.5822L11.5353 12.8013C11.8169 12.5949 12 12.251 12 11.8535C12 11.2191 11.5283 10.707 10.9439 10.707H8.12043L7.24735 7.7949C7.11357 7.32102 6.71224 7 6.25457 7Z"
		fill="context-fill" />
	<path d="M23 8H30L26.5 11.5L23 8Z" fill="context-fill" />
	<path fill-rule="evenodd" clip-rule="evenodd"
		d="M3 4.5C3 3.11929 4.11929 2 5.5 2H10.3787C11.0417 2 11.6776 2.26339 12.1464 2.73223L13.2678 3.85355C13.3615 3.94732 13.4887 4 13.6213 4H16.5C17.8807 4 19 5.11929 19 6.5V14.5C19 15.8807 17.8807 17 16.5 17H5.5C4.11929 17 3 15.8807 3 14.5V4.5ZM5.5 4C5.22386 4 5 4.22386 5 4.5V14.5C5 14.7761 5.22386 15 5.5 15H16.5C16.7761 15 17 14.7761 17 14.5V6.5C17 6.22386 16.7761 6 16.5 6H13.6213C12.9583 6 12.3224 5.73661 11.8536 5.26777L10.7322 4.14645C10.6385 4.05268 10.5113 4 10.3787 4H5.5Z"
		fill="url(#paint1_linear_250_38)" />
	<path
		d="M6.25457 8.1465L7.36 11.8459H10.9439L8.04298 14.1312L9.14841 17.8306L6.24753 15.5452L3.34665 17.8306L4.45209 14.1312L1.55825 11.8459H5.1421L6.24753 8.1465M6.25457 7C5.79691 7 5.38853 7.32102 5.24771 7.7949L4.37463 10.707H1.55825C1.10059 10.707 0.692209 11.028 0.55139 11.5019C0.410571 11.9758 0.565472 12.4955 0.938643 12.786L3.21992 14.5822L2.34684 17.4943C2.20602 17.9682 2.36092 18.4879 2.73409 18.7783C2.91715 18.9236 3.13542 19 3.35369 19C3.57196 19 3.79023 18.9236 3.9733 18.7783L6.25457 16.9822L8.53585 18.7783C8.71891 18.9236 8.93718 19 9.15545 19C9.37372 19 9.59199 18.9236 9.77506 18.7783C10.1482 18.4879 10.3031 17.9682 10.1553 17.4943L9.28219 14.5822L11.5353 12.8013C11.8169 12.5949 12 12.251 12 11.8535C12 11.2191 11.5283 10.707 10.9439 10.707H8.12043L7.24735 7.7949C7.11357 7.32102 6.71224 7 6.25457 7Z"
		fill="url(#paint2_linear_250_38)" />
	<path d="M23 8H30L26.5 11.5L23 8Z" fill="url(#paint3_linear_250_38)" />
	<g filter="url(#filter0_i_250_38)">
		<path fill-rule="evenodd" clip-rule="evenodd"
			d="M3 4.5C3 3.11929 4.11929 2 5.5 2H10.3787C11.0417 2 11.6776 2.26339 12.1464 2.73223L13.2678 3.85355C13.3615 3.94732 13.4887 4 13.6213 4H16.5C17.8807 4 19 5.11929 19 6.5V14.5C19 15.8807 17.8807 17 16.5 17H5.5C4.11929 17 3 15.8807 3 14.5V4.5ZM5.5 4C5.22386 4 5 4.22386 5 4.5V14.5C5 14.7761 5.22386 15 5.5 15H16.5C16.7761 15 17 14.7761 17 14.5V6.5C17 6.22386 16.7761 6 16.5 6H13.6213C12.9583 6 12.3224 5.73661 11.8536 5.26777L10.7322 4.14645C10.6385 4.05268 10.5113 4 10.3787 4H5.5Z"
			fill="white" fill-opacity="0.01" />
	</g>
	<g filter="url(#filter1_i_250_38)">
		<path
			d="M6.25457 8.1465L7.36 11.8459H10.9439L8.04298 14.1312L9.14841 17.8306L6.24753 15.5452L3.34665 17.8306L4.45209 14.1312L1.55825 11.8459H5.1421L6.24753 8.1465M6.25457 7C5.79691 7 5.38853 7.32102 5.24771 7.7949L4.37463 10.707H1.55825C1.10059 10.707 0.692209 11.028 0.55139 11.5019C0.410571 11.9758 0.565472 12.4955 0.938643 12.786L3.21992 14.5822L2.34684 17.4943C2.20602 17.9682 2.36092 18.4879 2.73409 18.7783C2.91715 18.9236 3.13542 19 3.35369 19C3.57196 19 3.79023 18.9236 3.9733 18.7783L6.25457 16.9822L8.53585 18.7783C8.71891 18.9236 8.93718 19 9.15545 19C9.37372 19 9.59199 18.9236 9.77506 18.7783C10.1482 18.4879 10.3031 17.9682 10.1553 17.4943L9.28219 14.5822L11.5353 12.8013C11.8169 12.5949 12 12.251 12 11.8535C12 11.2191 11.5283 10.707 10.9439 10.707H8.12043L7.24735 7.7949C7.11357 7.32102 6.71224 7 6.25457 7Z"
			fill="white" fill-opacity="0.01" />
	</g>
	<g filter="url(#filter2_i_250_38)">
		<path d="M23 8H30L26.5 11.5L23 8Z" fill="white" fill-opacity="0.01" />
	</g>
	<defs>
		<filter id="filter0_i_250_38" x="3" y="2" width="17" height="16"
			filterUnits="userSpaceOnUse" color-interpolation-filters="sRGB">
			<feFlood flood-opacity="0" result="BackgroundImageFix" />
			<feBlend mode="normal" in="SourceGraphic" in2="BackgroundImageFix" result="shape" />
			<feColorMatrix in="SourceAlpha" type="matrix"
				values="0 0 0 0 0 0 0 0 0 0 0 0 0 0 0 0 0 0 127 0" result="hardAlpha" />
			<feOffset dx="1" dy="1" />
			<feGaussianBlur stdDeviation="0.75" />
			<feComposite in2="hardAlpha" operator="arithmetic" k2="-1" k3="1" />
			<feColorMatrix type="matrix" values="0 0 0 0 0 0 0 0 0 0 0 0 0 0 0 0 0 0 0.15 0" />
			<feBlend mode="normal" in2="shape" result="effect1_innerShadow_250_38" />
		</filter>
		<filter id="filter1_i_250_38" x="0.5" y="7" width="12.5" height="13"
			filterUnits="userSpaceOnUse" color-interpolation-filters="sRGB">
			<feFlood flood-opacity="0" result="BackgroundImageFix" />
			<feBlend mode="normal" in="SourceGraphic" in2="BackgroundImageFix" result="shape" />
			<feColorMatrix in="SourceAlpha" type="matrix"
				values="0 0 0 0 0 0 0 0 0 0 0 0 0 0 0 0 0 0 127 0" result="hardAlpha" />
			<feOffset dx="1" dy="1" />
			<feGaussianBlur stdDeviation="0.75" />
			<feComposite in2="hardAlpha" operator="arithmetic" k2="-1" k3="1" />
			<feColorMatrix type="matrix" values="0 0 0 0 0 0 0 0 0 0 0 0 0 0 0 0 0 0 0.15 0" />
			<feBlend mode="normal" in2="shape" result="effect1_innerShadow_250_38" />
		</filter>
		<filter id="filter2_i_250_38" x="23" y="8" width="8" height="4.5"
			filterUnits="userSpaceOnUse" color-interpolation-filters="sRGB">
			<feFlood flood-opacity="0" result="BackgroundImageFix" />
			<feBlend mode="normal" in="SourceGraphic" in2="BackgroundImageFix" result="shape" />
			<feColorMatrix in="SourceAlpha" type="matrix"
				values="0 0 0 0 0 0 0 0 0 0 0 0 0 0 0 0 0 0 127 0" result="hardAlpha" />
			<feOffset dx="1" dy="1" />
			<feGaussianBlur stdDeviation="0.75" />
			<feComposite in2="hardAlpha" operator="arithmetic" k2="-1" k3="1" />
			<feColorMatrix type="matrix" values="0 0 0 0 0 0 0 0 0 0 0 0 0 0 0 0 0 0 0.15 0" />
			<feBlend mode="normal" in2="shape" result="effect1_innerShadow_250_38" />
		</filter>
		<radialGradient id="paint0_radial_250_38" cx="0" cy="0" r="1" gradientUnits="userSpaceOnUse"
			gradientTransform="translate(6 12) rotate(63.4349) scale(4.47214 4.31862)">
			<stop stop-color="#FFED77" />
			<stop offset="0.196373" stop-color="#FFEC77" />
			<stop offset="0.536808" stop-color="#FFDC3A" />
			<stop offset="1" stop-color="#FDD019" />
		</radialGradient>
		<linearGradient id="paint1_linear_250_38" x1="10.9943" y1="2.5814" x2="10.9943" y2="16.5349"
			gradientUnits="userSpaceOnUse">
			<stop stop-opacity="0" />
			<stop offset="0.5" stop-opacity="0" />
			<stop offset="1" stop-opacity="0.2" />
		</linearGradient>
		<linearGradient id="paint2_linear_250_38" x1="6.24589" y1="7.46512" x2="6.24589"
			y2="18.6279" gradientUnits="userSpaceOnUse">
			<stop stop-opacity="0" />
			<stop offset="0.5" stop-opacity="0" />
			<stop offset="1" stop-opacity="0.2" />
		</linearGradient>
		<linearGradient id="paint3_linear_250_38" x1="26.4975" y1="8.13566" x2="26.4975"
			y2="11.3915" gradientUnits="userSpaceOnUse">
			<stop stop-opacity="0" />
			<stop offset="0.5" stop-opacity="0" />
			<stop offset="1" stop-opacity="0.2" />
		</linearGradient>
	</defs>
</svg>