<svg width="12" height="15" viewBox="0 0 12 15" fill="none" xmlns="http://www.w3.org/2000/svg">
<path d="M7 11H9L6 7L3 11H5V15H7L7 11Z" fill="context-fill"/>
<path d="M7 11H9L6 7L3 11H5V15H7L7 11Z" fill="url(#paint0_linear_337_167)"/>
<path d="M1.5 0H8L12 4V13.5C12 14.325 11.325 15 10.5 15H8V13.5H10.5V5H7V1.5H1.5V13.5H4V15H1.4925C0.6675 15 0 14.325 0 13.5V1.5C0 0.675 0.675 0 1.5 0Z" fill="context-fill"/>
<path d="M1.5 0H8L12 4V13.5C12 14.325 11.325 15 10.5 15H8V13.5H10.5V5H7V1.5H1.5V13.5H4V15H1.4925C0.6675 15 0 14.325 0 13.5V1.5C0 0.675 0.675 0 1.5 0Z" fill="url(#paint1_linear_337_167)"/>
<g filter="url(#filter0_i_337_167)">
<path d="M7 11H9L6 7L3 11H5V15H7L7 11Z" fill="white" fill-opacity="0.01"/>
<path d="M1.5 0H8L12 4V13.5C12 14.325 11.325 15 10.5 15H8V13.5H10.5V5H7V1.5H1.5V13.5H4V15H1.4925C0.6675 15 0 14.325 0 13.5V1.5C0 0.675 0.675 0 1.5 0Z" fill="white" fill-opacity="0.01"/>
</g>
<defs>
<filter id="filter0_i_337_167" x="0" y="0" width="13" height="16" filterUnits="userSpaceOnUse" color-interpolation-filters="sRGB">
<feFlood flood-opacity="0" result="BackgroundImageFix"/>
<feBlend mode="normal" in="SourceGraphic" in2="BackgroundImageFix" result="shape"/>
<feColorMatrix in="SourceAlpha" type="matrix" values="0 0 0 0 0 0 0 0 0 0 0 0 0 0 0 0 0 0 127 0" result="hardAlpha"/>
<feOffset dx="1" dy="1"/>
<feGaussianBlur stdDeviation="0.75"/>
<feComposite in2="hardAlpha" operator="arithmetic" k2="-1" k3="1"/>
<feColorMatrix type="matrix" values="0 0 0 0 0 0 0 0 0 0 0 0 0 0 0 0 0 0 0.25 0"/>
<feBlend mode="normal" in2="shape" result="effect1_innerShadow_337_167"/>
</filter>
<linearGradient id="paint0_linear_337_167" x1="6.29213" y1="0.00435331" x2="6.29213" y2="13.5879" gradientUnits="userSpaceOnUse">
<stop stop-opacity="0"/>
<stop offset="0.5" stop-opacity="0"/>
<stop offset="1" stop-opacity="0.27"/>
</linearGradient>
<linearGradient id="paint1_linear_337_167" x1="6.29213" y1="0.00435331" x2="6.29213" y2="13.5879" gradientUnits="userSpaceOnUse">
<stop stop-opacity="0"/>
<stop offset="0.5" stop-opacity="0"/>
<stop offset="1" stop-opacity="0.27"/>
</linearGradient>
</defs>
</svg>
