<svg width="8" height="16" viewBox="0 0 8 16" fill="none" xmlns="http://www.w3.org/2000/svg">
	<path
		d="M0.646454 1.35353L2.7929 3.49998L0.646454 5.64642L1.35356 6.35353L4.20711 3.49998L1.35356 0.646423L0.646454 1.35353Z"
		fill="context-fill" />
	<path
		d="M3.64645 1.35353L5.7929 3.49998L3.64645 5.64642L4.35356 6.35353L7.20711 3.49998L4.35356 0.646423L3.64645 1.35353Z"
		fill="context-fill" />
	<path
		d="M0.646454 1.35353L2.7929 3.49998L0.646454 5.64642L1.35356 6.35353L4.20711 3.49998L1.35356 0.646423L0.646454 1.35353Z"
		fill="url(#paint0_linear_199_18)" />
	<path
		d="M3.64645 1.35353L5.7929 3.49998L3.64645 5.64642L4.35356 6.35353L7.20711 3.49998L4.35356 0.646423L3.64645 1.35353Z"
		fill="url(#paint1_linear_199_18)" />
	<g filter="url(#filter0_i_199_18)">
		<path
			d="M0.646454 1.35353L2.7929 3.49998L0.646454 5.64642L1.35356 6.35353L4.20711 3.49998L1.35356 0.646423L0.646454 1.35353Z"
			fill="white" fill-opacity="0.01" />
		<path
			d="M3.64645 1.35353L5.7929 3.49998L3.64645 5.64642L4.35356 6.35353L7.20711 3.49998L4.35356 0.646423L3.64645 1.35353Z"
			fill="white" fill-opacity="0.01" />
	</g>
	<defs>
		<filter id="filter0_i_199_18" x="0.646454" y="0.646423" width="7.56065" height="6.70709"
			filterUnits="userSpaceOnUse" color-interpolation-filters="sRGB">
			<feFlood flood-opacity="0" result="BackgroundImageFix" />
			<feBlend mode="normal" in="SourceGraphic" in2="BackgroundImageFix" result="shape" />
			<feColorMatrix in="SourceAlpha" type="matrix"
				values="0 0 0 0 0 0 0 0 0 0 0 0 0 0 0 0 0 0 127 0" result="hardAlpha" />
			<feOffset dx="1" dy="1" />
			<feGaussianBlur stdDeviation="0.75" />
			<feComposite in2="hardAlpha" operator="arithmetic" k2="-1" k3="1" />
			<feColorMatrix type="matrix" values="0 0 0 0 0 0 0 0 0 0 0 0 0 0 0 0 0 0 0.15 0" />
			<feBlend mode="normal" in2="shape" result="effect1_innerShadow_199_18" />
		</filter>
		<linearGradient id="paint0_linear_199_18" x1="5.42551" y1="0.867629" x2="5.42551"
			y2="6.17657" gradientUnits="userSpaceOnUse">
			<stop stop-opacity="0" />
			<stop offset="0.5" stop-opacity="0" />
			<stop offset="1" stop-opacity="0.2" />
		</linearGradient>
		<linearGradient id="paint1_linear_199_18" x1="5.42551" y1="0.867629" x2="5.42551"
			y2="6.17657" gradientUnits="userSpaceOnUse">
			<stop stop-opacity="0" />
			<stop offset="0.5" stop-opacity="0" />
			<stop offset="1" stop-opacity="0.2" />
		</linearGradient>
	</defs>
</svg>