<svg width="11" height="15" viewBox="0 0 11 15" fill="none" xmlns="http://www.w3.org/2000/svg">
	<path fill-rule="evenodd" clip-rule="evenodd"
		d="M0 1.5C0 0.671573 0.671573 0 1.5 0H9C9.82843 0 10.5 0.671573 10.5 1.5V5.47931C10.5 6.21257 9.97003 6.83832 9.24594 6.95397C8.72437 7.03728 8.10119 7.13492 7.5 7.22442V13.5L6 15H4.5L3 14.25V7.22442C2.39881 7.13492 1.77563 7.03728 1.25406 6.95397C0.529974 6.83832 0 6.21257 0 5.47931V1.5ZM3 1.5H7.5V3H3V1.5ZM3.75 7.5H4.5V13.5H3.75V7.5Z"
		fill="context-fill" />
	<path fill-rule="evenodd" clip-rule="evenodd"
		d="M0 1.5C0 0.671573 0.671573 0 1.5 0H9C9.82843 0 10.5 0.671573 10.5 1.5V5.47931C10.5 6.21257 9.97003 6.83832 9.24594 6.95397C8.72437 7.03728 8.10119 7.13492 7.5 7.22442V13.5L6 15H4.5L3 14.25V7.22442C2.39881 7.13492 1.77563 7.03728 1.25406 6.95397C0.529974 6.83832 0 6.21257 0 5.47931V1.5ZM3 1.5H7.5V3H3V1.5ZM3.75 7.5H4.5V13.5H3.75V7.5Z"
		fill="url(#paint0_linear_335_13)" />
	<g filter="url(#filter0_i_335_13)">
		<path fill-rule="evenodd" clip-rule="evenodd"
			d="M0 1.5C0 0.671573 0.671573 0 1.5 0H9C9.82843 0 10.5 0.671573 10.5 1.5V5.47931C10.5 6.21257 9.97003 6.83832 9.24594 6.95397C8.72437 7.03728 8.10119 7.13492 7.5 7.22442V13.5L6 15H4.5L3 14.25V7.22442C2.39881 7.13492 1.77563 7.03728 1.25406 6.95397C0.529974 6.83832 0 6.21257 0 5.47931V1.5ZM3 1.5H7.5V3H3V1.5ZM3.75 7.5H4.5V13.5H3.75V7.5Z"
			fill="white" fill-opacity="0.01" />
	</g>
	<defs>
		<filter id="filter0_i_335_13" x="0" y="0" width="11.5" height="16"
			filterUnits="userSpaceOnUse" color-interpolation-filters="sRGB">
			<feFlood flood-opacity="0" result="BackgroundImageFix" />
			<feBlend mode="normal" in="SourceGraphic" in2="BackgroundImageFix" result="shape" />
			<feColorMatrix in="SourceAlpha" type="matrix"
				values="0 0 0 0 0 0 0 0 0 0 0 0 0 0 0 0 0 0 127 0" result="hardAlpha" />
			<feOffset dx="1" dy="1" />
			<feGaussianBlur stdDeviation="0.75" />
			<feComposite in2="hardAlpha" operator="arithmetic" k2="-1" k3="1" />
			<feColorMatrix type="matrix" values="0 0 0 0 0 0 0 0 0 0 0 0 0 0 0 0 0 0 0.25 0" />
			<feBlend mode="normal" in2="shape" result="effect1_innerShadow_335_13" />
		</filter>
		<linearGradient id="paint0_linear_335_13" x1="5.50561" y1="0.00377287" x2="5.50561"
			y2="11.7762" gradientUnits="userSpaceOnUse">
			<stop stop-opacity="0" />
			<stop offset="0.5" stop-opacity="0" />
			<stop offset="1" stop-opacity="0.27" />
		</linearGradient>
	</defs>
</svg>