<svg width="15" height="15" viewBox="0 0 15 15" fill="none" xmlns="http://www.w3.org/2000/svg">
<path fill-rule="evenodd" clip-rule="evenodd" d="M9.16806 8.1074C9.69191 7.37179 10 6.47187 10 5.5C10 3.01472 7.98528 1 5.5 1C3.01472 1 1 3.01472 1 5.5C1 7.98528 3.01472 10 5.5 10C6.47187 10 7.37179 9.69191 8.1074 9.16806L8.96967 10.0303L8.61612 10.3839L11.9444 13.7121C12.3154 14.0831 12.9169 14.0831 13.2879 13.7121L13.7121 13.2879C14.0831 12.9169 14.0831 12.3154 13.7121 11.9444L10.3839 8.61612L10.0303 8.96967L9.16806 8.1074ZM5.5 8.5C7.15685 8.5 8.5 7.15685 8.5 5.5C8.5 3.84315 7.15685 2.5 5.5 2.5C3.84315 2.5 2.5 3.84315 2.5 5.5C2.5 7.15685 3.84315 8.5 5.5 8.5Z" fill="#646464"/>
</svg>
