<svg width="64" height="64" viewBox="0 0 64 64" fill="none" xmlns="http://www.w3.org/2000/svg">
<path d="M32 0C14.34 0 0 14.34 0 32C0 49.66 14.34 64 32 64C49.66 64 64 49.66 64 32C64 14.34 49.66 0 32 0ZM32 9.6C37.31 9.6 41.6 13.89 41.6 19.2C41.6 24.51 37.31 28.8 32 28.8C26.69 28.8 22.4 24.51 22.4 19.2C22.4 13.89 26.69 9.6 32 9.6ZM32 55.04C24 55.04 16.93 50.94 12.8 44.74C12.9 38.37 25.6 34.88 32 34.88C38.37 34.88 51.1 38.37 51.2 44.74C47.07 50.94 40 55.04 32 55.04Z" fill="context-stroke" fill-opacity="54%"/>
</svg>
