<svg width="10" height="10" version="1.1" viewBox="0 0 2.6458332 2.6458334" xmlns="http://www.w3.org/2000/svg" fill="context-fill">
    <defs>
        <filter id="filter2_i_428_208" x="3" y="3" width="5.7124" height="6.2124" color-interpolation-filters="sRGB" filterUnits="userSpaceOnUse">
            <feFlood flood-opacity="0" result="BackgroundImageFix"/>
            <feBlend in="SourceGraphic" in2="BackgroundImageFix" result="shape"/>
            <feColorMatrix in="SourceAlpha" result="hardAlpha" values="0 0 0 0 0 0 0 0 0 0 0 0 0 0 0 0 0 0 127 0"/>
            <feOffset dy="0.5"/>
            <feGaussianBlur stdDeviation="0.5"/>
            <feComposite in2="hardAlpha" k2="-1" k3="1" operator="arithmetic"/>
            <feColorMatrix values="0 0 0 0 0 0 0 0 0 0 0 0 0 0 0 0 0 0 0.46 0"/>
            <feBlend in2="shape" result="effect1_innerShadow_428_208"/>
        </filter>
    </defs>
    <path d="m0.83199051 0.56741766c-0.0677128 0-0.13540481 0.0258521-0.18706867 0.0775147-0.10332509 0.10332773-0.10332509 0.27080964 0 0.37413734l0.30385741 0.3038574-0.30385741 0.3038574c-0.10332773 0.1033277-0.10332773 0.2708096 0 0.3741373 0.10332508 0.1033251 0.27081228 0.1033251 0.37413736 0l0.3038574-0.3038574 0.3038575 0.3038574c0.1033277 0.1033251 0.2708096 0.1033251 0.3741374 0 0.103325-0.1033277 0.103325-0.2708096 0-0.3741373l-0.3038575-0.3038574 0.3038575-0.3038574c0.1033277-0.10332774 0.1033277-0.27080965 0-0.37413738-0.1033251-0.10332508-0.2708123-0.10332508-0.3741374 0l-0.3038575 0.30385742-0.3038574-0.30385742c-0.05166386-0.05166254-0.11935584-0.07751466-0.18706869-0.07751466z"/>
    <g transform="matrix(.26458333 0 0 .26458333 -.22653624 -.22648333)" filter="url(#filter2_i_428_208)">
        <path transform="translate(.85619997 .856)" d="M 3.1445312,2.1445312 C 2.8886087,2.1445312 2.632765,2.24224 2.4375,2.4375 c -0.39052,0.39053 -0.39052,1.0235325 0,1.4140625 L 3.5859375,5 2.4375,6.1484375 c -0.39053,0.39053 -0.39053,1.0235325 0,1.4140625 0.39052,0.39052 1.0235425,0.39052 1.4140625,0 L 5,6.4140625 6.1484375,7.5625 c 0.39053,0.39052 1.0235325,0.39052 1.4140625,0 0.39052,-0.39053 0.39052,-1.0235325 0,-1.4140625 L 6.4140625,5 7.5625,3.8515625 C 7.95303,3.4610325 7.95303,2.82803 7.5625,2.4375 7.17198,2.04698 6.5389575,2.04698 6.1484375,2.4375 L 5,3.5859375 3.8515625,2.4375 C 3.6562975,2.24224 3.4004538,2.1445312 3.1445312,2.1445312 Z" fill="#000" fill-opacity=".01"/>
    </g>
</svg>
