<svg width="10" height="10" version="1.1" viewBox="0 0 2.6458332 2.6458334" xmlns="http://www.w3.org/2000/svg" fill="context-fill">
    <defs>
        <filter id="filter2_i_429_209" x="2" y="5" width="8" height="2.5" color-interpolation-filters="sRGB" filterUnits="userSpaceOnUse">
            <feFlood flood-opacity="0" result="BackgroundImageFix"/>
            <feBlend in="SourceGraphic" in2="BackgroundImageFix" result="shape"/>
            <feColorMatrix in="SourceAlpha" result="hardAlpha" values="0 0 0 0 0 0 0 0 0 0 0 0 0 0 0 0 0 0 127 0"/>
            <feOffset dy="0.5"/>
            <feGaussianBlur stdDeviation="0.5"/>
            <feComposite in2="hardAlpha" k2="-1" k3="1" operator="arithmetic"/>
            <feColorMatrix values="0 0 0 0 0 0 0 0 0 0 0 0 0 0 0 0 0 0 0.46 0"/>
            <feBlend in2="shape" result="effect1_innerShadow_429_209"/>
        </filter>
    </defs>
    <path d="m0.52916672 1.5875c-0.1461241 0-0.2645834-0.1184593-0.2645834-0.2645834 0-0.146124 0.1184593-0.2645833 0.2645834-0.2645833h1.5874999c0.1461268 0 0.2645834 0.1184593 0.2645834 0.2645833 0 0.1461241-0.1184566 0.2645834-0.2645834 0.2645834z"/>
    <g transform="matrix(.26458333 0 0 .26458333 -.26458333 -.26458333)" filter="url(#filter2_i_429_209)">
        <path d="m3 7c-0.55228 0-1-0.44772-1-1s0.44772-1 1-1h6c0.55229 0 1 0.44772 1 1s-0.44771 1-1 1z" fill="#000" fill-opacity=".01"/>
    </g>
</svg>
