<svg width="10" height="10" version="1.1" viewBox="0 0 2.6458332 2.6458334" xmlns="http://www.w3.org/2000/svg" fill="context-fill">
    <defs>
        <filter id="filter2_i_430_210" x="2" y="2" width="8" height="8.5" color-interpolation-filters="sRGB" filterUnits="userSpaceOnUse">
            <feFlood flood-opacity="0" result="BackgroundImageFix"/>
            <feBlend in="SourceGraphic" in2="BackgroundImageFix" result="shape"/>
            <feColorMatrix in="SourceAlpha" result="hardAlpha" values="0 0 0 0 0 0 0 0 0 0 0 0 0 0 0 0 0 0 127 0"/>
            <feOffset dy="0.5"/>
            <feGaussianBlur stdDeviation="0.5"/>
            <feComposite in2="hardAlpha" k2="-1" k3="1" operator="arithmetic"/>
            <feColorMatrix values="0 0 0 0 0 0 0 0 0 0 0 0 0 0 0 0 0 0 0.46 0"/>
            <feBlend in2="shape" result="effect1_innerShadow_430_210"/>
        </filter>
    </defs>
    <path d="m1.3229166 0.26458335c-0.146124 0-0.2645833 0.11845925-0.2645833 0.26458333v0.52916662h-0.52916662c-0.14612408 0-0.26458333 0.1184593-0.26458333 0.2645833 0 0.1461241 0.11845925 0.2645833 0.26458333 0.2645833h0.52916662v0.5291667c0 0.1461267 0.1184593 0.2645833 0.2645833 0.2645833 0.1461241 0 0.2645833-0.1184566 0.2645833-0.2645833v-0.5291667h0.5291667c0.1461267 0 0.2645833-0.1184592 0.2645833-0.2645833 0-0.146124-0.1184566-0.2645833-0.2645833-0.2645833h-0.5291667v-0.52916662c0-0.14612408-0.1184592-0.26458333-0.2645833-0.26458333z"/>
    <g transform="matrix(.26458333 0 0 .26458333 -.26458333 -.26458333)" filter="url(#filter2_i_430_210)">
        <path transform="translate(1,1)" d="m5 1c-0.55228 0-1 0.44772-1 1v2h-2c-0.55228 0-1 0.44772-1 1s0.44772 1 1 1h2v2c0 0.55229 0.44772 1 1 1s1-0.44771 1-1v-2h2c0.55229 0 1-0.44772 1-1s-0.44771-1-1-1h-2v-2c0-0.55228-0.44772-1-1-1z" fill="#000" fill-opacity=".01"/>
    </g>
</svg>
